<?xml version="1.0" encoding="utf-8"?>
<!-- Generator: Adobe Illustrator 19.2.1, SVG Export Plug-In . SVG Version: 6.00 Build 0)  -->
<svg version="1.1" id="Слой_1" xmlns="http://www.w3.org/2000/svg" xmlns:xlink="http://www.w3.org/1999/xlink" x="0px" y="0px"
	 viewBox="0 0 308 162" style="enable-background:new 0 0 308 162;" xml:space="preserve">
<style type="text/css">
	.st0{fill:#ECDAC5;}
	.st1{fill:#C5D6C6;}
	.st2{fill:#C3D0D8;}
	.st3{fill:#7687C6;}
	.st4{fill:#9B9B9B;}
	.st5{fill:#897979;}
	.st6{fill:none;stroke:#000000;stroke-width:2;stroke-linecap:round;stroke-miterlimit:1.5;}
	.st7{fill:none;stroke:#000000;stroke-width:2;stroke-miterlimit:1.5;}
	.st8{fill:none;stroke:#000000;stroke-miterlimit:1.5;}
</style>
<rect x="36" y="120" class="st0" width="142" height="28"/>
<rect x="139" y="123" class="st1" width="39" height="22"/>
<rect x="58" y="73" class="st2" width="35" height="6"/>
<rect x="112" y="73" class="st2" width="41" height="6"/>
<rect x="57" y="81" class="st0" width="37" height="37"/>
<rect x="57" y="68" class="st3" width="37" height="3"/>
<rect x="111" y="68" class="st3" width="43" height="3"/>
<rect x="111" y="81" class="st0" width="43" height="37"/>
<rect x="57" y="84" class="st2" width="2" height="15"/>
<rect x="65" y="84" class="st2" width="7" height="15"/>
<rect x="79" y="84" class="st2" width="7" height="15"/>
<rect x="119" y="84" class="st2" width="7" height="15"/>
<rect x="139" y="84" class="st2" width="7" height="15"/>
<rect x="131" y="84" class="st2" width="3" height="15"/>
<rect x="131" y="103" class="st2" width="3" height="15"/>
<rect x="111" y="103" class="st2" width="2" height="15"/>
<rect x="111" y="84" class="st2" width="2" height="15"/>
<rect x="152" y="84" class="st2" width="2" height="15"/>
<rect x="152" y="103" class="st2" width="2" height="7"/>
<rect x="119" y="103" class="st2" width="7" height="15"/>
<rect x="139" y="103" class="st2" width="7" height="15"/>
<rect x="92" y="84" class="st2" width="2" height="15"/>
<rect x="57" y="103" class="st2" width="2" height="15"/>
<rect x="65" y="103" class="st2" width="7" height="15"/>
<rect x="66.5" y="123" class="st4" width="18" height="22"/>
<rect x="108.5" y="123" class="st4" width="12" height="22"/>
<rect x="79" y="103" class="st2" width="7" height="15"/>
<rect x="92" y="103" class="st2" width="2" height="15"/>
<rect x="65" y="84" class="st3" width="1" height="15"/>
<rect x="58" y="84" class="st3" width="1" height="15"/>
<rect x="79" y="84" class="st3" width="1" height="15"/>
<rect x="119" y="84" class="st3" width="1" height="15"/>
<rect x="139" y="84" class="st3" width="1" height="15"/>
<rect x="119" y="103" class="st3" width="1" height="15"/>
<rect x="139" y="103" class="st3" width="1" height="15"/>
<rect x="65" y="103" class="st3" width="1" height="15"/>
<rect x="58" y="103" class="st3" width="1" height="15"/>
<rect x="79" y="103" class="st3" width="1" height="15"/>
<rect x="71" y="84" class="st3" width="1" height="15"/>
<rect x="85" y="84" class="st3" width="1" height="15"/>
<rect x="125" y="84" class="st3" width="1" height="15"/>
<rect x="145" y="84" class="st3" width="1" height="15"/>
<rect x="125" y="103" class="st3" width="1" height="15"/>
<rect x="145" y="103" class="st3" width="1" height="15"/>
<rect x="92" y="84" class="st3" width="1" height="15"/>
<rect x="111" y="84" class="st3" width="1" height="15"/>
<rect x="152" y="84" class="st3" width="1" height="15"/>
<rect x="71" y="103" class="st3" width="1" height="15"/>
<rect x="85" y="103" class="st3" width="1" height="15"/>
<rect x="92" y="103" class="st3" width="1" height="15"/>
<rect x="111" y="103" class="st3" width="1" height="15"/>
<rect x="152" y="103" class="st3" width="1" height="7"/>
<rect x="146" y="112" class="st4" width="108" height="6"/>
<rect x="180" y="116" class="st4" width="74" height="6"/>
<rect x="240" y="122" class="st4" width="14" height="26"/>
<rect x="180" y="124" class="st0" width="58" height="24"/>
<rect x="45" y="150" class="st4" width="39" height="10"/>
<rect x="85" y="150" class="st5" width="53" height="10"/>
<rect x="180" y="150" class="st5" width="65" height="10"/>
<rect x="139" y="150" class="st4" width="39" height="10"/>
<rect x="35" y="119" class="st6" width="144" height="30"/>
<rect x="44" y="149" class="st6" width="202" height="12"/>
<rect x="179" y="123" class="st6" width="60" height="26"/>
<polyline class="st6" points="145,119 145,111 255,111 255,149 239,149 "/>
<line class="st7" x1="16" y1="161" x2="308" y2="161"/>
<rect x="56" y="80" class="st7" width="39" height="39"/>
<rect x="56" y="67" class="st7" width="39" height="5"/>
<polyline class="st7" points="155,112 155,80 110,80 110,119 145,119 "/>
<rect x="110" y="67" class="st7" width="45" height="5"/>
<line class="st8" x1="57.5" y1="72.1" x2="57.5" y2="79.9"/>
<line class="st8" x1="60.5" y1="72.1" x2="60.5" y2="79.9"/>
<line class="st8" x1="63.5" y1="72.1" x2="63.5" y2="79.9"/>
<line class="st8" x1="66.5" y1="72.1" x2="66.5" y2="79.9"/>
<line class="st8" x1="69.5" y1="72.1" x2="69.5" y2="79.9"/>
<line class="st8" x1="72.5" y1="72.1" x2="72.5" y2="79.9"/>
<line class="st8" x1="75.5" y1="72.1" x2="75.5" y2="79.9"/>
<line class="st8" x1="78.5" y1="72.1" x2="78.5" y2="79.9"/>
<line class="st8" x1="81.5" y1="72.1" x2="81.5" y2="79.9"/>
<line class="st8" x1="84.5" y1="72.1" x2="84.5" y2="79.9"/>
<line class="st8" x1="87.5" y1="72.1" x2="87.5" y2="79.9"/>
<line class="st8" x1="90.5" y1="72" x2="90.5" y2="79.8"/>
<line class="st8" x1="93.5" y1="72.1" x2="93.5" y2="79.9"/>
<line class="st8" x1="111.5" y1="72.1" x2="111.5" y2="79.9"/>
<line class="st8" x1="114.5" y1="72.1" x2="114.5" y2="79.9"/>
<line class="st8" x1="117.5" y1="72.1" x2="117.5" y2="79.9"/>
<line class="st8" x1="120.5" y1="72.1" x2="120.5" y2="79.9"/>
<line class="st8" x1="123.5" y1="72.1" x2="123.5" y2="79.9"/>
<line class="st8" x1="126.5" y1="72.1" x2="126.5" y2="79.9"/>
<line class="st8" x1="129.5" y1="72.1" x2="129.5" y2="79.9"/>
<line class="st8" x1="132.5" y1="72.1" x2="132.5" y2="79.9"/>
<line class="st8" x1="135.5" y1="72.1" x2="135.5" y2="79.9"/>
<line class="st8" x1="138.5" y1="72.1" x2="138.5" y2="79.9"/>
<line class="st8" x1="141.5" y1="72.1" x2="141.5" y2="79.9"/>
<line class="st8" x1="144.5" y1="72" x2="144.5" y2="79.8"/>
<line class="st8" x1="147.5" y1="72.1" x2="147.5" y2="79.9"/>
<line class="st8" x1="150.5" y1="72.2" x2="150.5" y2="79.9"/>
<line class="st8" x1="153.5" y1="72.2" x2="153.5" y2="80"/>
<rect x="56" y="83.5" class="st8" width="3.5" height="16"/>
<rect x="56" y="102.5" class="st8" width="3.5" height="16"/>
<rect x="91.5" y="83.5" class="st8" width="3.5" height="16"/>
<rect x="110" y="83.5" class="st8" width="3.5" height="16"/>
<rect x="151.5" y="83.5" class="st8" width="3.5" height="16"/>
<rect x="91.5" y="102.5" class="st8" width="3.5" height="16"/>
<rect x="110" y="102.5" class="st8" width="3.5" height="16"/>
<rect x="151.5" y="102.5" class="st8" width="3.5" height="8"/>
<rect x="64.5" y="83.5" class="st8" width="8" height="16"/>
<rect x="118.5" y="83.5" class="st8" width="8" height="16"/>
<rect x="118.5" y="102.5" class="st8" width="8" height="16"/>
<rect x="130.5" y="83.5" class="st8" width="4" height="16"/>
<rect x="130.5" y="102.5" class="st8" width="4" height="16"/>
<rect x="138.5" y="83.5" class="st8" width="8" height="16"/>
<polyline class="st8" points="146.5,110.8 146.5,102.5 138.5,102.5 138.5,118.5 144.5,118.5 "/>
<rect x="64.5" y="102.5" class="st8" width="8" height="16"/>
<rect x="78.5" y="83.5" class="st8" width="8" height="16"/>
<rect x="78.5" y="102.5" class="st8" width="8" height="16"/>
<line class="st8" x1="57.5" y1="76.5" x2="93.5" y2="76.5"/>
<line class="st8" x1="111.5" y1="76.5" x2="153.5" y2="76.5"/>
<line class="st8" x1="56.5" y1="86.5" x2="59.5" y2="86.5"/>
<line class="st8" x1="56.5" y1="105.5" x2="59.5" y2="105.5"/>
<line class="st8" x1="91.5" y1="86.5" x2="94.5" y2="86.5"/>
<line class="st8" x1="110" y1="86.5" x2="113" y2="86.5"/>
<line class="st8" x1="151.5" y1="86.5" x2="154.5" y2="86.5"/>
<line class="st8" x1="91.5" y1="105.5" x2="94.5" y2="105.5"/>
<line class="st8" x1="110" y1="105.5" x2="113" y2="105.5"/>
<line class="st8" x1="151.5" y1="105.5" x2="154.5" y2="105.5"/>
<line class="st8" x1="56.5" y1="96.5" x2="59.5" y2="96.5"/>
<line class="st8" x1="56.5" y1="115.5" x2="59.5" y2="115.5"/>
<line class="st8" x1="91.5" y1="96.5" x2="94.5" y2="96.5"/>
<line class="st8" x1="110" y1="96.5" x2="113" y2="96.5"/>
<line class="st8" x1="151.5" y1="96.5" x2="154.5" y2="96.5"/>
<line class="st8" x1="91.5" y1="115.5" x2="94.5" y2="115.5"/>
<line class="st8" x1="110" y1="115.5" x2="113" y2="115.5"/>
<line class="st8" x1="56.5" y1="91.5" x2="59.5" y2="91.5"/>
<line class="st8" x1="56.5" y1="110.5" x2="59.5" y2="110.5"/>
<line class="st8" x1="91.5" y1="91.5" x2="94.5" y2="91.5"/>
<line class="st8" x1="110" y1="91.5" x2="113" y2="91.5"/>
<line class="st8" x1="151.5" y1="91.5" x2="154.5" y2="91.5"/>
<line class="st8" x1="91.5" y1="110.5" x2="94.5" y2="110.5"/>
<line class="st8" x1="110" y1="110.5" x2="113" y2="110.5"/>
<line class="st8" x1="64.5" y1="86.5" x2="72.5" y2="86.5"/>
<line class="st8" x1="118.5" y1="86.5" x2="126.5" y2="86.5"/>
<line class="st8" x1="118.5" y1="105.5" x2="126.5" y2="105.5"/>
<line class="st8" x1="130.5" y1="86.5" x2="134.5" y2="86.5"/>
<line class="st8" x1="130.5" y1="105.5" x2="134.5" y2="105.5"/>
<line class="st8" x1="138.5" y1="86.5" x2="146.5" y2="86.5"/>
<line class="st8" x1="138.5" y1="105.5" x2="146.5" y2="105.5"/>
<line class="st8" x1="64.5" y1="105.5" x2="72.5" y2="105.5"/>
<line class="st8" x1="64.5" y1="96.5" x2="72.5" y2="96.5"/>
<line class="st8" x1="118.5" y1="96.5" x2="126.5" y2="96.5"/>
<line class="st8" x1="118.5" y1="115.5" x2="126.5" y2="115.5"/>
<line class="st8" x1="130.5" y1="96.5" x2="134.5" y2="96.5"/>
<line class="st8" x1="130.5" y1="115.5" x2="134.5" y2="115.5"/>
<line class="st8" x1="138.5" y1="96.5" x2="146.5" y2="96.5"/>
<line class="st8" x1="138.5" y1="115.5" x2="145" y2="115.5"/>
<line class="st8" x1="64.5" y1="115.5" x2="72.5" y2="115.5"/>
<line class="st8" x1="64.5" y1="91.5" x2="72.5" y2="91.5"/>
<line class="st8" x1="118.5" y1="91.5" x2="126.5" y2="91.5"/>
<line class="st8" x1="118.5" y1="110.5" x2="126.5" y2="110.5"/>
<line class="st8" x1="130.5" y1="91.5" x2="134.5" y2="91.5"/>
<line class="st8" x1="130.5" y1="110.5" x2="134.5" y2="110.5"/>
<line class="st8" x1="138.5" y1="91.5" x2="146.5" y2="91.5"/>
<line class="st8" x1="138.5" y1="110.5" x2="146.5" y2="110.5"/>
<line class="st8" x1="64.5" y1="110.5" x2="72.5" y2="110.5"/>
<line class="st8" x1="78" y1="86.5" x2="86" y2="86.5"/>
<line class="st8" x1="78" y1="105.5" x2="86" y2="105.5"/>
<line class="st8" x1="78" y1="96.5" x2="86" y2="96.5"/>
<line class="st8" x1="78" y1="115.5" x2="86" y2="115.5"/>
<line class="st8" x1="78" y1="91.5" x2="86" y2="91.5"/>
<line class="st8" x1="78" y1="110.5" x2="86" y2="110.5"/>
<line class="st8" x1="66.5" y1="83.5" x2="66.5" y2="99.5"/>
<line class="st8" x1="120.5" y1="83.5" x2="120.5" y2="99.5"/>
<line class="st8" x1="120.5" y1="102.5" x2="120.5" y2="118.5"/>
<line class="st8" x1="140.5" y1="83.5" x2="140.5" y2="99.5"/>
<line class="st8" x1="140.5" y1="102.5" x2="140.5" y2="118.5"/>
<line class="st8" x1="132.5" y1="84" x2="132.5" y2="100"/>
<line class="st8" x1="132.5" y1="103" x2="132.5" y2="119"/>
<line class="st8" x1="66.5" y1="102.5" x2="66.5" y2="118.5"/>
<line class="st8" x1="80.5" y1="83.5" x2="80.5" y2="99.5"/>
<line class="st8" x1="80.5" y1="102.5" x2="80.5" y2="118.5"/>
<line class="st8" x1="70.5" y1="83.5" x2="70.5" y2="99.5"/>
<line class="st8" x1="124.5" y1="83.5" x2="124.5" y2="99.5"/>
<line class="st8" x1="124.5" y1="102.5" x2="124.5" y2="118.5"/>
<line class="st8" x1="144.5" y1="83.5" x2="144.5" y2="99.5"/>
<line class="st8" x1="144.5" y1="102.5" x2="144.5" y2="118.5"/>
<line class="st8" x1="70.5" y1="102.5" x2="70.5" y2="118.5"/>
<line class="st8" x1="84.5" y1="83.5" x2="84.5" y2="99.5"/>
<line class="st8" x1="84.5" y1="102.5" x2="84.5" y2="118.5"/>
<rect x="138.5" y="122.5" class="st8" width="40" height="23"/>
<rect x="66.5" y="122.5" class="st8" width="18" height="23"/>
<rect x="108.5" y="122.5" class="st8" width="12" height="23"/>
<line class="st8" x1="140.5" y1="122.5" x2="140.5" y2="145.5"/>
<line class="st8" x1="140.5" y1="122.5" x2="140.5" y2="145.5"/>
<line class="st8" x1="142.5" y1="122.5" x2="142.5" y2="145.5"/>
<line class="st8" x1="144.5" y1="122.5" x2="144.5" y2="145.5"/>
<line class="st8" x1="146.5" y1="122.5" x2="146.5" y2="145.5"/>
<line class="st8" x1="148.5" y1="122.5" x2="148.5" y2="145.5"/>
<line class="st8" x1="150.5" y1="122.5" x2="150.5" y2="145.5"/>
<line class="st8" x1="152.5" y1="122.5" x2="152.5" y2="145.5"/>
<line class="st8" x1="154.5" y1="122.5" x2="154.5" y2="145.5"/>
<line class="st8" x1="156.5" y1="122.5" x2="156.5" y2="145.5"/>
<line class="st8" x1="158.5" y1="122.5" x2="158.5" y2="145.5"/>
<line class="st8" x1="160.5" y1="122.5" x2="160.5" y2="145.5"/>
<line class="st8" x1="162.5" y1="122.5" x2="162.5" y2="145.5"/>
<line class="st8" x1="164.5" y1="122.5" x2="164.5" y2="145.5"/>
<line class="st8" x1="166.5" y1="122.5" x2="166.5" y2="145.5"/>
<line class="st8" x1="168.5" y1="122.5" x2="168.5" y2="145.5"/>
<line class="st8" x1="170.5" y1="122.5" x2="170.5" y2="145.5"/>
<line class="st8" x1="172.5" y1="122.5" x2="172.5" y2="145.5"/>
<line class="st8" x1="174.5" y1="122.5" x2="174.5" y2="145.5"/>
<line class="st8" x1="176.5" y1="122.5" x2="176.5" y2="145.5"/>
<line class="st8" x1="69.5" y1="122.5" x2="69.5" y2="145.5"/>
<line class="st8" x1="72.5" y1="122.5" x2="72.5" y2="145.5"/>
<line class="st8" x1="75.5" y1="122.5" x2="75.5" y2="145.5"/>
<line class="st8" x1="81.5" y1="122.5" x2="81.5" y2="145.5"/>
<line class="st8" x1="78.5" y1="122.5" x2="78.5" y2="145.5"/>
<line class="st8" x1="111.5" y1="122" x2="111.5" y2="145"/>
<line class="st8" x1="114.5" y1="122" x2="114.5" y2="145"/>
<line class="st8" x1="117.5" y1="122" x2="117.5" y2="145"/>
<line class="st8" x1="66.5" y1="128.5" x2="84.5" y2="128.5"/>
<line class="st8" x1="108.5" y1="128.5" x2="120" y2="128.5"/>
<line class="st8" x1="66.5" y1="139.5" x2="84.5" y2="139.5"/>
<line class="st8" x1="108.5" y1="139.5" x2="120" y2="139.5"/>
<line class="st8" x1="138.5" y1="149" x2="138.5" y2="161"/>
<line class="st8" x1="48.5" y1="149" x2="48.5" y2="161"/>
<line class="st8" x1="142.5" y1="149" x2="142.5" y2="161"/>
<line class="st8" x1="52.5" y1="149" x2="52.5" y2="161"/>
<line class="st8" x1="142.5" y1="149" x2="142.5" y2="161"/>
<line class="st8" x1="56.5" y1="149" x2="56.5" y2="161"/>
<line class="st8" x1="150.5" y1="149" x2="150.5" y2="161"/>
<line class="st8" x1="60.5" y1="149" x2="60.5" y2="161"/>
<line class="st8" x1="154.5" y1="149" x2="154.5" y2="161"/>
<line class="st8" x1="64.5" y1="149" x2="64.5" y2="161"/>
<line class="st8" x1="158.5" y1="149" x2="158.5" y2="161"/>
<line class="st8" x1="68.5" y1="149" x2="68.5" y2="161"/>
<line class="st8" x1="162.5" y1="149" x2="162.5" y2="161"/>
<line class="st8" x1="72.5" y1="149" x2="72.5" y2="161"/>
<line class="st8" x1="166.5" y1="149" x2="166.5" y2="161"/>
<line class="st8" x1="76.5" y1="149" x2="76.5" y2="161"/>
<line class="st8" x1="170.5" y1="149" x2="170.5" y2="161"/>
<line class="st8" x1="80.5" y1="149" x2="80.5" y2="161"/>
<line class="st8" x1="174.5" y1="149" x2="174.5" y2="161"/>
<line class="st8" x1="84.5" y1="149" x2="84.5" y2="161"/>
<line class="st7" x1="179" y1="149" x2="179" y2="161"/>
<line class="st7" x1="235" y1="127" x2="220" y2="127"/>
<line class="st7" x1="235" y1="130" x2="225" y2="130"/>
<line class="st8" x1="146.5" y1="149" x2="146.5" y2="161"/>
</svg>
