<?xml version="1.0" encoding="utf-8"?>
<!-- Generator: Adobe Illustrator 19.1.0, SVG Export Plug-In . SVG Version: 6.00 Build 0)  -->
<svg version="1.1" id="Layer_1" xmlns="http://www.w3.org/2000/svg" xmlns:xlink="http://www.w3.org/1999/xlink" x="0px" y="0px"
	 viewBox="-151 316 308 162" style="enable-background:new -151 316 308 162;" xml:space="preserve">
<style type="text/css">
	.st0{fill:none;stroke:#4D504F;stroke-width:2;stroke-miterlimit:10;}
	.st1{fill:#FFFFFF;stroke:#4D504F;stroke-miterlimit:10;}
	.st2{fill:none;stroke:#4D504F;stroke-miterlimit:10;}
</style>
<g>
	<line class="st0" x1="-58" y1="379.4" x2="63.9" y2="379.4"/>
	<polyline class="st0" points="60.3,408.9 60.3,384.3 -54.4,384.3 -54.4,408.9 	"/>
	<polyline class="st0" points="52.3,463 52.3,477 -46.4,477 -46.4,463 	"/>
	<line class="st0" x1="-68.1" y1="477" x2="157" y2="477"/>
	<rect x="-25.7" y="363" class="st0" width="57.3" height="100"/>
	<rect x="-25.7" y="363" class="st0" width="57.3" height="100"/>
	<polygon class="st1" points="-31.7,413.9 -68,406.3 -56.9,463 -31.7,463 	"/>
	<polygon class="st0" points="-31.7,413.9 -68,406.3 -56.9,463 -31.7,463 	"/>
	<polygon class="st1" points="37.6,413.9 37.6,463 62.8,463 74,406.3 	"/>
	<polygon class="st0" points="37.6,413.9 37.6,463 62.8,463 74,406.3 	"/>
	<line class="st0" x1="-17.6" y1="463" x2="-17.6" y2="477"/>
	<line class="st0" x1="23.6" y1="463" x2="23.6" y2="477"/>
	<line class="st2" x1="-11.3" y1="463" x2="-11.3" y2="363"/>
	<line class="st2" x1="3" y1="463" x2="3" y2="363"/>
	<line class="st2" x1="17.3" y1="463" x2="17.3" y2="363"/>
	<line class="st2" x1="-25.7" y1="457" x2="31.6" y2="457"/>
	<line class="st2" x1="-25.7" y1="446.3" x2="31.6" y2="446.3"/>
	<line class="st2" x1="-25.7" y1="440.3" x2="31.6" y2="440.3"/>
	<line class="st2" x1="-25.7" y1="429.6" x2="31.6" y2="429.6"/>
	<line class="st2" x1="-25.7" y1="423.7" x2="31.6" y2="423.7"/>
	<line class="st2" x1="-25.7" y1="413" x2="31.6" y2="413"/>
	<line class="st2" x1="-25.7" y1="407" x2="31.6" y2="407"/>
	<line class="st2" x1="-25.7" y1="396.3" x2="31.6" y2="396.3"/>
	<line class="st2" x1="-25.7" y1="390.4" x2="31.6" y2="390.4"/>
	<line class="st2" x1="-25.7" y1="379.7" x2="31.6" y2="379.7"/>
	<line class="st2" x1="-25.7" y1="373.7" x2="31.6" y2="373.7"/>
	<line class="st2" x1="51.9" y1="463" x2="51.9" y2="411"/>
	<line class="st2" x1="66.2" y1="446.3" x2="66.2" y2="408"/>
	<line class="st2" x1="37.6" y1="457" x2="65" y2="457"/>
	<line class="st2" x1="37.6" y1="446.3" x2="66.9" y2="446.3"/>
	<line class="st2" x1="37.6" y1="440.3" x2="68.1" y2="440.3"/>
	<line class="st2" x1="37.6" y1="429.6" x2="70.1" y2="429.6"/>
	<line class="st2" x1="37.6" y1="423.7" x2="71.2" y2="423.7"/>
	<line class="st2" x1="43" y1="413" x2="72.9" y2="413"/>
	<line class="st2" x1="-45.9" y1="463" x2="-45.9" y2="411"/>
	<line class="st2" x1="-60.2" y1="446.3" x2="-60.2" y2="408"/>
	<line class="st2" x1="-31.6" y1="457" x2="-58.9" y2="457"/>
	<line class="st2" x1="-31.6" y1="446.3" x2="-60.9" y2="446.3"/>
	<line class="st2" x1="-31.6" y1="440.3" x2="-62.1" y2="440.3"/>
	<line class="st2" x1="-31.6" y1="429.6" x2="-64" y2="429.6"/>
	<line class="st2" x1="-31.6" y1="423.7" x2="-65.2" y2="423.7"/>
	<line class="st2" x1="-37.8" y1="413" x2="-66.9" y2="413"/>
	<rect x="-5.6" y="469" class="st2" width="17.2" height="8"/>
</g>
</svg>
