<?xml version="1.0" encoding="utf-8"?>
<!-- Generator: Adobe Illustrator 19.0.0, SVG Export Plug-In . SVG Version: 6.00 Build 0)  -->
<svg version="1.1" id="Layer_1" xmlns="http://www.w3.org/2000/svg" xmlns:xlink="http://www.w3.org/1999/xlink" x="0px" y="0px"
	 viewBox="-143 339.9 308 162" style="enable-background:new -143 339.9 308 162;" xml:space="preserve">
<style type="text/css">
	.st0{fill:none;stroke:#4D504F;stroke-width:2;stroke-miterlimit:10;}
	.st1{fill:none;stroke:#4D504F;stroke-miterlimit:10;}
</style>
<line id="XMLID_3344_" class="st0" x1="-139.1" y1="500.9" x2="165" y2="500.9"/>
<rect id="XMLID_2322_" x="-31.3" y="440.8" class="st0" width="84.3" height="60.1"/>
<rect id="XMLID_3195_" x="-122.1" y="440.8" class="st0" width="62" height="60.1"/>
<rect id="XMLID_2993_" x="-7.8" y="482.9" class="st0" width="37.3" height="18"/>
<line id="XMLID_3006_" class="st0" x1="-43.3" y1="488.3" x2="65" y2="488.3"/>
<line id="XMLID_3007_" class="st1" x1="-31.3" y1="497.4" x2="-7.8" y2="497.4"/>
<line id="XMLID_3263_" class="st1" x1="-122.1" y1="497.4" x2="-105.8" y2="497.4"/>
<line id="XMLID_3264_" class="st1" x1="-84.6" y1="497.4" x2="-77.2" y2="497.4"/>
<line id="XMLID_3009_" class="st1" x1="29.5" y1="497.4" x2="53" y2="497.4"/>
<line id="XMLID_3265_" class="st1" x1="103" y1="497.4" x2="130.9" y2="497.4"/>
<rect id="XMLID_3008_" x="-60.1" y="425.9" class="st0" width="28.8" height="75"/>
<rect id="XMLID_3010_" x="-56" y="440.8" class="st1" width="10.3" height="40.4"/>
<rect id="XMLID_3012_" x="-42" y="440.8" class="st1" width="6.6" height="5.8"/>
<rect id="XMLID_3013_" x="-42" y="452.3" class="st1" width="6.6" height="5.8"/>
<rect id="XMLID_3014_" x="-42" y="463.9" class="st1" width="6.6" height="5.8"/>
<rect id="XMLID_3015_" x="-42" y="475.4" class="st1" width="6.6" height="5.8"/>
<rect id="XMLID_3194_" x="53" y="425.9" class="st0" width="28.8" height="75"/>
<rect id="XMLID_3193_" x="67.4" y="440.8" class="st1" width="10.3" height="40.4"/>
<rect id="XMLID_3191_" x="57.2" y="440.8" class="st1" width="6.6" height="5.8"/>
<rect id="XMLID_3190_" x="57.2" y="452.3" class="st1" width="6.6" height="5.8"/>
<rect id="XMLID_3188_" x="57.2" y="463.9" class="st1" width="6.6" height="5.8"/>
<rect id="XMLID_3016_" x="57.2" y="475.4" class="st1" width="6.6" height="5.8"/>
<rect id="XMLID_3011_" x="-81.2" y="482.9" class="st1" width="21.1" height="14.5"/>
<rect id="XMLID_3198_" x="-105.8" y="482.9" class="st1" width="21.1" height="18"/>
<rect id="XMLID_3248_" x="81.8" y="440.8" class="st0" width="49.1" height="60.1"/>
<rect id="XMLID_3231_" x="81.8" y="482.9" class="st1" width="21.1" height="18"/>
<rect id="XMLID_3217_" x="106.4" y="482.9" class="st1" width="21.1" height="14.5"/>
</svg>
