<svg id="Слой_1" data-name="Слой 1" xmlns="http://www.w3.org/2000/svg" viewBox="0 0 285 150"><defs><style>.cls-1{fill:#0094b1;}.cls-2{fill:#f4dcc6;}.cls-3,.cls-4,.cls-5{fill:none;stroke:#4d504f;stroke-miterlimit:10;}.cls-3{stroke-width:2.98px;}.cls-4{stroke-width:1.49px;}.cls-5{stroke-width:2.35px;}</style></defs><title>cd_leningradskiy</title><rect class="cls-1" x="273.4" y="70.74" width="7.64" height="15.54"/><rect class="cls-1" x="5" y="71.28" width="6.84" height="14.46"/><rect id="_Контур_" data-name=" Контур " class="cls-1" x="11.92" y="69.55" width="261.49" height="79.55"/><rect id="_Контур_4" data-name=" Контур 4" class="cls-2" x="5" y="65.67" width="275.15" height="4.72"/><rect id="_Контур_6" data-name=" Контур 6" class="cls-2" x="75.31" y="107.67" width="39.62" height="20.61"/><rect id="_Контур_6-2" data-name=" Контур 6" class="cls-2" x="122.86" y="86.47" width="39.62" height="20.61"/><rect id="_Контур_6-3" data-name=" Контур 6" class="cls-2" x="170.4" y="107.67" width="39.62" height="20.61"/><rect id="_Контур_6-4" data-name=" Контур 6" class="cls-2" x="217.94" y="85.28" width="39.62" height="20.61"/><g id="_Группа_" data-name=" Группа "><rect id="_Прямоугольник_" data-name=" Прямоугольник " class="cls-3" x="4" y="65.28" width="277.34" height="21"/><polyline id="_Контур_2" data-name=" Контур " class="cls-3" points="11.92 86.28 273.4 86.28 273.4 107.28 81.65 107.28"/><polyline id="_Контур_2-2" data-name=" Контур 2" class="cls-3" points="85.74 107.28 273.4 107.28 273.4 128.28 85.37 128.28"/><line id="_Контур_3" data-name=" Контур 3" class="cls-4" x1="4" y1="70.74" x2="281.33" y2="70.74"/><g id="_Группа_2" data-name=" Группа 2"><line id="_Контур_4-2" data-name=" Контур 4" class="cls-4" x1="4" y1="86.28" x2="4" y2="70.74"/><line id="_Контур_5" data-name=" Контур 5" class="cls-4" x1="11.92" y1="86.28" x2="11.92" y2="70.74"/><line id="_Контур_6-5" data-name=" Контур 6" class="cls-4" x1="19.85" y1="86.28" x2="19.85" y2="70.74"/><line id="_Контур_7" data-name=" Контур 7" class="cls-4" x1="27.77" y1="86.28" x2="27.77" y2="70.74"/><line id="_Контур_8" data-name=" Контур 8" class="cls-4" x1="35.69" y1="86.28" x2="35.69" y2="70.74"/><line id="_Контур_9" data-name=" Контур 9" class="cls-4" x1="43.62" y1="86.28" x2="43.62" y2="70.74"/><line id="_Контур_10" data-name=" Контур 10" class="cls-4" x1="51.54" y1="86.28" x2="51.54" y2="70.74"/><line id="_Контур_11" data-name=" Контур 11" class="cls-4" x1="59.47" y1="86.28" x2="59.47" y2="70.74"/><line id="_Контур_12" data-name=" Контур 12" class="cls-4" x1="67.39" y1="86.28" x2="67.39" y2="70.74"/><line id="_Контур_13" data-name=" Контур 13" class="cls-4" x1="75.31" y1="86.28" x2="75.31" y2="70.74"/><line id="_Контур_14" data-name=" Контур 14" class="cls-4" x1="83.24" y1="86.28" x2="83.24" y2="70.74"/><line id="_Контур_15" data-name=" Контур 15" class="cls-4" x1="91.16" y1="86.28" x2="91.16" y2="70.74"/><line id="_Контур_16" data-name=" Контур 16" class="cls-4" x1="99.08" y1="86.28" x2="99.08" y2="70.74"/><line id="_Контур_17" data-name=" Контур 17" class="cls-4" x1="107.01" y1="86.28" x2="107.01" y2="70.74"/><line id="_Контур_18" data-name=" Контур 18" class="cls-4" x1="114.93" y1="86.28" x2="114.93" y2="70.74"/><line id="_Контур_19" data-name=" Контур 19" class="cls-4" x1="122.85" y1="86.28" x2="122.85" y2="70.74"/><line id="_Контур_20" data-name=" Контур 20" class="cls-4" x1="130.78" y1="86.28" x2="130.78" y2="70.74"/><line id="_Контур_21" data-name=" Контур 21" class="cls-4" x1="138.7" y1="86.28" x2="138.7" y2="70.74"/><line id="_Контур_22" data-name=" Контур 22" class="cls-4" x1="146.63" y1="86.28" x2="146.63" y2="70.74"/><line id="_Контур_23" data-name=" Контур 23" class="cls-4" x1="154.55" y1="86.28" x2="154.55" y2="70.74"/><line id="_Контур_24" data-name=" Контур 24" class="cls-4" x1="162.47" y1="86.28" x2="162.47" y2="70.74"/><line id="_Контур_25" data-name=" Контур 25" class="cls-4" x1="170.4" y1="86.28" x2="170.4" y2="70.74"/><line id="_Контур_26" data-name=" Контур 26" class="cls-4" x1="178.32" y1="86.28" x2="178.32" y2="70.74"/><line id="_Контур_27" data-name=" Контур 27" class="cls-4" x1="186.24" y1="86.28" x2="186.24" y2="70.74"/><line id="_Контур_28" data-name=" Контур 28" class="cls-4" x1="194.17" y1="86.28" x2="194.17" y2="70.74"/><line id="_Контур_29" data-name=" Контур 29" class="cls-4" x1="202.09" y1="86.28" x2="202.09" y2="70.74"/><line id="_Контур_30" data-name=" Контур 30" class="cls-4" x1="210.02" y1="86.28" x2="210.02" y2="70.74"/><line id="_Контур_31" data-name=" Контур 31" class="cls-4" x1="217.94" y1="86.28" x2="217.94" y2="70.74"/><line id="_Контур_32" data-name=" Контур 32" class="cls-4" x1="225.86" y1="86.28" x2="225.86" y2="70.74"/><line id="_Контур_33" data-name=" Контур 33" class="cls-4" x1="233.79" y1="86.28" x2="233.79" y2="70.74"/><line id="_Контур_34" data-name=" Контур 34" class="cls-4" x1="241.71" y1="86.28" x2="241.71" y2="70.74"/><line id="_Контур_35" data-name=" Контур 35" class="cls-4" x1="249.63" y1="86.28" x2="249.63" y2="70.74"/><line id="_Контур_36" data-name=" Контур 36" class="cls-4" x1="257.56" y1="86.28" x2="257.56" y2="70.74"/><line id="_Контур_37" data-name=" Контур 37" class="cls-4" x1="265.48" y1="86.28" x2="265.48" y2="70.74"/><line id="_Контур_38" data-name=" Контур 38" class="cls-4" x1="273.4" y1="86.28" x2="273.4" y2="70.74"/><line id="_Контур_39" data-name=" Контур 39" class="cls-4" x1="281.33" y1="86.28" x2="281.33" y2="70.74"/></g><g id="_Группа_3" data-name=" Группа 3"><line id="_Контур_40" data-name=" Контур 40" class="cls-4" x1="91.16" y1="149.1" x2="91.16" y2="128.28"/><line id="_Контур_41" data-name=" Контур 41" class="cls-4" x1="107.01" y1="149.1" x2="107.01" y2="128.28"/><line id="_Контур_42" data-name=" Контур 42" class="cls-4" x1="122.85" y1="149.1" x2="122.85" y2="128.28"/><line id="_Контур_43" data-name=" Контур 43" class="cls-4" x1="138.7" y1="149.1" x2="138.7" y2="128.28"/><line id="_Контур_44" data-name=" Контур 44" class="cls-4" x1="154.55" y1="149.1" x2="154.55" y2="128.28"/><line id="_Контур_45" data-name=" Контур 45" class="cls-4" x1="170.4" y1="149.1" x2="170.4" y2="128.28"/><line id="_Контур_46" data-name=" Контур 46" class="cls-4" x1="186.24" y1="149.1" x2="186.24" y2="128.28"/><line id="_Контур_47" data-name=" Контур 47" class="cls-4" x1="202.09" y1="149.1" x2="202.09" y2="128.28"/><line id="_Контур_48" data-name=" Контур 48" class="cls-4" x1="217.94" y1="149.1" x2="217.94" y2="128.28"/><line id="_Контур_49" data-name=" Контур 49" class="cls-4" x1="233.79" y1="149.1" x2="233.79" y2="128.28"/><line id="_Контур_50" data-name=" Контур 50" class="cls-4" x1="249.63" y1="149.1" x2="249.63" y2="128.28"/><line id="_Контур_51" data-name=" Контур 51" class="cls-4" x1="265.48" y1="149.1" x2="265.48" y2="128.28"/></g><g id="_Группа_4" data-name=" Группа 4"><line id="_Контур_52" data-name=" Контур 52" class="cls-4" x1="122.85" y1="128.28" x2="122.85" y2="107.28"/><line id="_Контур_53" data-name=" Контур 53" class="cls-4" x1="130.78" y1="128.28" x2="130.78" y2="107.28"/><line id="_Контур_54" data-name=" Контур 54" class="cls-4" x1="138.7" y1="128.28" x2="138.7" y2="107.28"/><line id="_Контур_55" data-name=" Контур 55" class="cls-4" x1="146.63" y1="128.28" x2="146.63" y2="107.28"/><line id="_Контур_56" data-name=" Контур 56" class="cls-4" x1="154.55" y1="128.28" x2="154.55" y2="107.28"/><line id="_Контур_57" data-name=" Контур 57" class="cls-4" x1="162.47" y1="128.28" x2="162.47" y2="107.28"/><line id="_Контур_58" data-name=" Контур 58" class="cls-4" x1="217.94" y1="128.28" x2="217.94" y2="107.28"/><line id="_Контур_59" data-name=" Контур 59" class="cls-4" x1="225.86" y1="128.28" x2="225.86" y2="107.28"/><line id="_Контур_60" data-name=" Контур 60" class="cls-4" x1="233.79" y1="128.28" x2="233.79" y2="107.28"/><line id="_Контур_61" data-name=" Контур 61" class="cls-4" x1="241.71" y1="128.28" x2="241.71" y2="107.28"/><line id="_Контур_62" data-name=" Контур 62" class="cls-4" x1="249.63" y1="128.28" x2="249.63" y2="107.28"/><line id="_Контур_63" data-name=" Контур 63" class="cls-4" x1="257.56" y1="128.28" x2="257.56" y2="107.28"/><line id="_Контур_64" data-name=" Контур 64" class="cls-4" x1="265.48" y1="128.28" x2="265.48" y2="107.28"/></g><g id="_Группа_5" data-name=" Группа 5"><line id="_Контур_65" data-name=" Контур 65" class="cls-4" x1="83.24" y1="107.28" x2="83.24" y2="86.28"/><line id="_Контур_66" data-name=" Контур 66" class="cls-4" x1="91.16" y1="107.28" x2="91.16" y2="86.28"/><line id="_Контур_67" data-name=" Контур 67" class="cls-4" x1="99.08" y1="107.28" x2="99.08" y2="86.28"/><line id="_Контур_68" data-name=" Контур 68" class="cls-4" x1="107.01" y1="107.28" x2="107.01" y2="86.28"/><line id="_Контур_69" data-name=" Контур 69" class="cls-4" x1="114.93" y1="107.28" x2="114.93" y2="86.28"/><line id="_Контур_70" data-name=" Контур 70" class="cls-4" x1="170.4" y1="107.28" x2="170.4" y2="86.28"/><line id="_Контур_71" data-name=" Контур 71" class="cls-4" x1="178.32" y1="107.28" x2="178.32" y2="86.28"/><line id="_Контур_72" data-name=" Контур 72" class="cls-4" x1="186.24" y1="107.28" x2="186.24" y2="86.28"/><line id="_Контур_73" data-name=" Контур 73" class="cls-4" x1="194.17" y1="107.28" x2="194.17" y2="86.28"/><line id="_Контур_74" data-name=" Контур 74" class="cls-4" x1="202.09" y1="107.28" x2="202.09" y2="86.28"/><line id="_Контур_75" data-name=" Контур 75" class="cls-4" x1="210.02" y1="107.28" x2="210.02" y2="86.28"/><line id="_Контур_76" data-name=" Контур 76" class="cls-4" x1="265.48" y1="107.28" x2="265.48" y2="86.28"/></g><g id="_Группа_6" data-name=" Группа 6"><rect id="_Прямоугольник_2" data-name=" Прямоугольник 2" class="cls-3" x="75.31" y="107.28" width="39.62" height="21"/><rect id="_Прямоугольник_3" data-name=" Прямоугольник 3" class="cls-3" x="122.85" y="86.28" width="39.62" height="21"/><rect id="_Прямоугольник_4" data-name=" Прямоугольник 4" class="cls-3" x="170.4" y="107.28" width="39.62" height="21"/><rect id="_Прямоугольник_5" data-name=" Прямоугольник 5" class="cls-3" x="217.94" y="86.28" width="39.62" height="21"/></g><line id="_Контур_77" data-name=" Контур 77" class="cls-4" x1="19.85" y1="86.28" x2="19.85" y2="148.32"/><line id="_Контур_78" data-name=" Контур 78" class="cls-4" x1="27.77" y1="86.28" x2="27.77" y2="148.32"/><line id="_Контур_79" data-name=" Контур 79" class="cls-4" x1="35.69" y1="86.28" x2="35.69" y2="148.32"/><line id="_Контур_80" data-name=" Контур 80" class="cls-4" x1="43.62" y1="86.28" x2="43.62" y2="148.32"/><line id="_Контур_81" data-name=" Контур 81" class="cls-4" x1="51.54" y1="86.28" x2="51.54" y2="148.32"/><line id="_Контур_82" data-name=" Контур 82" class="cls-4" x1="59.47" y1="86.28" x2="59.47" y2="148.32"/><line id="_Контур_83" data-name=" Контур 83" class="cls-4" x1="67.39" y1="86.28" x2="67.39" y2="148.32"/><line id="_Контур_84" data-name=" Контур 84" class="cls-4" x1="75.31" y1="86.28" x2="75.31" y2="148.32"/><line id="_Контур_85" data-name=" Контур 85" class="cls-4" x1="75.31" y1="94.69" x2="11.92" y2="94.69"/><line id="_Контур_86" data-name=" Контур 86" class="cls-4" x1="75.31" y1="103.08" x2="11.92" y2="103.08"/><line id="_Контур_87" data-name=" Контур 87" class="cls-4" x1="75.31" y1="111.48" x2="11.92" y2="111.48"/><line id="_Контур_88" data-name=" Контур 88" class="cls-4" x1="75.31" y1="119.89" x2="11.92" y2="119.89"/><line id="_Контур_89" data-name=" Контур 89" class="cls-4" x1="75.31" y1="128.28" x2="11.92" y2="128.28"/><line id="_Контур_90" data-name=" Контур 90" class="cls-4" x1="75.31" y1="136.69" x2="11.92" y2="136.69"/><line id="_Контур_91" data-name=" Контур 91" class="cls-3" x1="273.4" y1="128.28" x2="273.4" y2="148.32"/><line id="_Контур_92" data-name=" Контур 92" class="cls-3" x1="11.92" y1="86.28" x2="11.92" y2="148.32"/></g><line id="_Контур_93" data-name=" Контур 93" class="cls-5" x1="4" y1="148.63" x2="281.33" y2="148.63"/></svg>