<?xml version="1.0" encoding="utf-8"?>
<!-- Generator: Adobe Illustrator 19.0.0, SVG Export Plug-In . SVG Version: 6.00 Build 0)  -->
<svg version="1.1" id="Layer_1" xmlns="http://www.w3.org/2000/svg" xmlns:xlink="http://www.w3.org/1999/xlink" x="0px" y="0px"
	 viewBox="-143 339.9 308 162" style="enable-background:new -143 339.9 308 162;" xml:space="preserve">
<style type="text/css">
	.st0{fill:none;stroke:#4D504F;stroke-width:2;stroke-miterlimit:10;}
	.st1{fill:none;stroke:#4D504F;stroke-miterlimit:10;}
</style>
<line id="XMLID_1785_" class="st0" x1="-122.3" y1="500.9" x2="165" y2="500.9"/>
<polyline id="XMLID_1617_" class="st0" points="-12.1,459.8 -12.1,450 34.1,450 34.1,459.8 "/>
<g id="XMLID_1611_">
	<line id="XMLID_1614_" class="st0" x1="-16.9" y1="500.8" x2="-16.9" y2="467.7"/>
</g>
<g id="XMLID_2536_">
	<line id="XMLID_2541_" class="st0" x1="-12.1" y1="500.8" x2="-12.1" y2="467.7"/>
</g>
<line id="XMLID_1616_" class="st0" x1="-19.6" y1="464.5" x2="-9.4" y2="464.5"/>
<line id="XMLID_1619_" class="st0" x1="-21.4" y1="459.8" x2="-7.6" y2="459.8"/>
<line id="XMLID_2554_" class="st0" x1="-15.3" y1="445.6" x2="37.3" y2="445.6"/>
<line id="XMLID_2543_" class="st0" x1="-17.1" y1="440.9" x2="39.1" y2="440.9"/>
<g id="XMLID_2552_">
	<g id="XMLID_2550_">
		<line id="XMLID_2551_" class="st0" x1="34.1" y1="500.8" x2="34.1" y2="467.7"/>
	</g>
	<g id="XMLID_2548_">
		<line id="XMLID_2549_" class="st0" x1="38.9" y1="500.8" x2="38.9" y2="467.7"/>
	</g>
	<line id="XMLID_2547_" class="st0" x1="31.4" y1="464.5" x2="41.6" y2="464.5"/>
	<line id="XMLID_2545_" class="st0" x1="29.6" y1="459.8" x2="43.4" y2="459.8"/>
</g>
<g id="XMLID_2556_">
	<g id="XMLID_2559_">
		<line id="XMLID_2560_" class="st0" x1="43.7" y1="500.9" x2="43.7" y2="479"/>
	</g>
	<line id="XMLID_2558_" class="st0" x1="38.9" y1="475.8" x2="46.4" y2="475.8"/>
	<line id="XMLID_2557_" class="st0" x1="38.9" y1="471.1" x2="48.2" y2="471.1"/>
</g>
<g id="XMLID_2561_">
	<g id="XMLID_2564_">
		<line id="XMLID_2565_" class="st0" x1="-21.7" y1="500.9" x2="-21.7" y2="479"/>
	</g>
	<line id="XMLID_2563_" class="st0" x1="-16.9" y1="475.8" x2="-24.4" y2="475.8"/>
	<line id="XMLID_2562_" class="st0" x1="-16.9" y1="471.1" x2="-26.2" y2="471.1"/>
</g>
<path id="XMLID_1613_" class="st0" d="M24.9,500.8H-2.9v-22.6c0-6.1,5-11.1,11.1-11.1h5.5c6.1,0,11.1,5,11.1,11.1V500.8z"/>
<path id="XMLID_2553_" class="st1" d="M0.7,500.8V481c0-5.7,4.6-10.4,10.4-10.4s10.4,4.6,10.4,10.4v19.8H0.7z"/>
<line id="XMLID_2569_" class="st1" x1="-11.6" y1="454.5" x2="34.5" y2="454.5"/>
<polyline id="XMLID_2570_" class="st0" points="-21.7,464.5 -94.3,464.5 -94.3,489.9 -21.7,489.9 "/>
<line id="XMLID_2555_" class="st0" x1="-94.3" y1="489.9" x2="-94.3" y2="500.9"/>
<line id="XMLID_2574_" class="st0" x1="-76.1" y1="489.9" x2="-76.1" y2="500.9"/>
<line id="XMLID_2575_" class="st0" x1="-58" y1="489.9" x2="-58" y2="500.9"/>
<line id="XMLID_2576_" class="st0" x1="-39.9" y1="489.9" x2="-39.9" y2="500.9"/>
<rect id="XMLID_2572_" x="-105.4" y="454.5" class="st0" width="11.1" height="46.4"/>
<line id="XMLID_2578_" class="st1" x1="-76.1" y1="464.5" x2="-76.1" y2="489.9"/>
<line id="XMLID_2579_" class="st1" x1="-58" y1="464.5" x2="-58" y2="489.9"/>
<line id="XMLID_2580_" class="st1" x1="-39.9" y1="464.5" x2="-39.9" y2="489.9"/>
<line id="XMLID_2585_" class="st1" x1="-30.8" y1="464.5" x2="-30.8" y2="489.9"/>
<line id="XMLID_2581_" class="st1" x1="-48.9" y1="464.5" x2="-48.9" y2="489.9"/>
<line id="XMLID_2582_" class="st1" x1="-67.1" y1="464.5" x2="-67.1" y2="489.9"/>
<line id="XMLID_2583_" class="st1" x1="-85.2" y1="464.5" x2="-85.2" y2="489.9"/>
<line id="XMLID_2567_" class="st1" x1="-30.8" y1="473" x2="-94.3" y2="473"/>
<line id="XMLID_2568_" class="st1" x1="-30.8" y1="481.5" x2="-94.3" y2="481.5"/>
<polyline id="XMLID_2597_" class="st0" points="43.7,464.5 116.3,464.5 116.3,489.9 43.7,489.9 "/>
<line id="XMLID_2596_" class="st0" x1="116.3" y1="489.9" x2="116.3" y2="500.9"/>
<line id="XMLID_2595_" class="st0" x1="98.2" y1="489.9" x2="98.2" y2="500.9"/>
<line id="XMLID_2592_" class="st0" x1="80" y1="489.9" x2="80" y2="500.9"/>
<line id="XMLID_2591_" class="st0" x1="61.9" y1="489.9" x2="61.9" y2="500.9"/>
<rect id="XMLID_2590_" x="116.3" y="454.5" class="st0" width="11.1" height="46.4"/>
<line id="XMLID_2589_" class="st1" x1="98.2" y1="464.5" x2="98.2" y2="489.9"/>
<line id="XMLID_2588_" class="st1" x1="80" y1="464.5" x2="80" y2="489.9"/>
<line id="XMLID_2587_" class="st1" x1="61.9" y1="464.5" x2="61.9" y2="489.9"/>
<line id="XMLID_2586_" class="st1" x1="52.8" y1="464.5" x2="52.8" y2="489.9"/>
<line id="XMLID_2584_" class="st1" x1="71" y1="464.5" x2="71" y2="489.9"/>
<line id="XMLID_2577_" class="st1" x1="89.1" y1="464.5" x2="89.1" y2="489.9"/>
<line id="XMLID_2573_" class="st1" x1="107.2" y1="464.5" x2="107.2" y2="489.9"/>
<line id="XMLID_2571_" class="st1" x1="52.8" y1="473" x2="116.3" y2="473"/>
<line id="XMLID_2566_" class="st1" x1="52.8" y1="481.5" x2="116.3" y2="481.5"/>
</svg>
