<?xml version="1.0" encoding="utf-8"?>
<!-- Generator: Adobe Illustrator 19.1.0, SVG Export Plug-In . SVG Version: 6.00 Build 0)  -->
<svg version="1.1" id="Layer_1" xmlns="http://www.w3.org/2000/svg" xmlns:xlink="http://www.w3.org/1999/xlink" x="0px" y="0px"
	 viewBox="-151 316 308 162" style="enable-background:new -151 316 308 162;" xml:space="preserve">
<style type="text/css">
	.st0{fill:none;stroke:#4D504F;stroke-width:2;stroke-miterlimit:10;}
	.st1{fill:#FFFFFF;stroke:#555555;stroke-miterlimit:10;}
	.st2{fill:none;stroke:#555555;stroke-width:2;stroke-miterlimit:10;}
	.st3{fill:#FFFFFF;stroke:#4D504F;stroke-width:2;stroke-miterlimit:10;}
	.st4{fill:none;stroke:#4D504F;stroke-miterlimit:10;}
</style>
<g>
	<rect x="-38.1" y="458.7" class="st0" width="82.2" height="18.3"/>
	<rect x="-38.1" y="458.7" class="st0" width="82.2" height="18.3"/>
	<rect x="-42.8" y="449.1" class="st0" width="91.6" height="9.6"/>
	<rect x="-42.8" y="449.1" class="st0" width="91.6" height="9.6"/>
	<rect x="-47.4" y="438.4" class="st0" width="100.9" height="10.7"/>
	<rect x="-47.4" y="438.4" class="st0" width="100.9" height="10.7"/>
	<rect x="-13.4" y="461.7" class="st1" width="32.8" height="15.3"/>
	<rect x="-13.4" y="461.7" class="st2" width="32.8" height="15.3"/>
	<line class="st0" x1="-74.8" y1="477" x2="156.9" y2="477"/>
	<rect x="-62.2" y="376" class="st0" width="130.4" height="62.4"/>
	<rect x="-62.2" y="376" class="st0" width="130.4" height="62.4"/>
	<line class="st0" x1="-66.8" y1="371.5" x2="72.9" y2="371.5"/>
	<line class="st0" x1="-34.9" y1="363.1" x2="40.9" y2="363.1"/>
	<rect x="-28.3" y="398.9" class="st1" width="62.6" height="78.2"/>
	<rect x="-28.3" y="398.9" class="st0" width="62.6" height="78.2"/>
	<rect x="-30.6" y="367.5" class="st0" width="67.3" height="34.5"/>
	<rect x="-30.6" y="367.5" class="st3" width="67.3" height="34.5"/>
	<path class="st0" d="M25.5,477h-45.1v-39.2c0-12.5,10.1-22.6,22.6-22.6l0,0c12.5,0,22.6,10.1,22.6,22.6L25.5,477L25.5,477z"/>
	<path class="st4" d="M-7.7,477v-39.2c0-5.9,4.8-10.7,10.7-10.7s10.7,4.8,10.7,10.7V477H-7.7z"/>
	<rect x="-25.7" y="374.6" class="st4" width="7.8" height="11.5"/>
	<rect x="-13.4" y="374.6" class="st4" width="7.8" height="11.5"/>
	<rect x="-1" y="374.6" class="st4" width="7.8" height="11.5"/>
	<rect x="11.4" y="374.6" class="st4" width="7.8" height="11.5"/>
	<rect x="23.8" y="374.6" class="st4" width="7.8" height="11.5"/>
	<rect x="-55.6" y="405" class="st4" width="20.7" height="26"/>
	<rect x="40.9" y="405" class="st4" width="20.7" height="26"/>
	<circle class="st4" cx="-45.2" cy="387.9" r="5.2"/>
	<circle class="st4" cx="51.3" cy="387.9" r="5.2"/>
	<line class="st4" x1="-55.6" y1="438.4" x2="-55.6" y2="477"/>
	<line class="st4" x1="61.6" y1="438.4" x2="61.6" y2="477"/>
	<rect x="-3.3" y="465" class="st4" width="12.6" height="12"/>
</g>
</svg>
