<?xml version="1.0" encoding="utf-8"?>
<!-- Generator: Adobe Illustrator 19.0.0, SVG Export Plug-In . SVG Version: 6.00 Build 0)  -->
<svg version="1.1" id="Layer_1" xmlns="http://www.w3.org/2000/svg" xmlns:xlink="http://www.w3.org/1999/xlink" x="0px" y="0px"
	 viewBox="-297 420.9 308 162" style="enable-background:new -297 420.9 308 162;" xml:space="preserve">
<style type="text/css">
	.st0{fill:#B85436;}
	.st1{fill:#F4DCC6;}
	.st2{fill:none;stroke:#000000;stroke-width:2;stroke-miterlimit:10;}
	.st3{fill:#B85436;stroke:#000000;stroke-width:2;stroke-miterlimit:10;}
	.st4{fill:#0094B1;stroke:#000000;stroke-width:2;stroke-miterlimit:10;}
	.st5{fill:#0094B1;stroke:#000000;stroke-miterlimit:10;}
	.st6{fill:none;stroke:#000000;stroke-miterlimit:10;}
</style>
<rect x="-205.6" y="564" class="st0" width="33" height="7.8"/>
<rect x="-272.1" y="575.2" class="st1" width="259.1" height="6.7"/>
<line id="XMLID_2433_" class="st2" x1="-300.2" y1="581.9" x2="11" y2="581.9"/>
<g id="XMLID_2780_">
	<rect id="XMLID_2671_" x="-279.6" y="533.5" class="st3" width="74" height="41.7"/>
	<polygon id="XMLID_2811_" class="st3" points="-24.9,541.9 -24.9,533.5 -43.5,533.5 -43.5,525.2 -62.1,525.2 -62.1,516.9 
		-98.9,516.9 -98.9,525.2 -135.7,525.2 -135.7,533.5 -172.5,533.5 -172.5,575.2 -135.7,575.2 -98.9,575.2 -62.1,575.2 -47.6,575.2 
		-43.5,575.2 -24.9,575.2 -6.4,575.2 -6.4,541.9 	"/>
	<g id="XMLID_2674_">
		<rect id="XMLID_2666_" x="-205.6" y="528.8" class="st4" width="33" height="35.3"/>
		<rect id="XMLID_2672_" x="-205.6" y="569.7" class="st4" width="33" height="12.2"/>
	</g>
	<polygon id="XMLID_2673_" class="st5" points="-224.4,537 -216.6,530.2 -232.1,530.2 	"/>
	<polygon id="XMLID_2675_" class="st5" points="-261.2,537 -253.4,530.2 -268.9,530.2 	"/>
	<g id="XMLID_2765_">
		<line id="XMLID_2677_" class="st6" x1="-242.8" y1="547.3" x2="-242.8" y2="533.5"/>
		<line id="XMLID_2814_" class="st6" x1="-135.7" y1="545.8" x2="-135.7" y2="533.5"/>
		<line id="XMLID_2815_" class="st6" x1="-98.9" y1="545.8" x2="-98.9" y2="516.9"/>
		<line id="XMLID_2816_" class="st6" x1="-62.1" y1="545.8" x2="-62.1" y2="516.9"/>
		<line id="XMLID_2817_" class="st6" x1="-43.5" y1="545.8" x2="-43.5" y2="525.2"/>
		<line id="XMLID_2818_" class="st6" x1="-24.9" y1="545.8" x2="-24.9" y2="533.5"/>
	</g>
	<line id="XMLID_2693_" class="st2" x1="-248.8" y1="541.9" x2="-279.6" y2="541.9"/>
	<line id="XMLID_2767_" class="st2" x1="-221.3" y1="541.9" x2="-236.6" y2="541.9"/>
	<line id="XMLID_2768_" class="st2" x1="-205.9" y1="541.9" x2="-216.6" y2="541.9"/>
	<line id="XMLID_2761_" class="st2" x1="-205.6" y1="550.2" x2="-236.6" y2="550.2"/>
	<line id="XMLID_2762_" class="st2" x1="-227.4" y1="558.5" x2="-279.6" y2="558.5"/>
	<line id="XMLID_2763_" class="st2" x1="-205.6" y1="566.9" x2="-233.6" y2="566.9"/>
	<line id="XMLID_2676_" class="st2" x1="-261.2" y1="550.2" x2="-279.6" y2="550.2"/>
	<line id="XMLID_2766_" class="st2" x1="-248.8" y1="550.2" x2="-257.9" y2="550.2"/>
	<line id="XMLID_2764_" class="st2" x1="-238.6" y1="566.9" x2="-250.1" y2="566.9"/>
	<line id="XMLID_2781_" class="st2" x1="-141.3" y1="541.9" x2="-172.5" y2="541.9"/>
	<line id="XMLID_2779_" class="st2" x1="-156.9" y1="550.2" x2="-172.5" y2="550.2"/>
	<line id="XMLID_2803_" class="st2" x1="-15.8" y1="566.9" x2="-41.5" y2="566.9"/>
	<line id="XMLID_2795_" class="st2" x1="-87.7" y1="541.9" x2="-94.2" y2="541.9"/>
	<line id="XMLID_2801_" class="st2" x1="-77.2" y1="541.9" x2="-83.8" y2="541.9"/>
	<line id="XMLID_2802_" class="st2" x1="-66.7" y1="541.9" x2="-73.3" y2="541.9"/>
	<line id="XMLID_2787_" class="st2" x1="-49.5" y1="541.9" x2="-56.1" y2="541.9"/>
	<g id="XMLID_2788_">
		<line id="XMLID_2820_" class="st2" x1="-124.5" y1="541.9" x2="-131" y2="541.9"/>
		<line id="XMLID_2819_" class="st2" x1="-114" y1="541.9" x2="-120.6" y2="541.9"/>
		<line id="XMLID_2794_" class="st2" x1="-103.6" y1="541.9" x2="-110.1" y2="541.9"/>
	</g>
	<line id="XMLID_2813_" class="st2" x1="-24.9" y1="541.9" x2="-38.3" y2="541.9"/>
	<line id="XMLID_2789_" class="st2" x1="-98.7" y1="533.5" x2="-112" y2="533.5"/>
	<line id="XMLID_2786_" class="st2" x1="-118" y1="533.5" x2="-135.7" y2="533.5"/>
	<line id="XMLID_2785_" class="st2" x1="-115.5" y1="558.5" x2="-162.2" y2="558.5"/>
	<line id="XMLID_2783_" class="st2" x1="-73.9" y1="558.5" x2="-103.6" y2="558.5"/>
	<line id="XMLID_2782_" class="st2" x1="-62.1" y1="566.9" x2="-135" y2="566.9"/>
	<line id="XMLID_2800_" class="st2" x1="-43.4" y1="533.5" x2="-70" y2="533.5"/>
	<line id="XMLID_2799_" class="st2" x1="-34.1" y1="558.5" x2="-65.5" y2="558.5"/>
	<line id="XMLID_2792_" class="st2" x1="-19.5" y1="558.5" x2="-6.4" y2="558.5"/>
	<line id="XMLID_2798_" class="st2" x1="-6.4" y1="550.2" x2="-80.9" y2="550.2"/>
	<line id="XMLID_2793_" class="st2" x1="-80.9" y1="533.5" x2="-98.9" y2="533.5"/>
	<line id="XMLID_2796_" class="st2" x1="-61.9" y1="525.2" x2="-85.4" y2="525.2"/>
	<line id="XMLID_2806_" class="st2" x1="-90.9" y1="525.2" x2="-98.7" y2="525.2"/>
	<line id="XMLID_2791_" class="st2" x1="-90.9" y1="550.2" x2="-149.7" y2="550.2"/>
	<line id="XMLID_2770_" class="st6" x1="-205.9" y1="538" x2="-172.5" y2="538"/>
	<line id="XMLID_2771_" class="st6" x1="-205.9" y1="546.7" x2="-172.5" y2="546.7"/>
	<line id="XMLID_2773_" class="st6" x1="-197.3" y1="564" x2="-197.3" y2="528.8"/>
	<line id="XMLID_2774_" class="st6" x1="-189.1" y1="564" x2="-189.1" y2="528.8"/>
	<line id="XMLID_2775_" class="st6" x1="-180.8" y1="564" x2="-180.8" y2="528.8"/>
	<line id="XMLID_2777_" class="st6" x1="-197.3" y1="581.9" x2="-197.3" y2="569.3"/>
	<line id="XMLID_2776_" class="st6" x1="-189.1" y1="581.9" x2="-189.1" y2="569.3"/>
	<line id="XMLID_2769_" class="st6" x1="-180.8" y1="581.9" x2="-180.8" y2="569.3"/>
	<line id="XMLID_2772_" class="st6" x1="-205.9" y1="555.4" x2="-172.5" y2="555.4"/>
	<line id="XMLID_2778_" class="st2" x1="-272.1" y1="575.2" x2="-272.1" y2="581.9"/>
	<line id="XMLID_2790_" class="st2" x1="-13" y1="575.2" x2="-13" y2="581.9"/>
</g>
</svg>
