<?xml version="1.0" encoding="utf-8"?>
<!-- Generator: Adobe Illustrator 19.0.0, SVG Export Plug-In . SVG Version: 6.00 Build 0)  -->
<svg version="1.1" id="Layer_1" xmlns="http://www.w3.org/2000/svg" xmlns:xlink="http://www.w3.org/1999/xlink" x="0px" y="0px"
	 viewBox="-143 339.9 308 162" style="enable-background:new -143 339.9 308 162;" xml:space="preserve">
<style type="text/css">
	.st0{fill:#0094B1;stroke:#1C1C1C;stroke-width:2;stroke-miterlimit:10;}
	.st1{fill:#C0D2DA;stroke:#000000;stroke-width:2;stroke-miterlimit:10;}
	.st2{fill:none;stroke:#000000;stroke-width:2;stroke-miterlimit:10;}
	.st3{fill:#0094B1;}
	.st4{fill:none;stroke:#000000;stroke-miterlimit:10;}
</style>
<polyline id="XMLID_1358_" class="st0" points="34.5,437.8 34.5,413.3 -12.5,413.3 -12.5,437.8 "/>
<polygon id="XMLID_1357_" class="st1" points="-6.6,424.8 -16.4,424.8 -28.8,443.8 -45,443.8 -57.5,462.8 -72.5,462.8 -85,481.9 
	-121,481.9 -121,500.9 -6.6,500.9 -6.6,481.9 "/>
<g id="XMLID_1347_">
	<polygon id="XMLID_1353_" class="st1" points="28.6,424.8 38.4,424.8 50.9,443.8 67,443.8 79.5,462.8 94.6,462.8 107.1,481.9 
		143,481.9 143,500.9 28.6,500.9 28.6,481.9 	"/>
	<line id="XMLID_1348_" class="st2" x1="115.4" y1="481.9" x2="115.4" y2="500.9"/>
</g>
<rect id="XMLID_1359_" x="-4.6" y="400.9" class="st0" width="31.3" height="12.4"/>
<rect x="-93.3" y="487.2" class="st3" width="208.7" height="13.7"/>
<line id="XMLID_1442_" class="st4" x1="-18.2" y1="421.4" x2="-12.5" y2="421.4"/>
<line id="XMLID_1443_" class="st4" x1="-46.8" y1="440.4" x2="-26.5" y2="440.4"/>
<line id="XMLID_1444_" class="st4" x1="-74.4" y1="459.4" x2="-55.2" y2="459.4"/>
<line id="XMLID_1379_" class="st4" x1="-124.4" y1="478.4" x2="-82.8" y2="478.4"/>
<line id="XMLID_1448_" class="st4" x1="40.3" y1="421.4" x2="34.5" y2="421.4"/>
<line id="XMLID_1447_" class="st4" x1="68.9" y1="440.4" x2="48.6" y2="440.4"/>
<line id="XMLID_1446_" class="st4" x1="96.4" y1="459.4" x2="77.2" y2="459.4"/>
<line id="XMLID_1445_" class="st4" x1="146.5" y1="478.4" x2="104.6" y2="478.4"/>
<line id="XMLID_843_" class="st2" x1="-93.3" y1="481.9" x2="-93.3" y2="500.9"/>
<line id="XMLID_1433_" class="st2" x1="-135.3" y1="500.9" x2="165" y2="500.9"/>
<rect id="XMLID_1354_" x="-31.1" y="469.4" class="st0" width="84.2" height="31.5"/>
<rect id="XMLID_1355_" x="-21" y="453.6" class="st0" width="64.1" height="15.8"/>
<rect id="XMLID_1356_" x="-9.3" y="437.8" class="st0" width="40.6" height="15.8"/>
<line id="XMLID_1344_" class="st4" x1="-31.1" y1="479.7" x2="53.1" y2="479.7"/>
<line id="XMLID_1394_" class="st4" x1="-21" y1="460.3" x2="43.1" y2="460.3"/>
<line id="XMLID_1396_" class="st4" x1="-9.3" y1="443.9" x2="31.3" y2="443.9"/>
<line id="XMLID_1428_" class="st4" x1="-12.5" y1="419" x2="34.5" y2="419"/>
<line id="XMLID_1429_" class="st4" x1="-4.6" y1="404.6" x2="26.7" y2="404.6"/>
<line id="XMLID_1365_" class="st4" x1="-31.1" y1="482.7" x2="53.1" y2="482.7"/>
<line id="XMLID_1349_" class="st4" x1="-31.1" y1="472" x2="53.1" y2="472"/>
<line id="XMLID_1345_" class="st2" x1="-93.3" y1="486.5" x2="-31.1" y2="486.5"/>
<line id="XMLID_1350_" class="st4" x1="-86.4" y1="486.5" x2="-86.4" y2="500.9"/>
<line id="XMLID_1351_" class="st4" x1="-79.5" y1="486.5" x2="-79.5" y2="500.9"/>
<line id="XMLID_1366_" class="st4" x1="-31.1" y1="472" x2="-31.1" y2="500.9"/>
<g id="XMLID_1346_">
	<line id="XMLID_1367_" class="st4" x1="-24.1" y1="472" x2="-24.1" y2="500.9"/>
	<line id="XMLID_1368_" class="st4" x1="-17" y1="472" x2="-17" y2="500.9"/>
	<line id="XMLID_1369_" class="st4" x1="-10" y1="472" x2="-10" y2="500.9"/>
	<line id="XMLID_1370_" class="st4" x1="-3" y1="472" x2="-3" y2="500.9"/>
	<line id="XMLID_1371_" class="st4" x1="4" y1="472" x2="4" y2="500.9"/>
	<line id="XMLID_1372_" class="st4" x1="11" y1="472" x2="11" y2="500.9"/>
	<line id="XMLID_1373_" class="st4" x1="18" y1="472" x2="18" y2="500.9"/>
	<line id="XMLID_1374_" class="st4" x1="25.1" y1="472" x2="25.1" y2="500.9"/>
	<line id="XMLID_1375_" class="st4" x1="32.1" y1="472" x2="32.1" y2="500.9"/>
	<line id="XMLID_1376_" class="st4" x1="39.1" y1="472" x2="39.1" y2="500.9"/>
	<line id="XMLID_1377_" class="st4" x1="46.1" y1="472" x2="46.1" y2="500.9"/>
</g>
<g id="XMLID_1380_">
	<line id="XMLID_1393_" class="st4" x1="-21.3" y1="453.6" x2="-21.3" y2="469.4"/>
	<line id="XMLID_1392_" class="st4" x1="-14.9" y1="453.6" x2="-14.9" y2="469.4"/>
	<line id="XMLID_1391_" class="st4" x1="-8.4" y1="453.6" x2="-8.4" y2="469.4"/>
	<line id="XMLID_1390_" class="st4" x1="-1.9" y1="453.6" x2="-1.9" y2="469.4"/>
	<line id="XMLID_1389_" class="st4" x1="4.6" y1="453.6" x2="4.6" y2="469.4"/>
	<line id="XMLID_1388_" class="st4" x1="11" y1="453.6" x2="11" y2="469.4"/>
	<line id="XMLID_1387_" class="st4" x1="17.5" y1="453.6" x2="17.5" y2="469.4"/>
	<line id="XMLID_1386_" class="st4" x1="24" y1="453.6" x2="24" y2="469.4"/>
	<line id="XMLID_1383_" class="st4" x1="30.4" y1="453.6" x2="30.4" y2="469.4"/>
	<line id="XMLID_1382_" class="st4" x1="36.9" y1="453.6" x2="36.9" y2="469.4"/>
	<line id="XMLID_1381_" class="st4" x1="43.4" y1="453.6" x2="43.4" y2="469.4"/>
</g>
<g id="XMLID_1406_">
	<line id="XMLID_1417_" class="st4" x1="-12.5" y1="413.3" x2="-12.5" y2="424.8"/>
	<line id="XMLID_1416_" class="st4" x1="-7.8" y1="413.3" x2="-7.8" y2="424.8"/>
	<line id="XMLID_1415_" class="st4" x1="-3.1" y1="413.3" x2="-3.1" y2="437.8"/>
	<line id="XMLID_1414_" class="st4" x1="1.6" y1="413.3" x2="1.6" y2="437.8"/>
	<line id="XMLID_1413_" class="st4" x1="6.3" y1="413.3" x2="6.3" y2="437.8"/>
	<line id="XMLID_1412_" class="st4" x1="11" y1="413.3" x2="11" y2="437.8"/>
	<line id="XMLID_1411_" class="st4" x1="15.7" y1="413.3" x2="15.7" y2="437.8"/>
	<line id="XMLID_1410_" class="st4" x1="20.4" y1="413.3" x2="20.4" y2="437.8"/>
	<line id="XMLID_1409_" class="st4" x1="25.1" y1="413.3" x2="25.1" y2="437.8"/>
	<line id="XMLID_1408_" class="st4" x1="29.8" y1="413.3" x2="29.8" y2="424.8"/>
	<line id="XMLID_1407_" class="st4" x1="34.5" y1="413.3" x2="34.5" y2="424.8"/>
</g>
<g id="XMLID_1395_">
	<line id="XMLID_1405_" class="st0" x1="-9.3" y1="437.8" x2="-9.3" y2="453.6"/>
	<line id="XMLID_1404_" class="st4" x1="-4.2" y1="437.8" x2="-4.2" y2="453.6"/>
	<line id="XMLID_1403_" class="st4" x1="0.9" y1="437.8" x2="0.9" y2="453.6"/>
	<line id="XMLID_1402_" class="st4" x1="6" y1="437.8" x2="6" y2="453.6"/>
	<line id="XMLID_1401_" class="st4" x1="11" y1="437.8" x2="11" y2="453.6"/>
	<line id="XMLID_1400_" class="st4" x1="16.1" y1="437.8" x2="16.1" y2="453.6"/>
	<line id="XMLID_1399_" class="st4" x1="21.2" y1="437.8" x2="21.2" y2="453.6"/>
	<line id="XMLID_1398_" class="st4" x1="26.3" y1="437.8" x2="26.3" y2="453.6"/>
	<line id="XMLID_1397_" class="st4" x1="31.3" y1="437.8" x2="31.3" y2="453.6"/>
</g>
<g id="XMLID_1418_">
	<line id="XMLID_1427_" class="st4" x1="-4.6" y1="400.9" x2="-4.6" y2="413.3"/>
	<line id="XMLID_1426_" class="st4" x1="-0.7" y1="400.9" x2="-0.7" y2="413.3"/>
	<line id="XMLID_1425_" class="st4" x1="3.2" y1="400.9" x2="3.2" y2="413.3"/>
	<line id="XMLID_1424_" class="st4" x1="7.1" y1="400.9" x2="7.1" y2="413.3"/>
	<line id="XMLID_1423_" class="st4" x1="11" y1="400.9" x2="11" y2="413.3"/>
	<line id="XMLID_1422_" class="st4" x1="14.9" y1="400.9" x2="14.9" y2="413.3"/>
	<line id="XMLID_1421_" class="st4" x1="18.8" y1="400.9" x2="18.8" y2="413.3"/>
	<line id="XMLID_1420_" class="st4" x1="22.8" y1="400.9" x2="22.8" y2="413.3"/>
	<line id="XMLID_1419_" class="st4" x1="26.7" y1="400.9" x2="26.7" y2="413.3"/>
</g>
<line id="XMLID_1378_" class="st4" x1="53.1" y1="472" x2="53.1" y2="500.9"/>
<line id="XMLID_1352_" class="st4" x1="-72.6" y1="486.5" x2="-72.6" y2="500.9"/>
<line id="XMLID_1360_" class="st4" x1="-65.7" y1="486.5" x2="-65.7" y2="500.9"/>
<line id="XMLID_1361_" class="st4" x1="-58.7" y1="486.5" x2="-58.7" y2="500.9"/>
<line id="XMLID_1362_" class="st4" x1="-51.8" y1="486.5" x2="-51.8" y2="500.9"/>
<line id="XMLID_1363_" class="st4" x1="-44.9" y1="486.5" x2="-44.9" y2="500.9"/>
<line id="XMLID_1364_" class="st4" x1="-38" y1="486.5" x2="-38" y2="500.9"/>
<line id="XMLID_1440_" class="st4" x1="53.1" y1="487.7" x2="115.4" y2="487.7"/>
<line id="XMLID_1441_" class="st4" x1="53.1" y1="491.4" x2="115.4" y2="491.4"/>
<line id="XMLID_1439_" class="st4" x1="60.1" y1="487.7" x2="60.1" y2="491.4"/>
<line id="XMLID_1438_" class="st4" x1="67" y1="487.7" x2="67" y2="491.4"/>
<line id="XMLID_1437_" class="st4" x1="73.9" y1="487.7" x2="73.9" y2="491.4"/>
<line id="XMLID_1436_" class="st4" x1="80.8" y1="487.7" x2="80.8" y2="491.4"/>
<line id="XMLID_1435_" class="st4" x1="87.7" y1="487.7" x2="87.7" y2="491.4"/>
<line id="XMLID_1434_" class="st4" x1="94.6" y1="487.7" x2="94.6" y2="491.4"/>
<line id="XMLID_1431_" class="st4" x1="101.6" y1="487.7" x2="101.6" y2="491.4"/>
<line id="XMLID_1430_" class="st4" x1="108.5" y1="487.7" x2="108.5" y2="491.4"/>
</svg>
