<?xml version="1.0" encoding="utf-8"?>
<!-- Generator: Adobe Illustrator 19.2.1, SVG Export Plug-In . SVG Version: 6.00 Build 0)  -->
<svg version="1.1" id="Слой_1" xmlns="http://www.w3.org/2000/svg" xmlns:xlink="http://www.w3.org/1999/xlink" x="0px" y="0px"
	 viewBox="0 0 308 162" style="enable-background:new 0 0 308 162;" xml:space="preserve">
<style type="text/css">
	.st0{fill:#ECDAC5;}
	.st1{fill:#9B9B9B;}
	.st2{fill:#AA8E69;}
	.st3{fill:none;stroke:#000000;stroke-width:2;stroke-miterlimit:1.5;}
	.st4{fill:none;stroke:#000000;stroke-miterlimit:1.5;}
</style>
<rect x="46" y="63" class="st0" width="109" height="97"/>
<circle class="st1" cx="101.5" cy="83.5" r="3.5"/>
<circle class="st1" cx="116.5" cy="83.5" r="3.5"/>
<circle class="st1" cx="131.5" cy="83.5" r="3.5"/>
<circle class="st1" cx="146.5" cy="83.5" r="3.5"/>
<rect x="82" y="80" class="st1" width="9" height="9"/>
<rect x="82" y="93" class="st1" width="9" height="9"/>
<rect x="82" y="106" class="st1" width="9" height="9"/>
<rect x="82" y="119" class="st1" width="9" height="9"/>
<rect x="82" y="132" class="st1" width="9" height="9"/>
<rect x="82" y="145" class="st1" width="9" height="13"/>
<rect x="97" y="93" class="st1" width="9" height="9"/>
<rect x="97" y="106" class="st1" width="9" height="9"/>
<rect x="97" y="119" class="st1" width="9" height="9"/>
<rect x="97" y="132" class="st1" width="9" height="9"/>
<rect x="97" y="145" class="st1" width="9" height="13"/>
<rect x="112" y="93" class="st1" width="9" height="9"/>
<rect x="127" y="93" class="st1" width="9" height="9"/>
<rect x="127" y="106" class="st1" width="9" height="9"/>
<rect x="142" y="93" class="st1" width="9" height="9"/>
<rect x="142" y="106" class="st1" width="9" height="9"/>
<rect x="142" y="119" class="st1" width="9" height="9"/>
<rect x="112" y="106" class="st1" width="9" height="9"/>
<rect x="112" y="119" class="st1" width="9" height="9"/>
<rect x="112" y="132" class="st1" width="9" height="9"/>
<rect x="112" y="145" class="st1" width="9" height="13"/>
<rect x="127" y="119" class="st1" width="9" height="9"/>
<rect x="127" y="132" class="st1" width="9" height="9"/>
<rect x="127" y="145" class="st1" width="9" height="13"/>
<rect x="142" y="132" class="st1" width="9" height="9"/>
<rect x="142" y="145" class="st1" width="9" height="13"/>
<rect x="50" y="67" class="st1" width="9" height="9"/>
<rect x="50" y="80" class="st1" width="9" height="9"/>
<rect x="50" y="93" class="st1" width="9" height="9"/>
<rect x="50" y="106" class="st1" width="9" height="9"/>
<rect x="50" y="119" class="st1" width="9" height="9"/>
<rect x="50" y="132" class="st1" width="9" height="9"/>
<rect x="50" y="145" class="st1" width="9" height="15"/>
<rect x="65" y="80" class="st1" width="11" height="78"/>
<rect x="47" y="78" class="st2" width="62" height="1"/>
<rect x="47" y="91" class="st2" width="15" height="1"/>
<rect x="47" y="104" class="st2" width="15" height="1"/>
<rect x="47" y="117" class="st2" width="15" height="1"/>
<rect x="47" y="130" class="st2" width="15" height="1"/>
<rect x="79" y="130" class="st2" width="60" height="1"/>
<rect x="79" y="143" class="st2" width="60" height="1"/>
<rect x="47" y="143" class="st2" width="15" height="1"/>
<rect x="79" y="91" class="st2" width="30" height="1"/>
<line class="st3" x1="16" y1="161" x2="308" y2="161"/>
<rect x="45" y="62" class="st3" width="111" height="99"/>
<path class="st4" d="M101.5,79.8c1.9,0,3.5,1.6,3.5,3.6s-1.6,3.6-3.5,3.6S98,85.4,98,83.4S99.6,79.8,101.5,79.8z"/>
<path class="st4" d="M116.5,79.8c1.9,0,3.5,1.6,3.5,3.6s-1.6,3.6-3.5,3.6s-3.5-1.6-3.5-3.6S114.6,79.8,116.5,79.8z"/>
<path class="st4" d="M131.5,79.8c1.9,0,3.5,1.6,3.5,3.6s-1.6,3.6-3.5,3.6s-3.5-1.6-3.5-3.6S129.6,79.8,131.5,79.8z"/>
<path class="st4" d="M146.5,79.8c1.9,0,3.5,1.6,3.5,3.6s-1.6,3.6-3.5,3.6s-3.5-1.6-3.5-3.6S144.6,79.8,146.5,79.8z"/>
<rect x="49.5" y="66.5" class="st4" width="10" height="10"/>
<rect x="64.5" y="79.5" class="st4" width="12" height="79"/>
<rect x="49.5" y="79.5" class="st4" width="10" height="10"/>
<rect x="81.5" y="79.5" class="st4" width="10" height="10"/>
<rect x="49.5" y="92.5" class="st4" width="10" height="10"/>
<rect x="81.5" y="92.5" class="st4" width="10" height="10"/>
<rect x="96.5" y="92.5" class="st4" width="10" height="10"/>
<rect x="111.5" y="92.5" class="st4" width="10" height="10"/>
<rect x="126.5" y="92.5" class="st4" width="10" height="10"/>
<rect x="141.5" y="92.5" class="st4" width="10" height="10"/>
<rect x="49.5" y="105.5" class="st4" width="10" height="10"/>
<rect x="81.5" y="105.5" class="st4" width="10" height="10"/>
<rect x="96.5" y="105.5" class="st4" width="10" height="10"/>
<rect x="111.5" y="105.5" class="st4" width="10" height="10"/>
<rect x="126.5" y="105.5" class="st4" width="10" height="10"/>
<rect x="141.5" y="105.5" class="st4" width="10" height="10"/>
<rect x="49.5" y="118.5" class="st4" width="10" height="10"/>
<rect x="81.5" y="118.5" class="st4" width="10" height="10"/>
<rect x="96.5" y="118.5" class="st4" width="10" height="10"/>
<rect x="111.5" y="118.5" class="st4" width="10" height="10"/>
<rect x="126.5" y="118.5" class="st4" width="10" height="10"/>
<rect x="141.5" y="118.5" class="st4" width="10" height="10"/>
<rect x="49.5" y="131.5" class="st4" width="10" height="10"/>
<rect x="81.5" y="131.5" class="st4" width="10" height="10"/>
<rect x="81.5" y="144.5" class="st4" width="10" height="14"/>
<rect x="96.5" y="131.5" class="st4" width="10" height="10"/>
<rect x="96.5" y="144.5" class="st4" width="10" height="14"/>
<rect x="111.5" y="131.5" class="st4" width="10" height="10"/>
<rect x="111.5" y="144.5" class="st4" width="10" height="14"/>
<rect x="126.5" y="131.5" class="st4" width="10" height="10"/>
<rect x="126.5" y="144.5" class="st4" width="10" height="14"/>
<rect x="141.5" y="131.5" class="st4" width="10" height="10"/>
<rect x="141.5" y="144.5" class="st4" width="10" height="14"/>
<rect x="49.5" y="144.5" class="st4" width="10" height="16"/>
<line class="st4" x1="49.5" y1="71.5" x2="59.5" y2="71.5"/>
<line class="st4" x1="64.5" y1="97.5" x2="76.5" y2="97.5"/>
<line class="st4" x1="64.5" y1="110.5" x2="76.5" y2="110.5"/>
<line class="st4" x1="64.5" y1="123.5" x2="76.5" y2="123.5"/>
<line class="st4" x1="64.5" y1="136.5" x2="76.5" y2="136.5"/>
<line class="st4" x1="64.5" y1="148.5" x2="76.5" y2="148.5"/>
<line class="st4" x1="64.5" y1="143.5" x2="76.5" y2="143.5"/>
<line class="st4" x1="64.5" y1="89.5" x2="76.5" y2="89.5"/>
<line class="st4" x1="64.5" y1="102.5" x2="76.5" y2="102.5"/>
<line class="st4" x1="64.5" y1="115.5" x2="76.5" y2="115.5"/>
<line class="st4" x1="64.5" y1="128.5" x2="76.5" y2="128.5"/>
<line class="st4" x1="64.5" y1="151.5" x2="76.5" y2="151.5"/>
<line class="st4" x1="49.5" y1="84.5" x2="59.5" y2="84.5"/>
<line class="st4" x1="81.5" y1="84.5" x2="91.5" y2="84.5"/>
<line class="st4" x1="64.5" y1="84.5" x2="76.5" y2="84.5"/>
<line class="st4" x1="49.5" y1="97.5" x2="59.5" y2="97.5"/>
<line class="st4" x1="81.5" y1="97.5" x2="91.5" y2="97.5"/>
<line class="st4" x1="96.5" y1="97.5" x2="106.5" y2="97.5"/>
<line class="st4" x1="111.5" y1="97.5" x2="121.5" y2="97.5"/>
<line class="st4" x1="126.5" y1="97.5" x2="136.5" y2="97.5"/>
<line class="st4" x1="141.5" y1="97.5" x2="151.5" y2="97.5"/>
<line class="st4" x1="49.5" y1="110.5" x2="59.5" y2="110.5"/>
<line class="st4" x1="81.5" y1="110.5" x2="91.5" y2="110.5"/>
<line class="st4" x1="96.5" y1="110.5" x2="106.5" y2="110.5"/>
<line class="st4" x1="111.5" y1="110.5" x2="121.5" y2="110.5"/>
<line class="st4" x1="126.5" y1="110.5" x2="136.5" y2="110.5"/>
<line class="st4" x1="141.5" y1="110.5" x2="151.5" y2="110.5"/>
<line class="st4" x1="49.5" y1="123.5" x2="59.5" y2="123.5"/>
<line class="st4" x1="81.5" y1="123.5" x2="91.5" y2="123.5"/>
<line class="st4" x1="96.5" y1="123.5" x2="106.5" y2="123.5"/>
<line class="st4" x1="111.5" y1="123.5" x2="121.5" y2="123.5"/>
<line class="st4" x1="126.5" y1="123.5" x2="136.5" y2="123.5"/>
<line class="st4" x1="141.5" y1="123.5" x2="151.5" y2="123.5"/>
<line class="st4" x1="49.5" y1="136.5" x2="59.5" y2="136.5"/>
<line class="st4" x1="81.5" y1="136.5" x2="91.5" y2="136.5"/>
<line class="st4" x1="81.5" y1="154.5" x2="91.5" y2="154.5"/>
<line class="st4" x1="81.5" y1="154.5" x2="91.5" y2="154.5"/>
<line class="st4" x1="81.5" y1="148.5" x2="91.5" y2="148.5"/>
<line class="st4" x1="96.5" y1="136.5" x2="106.5" y2="136.5"/>
<line class="st4" x1="96.5" y1="154.5" x2="106.5" y2="154.5"/>
<line class="st4" x1="96.5" y1="148.5" x2="106.5" y2="148.5"/>
<line class="st4" x1="111.5" y1="136.5" x2="121.5" y2="136.5"/>
<line class="st4" x1="111.5" y1="154.5" x2="121.5" y2="154.5"/>
<line class="st4" x1="111.5" y1="148.5" x2="121.5" y2="148.5"/>
<line class="st4" x1="126.5" y1="136.5" x2="136.5" y2="136.5"/>
<line class="st4" x1="126.5" y1="154.5" x2="136.5" y2="154.5"/>
<line class="st4" x1="126.5" y1="148.5" x2="136.5" y2="148.5"/>
<line class="st4" x1="141.5" y1="136.5" x2="151.5" y2="136.5"/>
<line class="st4" x1="141.5" y1="154.5" x2="151.5" y2="154.5"/>
<line class="st4" x1="141.5" y1="148.5" x2="151.5" y2="148.5"/>
<line class="st4" x1="52.5" y1="66.5" x2="52.5" y2="76.5"/>
<line class="st4" x1="67.5" y1="79.5" x2="67.5" y2="158.5"/>
<line class="st4" x1="52.5" y1="79.5" x2="52.5" y2="89.5"/>
<line class="st4" x1="84.5" y1="79.5" x2="84.5" y2="89.5"/>
<line class="st4" x1="52.5" y1="92.5" x2="52.5" y2="102.5"/>
<line class="st4" x1="84.5" y1="92.5" x2="84.5" y2="102.5"/>
<line class="st4" x1="99.5" y1="92.5" x2="99.5" y2="102.5"/>
<line class="st4" x1="114.5" y1="92.5" x2="114.5" y2="102.5"/>
<line class="st4" x1="129.5" y1="92.5" x2="129.5" y2="102.5"/>
<line class="st4" x1="144.5" y1="92.5" x2="144.5" y2="102.5"/>
<line class="st4" x1="52.5" y1="105.5" x2="52.5" y2="115.5"/>
<line class="st4" x1="84.5" y1="105.5" x2="84.5" y2="115.5"/>
<line class="st4" x1="99.5" y1="105.5" x2="99.5" y2="115.5"/>
<line class="st4" x1="114.5" y1="105.5" x2="114.5" y2="115.5"/>
<line class="st4" x1="129.5" y1="105.5" x2="129.5" y2="115.5"/>
<line class="st4" x1="144.5" y1="105.5" x2="144.5" y2="115.5"/>
<line class="st4" x1="52.5" y1="118.5" x2="52.5" y2="128.5"/>
<line class="st4" x1="84.5" y1="118.5" x2="84.5" y2="128.5"/>
<line class="st4" x1="99.5" y1="118.5" x2="99.5" y2="128.5"/>
<line class="st4" x1="114.5" y1="118.5" x2="114.5" y2="128.5"/>
<line class="st4" x1="129.5" y1="118.5" x2="129.5" y2="128.5"/>
<line class="st4" x1="144.5" y1="118.5" x2="144.5" y2="128.5"/>
<line class="st4" x1="52.5" y1="131.5" x2="52.5" y2="141.5"/>
<line class="st4" x1="84.5" y1="131.5" x2="84.5" y2="141.5"/>
<line class="st4" x1="84.5" y1="144.5" x2="84.5" y2="158.5"/>
<line class="st4" x1="99.5" y1="131.5" x2="99.5" y2="141.5"/>
<line class="st4" x1="99.5" y1="144.5" x2="99.5" y2="158.5"/>
<line class="st4" x1="114.5" y1="131.5" x2="114.5" y2="141.5"/>
<line class="st4" x1="114.5" y1="144.5" x2="114.5" y2="158.5"/>
<line class="st4" x1="129.5" y1="131.5" x2="129.5" y2="141.5"/>
<line class="st4" x1="129.5" y1="144.5" x2="129.5" y2="158.5"/>
<line class="st4" x1="144.5" y1="131.5" x2="144.5" y2="141.5"/>
<line class="st4" x1="144.5" y1="144.5" x2="144.5" y2="158.5"/>
<line class="st4" x1="56.5" y1="66.5" x2="56.5" y2="76.5"/>
<line class="st4" x1="70.5" y1="79.5" x2="70.5" y2="158.5"/>
<line class="st4" x1="73.5" y1="79.5" x2="73.5" y2="158.5"/>
<line class="st4" x1="56.5" y1="79.5" x2="56.5" y2="89.5"/>
<line class="st4" x1="88.5" y1="79.5" x2="88.5" y2="89.5"/>
<line class="st4" x1="56.5" y1="92.5" x2="56.5" y2="102.5"/>
<line class="st4" x1="88.5" y1="92.5" x2="88.5" y2="102.5"/>
<line class="st4" x1="103.5" y1="92.5" x2="103.5" y2="102.5"/>
<line class="st4" x1="118.5" y1="92.5" x2="118.5" y2="102.5"/>
<line class="st4" x1="133.5" y1="92.5" x2="133.5" y2="102.5"/>
<line class="st4" x1="148.5" y1="92.5" x2="148.5" y2="102.5"/>
<line class="st4" x1="56.5" y1="105.5" x2="56.5" y2="115.5"/>
<line class="st4" x1="88.5" y1="105.5" x2="88.5" y2="115.5"/>
<line class="st4" x1="103.5" y1="105.5" x2="103.5" y2="115.5"/>
<line class="st4" x1="118.5" y1="105.5" x2="118.5" y2="115.5"/>
<line class="st4" x1="133.5" y1="105.5" x2="133.5" y2="115.5"/>
<line class="st4" x1="148.5" y1="105.5" x2="148.5" y2="115.5"/>
<line class="st4" x1="56.5" y1="118.5" x2="56.5" y2="128.5"/>
<line class="st4" x1="88.5" y1="118.5" x2="88.5" y2="128.5"/>
<line class="st4" x1="103.5" y1="118.5" x2="103.5" y2="128.5"/>
<line class="st4" x1="118.5" y1="118.5" x2="118.5" y2="128.5"/>
<line class="st4" x1="133.5" y1="118.5" x2="133.5" y2="128.5"/>
<line class="st4" x1="148.5" y1="118.5" x2="148.5" y2="128.5"/>
<line class="st4" x1="56.5" y1="131.5" x2="56.5" y2="141.5"/>
<line class="st4" x1="88.5" y1="131.5" x2="88.5" y2="141.5"/>
<line class="st4" x1="88.5" y1="144.5" x2="88.5" y2="158.5"/>
<line class="st4" x1="103.5" y1="131.5" x2="103.5" y2="141.5"/>
<line class="st4" x1="103.5" y1="144.5" x2="103.5" y2="158.5"/>
<line class="st4" x1="118.5" y1="131.5" x2="118.5" y2="141.5"/>
<line class="st4" x1="118.5" y1="144.5" x2="118.5" y2="158.5"/>
<line class="st4" x1="133.5" y1="131.5" x2="133.5" y2="141.5"/>
<line class="st4" x1="133.5" y1="144.5" x2="133.5" y2="158.5"/>
<line class="st4" x1="148.5" y1="131.5" x2="148.5" y2="141.5"/>
<line class="st4" x1="148.5" y1="144.5" x2="148.5" y2="158.5"/>
<line class="st3" x1="47" y1="77" x2="109" y2="77"/>
<line class="st3" x1="47" y1="90" x2="62" y2="90"/>
<line class="st3" x1="79" y1="90" x2="94" y2="90"/>
<line class="st3" x1="94" y1="90" x2="109" y2="90"/>
<line class="st3" x1="47" y1="103" x2="62" y2="103"/>
<line class="st3" x1="47" y1="116" x2="62" y2="116"/>
<line class="st3" x1="47" y1="129" x2="62" y2="129"/>
<line class="st3" x1="79" y1="129" x2="94" y2="129"/>
<line class="st3" x1="94" y1="129" x2="109" y2="129"/>
<line class="st3" x1="109" y1="129" x2="124" y2="129"/>
<line class="st3" x1="124" y1="129" x2="139" y2="129"/>
<line class="st3" x1="47" y1="142" x2="62" y2="142"/>
<line class="st3" x1="79" y1="142" x2="94" y2="142"/>
<line class="st3" x1="94" y1="142" x2="109" y2="142"/>
<line class="st3" x1="109" y1="142" x2="124" y2="142"/>
<line class="st3" x1="124" y1="142" x2="139" y2="142"/>
<line class="st4" x1="101.5" y1="80" x2="101.5" y2="86.5"/>
<line class="st4" x1="116.5" y1="80" x2="116.5" y2="86.5"/>
<line class="st4" x1="131.5" y1="80" x2="131.5" y2="86.5"/>
<line class="st4" x1="146.5" y1="80" x2="146.5" y2="86.5"/>
<line class="st4" x1="98.5" y1="83.5" x2="104.5" y2="83.5"/>
<line class="st4" x1="113.5" y1="83.5" x2="119.5" y2="83.5"/>
<line class="st4" x1="128.5" y1="83.5" x2="134.5" y2="83.5"/>
<line class="st4" x1="143.5" y1="83.5" x2="149.5" y2="83.5"/>
<line class="st4" x1="44" y1="59.5" x2="157" y2="59.5"/>
<line class="st4" x1="44" y1="57.5" x2="68" y2="57.5"/>
<line class="st4" x1="44" y1="55.5" x2="68" y2="55.5"/>
</svg>
