<?xml version="1.0" encoding="utf-8"?>
<!-- Generator: Adobe Illustrator 19.0.0, SVG Export Plug-In . SVG Version: 6.00 Build 0)  -->
<svg version="1.1" id="Layer_1" xmlns="http://www.w3.org/2000/svg" xmlns:xlink="http://www.w3.org/1999/xlink" x="0px" y="0px"
	 viewBox="-143 339.9 308 162" style="enable-background:new -143 339.9 308 162;" xml:space="preserve">
<style type="text/css">
	.st0{fill:none;stroke:#4D504F;stroke-width:2;stroke-miterlimit:10;}
	.st1{fill:none;stroke:#4D504F;stroke-miterlimit:10;}
</style>
<polyline id="XMLID_881_" class="st0" points="-69,459.7 -113.2,459.7 -113.2,500.9 "/>
<polyline id="XMLID_882_" class="st0" points="-69,440.1 -106,440.1 -106,459.7 "/>
<line id="XMLID_934_" class="st0" x1="-123.9" y1="500.9" x2="165" y2="500.9"/>
<rect id="XMLID_821_" x="-51.1" y="449.3" class="st0" width="17.9" height="31.5"/>
<polygon id="XMLID_849_" class="st0" points="-33.2,449.3 -51.1,449.3 -51.1,434.1 -32.3,434.1 "/>
<rect id="XMLID_867_" x="-69" y="430.9" class="st0" width="17.9" height="49.8"/>
<rect id="XMLID_868_" x="31.4" y="430.9" class="st0" width="17.9" height="49.8"/>
<line id="XMLID_822_" class="st1" x1="-51.1" y1="459.7" x2="-33.2" y2="459.7"/>
<line id="XMLID_854_" class="st1" x1="-51.1" y1="470.2" x2="-33.2" y2="470.2"/>
<rect id="XMLID_855_" x="-29.6" y="449.3" class="st0" width="17.9" height="31.5"/>
<polygon id="XMLID_853_" class="st0" points="-11.6,449.3 -29.6,449.3 -28.6,434.1 -11.6,434.1 "/>
<line id="XMLID_852_" class="st1" x1="-29.6" y1="459.7" x2="-11.6" y2="459.7"/>
<line id="XMLID_851_" class="st1" x1="-29.6" y1="470.2" x2="-11.6" y2="470.2"/>
<rect id="XMLID_859_" x="-8" y="449.3" class="st0" width="17.9" height="31.5"/>
<polygon id="XMLID_858_" class="st0" points="9.9,449.3 -8,449.3 -8,434.1 9,434.1 "/>
<line id="XMLID_857_" class="st1" x1="-8" y1="459.7" x2="9.9" y2="459.7"/>
<line id="XMLID_856_" class="st1" x1="-8" y1="470.2" x2="9.9" y2="470.2"/>
<rect id="XMLID_863_" x="13.5" y="449.3" class="st0" width="17.9" height="31.5"/>
<polygon id="XMLID_862_" class="st0" points="31.4,449.3 13.5,449.3 12.6,434.1 31.4,434.1 "/>
<line id="XMLID_861_" class="st1" x1="13.5" y1="459.7" x2="31.4" y2="459.7"/>
<line id="XMLID_860_" class="st1" x1="13.5" y1="470.2" x2="31.4" y2="470.2"/>
<rect id="XMLID_850_" x="-33.2" y="449.3" class="st0" width="3.6" height="31.5"/>
<rect id="XMLID_865_" x="-11.6" y="430.9" class="st0" width="3.6" height="49.8"/>
<rect id="XMLID_866_" x="9.9" y="449.3" class="st0" width="3.6" height="31.5"/>
<rect id="XMLID_874_" x="-33.2" y="486.3" class="st0" width="3.6" height="14.6"/>
<rect id="XMLID_875_" x="-52.9" y="486.3" class="st0" width="3.6" height="14.6"/>
<rect id="XMLID_878_" x="-70.8" y="486.3" class="st0" width="3.6" height="14.6"/>
<rect id="XMLID_873_" x="-11.6" y="486.3" class="st0" width="3.6" height="14.6"/>
<rect id="XMLID_872_" x="9.9" y="486.3" class="st0" width="3.6" height="14.6"/>
<rect id="XMLID_876_" x="29.6" y="486.3" class="st0" width="3.6" height="14.6"/>
<rect id="XMLID_877_" x="47.5" y="486.3" class="st0" width="3.6" height="14.6"/>
<rect id="XMLID_864_" x="-63.8" y="449.3" class="st1" width="7.6" height="31.5"/>
<rect id="XMLID_870_" x="36.6" y="449.3" class="st1" width="7.6" height="31.5"/>
<rect id="XMLID_869_" x="-76" y="480.7" class="st0" width="132.3" height="5.6"/>
<polygon id="XMLID_879_" class="st0" points="-33.2,449.3 -29.6,449.3 -28.5,430.9 -32.1,430.9 "/>
<polygon id="XMLID_871_" class="st0" points="9.9,449.3 13.5,449.3 12.4,430.9 8.8,430.9 "/>
<rect id="XMLID_880_" x="-113.2" y="467.8" class="st1" width="31.3" height="12.9"/>
<rect id="XMLID_895_" x="62.3" y="467.8" class="st1" width="31.3" height="12.9"/>
<rect id="XMLID_897_" x="98.9" y="467.8" class="st1" width="31.3" height="29.3"/>
<rect id="XMLID_884_" x="-113.2" y="489.2" class="st1" width="7.9" height="7.9"/>
<rect id="XMLID_885_" x="-102.8" y="489.2" class="st1" width="7.9" height="7.9"/>
<rect id="XMLID_886_" x="-92.4" y="489.2" class="st1" width="7.9" height="7.9"/>
<rect id="XMLID_887_" x="-82" y="489.2" class="st1" width="7.9" height="7.9"/>
<polyline id="XMLID_894_" class="st0" points="49.3,459.7 93.6,459.7 93.6,500.9 "/>
<polyline id="XMLID_893_" class="st0" points="49.3,440.1 86.3,440.1 86.3,459.7 "/>
<rect id="XMLID_892_" x="62.3" y="446.9" class="st1" width="24" height="12.9"/>
<rect id="XMLID_891_" x="85.7" y="489.2" class="st1" width="7.9" height="7.9"/>
<rect id="XMLID_890_" x="75.2" y="489.2" class="st1" width="7.9" height="7.9"/>
<rect id="XMLID_889_" x="64.8" y="489.2" class="st1" width="7.9" height="7.9"/>
<rect id="XMLID_888_" x="54.4" y="489.2" class="st1" width="7.9" height="7.9"/>
<rect id="XMLID_883_" x="93.6" y="459.7" class="st0" width="42" height="41.2"/>
<line id="XMLID_896_" class="st1" x1="-82" y1="474.3" x2="-113.2" y2="474.3"/>
<line id="XMLID_898_" class="st1" x1="62.3" y1="474.3" x2="93.6" y2="474.3"/>
<line id="XMLID_899_" class="st1" x1="62.3" y1="453.3" x2="86.3" y2="453.3"/>
</svg>
