<?xml version="1.0" encoding="utf-8"?>
<!-- Generator: Adobe Illustrator 19.2.1, SVG Export Plug-In . SVG Version: 6.00 Build 0)  -->
<svg version="1.1" id="Слой_1" xmlns="http://www.w3.org/2000/svg" xmlns:xlink="http://www.w3.org/1999/xlink" x="0px" y="0px"
	 viewBox="0 0 308 162" style="enable-background:new 0 0 308 162;" xml:space="preserve">
<style type="text/css">
	.st0{fill:none;stroke:#000000;stroke-width:2;stroke-miterlimit:1.5;}
	.st1{fill:none;stroke:#000000;stroke-miterlimit:1.5;}
</style>
<g>
	<line class="st0" x1="16" y1="161" x2="308" y2="161"/>
	<polygon class="st0" points="180,123 124,103 124,161 180,161 	"/>
	<polygon class="st0" points="93,161 76.2,125.5 76,125 51,125 68,161 	"/>
	<line class="st0" x1="55" y1="134" x2="42" y2="161"/>
	<polygon class="st0" points="117,161 100,125 91.5,125 86.5,136 98.6,161 	"/>
	<polygon class="st0" points="285,125 269.4,125 252.4,161 268,161 	"/>
	<polyline class="st0" points="185,161 202,125 210.5,125 221.9,149.5 229,134.5 	"/>
	<polygon class="st0" points="241,125 224.5,125 241.5,161 246.5,161 252.4,148.5 	"/>
	<line class="st0" x1="199" y1="131" x2="179" y2="131"/>
	<line class="st0" x1="214" y1="131" x2="227" y2="131"/>
	<line class="st0" x1="244" y1="131" x2="266.5" y2="131"/>
	<polyline class="st0" points="282.5,131 292,131 292,161 	"/>
	<polyline class="st0" points="53.6,131 31,131 31,161 	"/>
	<line class="st0" x1="79" y1="131" x2="88.5" y2="131"/>
	<line class="st0" x1="103" y1="131" x2="124" y2="131"/>
	<line class="st1" x1="129.5" y1="161" x2="129.5" y2="105.5"/>
	<line class="st1" x1="134.5" y1="161" x2="134.5" y2="107"/>
	<line class="st1" x1="139.5" y1="161" x2="139.5" y2="109"/>
	<line class="st1" x1="144.5" y1="161" x2="144.5" y2="110"/>
	<line class="st1" x1="149.5" y1="150.5" x2="149.5" y2="112.5"/>
	<line class="st1" x1="154.5" y1="150.5" x2="154.5" y2="113.9"/>
	<line class="st1" x1="159.5" y1="161" x2="159.5" y2="115.5"/>
	<line class="st1" x1="164.5" y1="161" x2="164.5" y2="117.5"/>
	<line class="st1" x1="169.5" y1="161" x2="169.5" y2="119"/>
	<line class="st1" x1="174.5" y1="161" x2="174.5" y2="121"/>
	<line class="st1" x1="124.5" y1="155.5" x2="144.6" y2="155.5"/>
	<line class="st1" x1="159.7" y1="155.5" x2="179.5" y2="155.5"/>
	<line class="st1" x1="32" y1="136.5" x2="53" y2="136.5"/>
	<line class="st1" x1="181" y1="136.5" x2="196.5" y2="136.5"/>
	<line class="st1" x1="291.5" y1="136.5" x2="280.1" y2="136.5"/>
	<line class="st1" x1="216.5" y1="136.5" x2="227.3" y2="136.5"/>
	<line class="st1" x1="246.8" y1="136.5" x2="263.5" y2="136.5"/>
	<line class="st1" x1="123.3" y1="136.5" x2="106" y2="136.5"/>
	<line class="st1" x1="82.3" y1="136.5" x2="86" y2="136.5"/>
	<line class="st1" x1="31.9" y1="140.5" x2="51.7" y2="140.5"/>
	<line class="st1" x1="180.9" y1="140.5" x2="194.5" y2="140.5"/>
	<line class="st1" x1="291" y1="140.5" x2="278.5" y2="140.5"/>
	<line class="st1" x1="218.5" y1="140.5" x2="225.7" y2="140.5"/>
	<line class="st1" x1="248.9" y1="140.5" x2="261.5" y2="140.5"/>
	<line class="st1" x1="250.5" y1="144.5" x2="259.4" y2="144.5"/>
	<line class="st1" x1="252.5" y1="148.5" x2="257.7" y2="148.5"/>
	<line class="st1" x1="251" y1="152.5" x2="256.2" y2="152.5"/>
	<line class="st1" x1="249.5" y1="156.5" x2="254.7" y2="156.5"/>
	<line class="st1" x1="123.4" y1="140.5" x2="107.7" y2="140.5"/>
	<line class="st1" x1="83.5" y1="140.5" x2="88.4" y2="140.5"/>
	<line class="st1" x1="31.8" y1="144.5" x2="49.5" y2="144.5"/>
	<line class="st1" x1="180.7" y1="144.5" x2="192.5" y2="144.5"/>
	<line class="st1" x1="291.1" y1="144.5" x2="276.5" y2="144.5"/>
	<line class="st1" x1="220" y1="144.5" x2="223.9" y2="144.5"/>
	<line class="st1" x1="123.5" y1="144.5" x2="109.5" y2="144.5"/>
	<line class="st1" x1="85.5" y1="144.5" x2="90.5" y2="144.5"/>
	<line class="st1" x1="31.6" y1="148.5" x2="47.6" y2="148.5"/>
	<line class="st1" x1="180.6" y1="148.5" x2="190.5" y2="148.5"/>
	<line class="st1" x1="291.3" y1="148.5" x2="274.5" y2="148.5"/>
	<line class="st1" x1="123.7" y1="148.5" x2="111.5" y2="148.5"/>
	<line class="st1" x1="87.5" y1="148.5" x2="92.4" y2="148.5"/>
	<line class="st1" x1="31.5" y1="152.5" x2="45.5" y2="152.5"/>
	<line class="st1" x1="180.5" y1="152.5" x2="188.9" y2="152.5"/>
	<line class="st1" x1="291.4" y1="152.5" x2="272.5" y2="152.5"/>
	<line class="st1" x1="123.8" y1="152.5" x2="113.5" y2="152.5"/>
	<line class="st1" x1="89.5" y1="152.5" x2="94.4" y2="152.5"/>
	<line class="st1" x1="31.4" y1="156.5" x2="43.5" y2="156.5"/>
	<line class="st1" x1="180.4" y1="156.5" x2="187.4" y2="156.5"/>
	<line class="st1" x1="291.5" y1="156.5" x2="270.5" y2="156.5"/>
	<line class="st1" x1="123.9" y1="156.5" x2="115.5" y2="156.5"/>
	<line class="st1" x1="91.5" y1="156.5" x2="96.5" y2="156.5"/>
	<line class="st1" x1="124.5" y1="145.5" x2="179.5" y2="145.5"/>
	<line class="st1" x1="124.5" y1="150.5" x2="179.5" y2="150.5"/>
	<line class="st1" x1="124.5" y1="140.5" x2="179.5" y2="140.5"/>
	<line class="st1" x1="124.5" y1="135.5" x2="179.5" y2="135.5"/>
	<line class="st1" x1="124.5" y1="130.5" x2="179.5" y2="130.5"/>
	<line class="st1" x1="124.5" y1="125.5" x2="179.5" y2="125.5"/>
	<line class="st1" x1="124.5" y1="120.5" x2="171.5" y2="120.5"/>
	<line class="st1" x1="124.5" y1="115.5" x2="157.5" y2="115.5"/>
	<line class="st1" x1="124.5" y1="110.5" x2="144.5" y2="110.5"/>
	<line class="st1" x1="194" y1="142" x2="213" y2="161"/>
	<line class="st1" x1="268" y1="128" x2="278" y2="138"/>
	<line class="st1" x1="237.5" y1="138.5" x2="251" y2="152"/>
	<line class="st1" x1="200" y1="131" x2="211.5" y2="142.5"/>
	<line class="st1" x1="193" y1="161" x2="216" y2="138"/>
	<line class="st1" x1="224" y1="161" x2="236" y2="149"/>
	<line class="st1" x1="258" y1="161" x2="276" y2="143"/>
	<line class="st1" x1="233" y1="143" x2="245" y2="131"/>
	<line class="st1" x1="52.5" y1="125.5" x2="87.5" y2="160.5"/>
	<line class="st1" x1="95.5" y1="143.5" x2="112.5" y2="160.5"/>
	<line class="st1" x1="43" y1="161" x2="60" y2="144"/>
	<line class="st1" x1="68" y1="160" x2="77.2" y2="150.8"/>
	<line class="st1" x1="92.5" y1="146.5" x2="104" y2="135"/>
	<line class="st1" x1="60.5" y1="133.5" x2="68.5" y2="125.5"/>
	<line class="st1" x1="62.1" y1="161.3" x2="52.5" y2="151.5"/>
</g>
</svg>
