<?xml version="1.0" encoding="utf-8"?>
<!-- Generator: Adobe Illustrator 19.0.0, SVG Export Plug-In . SVG Version: 6.00 Build 0)  -->
<svg version="1.1" id="Layer_1" xmlns="http://www.w3.org/2000/svg" xmlns:xlink="http://www.w3.org/1999/xlink" x="0px" y="0px"
	 viewBox="-143 339.9 308 162" style="enable-background:new -143 339.9 308 162;" xml:space="preserve">
<style type="text/css">
	.st0{fill:none;stroke:#4D504F;stroke-width:2;stroke-miterlimit:10;}
	.st1{fill:none;stroke:#4D504F;stroke-miterlimit:10;}
	.st2{fill:#FFFFFF;stroke:#4D504F;stroke-miterlimit:10;}
</style>
<line id="XMLID_1301_" class="st0" x1="-120.3" y1="500.9" x2="165" y2="500.9"/>
<g id="XMLID_1324_">
	<rect id="XMLID_1227_" x="-2.3" y="482.3" class="st1" width="4" height="18.6"/>
	<rect id="XMLID_1229_" x="20.3" y="482.3" class="st1" width="4" height="18.6"/>
	<rect id="XMLID_1230_" x="-2.3" y="440.1" class="st1" width="26.6" height="42.2"/>
	<g id="XMLID_1280_">
		<rect id="XMLID_1226_" x="-24.2" y="482.3" class="st0" width="70.6" height="18.6"/>
		<polygon id="XMLID_1233_" class="st0" points="26.6,429.6 26.6,425.4 11,420.9 -4.5,425.4 -4.5,429.6 -24.2,429.6 -24.2,482.3 
			46.3,482.3 46.3,429.6 		"/>
	</g>
	<line id="XMLID_1238_" class="st1" x1="-2.3" y1="444.3" x2="24.3" y2="444.3"/>
	<line id="XMLID_1263_" class="st1" x1="-2.3" y1="452.8" x2="24.3" y2="452.8"/>
	<line id="XMLID_1265_" class="st1" x1="-2.3" y1="457" x2="24.3" y2="457"/>
	<line id="XMLID_1264_" class="st1" x1="-2.3" y1="465.4" x2="24.3" y2="465.4"/>
	<line id="XMLID_1268_" class="st1" x1="-2.3" y1="469.6" x2="24.3" y2="469.6"/>
	<line id="XMLID_1269_" class="st1" x1="-2.3" y1="478.1" x2="24.3" y2="478.1"/>
	<line id="XMLID_1267_" class="st1" x1="3.1" y1="482.3" x2="3.1" y2="440.1"/>
	<line id="XMLID_1270_" class="st1" x1="8.4" y1="482.3" x2="8.4" y2="440.1"/>
	<line id="XMLID_1271_" class="st1" x1="13.7" y1="482.3" x2="13.7" y2="440.1"/>
	<line id="XMLID_1272_" class="st1" x1="19" y1="482.3" x2="19" y2="440.1"/>
	<line id="XMLID_1283_" class="st1" x1="60.3" y1="494.5" x2="60.3" y2="427.3"/>
	<polyline id="XMLID_1277_" class="st1" points="-4.1,440.1 -4.1,452.8 -9.5,452.8 -9.5,441.9 	"/>
	<rect id="XMLID_1273_" x="-9.5" y="457" class="st1" width="5.3" height="12.7"/>
	<polyline id="XMLID_1281_" class="st1" points="-12.1,443.5 -12.1,452.8 -17.5,452.8 -17.5,448.6 	"/>
	<rect id="XMLID_1276_" x="-17.5" y="457" class="st1" width="5.3" height="5.2"/>
	<polyline id="XMLID_1279_" class="st1" points="31.6,441.9 31.6,452.8 26.2,452.8 26.2,440.1 	"/>
	<rect id="XMLID_1274_" x="26.2" y="457" class="st1" width="5.3" height="12.7"/>
	<polyline id="XMLID_1232_" class="st1" points="39.5,448.1 39.5,452.8 34.2,452.8 34.2,443.5 	"/>
	<rect id="XMLID_1278_" x="34.2" y="457" class="st1" width="5.3" height="5.2"/>
	<path id="XMLID_1266_" class="st0" d="M40.3,449.6c-4-7.1-15.6-12.2-29.3-12.2s-25.3,5.1-29.3,12.2"/>
	<rect id="XMLID_1236_" x="-2.3" y="437.4" class="st2" width="26.6" height="2.7"/>
	<rect id="XMLID_1282_" x="-3.7" y="434.7" class="st2" width="29.5" height="2.7"/>
	<rect id="XMLID_1306_" x="-4.7" y="482.3" class="st2" width="31.4" height="4"/>
	<rect id="XMLID_1228_" x="46.3" y="420.9" class="st0" width="28" height="80"/>
	<rect id="XMLID_1275_" x="52.7" y="427.3" class="st1" width="15.3" height="67.2"/>
	<line id="XMLID_1284_" class="st1" x1="52.7" y1="434.7" x2="68" y2="434.7"/>
	<line id="XMLID_1294_" class="st1" x1="52.7" y1="442.2" x2="68" y2="442.2"/>
	<line id="XMLID_1295_" class="st1" x1="52.7" y1="449.7" x2="68" y2="449.7"/>
	<line id="XMLID_1296_" class="st1" x1="52.7" y1="457.2" x2="68" y2="457.2"/>
	<line id="XMLID_1297_" class="st1" x1="52.7" y1="464.6" x2="68" y2="464.6"/>
	<line id="XMLID_1298_" class="st1" x1="52.7" y1="472.1" x2="68" y2="472.1"/>
	<line id="XMLID_1299_" class="st1" x1="52.7" y1="479.6" x2="68" y2="479.6"/>
	<line id="XMLID_1303_" class="st1" x1="52.7" y1="487" x2="68" y2="487"/>
	<line id="XMLID_1305_" class="st1" x1="-38.3" y1="494.5" x2="-38.3" y2="427.3"/>
	<rect id="XMLID_1304_" x="-52.3" y="420.9" class="st0" width="28" height="80"/>
	<rect id="XMLID_1293_" x="-45.9" y="427.3" class="st1" width="15.3" height="67.2"/>
	<line id="XMLID_1292_" class="st1" x1="-45.9" y1="434.7" x2="-30.6" y2="434.7"/>
	<line id="XMLID_1291_" class="st1" x1="-45.9" y1="442.2" x2="-30.6" y2="442.2"/>
	<line id="XMLID_1290_" class="st1" x1="-45.9" y1="449.7" x2="-30.6" y2="449.7"/>
	<line id="XMLID_1289_" class="st1" x1="-45.9" y1="457.2" x2="-30.6" y2="457.2"/>
	<line id="XMLID_1288_" class="st1" x1="-45.9" y1="464.6" x2="-30.6" y2="464.6"/>
	<line id="XMLID_1287_" class="st1" x1="-45.9" y1="472.1" x2="-30.6" y2="472.1"/>
	<line id="XMLID_1286_" class="st1" x1="-45.9" y1="479.6" x2="-30.6" y2="479.6"/>
	<line id="XMLID_1285_" class="st1" x1="-45.9" y1="487" x2="-30.6" y2="487"/>
	<g id="XMLID_1323_">
		<line id="XMLID_1312_" class="st1" x1="82.1" y1="446" x2="82.1" y2="433"/>
		<line id="XMLID_1313_" class="st1" x1="89.8" y1="446" x2="89.8" y2="433"/>
		<line id="XMLID_1314_" class="st1" x1="97.6" y1="446" x2="97.6" y2="433"/>
		<line id="XMLID_1315_" class="st1" x1="105.3" y1="446" x2="105.3" y2="433"/>
		<line id="XMLID_1316_" class="st1" x1="113" y1="446" x2="113" y2="433"/>
		<rect id="XMLID_1231_" x="74.4" y="457.4" class="st0" width="54.6" height="43.5"/>
		<polygon id="XMLID_1309_" class="st0" points="118.9,446 74.4,446 74.4,433 113.2,433 118.9,438.5 		"/>
		<polygon id="XMLID_1307_" class="st0" points="118.9,446 74.4,446 74.4,457.4 130.1,457.4 		"/>
		<line id="XMLID_1308_" class="st1" x1="74.4" y1="438.5" x2="118.9" y2="438.5"/>
		<line id="XMLID_1310_" class="st0" x1="74.4" y1="429.6" x2="113" y2="429.6"/>
		<g id="XMLID_1317_">
			<rect id="XMLID_1311_" x="83.4" y="482.3" class="st1" width="7.2" height="9.6"/>
			<rect id="XMLID_1318_" x="83.4" y="467.3" class="st1" width="7.2" height="9.6"/>
			<rect id="XMLID_1320_" x="98.1" y="482.3" class="st1" width="7.2" height="9.6"/>
			<rect id="XMLID_1319_" x="98.1" y="467.3" class="st1" width="7.2" height="9.6"/>
			<rect id="XMLID_1322_" x="112.7" y="482.3" class="st1" width="7.2" height="9.6"/>
			<rect id="XMLID_1321_" x="112.7" y="467.3" class="st1" width="7.2" height="9.6"/>
		</g>
	</g>
	<g id="XMLID_1325_">
		<line id="XMLID_1342_" class="st1" x1="-60" y1="446" x2="-60" y2="433"/>
		<line id="XMLID_1341_" class="st1" x1="-67.7" y1="446" x2="-67.7" y2="433"/>
		<line id="XMLID_1340_" class="st1" x1="-75.5" y1="446" x2="-75.5" y2="433"/>
		<line id="XMLID_1339_" class="st1" x1="-83.2" y1="446" x2="-83.2" y2="433"/>
		<line id="XMLID_1338_" class="st1" x1="-91" y1="446" x2="-91" y2="433"/>
		<rect id="XMLID_1337_" x="-106.9" y="457.4" class="st0" width="54.6" height="43.5"/>
		<polygon id="XMLID_1336_" class="st0" points="-96.8,446 -52.3,446 -52.3,433 -91.1,433 -96.8,438.5 		"/>
		<polygon id="XMLID_1335_" class="st0" points="-96.8,446 -52.3,446 -52.3,457.4 -108,457.4 		"/>
		<line id="XMLID_1334_" class="st1" x1="-52.3" y1="438.5" x2="-96.8" y2="438.5"/>
		<line id="XMLID_1333_" class="st0" x1="-52.3" y1="429.6" x2="-91" y2="429.6"/>
		<g id="XMLID_1326_">
			<rect id="XMLID_1332_" x="-68.5" y="482.3" class="st1" width="7.2" height="9.6"/>
			<rect id="XMLID_1331_" x="-68.5" y="467.3" class="st1" width="7.2" height="9.6"/>
			<rect id="XMLID_1330_" x="-83.2" y="482.3" class="st1" width="7.2" height="9.6"/>
			<rect id="XMLID_1329_" x="-83.2" y="467.3" class="st1" width="7.2" height="9.6"/>
			<rect id="XMLID_1328_" x="-97.8" y="482.3" class="st1" width="7.2" height="9.6"/>
			<rect id="XMLID_1327_" x="-97.8" y="467.3" class="st1" width="7.2" height="9.6"/>
		</g>
	</g>
</g>
</svg>
