<?xml version="1.0" encoding="utf-8"?>
<!-- Generator: Adobe Illustrator 19.1.0, SVG Export Plug-In . SVG Version: 6.00 Build 0)  -->
<svg version="1.1" id="Layer_1" xmlns="http://www.w3.org/2000/svg" xmlns:xlink="http://www.w3.org/1999/xlink" x="0px" y="0px"
	 viewBox="-151 316 308 162" style="enable-background:new -151 316 308 162;" xml:space="preserve">
<style type="text/css">
	.st0{fill:#6A5250;}
	.st1{fill:#0094B1;stroke:#1C1C1C;stroke-miterlimit:10;}
	.st2{fill:none;stroke:#1C1C1C;stroke-width:2;stroke-miterlimit:10;}
	.st3{fill:none;stroke:#1C1C1C;stroke-miterlimit:10;}
	.st4{fill:#B5543A;stroke:#1C1C1C;stroke-width:2;stroke-miterlimit:10;}
	.st5{fill:#FFFFFF;stroke:#1C1C1C;stroke-miterlimit:10;}
	.st6{fill:#0094B1;stroke:#1C1C1C;stroke-width:2;stroke-miterlimit:10;}
	.st7{fill:#0094B1;}
</style>
<g>
	<rect x="-97.4" y="460.3" class="st0" width="189.5" height="16.7"/>
	<polygon class="st1" points="-54.7,363.1 -54.7,460.3 -42.2,460.3 -42.2,477.1 -11.8,477.1 -11.8,460.3 1.1,460.3 1.1,363.1 	"/>
	<polygon class="st2" points="-54.7,363.1 -54.7,460.3 -42.2,460.3 -42.2,477.1 -11.8,477.1 -11.8,460.3 1.1,460.3 1.1,363.1 	"/>
	<line class="st2" x1="-119.2" y1="477.1" x2="157" y2="477.1"/>
	<line class="st3" x1="-42.5" y1="365.9" x2="-42.5" y2="460.3"/>
	<line class="st3" x1="-37.3" y1="365.9" x2="-37.3" y2="460.3"/>
	<line class="st3" x1="-47.7" y1="365.9" x2="-47.7" y2="460.3"/>
	<line class="st3" x1="-32" y1="365.9" x2="-32" y2="460.3"/>
	<line class="st3" x1="-26.8" y1="365.9" x2="-26.8" y2="460.3"/>
	<line class="st3" x1="-21.5" y1="365.9" x2="-21.5" y2="460.3"/>
	<line class="st3" x1="-16.3" y1="365.9" x2="-16.3" y2="460.3"/>
	<line class="st3" x1="-11" y1="365.9" x2="-11" y2="460.3"/>
	<line class="st3" x1="-5.8" y1="365.9" x2="-5.8" y2="460.3"/>
	<polygon class="st3" points="-11.8,378 -11.8,460.3 98.7,460.3 109.8,378 	"/>
	<polygon class="st4" points="-11.8,378 -11.8,460.3 98.7,460.3 109.8,378 	"/>
	<line class="st3" x1="92.1" y1="460.3" x2="103.2" y2="378"/>
	<line class="st3" x1="92.1" y1="460.3" x2="103.2" y2="378"/>
	<rect x="-103.9" y="378" class="st5" width="61.7" height="82.3"/>
	<rect x="-103.9" y="378" class="st6" width="61.7" height="82.3"/>
	<rect x="-73.1" y="436.5" class="st4" width="30.8" height="23.9"/>
	<rect x="-73.1" y="436.5" class="st2" width="30.8" height="23.9"/>
	<rect x="17.9" y="389.4" class="st3" width="15.4" height="19.3"/>
	<rect x="17.9" y="389.4" class="st1" width="15.4" height="19.3"/>
	<rect x="73.8" y="389.4" class="st7" width="8.4" height="19.3"/>
	<rect x="73.8" y="389.4" class="st3" width="8.4" height="19.3"/>
	<rect x="1.1" y="389.4" class="st3" width="8.4" height="19.3"/>
	<rect x="1.1" y="389.4" class="st1" width="8.4" height="19.3"/>
	<rect x="41.6" y="389.4" class="st7" width="23.8" height="19.3"/>
	<rect x="41.6" y="389.4" class="st3" width="23.8" height="19.3"/>
	<rect x="17.9" y="417.1" class="st7" width="15.4" height="19.3"/>
	<rect x="17.9" y="417.1" class="st3" width="15.4" height="19.3"/>
	<rect x="73.8" y="417.1" class="st7" width="8.4" height="19.3"/>
	<rect x="73.8" y="417.1" class="st3" width="8.4" height="19.3"/>
	<rect x="41.6" y="417.1" class="st7" width="23.8" height="19.3"/>
	<rect x="41.6" y="417.1" class="st3" width="23.8" height="19.3"/>
	<rect x="1.1" y="417.1" class="st7" width="8.4" height="19.3"/>
	<rect x="1.1" y="417.1" class="st3" width="8.4" height="19.3"/>
	<line class="st3" x1="1.1" y1="399.1" x2="9.5" y2="399.1"/>
	<line class="st3" x1="73.8" y1="399.1" x2="82.1" y2="399.1"/>
	<line class="st3" x1="17.9" y1="399.1" x2="33.3" y2="399.1"/>
	<line class="st3" x1="41.3" y1="399.1" x2="65.4" y2="399.1"/>
	<line class="st3" x1="1.1" y1="426.8" x2="9.5" y2="426.8"/>
	<line class="st3" x1="73.8" y1="426.8" x2="82.1" y2="426.8"/>
	<line class="st3" x1="17.9" y1="426.8" x2="33.3" y2="426.8"/>
	<line class="st3" x1="41.3" y1="426.8" x2="65.4" y2="426.8"/>
	<line class="st3" x1="-97.4" y1="380.7" x2="-97.4" y2="457.5"/>
	<line class="st3" x1="-91.3" y1="380.7" x2="-91.3" y2="457.5"/>
	<line class="st3" x1="-85.2" y1="380.7" x2="-85.2" y2="457.5"/>
	<line class="st3" x1="-79.2" y1="380.7" x2="-79.2" y2="457.5"/>
	<line class="st3" x1="-73.1" y1="380.7" x2="-73.1" y2="432.9"/>
	<line class="st3" x1="-67" y1="380.7" x2="-67" y2="432.9"/>
	<line class="st3" x1="-60.9" y1="380.7" x2="-60.9" y2="432.9"/>
	<line class="st3" x1="-54.8" y1="380.7" x2="-54.8" y2="432.9"/>
	<line class="st3" x1="-48.8" y1="380.7" x2="-48.8" y2="432.9"/>
	<line class="st2" x1="-97.4" y1="460.3" x2="-97.4" y2="477.1"/>
	<line class="st2" x1="-85.2" y1="460.3" x2="-85.2" y2="477.1"/>
	<line class="st2" x1="79.9" y1="460.3" x2="79.9" y2="477.1"/>
	<line class="st2" x1="92.1" y1="460.3" x2="92.1" y2="477.1"/>
</g>
</svg>
