<?xml version="1.0" encoding="utf-8"?>
<!-- Generator: Adobe Illustrator 19.1.0, SVG Export Plug-In . SVG Version: 6.00 Build 0)  -->
<svg version="1.1" id="Layer_1" xmlns="http://www.w3.org/2000/svg" xmlns:xlink="http://www.w3.org/1999/xlink" x="0px" y="0px"
	 viewBox="0 0 308 162" style="enable-background:new 0 0 308 162;" xml:space="preserve">
<style type="text/css">
	.st0{fill:#FFFFFF;stroke:#555555;stroke-miterlimit:10;}
	.st1{fill:none;stroke:#4D504F;stroke-width:2;stroke-miterlimit:10;}
	.st2{fill:none;stroke:#4D504F;stroke-miterlimit:10;}
	.st3{fill:#FFFFFF;stroke:#4D504F;stroke-width:2;stroke-miterlimit:10;}
</style>
<g>
	<g>
		<polygon class="st0" points="96.3,47.1 96.3,144.3 108.8,144.3 108.8,161.1 139.2,161.1 139.2,144.3 152.1,144.3 152.1,47.1 		"/>
		<polygon class="st1" points="96.3,47.1 96.3,144.3 108.8,144.3 108.8,161.1 139.2,161.1 139.2,144.3 152.1,144.3 152.1,47.1 		"/>
		<line class="st1" x1="31.8" y1="161.1" x2="308" y2="161.1"/>
		<line class="st2" x1="108.5" y1="49.9" x2="108.5" y2="144.3"/>
		<line class="st2" x1="113.7" y1="49.9" x2="113.7" y2="144.3"/>
		<line class="st2" x1="103.2" y1="49.9" x2="103.2" y2="144.3"/>
		<line class="st2" x1="119" y1="49.9" x2="119" y2="144.3"/>
		<line class="st2" x1="124.2" y1="49.9" x2="124.2" y2="144.3"/>
		<line class="st2" x1="129.5" y1="49.9" x2="129.5" y2="144.3"/>
		<line class="st2" x1="134.7" y1="49.9" x2="134.7" y2="144.3"/>
		<line class="st2" x1="140" y1="49.9" x2="140" y2="144.3"/>
		<line class="st2" x1="145.2" y1="49.9" x2="145.2" y2="144.3"/>
		<polygon class="st2" points="139.2,62 139.2,144.3 249.6,144.3 260.7,62 		"/>
		<polygon class="st3" points="139.2,62 139.2,144.3 249.6,144.3 260.7,62 		"/>
		<line class="st0" x1="243.1" y1="144.3" x2="254.2" y2="62"/>
		<line class="st2" x1="243.1" y1="144.3" x2="254.2" y2="62"/>
		<rect x="47.1" y="62" class="st0" width="61.7" height="82.3"/>
		<rect x="47.1" y="62" class="st1" width="61.7" height="82.3"/>
		<rect x="77.9" y="120.5" class="st0" width="30.8" height="23.9"/>
		<rect x="77.9" y="120.5" class="st1" width="30.8" height="23.9"/>
		<rect x="168.8" y="73.4" class="st2" width="15.4" height="19.3"/>
		<rect x="168.8" y="73.4" class="st2" width="15.4" height="19.3"/>
		<rect x="224.7" y="73.4" class="st0" width="8.4" height="19.3"/>
		<rect x="224.7" y="73.4" class="st2" width="8.4" height="19.3"/>
		<rect x="152.1" y="73.4" class="st2" width="8.4" height="19.3"/>
		<rect x="152.1" y="73.4" class="st2" width="8.4" height="19.3"/>
		<rect x="192.6" y="73.4" class="st0" width="23.8" height="19.3"/>
		<rect x="192.6" y="73.4" class="st2" width="23.8" height="19.3"/>
		<rect x="168.8" y="101.1" class="st0" width="15.4" height="19.3"/>
		<rect x="168.8" y="101.1" class="st2" width="15.4" height="19.3"/>
		<rect x="224.7" y="101.1" class="st0" width="8.4" height="19.3"/>
		<rect x="224.7" y="101.1" class="st2" width="8.4" height="19.3"/>
		<rect x="192.6" y="101.1" class="st0" width="23.8" height="19.3"/>
		<rect x="192.6" y="101.1" class="st2" width="23.8" height="19.3"/>
		<rect x="152.1" y="101.1" class="st0" width="8.4" height="19.3"/>
		<rect x="152.1" y="101.1" class="st2" width="8.4" height="19.3"/>
		<line class="st2" x1="152.1" y1="83.1" x2="160.5" y2="83.1"/>
		<line class="st2" x1="224.7" y1="83.1" x2="233.1" y2="83.1"/>
		<line class="st2" x1="168.8" y1="83.1" x2="184.3" y2="83.1"/>
		<line class="st2" x1="192.2" y1="83.1" x2="216.4" y2="83.1"/>
		<line class="st2" x1="152.1" y1="110.8" x2="160.5" y2="110.8"/>
		<line class="st2" x1="224.7" y1="110.8" x2="233.1" y2="110.8"/>
		<line class="st2" x1="168.8" y1="110.8" x2="184.3" y2="110.8"/>
		<line class="st2" x1="192.2" y1="110.8" x2="216.4" y2="110.8"/>
		<line class="st2" x1="53.6" y1="64.7" x2="53.6" y2="141.5"/>
		<line class="st2" x1="59.7" y1="64.7" x2="59.7" y2="141.5"/>
		<line class="st2" x1="65.7" y1="64.7" x2="65.7" y2="141.5"/>
		<line class="st2" x1="71.8" y1="64.7" x2="71.8" y2="141.5"/>
		<line class="st2" x1="77.9" y1="64.7" x2="77.9" y2="116.9"/>
		<line class="st2" x1="84" y1="64.7" x2="84" y2="116.9"/>
		<line class="st2" x1="90.1" y1="64.7" x2="90.1" y2="116.9"/>
		<line class="st2" x1="96.1" y1="64.7" x2="96.1" y2="116.9"/>
		<line class="st2" x1="102.2" y1="64.7" x2="102.2" y2="116.9"/>
		<line class="st1" x1="53.6" y1="144.3" x2="53.6" y2="161.1"/>
		<line class="st1" x1="65.7" y1="144.3" x2="65.7" y2="161.1"/>
		<line class="st1" x1="230.9" y1="144.3" x2="230.9" y2="161.1"/>
		<line class="st1" x1="243.1" y1="144.3" x2="243.1" y2="161.1"/>
	</g>
</g>
</svg>
