<?xml version="1.0" encoding="utf-8"?>
<!-- Generator: Adobe Illustrator 19.1.0, SVG Export Plug-In . SVG Version: 6.00 Build 0)  -->
<svg version="1.1" id="Layer_1" xmlns="http://www.w3.org/2000/svg" xmlns:xlink="http://www.w3.org/1999/xlink" x="0px" y="0px"
	 viewBox="-151 316 308 162" style="enable-background:new -151 316 308 162;" xml:space="preserve">
<style type="text/css">
	.st0{fill:none;stroke:#4D504F;stroke-width:2;stroke-miterlimit:10;}
	.st1{fill:#FFFFFF;stroke:#4D504F;stroke-width:2;stroke-miterlimit:10;}
	.st2{fill:none;stroke:#4D504F;stroke-miterlimit:10;}
</style>
<line id="XMLID_2081_" class="st0" x1="-149.7" y1="477" x2="157" y2="477"/>
<rect id="XMLID_1962_" x="-130.2" y="421.9" class="st0" width="89.4" height="43.8"/>
<rect id="XMLID_1993_" x="-7" y="421.9" class="st0" width="89.4" height="43.8"/>
<rect id="XMLID_1994_" x="63.2" y="428.5" class="st1" width="73.1" height="48.5"/>
<polygon id="XMLID_1967_" class="st1" points="-7,465.7 -53.7,465.7 -53.7,406.8 -7,397 "/>
<g id="XMLID_1971_">
	<polygon id="XMLID_1977_" class="st2" points="-37.1,412 -44.5,413.6 -44.5,424.9 -37.1,423.3 	"/>
	<polygon id="XMLID_1979_" class="st2" points="-37.1,434.6 -44.5,436.1 -44.5,447.4 -37.1,445.8 	"/>
	<polygon id="XMLID_1981_" class="st2" points="-33.4,445.1 -15.2,441.2 -15.2,430 -33.4,433.8 	"/>
	<polygon id="XMLID_1983_" class="st2" points="-33.4,411.2 -33.4,422.5 -15.2,418.7 -15.2,407.4 	"/>
</g>
<g id="XMLID_1969_">
	<rect id="XMLID_1965_" x="-93" y="430" class="st2" width="33.7" height="10.5"/>
	<rect id="XMLID_1973_" x="-93" y="447" class="st2" width="33.7" height="10.5"/>
</g>
<rect id="XMLID_1975_" x="-104.2" y="440.6" class="st2" width="3.9" height="6.4"/>
<rect id="XMLID_1987_" x="-112.6" y="440.6" class="st2" width="3.9" height="6.4"/>
<rect id="XMLID_1989_" x="-121" y="440.6" class="st2" width="3.9" height="6.4"/>
<rect id="XMLID_1992_" x="-104.2" y="451.1" class="st2" width="3.9" height="6.4"/>
<g id="XMLID_1985_">
	<rect id="XMLID_1999_" x="1.5" y="430" class="st2" width="3.9" height="6.4"/>
	<rect id="XMLID_1995_" x="1.5" y="440.6" class="st2" width="3.9" height="17"/>
</g>
<g id="XMLID_1997_">
	<rect id="XMLID_2000_" x="11.4" y="430" class="st2" width="3.9" height="6.4"/>
	<rect id="XMLID_1998_" x="11.4" y="440.6" class="st2" width="3.9" height="17"/>
</g>
<g id="XMLID_2001_">
	<rect id="XMLID_2003_" x="21.2" y="430" class="st2" width="3.9" height="6.4"/>
	<rect id="XMLID_2002_" x="21.2" y="440.6" class="st2" width="3.9" height="17"/>
</g>
<g id="XMLID_2004_">
	<rect id="XMLID_2006_" x="31" y="430" class="st2" width="3.9" height="6.4"/>
	<rect id="XMLID_2005_" x="31" y="440.6" class="st2" width="3.9" height="17"/>
</g>
<g id="XMLID_2007_">
	<rect id="XMLID_2009_" x="40.9" y="430" class="st2" width="3.9" height="6.4"/>
	<rect id="XMLID_2008_" x="40.9" y="440.6" class="st2" width="3.9" height="17"/>
</g>
<g id="XMLID_2010_">
	<rect id="XMLID_2012_" x="50.7" y="430" class="st2" width="3.9" height="6.4"/>
	<rect id="XMLID_2011_" x="50.7" y="440.6" class="st2" width="3.9" height="17"/>
</g>
<rect id="XMLID_1991_" x="-112.6" y="451.1" class="st2" width="3.9" height="6.4"/>
<rect id="XMLID_1990_" x="-121" y="451.1" class="st2" width="3.9" height="6.4"/>
<g id="XMLID_2013_">
	<line id="XMLID_2014_" class="st2" x1="72.4" y1="477" x2="72.4" y2="428.5"/>
	<line id="XMLID_2015_" class="st2" x1="81.5" y1="477" x2="81.5" y2="428.5"/>
	<line id="XMLID_2016_" class="st2" x1="90.6" y1="477" x2="90.6" y2="428.5"/>
	<line id="XMLID_2017_" class="st2" x1="99.8" y1="477" x2="99.8" y2="428.5"/>
	<line id="XMLID_2018_" class="st2" x1="108.9" y1="477" x2="108.9" y2="428.5"/>
	<line id="XMLID_2019_" class="st2" x1="118" y1="477" x2="118" y2="428.5"/>
	<line id="XMLID_2020_" class="st2" x1="127.2" y1="477" x2="127.2" y2="428.5"/>
</g>
<g id="XMLID_2022_">
	<line id="XMLID_2029_" class="st2" x1="63.2" y1="436.4" x2="136.3" y2="436.4"/>
	<line id="XMLID_2028_" class="st2" x1="63.2" y1="444.6" x2="136.3" y2="444.6"/>
	<line id="XMLID_2027_" class="st2" x1="63.2" y1="452.7" x2="136.3" y2="452.7"/>
	<line id="XMLID_2026_" class="st2" x1="63.2" y1="460.9" x2="136.3" y2="460.9"/>
	<line id="XMLID_2025_" class="st2" x1="63.2" y1="469" x2="136.3" y2="469"/>
</g>
<line id="XMLID_1996_" class="st0" x1="-121" y1="465.7" x2="-121" y2="477"/>
<line id="XMLID_2021_" class="st0" x1="-50.9" y1="465.7" x2="-50.9" y2="477"/>
<line id="XMLID_2023_" class="st0" x1="-9.8" y1="465.7" x2="-9.8" y2="477"/>
<line id="XMLID_2024_" class="st0" x1="-121" y1="471.3" x2="63.2" y2="471.3"/>
</svg>
