<?xml version="1.0" encoding="utf-8"?>
<!-- Generator: Adobe Illustrator 19.0.0, SVG Export Plug-In . SVG Version: 6.00 Build 0)  -->
<svg version="1.1" id="Layer_1" xmlns="http://www.w3.org/2000/svg" xmlns:xlink="http://www.w3.org/1999/xlink" x="0px" y="0px"
	 viewBox="-297 420.9 308 162" style="enable-background:new -297 420.9 308 162;" xml:space="preserve">
<style type="text/css">
	.st0{fill:none;stroke:#000000;stroke-width:2;stroke-miterlimit:10;}
	.st1{fill:#917A7A;stroke:#000000;stroke-width:2;stroke-miterlimit:10;}
	.st2{fill:#0094B1;stroke:#1C1C1C;stroke-width:2;stroke-miterlimit:10;}
	.st3{fill:none;stroke:#000000;stroke-miterlimit:10;}
</style>
<line id="XMLID_2296_" class="st0" x1="-270.2" y1="581.9" x2="11" y2="581.9"/>
<g id="XMLID_1618_">
	<path id="XMLID_1620_" class="st1" d="M-58.9,503.7l-1.1,10.6c-25.7,1.4-53.7,2.2-83,2.2c-29.3,0-57.4-0.8-83-2.2l-1.1-10.6
		c-9.5-0.5-18.8-1.1-27.6-1.8l8.7,80H-40l8.7-80C-40.1,502.6-49.4,503.2-58.9,503.7z"/>
	<path id="XMLID_1622_" class="st2" d="M-218.9,581.2l-5.8-52.8c25.3,1.4,52.8,2.1,81.6,2.1c28.8,0,56.4-0.7,81.7-2.1l-5.8,53.5"/>
	<line id="XMLID_1621_" class="st3" x1="-143.1" y1="581.9" x2="-143.1" y2="530.5"/>
	<line id="XMLID_1623_" class="st3" x1="-156.7" y1="569.2" x2="-156.7" y2="530.5"/>
	<line id="XMLID_1624_" class="st3" x1="-170.3" y1="581.9" x2="-170.3" y2="530.5"/>
	<line id="XMLID_1626_" class="st3" x1="-183.9" y1="581.9" x2="-183.9" y2="530.5"/>
	<line id="XMLID_1627_" class="st3" x1="-197.5" y1="581.9" x2="-197.5" y2="530.5"/>
	<line id="XMLID_1629_" class="st3" x1="-211.1" y1="581.9" x2="-211.1" y2="530.5"/>
	<line id="XMLID_2298_" class="st3" x1="-75.1" y1="581.9" x2="-75.1" y2="530.5"/>
	<line id="XMLID_2274_" class="st3" x1="-88.7" y1="581.9" x2="-88.7" y2="530.5"/>
	<line id="XMLID_1719_" class="st3" x1="-102.3" y1="581.9" x2="-102.3" y2="530.5"/>
	<line id="XMLID_1635_" class="st3" x1="-115.9" y1="581.9" x2="-115.9" y2="530.5"/>
	<line id="XMLID_1633_" class="st3" x1="-129.5" y1="569.2" x2="-129.5" y2="530.5"/>
	<line id="XMLID_1630_" class="st3" x1="-223.4" y1="539.8" x2="-63.1" y2="539.8"/>
	<line id="XMLID_1632_" class="st3" x1="-222.5" y1="558.2" x2="-64" y2="558.2"/>
	<line id="XMLID_2299_" class="st3" x1="-220.8" y1="569.2" x2="-65.7" y2="569.2"/>
	<line id="XMLID_2300_" class="st3" x1="-246.8" y1="576.2" x2="-218.9" y2="576.2"/>
	<line id="XMLID_2301_" class="st3" x1="-67.6" y1="576.2" x2="-38.7" y2="576.2"/>
</g>
</svg>
