<?xml version="1.0" encoding="utf-8"?>
<!-- Generator: Adobe Illustrator 19.0.0, SVG Export Plug-In . SVG Version: 6.00 Build 0)  -->
<svg version="1.1" id="Layer_1" xmlns="http://www.w3.org/2000/svg" xmlns:xlink="http://www.w3.org/1999/xlink" x="0px" y="0px"
	 viewBox="-297 420.9 308 162" style="enable-background:new -297 420.9 308 162;" xml:space="preserve">
<style type="text/css">
	.st0{fill:#C0D2DA;}
	.st1{fill:#F9B147;stroke:#000000;stroke-width:2;stroke-miterlimit:10;}
	.st2{fill:#0094B1;}
	.st3{fill:none;stroke:#000000;stroke-width:2;stroke-miterlimit:10;}
	.st4{fill:#FAB248;stroke:#000000;stroke-width:2;stroke-miterlimit:10;}
	.st5{fill:#0094B1;stroke:#000000;stroke-width:2;stroke-miterlimit:10;}
	.st6{fill:none;stroke:#000000;stroke-miterlimit:10;}
</style>
<rect x="-145.7" y="562.5" class="st0" width="5.5" height="19.4"/>
<polyline class="st1" points="-238.9,581.9 -196.5,581.9 -199.1,521.9 -238.9,521.9 -238.9,581.9 "/>
<polyline class="st1" points="-86.9,581.9 -46.8,581.9 -47.1,521.9 -86.9,521.9 -86.9,581.9 "/>
<rect x="-238.9" y="541.8" class="st2" width="42.4" height="40.1"/>
<rect x="-89.2" y="541.8" class="st2" width="42.4" height="40.1"/>
<rect id="XMLID_2305_" x="-196.5" y="562" class="st1" width="106.9" height="19.9"/>
<line id="XMLID_2751_" class="st3" x1="-289.7" y1="581.9" x2="11" y2="581.9"/>
<g id="XMLID_2335_">
	<rect id="XMLID_2303_" x="-199.1" y="521.9" class="st4" width="112.2" height="40.1"/>
	<rect x="-172.3" y="562" class="st2" width="26.5" height="19.1"/>
	<rect x="-140.3" y="562" class="st2" width="26.5" height="19.1"/>
	<rect id="XMLID_2306_" x="-160" y="541" class="st5" width="34.1" height="20.9"/>
	<rect id="XMLID_2307_" x="-110.6" y="541" class="st3" width="23.7" height="20.9"/>
	<line id="XMLID_2304_" class="st3" x1="-110.6" y1="551.5" x2="-86.9" y2="551.5"/>
	<rect id="XMLID_2310_" x="-199.1" y="541" class="st3" width="23.7" height="20.9"/>
	<line id="XMLID_2309_" class="st3" x1="-199.1" y1="551.5" x2="-175.4" y2="551.5"/>
	<g id="XMLID_2308_">
		<rect id="XMLID_2311_" x="-172.3" y="562" class="st6" width="26.5" height="19.9"/>
		<g id="XMLID_2312_">
			<line id="XMLID_2313_" class="st6" x1="-165.7" y1="562" x2="-165.7" y2="581.9"/>
			<line id="XMLID_2314_" class="st6" x1="-159" y1="562" x2="-159" y2="581.9"/>
			<line id="XMLID_2315_" class="st6" x1="-152.4" y1="562" x2="-152.4" y2="581.9"/>
		</g>
		<g id="XMLID_2318_">
			<line id="XMLID_2321_" class="st6" x1="-172.3" y1="575.3" x2="-159" y2="575.3"/>
			<line id="XMLID_2367_" class="st6" x1="-152.4" y1="575.3" x2="-145.7" y2="575.3"/>
			<line id="XMLID_2320_" class="st6" x1="-172.3" y1="568.6" x2="-145.7" y2="568.6"/>
		</g>
	</g>
	<g id="XMLID_2332_">
		<g id="XMLID_2336_">
			<line id="XMLID_2339_" class="st6" x1="-232.3" y1="541.8" x2="-232.3" y2="581.9"/>
			<line id="XMLID_2338_" class="st6" x1="-225.7" y1="541.8" x2="-225.7" y2="581.9"/>
			<line id="XMLID_2337_" class="st6" x1="-219" y1="541.8" x2="-219" y2="581.9"/>
		</g>
		<g id="XMLID_2341_">
			<line id="XMLID_2344_" class="st6" x1="-212.4" y1="541.8" x2="-212.4" y2="581.9"/>
			<line id="XMLID_2343_" class="st6" x1="-205.8" y1="541.8" x2="-205.8" y2="581.9"/>
		</g>
		<g id="XMLID_2333_">
			<line id="XMLID_2345_" class="st6" x1="-238.9" y1="541.8" x2="-199.1" y2="541.8"/>
			<line id="XMLID_2346_" class="st6" x1="-238.9" y1="548.5" x2="-199.1" y2="548.5"/>
			<line id="XMLID_2347_" class="st6" x1="-238.9" y1="555.1" x2="-199.1" y2="555.1"/>
			<line id="XMLID_2348_" class="st6" x1="-238.9" y1="561.7" x2="-199.1" y2="561.7"/>
			<line id="XMLID_2349_" class="st6" x1="-238.9" y1="568.4" x2="-196.5" y2="568.4"/>
			<line id="XMLID_2350_" class="st6" x1="-238.9" y1="575" x2="-196.5" y2="575"/>
		</g>
	</g>
	<polyline id="XMLID_2366_" class="st6" points="-47.1,581.9 -47.1,521.9 -86.9,521.9 	"/>
	<g id="XMLID_2334_">
		<g id="XMLID_2362_">
			<line id="XMLID_2365_" class="st6" x1="-53.7" y1="541.8" x2="-53.7" y2="581.9"/>
			<line id="XMLID_2364_" class="st6" x1="-60.4" y1="541.8" x2="-60.4" y2="581.9"/>
			<line id="XMLID_2363_" class="st6" x1="-67" y1="541.8" x2="-67" y2="581.9"/>
		</g>
		<g id="XMLID_2359_">
			<line id="XMLID_2361_" class="st6" x1="-73.6" y1="541.8" x2="-73.6" y2="581.9"/>
			<line id="XMLID_2360_" class="st6" x1="-80.3" y1="541.8" x2="-80.3" y2="581.9"/>
		</g>
		<g id="XMLID_2340_">
			<line id="XMLID_2356_" class="st6" x1="-47.1" y1="541.8" x2="-86.9" y2="541.8"/>
			<line id="XMLID_2355_" class="st6" x1="-47.1" y1="548.5" x2="-86.9" y2="548.5"/>
			<line id="XMLID_2354_" class="st6" x1="-47.1" y1="555.1" x2="-86.9" y2="555.1"/>
			<line id="XMLID_2353_" class="st6" x1="-47.1" y1="561.7" x2="-86.9" y2="561.7"/>
			<line id="XMLID_2352_" class="st6" x1="-47.1" y1="568.4" x2="-89.5" y2="568.4"/>
			<line id="XMLID_2351_" class="st6" x1="-47.1" y1="575" x2="-89.5" y2="575"/>
		</g>
	</g>
	<g id="XMLID_2317_">
		<rect id="XMLID_2330_" x="-140.3" y="562" class="st6" width="26.5" height="19.9"/>
		<g id="XMLID_2326_">
			<line id="XMLID_2329_" class="st6" x1="-133.6" y1="562" x2="-133.6" y2="581.9"/>
			<line id="XMLID_2328_" class="st6" x1="-127" y1="562" x2="-127" y2="581.9"/>
			<line id="XMLID_2327_" class="st6" x1="-120.4" y1="562" x2="-120.4" y2="581.9"/>
		</g>
		<g id="XMLID_2319_">
			<line id="XMLID_2325_" class="st6" x1="-140.3" y1="575.3" x2="-133.6" y2="575.3"/>
			<line id="XMLID_2370_" class="st6" x1="-127" y1="575.3" x2="-113.7" y2="575.3"/>
			<line id="XMLID_2324_" class="st6" x1="-140.3" y1="568.6" x2="-113.7" y2="568.6"/>
		</g>
	</g>
	<rect id="XMLID_2331_" x="-276.6" y="531" class="st1" width="37.7" height="30.7"/>
	<rect id="XMLID_2342_" x="-270.9" y="561.7" class="st5" width="32" height="20.2"/>
	<rect id="XMLID_2358_" x="-47.1" y="531" class="st1" width="37.7" height="30.7"/>
	<rect id="XMLID_2357_" x="-47.1" y="561.7" class="st5" width="32" height="20.2"/>
</g>
</svg>
