<?xml version="1.0" encoding="utf-8"?>
<!-- Generator: Adobe Illustrator 19.1.0, SVG Export Plug-In . SVG Version: 6.00 Build 0)  -->
<svg version="1.1" id="Layer_1" xmlns="http://www.w3.org/2000/svg" xmlns:xlink="http://www.w3.org/1999/xlink" x="0px" y="0px"
	 viewBox="0 0 308 162" style="enable-background:new 0 0 308 162;" xml:space="preserve">
<style type="text/css">
	.st0{fill:#FFFFFF;}
	.st1{fill:none;stroke:#4D504F;stroke-width:2;stroke-miterlimit:10;}
	.st2{fill:none;stroke:#4D504F;stroke-linejoin:round;}
</style>
<g>
	<rect x="133.3" y="141.8" class="st0" width="41.2" height="19.2"/>
	<rect x="133.3" y="141.8" class="st1" width="41.2" height="19.2"/>
	<line class="st1" x1="56.2" y1="161" x2="308" y2="161"/>
	<polygon class="st1" points="59.8,47 75.2,161 232.6,161 248,47 	"/>
	<line class="st2" x1="172.6" y1="51.7" x2="170.3" y2="136.6"/>
	<line class="st2" x1="185" y1="51.7" x2="180.7" y2="147.9"/>
	<line class="st2" x1="147.6" y1="51.7" x2="148.4" y2="136.6"/>
	<line class="st2" x1="160.1" y1="51.7" x2="159.3" y2="136.6"/>
	<line class="st2" x1="222.4" y1="51.7" x2="212.9" y2="147.9"/>
	<line class="st2" x1="234.9" y1="51.7" x2="223.6" y2="147.9"/>
	<line class="st2" x1="135.2" y1="51.7" x2="137.5" y2="136.6"/>
	<line class="st2" x1="197.5" y1="51.7" x2="191.4" y2="147.9"/>
	<line class="st2" x1="209.9" y1="51.7" x2="202.2" y2="147.9"/>
	<line class="st2" x1="72.9" y1="51.7" x2="84.1" y2="147.9"/>
	<line class="st2" x1="85.3" y1="51.7" x2="94.8" y2="147.9"/>
	<line class="st2" x1="110.3" y1="51.7" x2="116.3" y2="147.9"/>
	<line class="st2" x1="97.8" y1="51.7" x2="105.6" y2="147.9"/>
	<line class="st2" x1="122.7" y1="51.7" x2="127" y2="147.9"/>
</g>
</svg>
