<?xml version="1.0" encoding="utf-8"?>
<!-- Generator: Adobe Illustrator 19.1.0, SVG Export Plug-In . SVG Version: 6.00 Build 0)  -->
<svg version="1.1" id="Layer_1" xmlns="http://www.w3.org/2000/svg" xmlns:xlink="http://www.w3.org/1999/xlink" x="0px" y="0px"
	 viewBox="-305 397 308 162" style="enable-background:new -305 397 308 162;" xml:space="preserve">
<style type="text/css">
	.st0{fill:#F9B147;stroke:#000000;stroke-width:2;stroke-miterlimit:10;}
	.st1{fill:#0094B1;}
	.st2{fill:#0094B1;stroke:#000000;stroke-miterlimit:10;}
	.st3{fill:none;stroke:#000000;stroke-width:2;stroke-miterlimit:10;}
	.st4{fill:none;stroke:#000000;stroke-miterlimit:10;}
</style>
<rect id="XMLID_1811_" x="-289.6" y="503.5" class="st0" width="57.5" height="54.5"/>
<rect x="-288.6" y="504.5" class="st1" width="56.6" height="26.3"/>
<rect id="XMLID_1812_" x="-168.1" y="503.5" class="st0" width="41" height="54.5"/>
<rect id="XMLID_1825_" x="-157.1" y="509.7" class="st2" width="18.9" height="48.3"/>
<line id="XMLID_1904_" class="st3" x1="-305" y1="558" x2="3" y2="558"/>
<rect id="XMLID_1809_" x="-232" y="498" class="st0" width="63.9" height="60"/>
<rect id="XMLID_1813_" x="-127.1" y="498" class="st0" width="114.9" height="60"/>
<line id="XMLID_1815_" class="st4" x1="-280.1" y1="530.8" x2="-280.1" y2="503.5"/>
<line id="XMLID_1816_" class="st4" x1="-270.6" y1="530.8" x2="-270.6" y2="503.5"/>
<line id="XMLID_1817_" class="st4" x1="-261.1" y1="530.8" x2="-261.1" y2="503.5"/>
<g id="XMLID_1814_">
	<line id="XMLID_1823_" class="st4" x1="-147.6" y1="558" x2="-147.6" y2="509.7"/>
</g>
<g id="XMLID_1826_">
	<line id="XMLID_1827_" class="st4" x1="-152.3" y1="543.5" x2="-152.3" y2="509.7"/>
</g>
<g id="XMLID_1828_">
	<line id="XMLID_1829_" class="st4" x1="-142.9" y1="543.5" x2="-142.9" y2="509.7"/>
</g>
<line id="XMLID_1818_" class="st4" x1="-251.7" y1="530.8" x2="-251.7" y2="503.5"/>
<line id="XMLID_1819_" class="st4" x1="-242.2" y1="530.8" x2="-242.2" y2="503.5"/>
<line id="XMLID_1810_" class="st4" x1="-289.6" y1="530.8" x2="-232" y2="530.8"/>
<line id="XMLID_1833_" class="st4" x1="-289.6" y1="539.6" x2="-232" y2="539.6"/>
<line id="XMLID_1836_" class="st4" x1="-232" y1="536.8" x2="-168.1" y2="536.8"/>
<line id="XMLID_1837_" class="st4" x1="-127.1" y1="536.8" x2="-12.2" y2="536.8"/>
<line id="XMLID_1834_" class="st4" x1="-138.1" y1="539.6" x2="-126.1" y2="539.6"/>
<line id="XMLID_1835_" class="st4" x1="-168.1" y1="539.6" x2="-157.1" y2="539.6"/>
<line id="XMLID_1820_" class="st4" x1="-289.6" y1="520.2" x2="-232" y2="520.2"/>
<line id="XMLID_1824_" class="st4" x1="-157.1" y1="520.2" x2="-138.1" y2="520.2"/>
<line id="XMLID_1830_" class="st4" x1="-157.1" y1="528" x2="-138.1" y2="528"/>
<line id="XMLID_1831_" class="st4" x1="-157.1" y1="535.8" x2="-138.1" y2="535.8"/>
<line id="XMLID_1832_" class="st3" x1="-160.5" y1="543.5" x2="-134.7" y2="543.5"/>
<line id="XMLID_1821_" class="st4" x1="-289.6" y1="509.7" x2="-232" y2="509.7"/>
<rect x="-126.1" y="537.3" class="st1" width="112.9" height="19.7"/>
<rect x="-231" y="537.3" class="st1" width="61.9" height="19.7"/>
<rect x="-288.6" y="539.6" class="st1" width="55.5" height="17.4"/>
</svg>
