<?xml version="1.0" encoding="utf-8"?>
<!-- Generator: Adobe Illustrator 19.0.0, SVG Export Plug-In . SVG Version: 6.00 Build 0)  -->
<svg version="1.1" id="Layer_1" xmlns="http://www.w3.org/2000/svg" xmlns:xlink="http://www.w3.org/1999/xlink" x="0px" y="0px"
	 viewBox="-143 339.9 308 162" style="enable-background:new -143 339.9 308 162;" xml:space="preserve">
<style type="text/css">
	.st0{fill:#0094B1;stroke:#000000;stroke-miterlimit:10;}
	.st1{fill:#F9B147;stroke:#000000;stroke-miterlimit:10;}
	.st2{fill:#FAB248;stroke:#000000;stroke-miterlimit:10;}
	.st3{fill:#0094B1;stroke:#000000;stroke-width:2;stroke-miterlimit:10;}
	.st4{fill:none;stroke:#000000;stroke-width:2;stroke-miterlimit:10;}
	.st5{fill:#FAB248;stroke:#000000;stroke-width:2;stroke-miterlimit:10;}
	.st6{fill:#C0D2DA;stroke:#000000;stroke-width:2;stroke-miterlimit:10;}
	.st7{fill:none;stroke:#000000;stroke-miterlimit:10;}
</style>
<path class="st0" d="M11.2,447.2c0,0,9.6-20.9,36.4-15.3c6.7,2.1,12,7.6,12,7.6l-0.6,7.7H11.2z"/>
<rect id="XMLID_900_" x="-120.8" y="439.5" class="st0" width="125.1" height="61.4"/>
<rect x="-120.3" y="439.9" class="st1" width="124" height="4.4"/>
<rect x="4.3" y="456.2" class="st2" width="43.6" height="27.4"/>
<rect id="XMLID_902_" x="4.3" y="456.2" class="st3" width="55.3" height="44.7"/>
<rect id="XMLID_955_" x="112.6" y="456.2" class="st3" width="22.4" height="44.7"/>
<rect id="XMLID_1_" x="112.6" y="456.2" class="st2" width="22.4" height="27.4"/>
<polyline id="XMLID_940_" class="st3" points="112.6,500.9 112.6,439.5 59.6,439.5 59.6,500.9 "/>
<rect x="5.1" y="456.2" class="st1" width="43.6" height="27.4"/>
<line id="XMLID_983_" class="st4" x1="-134" y1="500.9" x2="165" y2="500.9"/>
<polygon id="XMLID_958_" class="st5" points="143.9,456.2 112.6,456.2 112.6,447.8 146.6,447.8 "/>
<rect id="XMLID_901_" x="47.9" y="456.2" class="st6" width="4.5" height="44.7"/>
<polygon id="XMLID_905_" class="st6" points="52.3,423.6 47.9,420.9 47.9,447.8 52.3,447.8 "/>
<rect id="XMLID_957_" x="121.6" y="456.2" class="st6" width="4.5" height="44.7"/>
<polygon id="XMLID_956_" class="st6" points="121.6,423.6 126,420.9 126,447.8 121.6,447.8 "/>
<line id="XMLID_904_" class="st7" x1="4.3" y1="443.9" x2="-120.8" y2="443.9"/>
<line id="XMLID_909_" class="st7" x1="4.3" y1="452" x2="-120.8" y2="452"/>
<line id="XMLID_910_" class="st7" x1="-71.5" y1="459.9" x2="-120.8" y2="459.9"/>
<line id="XMLID_911_" class="st7" x1="-71.5" y1="467.8" x2="-120.8" y2="467.8"/>
<line id="XMLID_912_" class="st7" x1="-71.5" y1="475.7" x2="-120.8" y2="475.7"/>
<line id="XMLID_913_" class="st7" x1="-71.5" y1="483.6" x2="-120.8" y2="483.6"/>
<line id="XMLID_928_" class="st7" x1="-45.1" y1="459.9" x2="-58.3" y2="459.9"/>
<line id="XMLID_927_" class="st7" x1="-45.1" y1="467.8" x2="-58.3" y2="467.8"/>
<line id="XMLID_926_" class="st7" x1="-45.1" y1="475.7" x2="-58.3" y2="475.7"/>
<line id="XMLID_925_" class="st7" x1="-45.1" y1="483.6" x2="-58.3" y2="483.6"/>
<line id="XMLID_932_" class="st7" x1="4.3" y1="459.9" x2="-31.9" y2="459.9"/>
<line id="XMLID_931_" class="st7" x1="4.3" y1="467.8" x2="-31.9" y2="467.8"/>
<line id="XMLID_930_" class="st7" x1="4.3" y1="475.7" x2="-31.9" y2="475.7"/>
<line id="XMLID_929_" class="st7" x1="4.3" y1="483.6" x2="-31.9" y2="483.6"/>
<line id="XMLID_914_" class="st7" x1="4.3" y1="491.5" x2="-120.8" y2="491.5"/>
<line id="XMLID_946_" class="st7" x1="112.6" y1="452" x2="67.4" y2="452"/>
<line id="XMLID_945_" class="st7" x1="112.6" y1="459.9" x2="59.6" y2="459.9"/>
<line id="XMLID_944_" class="st7" x1="112.6" y1="467.8" x2="59.6" y2="467.8"/>
<line id="XMLID_943_" class="st7" x1="112.6" y1="475.7" x2="59.6" y2="475.7"/>
<line id="XMLID_942_" class="st7" x1="112.6" y1="483.6" x2="59.6" y2="483.6"/>
<line id="XMLID_959_" class="st7" x1="121.6" y1="483.6" x2="112.6" y2="483.6"/>
<line id="XMLID_960_" class="st7" x1="135" y1="483.6" x2="126" y2="483.6"/>
<line id="XMLID_941_" class="st7" x1="90.3" y1="491.5" x2="59.6" y2="491.5"/>
<line id="XMLID_953_" class="st7" x1="112.6" y1="491.5" x2="107.2" y2="491.5"/>
<line id="XMLID_906_" class="st7" x1="4.3" y1="483.6" x2="47.9" y2="483.6"/>
<line id="XMLID_907_" class="st7" x1="52.3" y1="483.6" x2="59.6" y2="483.6"/>
<line id="XMLID_908_" class="st7" x1="-111" y1="443.9" x2="-111" y2="500.9"/>
<line id="XMLID_916_" class="st7" x1="-97.8" y1="443.9" x2="-97.8" y2="500.9"/>
<line id="XMLID_917_" class="st7" x1="-84.6" y1="443.9" x2="-84.6" y2="500.9"/>
<line id="XMLID_918_" class="st7" x1="-71.5" y1="443.9" x2="-71.5" y2="500.9"/>
<line id="XMLID_919_" class="st7" x1="-58.3" y1="443.9" x2="-58.3" y2="500.9"/>
<line id="XMLID_920_" class="st7" x1="-45.1" y1="443.9" x2="-45.1" y2="500.9"/>
<line id="XMLID_921_" class="st7" x1="-31.9" y1="443.9" x2="-31.9" y2="500.9"/>
<line id="XMLID_922_" class="st7" x1="-18.7" y1="443.9" x2="-18.7" y2="500.9"/>
<line id="XMLID_923_" class="st7" x1="-5.5" y1="443.9" x2="-5.5" y2="500.9"/>
<line id="XMLID_947_" class="st7" x1="64.9" y1="456.2" x2="64.9" y2="500.9"/>
<line id="XMLID_954_" class="st7" x1="64.9" y1="439.5" x2="64.9" y2="447.8"/>
<line id="XMLID_948_" class="st7" x1="73.4" y1="439.5" x2="73.4" y2="500.9"/>
<line id="XMLID_949_" class="st7" x1="81.9" y1="439.5" x2="81.9" y2="500.9"/>
<line id="XMLID_950_" class="st7" x1="90.3" y1="439.5" x2="90.3" y2="500.9"/>
<line id="XMLID_951_" class="st7" x1="98.8" y1="439.5" x2="98.8" y2="483.6"/>
<line id="XMLID_952_" class="st7" x1="107.2" y1="439.5" x2="107.2" y2="500.9"/>
<g id="XMLID_915_">
	<line id="XMLID_924_" class="st7" x1="13.8" y1="483.6" x2="13.8" y2="500.9"/>
	<line id="XMLID_935_" class="st7" x1="22" y1="483.6" x2="22" y2="500.9"/>
	<line id="XMLID_936_" class="st7" x1="30.1" y1="483.6" x2="30.1" y2="500.9"/>
	<line id="XMLID_937_" class="st7" x1="38.3" y1="483.6" x2="38.3" y2="500.9"/>
</g>
<line id="XMLID_938_" class="st4" x1="-124.8" y1="435.5" x2="8.2" y2="435.5"/>
<path id="XMLID_962_" class="st7" d="M52.7,433.9c3,1.6,5.7,3.6,8.1,6.1"/>
<path id="XMLID_939_" class="st0" d="M10.8,447.8c5-10.3,15.5-17.3,27.7-17.3c3.3,0,6.4,0.5,9.4,1.4"/>
<rect id="XMLID_903_" x="4.3" y="447.8" class="st5" width="63.2" height="8.3"/>
<rect x="-84.1" y="452.5" class="st1" width="12.2" height="6.9"/>
<rect x="-84.1" y="468.3" class="st1" width="12.2" height="6.9"/>
<rect x="-84.1" y="484.1" class="st1" width="12.2" height="6.9"/>
<rect x="-57.8" y="452.5" class="st1" width="12.2" height="6.9"/>
<rect x="-57.8" y="468.3" class="st1" width="12.2" height="6.9"/>
<rect x="-57.8" y="484.1" class="st1" width="12.2" height="6.9"/>
</svg>
