<?xml version="1.0" encoding="utf-8"?>
<!-- Generator: Adobe Illustrator 19.0.0, SVG Export Plug-In . SVG Version: 6.00 Build 0)  -->
<svg version="1.1" id="Layer_1" xmlns="http://www.w3.org/2000/svg" xmlns:xlink="http://www.w3.org/1999/xlink" x="0px" y="0px"
	 viewBox="-143 339.9 308 162" style="enable-background:new -143 339.9 308 162;" xml:space="preserve">
<style type="text/css">
	.st0{fill:#F9B147;stroke:#000000;stroke-width:2;stroke-miterlimit:10;}
	.st1{fill:#0094B1;}
	.st2{fill:#0094B1;stroke:#000000;stroke-width:2;stroke-miterlimit:10;}
	.st3{fill:none;stroke:#000000;stroke-width:2;stroke-miterlimit:10;}
	.st4{fill:#C0D2DA;stroke:#000000;stroke-miterlimit:10;}
	.st5{fill:none;stroke:#000000;stroke-linejoin:bevel;stroke-miterlimit:10;}
	.st6{fill:none;stroke:#000000;stroke-width:2;stroke-linejoin:bevel;stroke-miterlimit:10;}
	.st7{fill:none;stroke:#000000;stroke-miterlimit:10;}
</style>
<g id="XMLID_2135_">
	<rect id="XMLID_2103_" x="-111.4" y="449.8" class="st0" width="77.9" height="51.1"/>
	<rect id="XMLID_2121_" x="31.7" y="449.8" class="st0" width="77.9" height="51.1"/>
	<polygon class="st1" points="50.8,482 50.8,463.2 -52.7,463.2 -52.7,482 -62.3,482 -62.3,500 60.4,500 60.4,482 	"/>
	<rect id="XMLID_2096_" x="-33.5" y="445.1" class="st2" width="65.2" height="55.8"/>
	<line id="XMLID_2160_" class="st3" x1="-130.7" y1="500.9" x2="165" y2="500.9"/>
	<line id="XMLID_2097_" class="st3" x1="-72.5" y1="482" x2="70.6" y2="482"/>
	<line id="XMLID_2108_" class="st3" x1="-111.4" y1="482" x2="-93.5" y2="482"/>
	<path id="XMLID_2101_" class="st4" d="M31.7,485.8C23.2,471.1,11.7,462-0.9,462s-24.1,9.1-32.6,23.8v8.8
		c8.5-13.8,19.9-22.4,32.6-22.4s24.1,8.5,32.6,22.4V485.8z"/>
	<line id="XMLID_2098_" class="st3" x1="-33.5" y1="445.1" x2="-33.5" y2="420.9"/>
	<line id="XMLID_2100_" class="st3" x1="31.7" y1="445.1" x2="31.7" y2="420.9"/>
	<polyline id="XMLID_2104_" class="st5" points="-19,468.5 -33.5,421.6 -0.9,462.1 	"/>
	<polyline id="XMLID_2102_" class="st5" points="17.1,468.5 31.7,421.6 -0.9,462.1 	"/>
	<line id="XMLID_2099_" class="st6" x1="-0.9" y1="482" x2="-0.9" y2="500.9"/>
	<line id="XMLID_2109_" class="st6" x1="-62.3" y1="482" x2="-62.3" y2="500.9"/>
	<line id="XMLID_2112_" class="st6" x1="-100.3" y1="482" x2="-100.3" y2="500.9"/>
	<line id="XMLID_2106_" class="st5" x1="-22.7" y1="482" x2="-22.7" y2="500.9"/>
	<line id="XMLID_2107_" class="st5" x1="-11.8" y1="482" x2="-11.8" y2="500.9"/>
	<g id="XMLID_2105_">
		<line id="XMLID_2118_" class="st5" x1="-52.7" y1="482" x2="-52.7" y2="500.9"/>
		<line id="XMLID_2116_" class="st5" x1="-33.5" y1="491.5" x2="-62.3" y2="491.5"/>
		<line id="XMLID_2119_" class="st5" x1="-33.5" y1="472.6" x2="-52.7" y2="472.6"/>
		<line id="XMLID_2115_" class="st5" x1="-43.1" y1="463.2" x2="-43.1" y2="500.9"/>
	</g>
	<line id="XMLID_2111_" class="st5" x1="9.9" y1="482" x2="9.9" y2="500.9"/>
	<line id="XMLID_2110_" class="st5" x1="20.8" y1="482" x2="20.8" y2="500.9"/>
	<line id="XMLID_2113_" class="st5" x1="29.6" y1="491.5" x2="-31.3" y2="491.5"/>
	<rect id="XMLID_2114_" x="-52.7" y="463.2" class="st7" width="19.2" height="18.9"/>
	<line id="XMLID_2129_" class="st3" x1="109.6" y1="482" x2="91.6" y2="482"/>
	<line id="XMLID_2128_" class="st6" x1="60.4" y1="482" x2="60.4" y2="500.9"/>
	<line id="XMLID_2127_" class="st6" x1="98.4" y1="482" x2="98.4" y2="500.9"/>
	<g id="XMLID_2122_">
		<line id="XMLID_2126_" class="st5" x1="50.8" y1="482" x2="50.8" y2="500.9"/>
		<line id="XMLID_2125_" class="st5" x1="31.7" y1="491.5" x2="60.4" y2="491.5"/>
		<line id="XMLID_2124_" class="st5" x1="31.7" y1="472.6" x2="50.8" y2="472.6"/>
		<line id="XMLID_2123_" class="st5" x1="41.3" y1="463.2" x2="41.3" y2="500.9"/>
	</g>
	<rect id="XMLID_2120_" x="31.7" y="463.2" class="st7" width="19.2" height="18.9"/>
	<line id="XMLID_2117_" class="st7" x1="-111.4" y1="454.9" x2="-33.5" y2="454.9"/>
	<g id="XMLID_2130_">
		<line id="XMLID_2132_" class="st7" x1="-111.4" y1="446.1" x2="-85.4" y2="446.1"/>
		<line id="XMLID_2133_" class="st7" x1="-111.4" y1="443" x2="-85.4" y2="443"/>
		<line id="XMLID_2134_" class="st7" x1="-111.4" y1="439.9" x2="-85.4" y2="439.9"/>
	</g>
	<g id="XMLID_2136_">
		<line id="XMLID_2139_" class="st7" x1="83.6" y1="446.1" x2="109.6" y2="446.1"/>
		<line id="XMLID_2138_" class="st7" x1="83.6" y1="443" x2="109.6" y2="443"/>
		<line id="XMLID_2137_" class="st7" x1="83.6" y1="439.9" x2="109.6" y2="439.9"/>
	</g>
	<line id="XMLID_2131_" class="st7" x1="31.7" y1="454.9" x2="109.6" y2="454.9"/>
</g>
</svg>
