<?xml version="1.0" encoding="utf-8"?>
<!-- Generator: Adobe Illustrator 21.0.0, SVG Export Plug-In . SVG Version: 6.00 Build 0)  -->
<svg version="1.2" baseProfile="tiny" id="Layer_1" xmlns="http://www.w3.org/2000/svg" xmlns:xlink="http://www.w3.org/1999/xlink"
	 x="0px" y="0px" viewBox="0 0 308 162" xml:space="preserve">
<polygon id="XMLID_7743_" fill="#656565" points="307.1,162.1 33.1,162.1 34.1,160.1 308.1,160.1 "/>
<polygon id="XMLID_6436_" fill="#656565" points="127.1,134.1 127.1,160.1 129.1,160.1 129.1,138.1 132.1,136.1 133.1,136.1 
	136.1,138.1 136.1,160.1 138.1,160.1 138.1,134.1 "/>
<rect id="XMLID_6435_" x="129.1" y="128.1" fill="#656565" width="1" height="6"/>
<rect id="XMLID_6434_" x="135.1" y="128.1" fill="#656565" width="1" height="6"/>
<rect id="XMLID_6433_" x="132.1" y="129.1" fill="#656565" width="1" height="31"/>
<rect id="XMLID_6432_" x="125.1" y="125.1" fill="#656565" width="1" height="35"/>
<rect id="XMLID_6431_" x="139.1" y="125.1" fill="#656565" width="1" height="35"/>
<rect id="XMLID_6430_" x="130.1" y="128.1" fill="#656565" width="6" height="1"/>
<rect id="XMLID_6429_" x="126.1" y="125.1" fill="#656565" width="13" height="1"/>
<rect id="XMLID_6428_" x="130.1" y="131.1" fill="#656565" width="6" height="1"/>
<rect id="XMLID_6427_" x="129.1" y="142.1" fill="#656565" width="7" height="1"/>
<rect id="XMLID_6426_" x="129.1" y="146.1" fill="#656565" width="7" height="1"/>
<rect id="XMLID_6425_" x="129.1" y="156.1" fill="#656565" width="7" height="1"/>
<polygon id="XMLID_6424_" fill="#656565" points="146.1,134.1 146.1,160.1 148.1,160.1 148.1,138.1 151.1,136.1 152.1,136.1 
	155.1,138.1 155.1,160.1 157.1,160.1 157.1,134.1 "/>
<rect id="XMLID_6423_" x="148.1" y="128.1" fill="#656565" width="1" height="6"/>
<rect id="XMLID_6422_" x="154.1" y="128.1" fill="#656565" width="1" height="6"/>
<rect id="XMLID_6421_" x="151.1" y="129.1" fill="#656565" width="1" height="31"/>
<rect id="XMLID_6420_" x="144.1" y="125.1" fill="#656565" width="1" height="35"/>
<rect id="XMLID_6419_" x="158.1" y="125.1" fill="#656565" width="1" height="35"/>
<rect id="XMLID_6418_" x="149.1" y="128.1" fill="#656565" width="6" height="1"/>
<rect id="XMLID_6417_" x="165.1" y="125.1" fill="#656565" width="27" height="2"/>
<rect id="XMLID_6416_" x="145.1" y="125.1" fill="#656565" width="13" height="1"/>
<rect id="XMLID_6415_" x="149.1" y="131.1" fill="#656565" width="6" height="1"/>
<rect id="XMLID_6414_" x="167.1" y="131.1" fill="#656565" width="23" height="1"/>
<rect id="XMLID_6413_" x="148.1" y="142.1" fill="#656565" width="7" height="1"/>
<rect id="XMLID_6412_" x="148.1" y="146.1" fill="#656565" width="7" height="1"/>
<rect id="XMLID_6411_" x="148.1" y="156.1" fill="#656565" width="7" height="1"/>
<rect id="XMLID_6410_" x="175.1" y="127.1" fill="#656565" width="1" height="24"/>
<rect id="XMLID_6409_" x="169.1" y="127.1" fill="#656565" width="1" height="33"/>
<rect id="XMLID_6408_" x="165.1" y="127.1" fill="#656565" width="2" height="33"/>
<rect id="XMLID_6407_" x="181.1" y="127.1" fill="#656565" width="1" height="24"/>
<rect id="XMLID_6406_" x="167.1" y="142.1" fill="#656565" width="23" height="1"/>
<rect id="XMLID_6405_" x="167.1" y="146.1" fill="#656565" width="23" height="1"/>
<rect id="XMLID_6404_" x="167.1" y="156.1" fill="#656565" width="5" height="1"/>
<rect id="XMLID_6403_" x="185.1" y="156.1" fill="#656565" width="5" height="1"/>
<rect id="XMLID_6402_" x="187.1" y="127.1" fill="#656565" width="1" height="33"/>
<rect id="XMLID_6401_" x="190.1" y="127.1" fill="#656565" width="2" height="33"/>
<polygon id="XMLID_6400_" fill="#656565" points="108.1,134.1 108.1,160.1 110.1,160.1 110.1,138.1 113.1,136.1 114.1,136.1 
	117.1,138.1 117.1,160.1 119.1,160.1 119.1,134.1 "/>
<rect id="XMLID_6399_" x="110.1" y="128.1" fill="#656565" width="1" height="6"/>
<rect id="XMLID_6398_" x="116.1" y="128.1" fill="#656565" width="1" height="6"/>
<rect id="XMLID_6397_" x="113.1" y="129.1" fill="#656565" width="1" height="31"/>
<rect id="XMLID_6396_" x="106.1" y="125.1" fill="#656565" width="1" height="35"/>
<rect id="XMLID_6395_" x="98.1" y="107.1" fill="#656565" width="2" height="53"/>
<rect id="XMLID_6394_" x="52.1" y="109.1" fill="#656565" width="2" height="51"/>
<rect id="XMLID_6393_" x="257.1" y="107.1" fill="#656565" width="2" height="53"/>
<rect id="XMLID_6392_" x="120.1" y="125.1" fill="#656565" width="1" height="35"/>
<rect id="XMLID_6391_" x="111.1" y="128.1" fill="#656565" width="6" height="1"/>
<rect id="XMLID_6390_" x="107.1" y="125.1" fill="#656565" width="13" height="1"/>
<rect id="XMLID_6389_" x="111.1" y="131.1" fill="#656565" width="6" height="1"/>
<rect id="XMLID_6388_" x="110.1" y="142.1" fill="#656565" width="7" height="1"/>
<rect id="XMLID_6387_" x="110.1" y="146.1" fill="#656565" width="7" height="1"/>
<rect id="XMLID_6386_" x="110.1" y="156.1" fill="#656565" width="7" height="1"/>
<polygon id="XMLID_6385_" fill="#656565" points="219.1,134.1 219.1,160.1 221.1,160.1 221.1,138.1 224.1,136.1 225.1,136.1 
	228.1,138.1 228.1,160.1 230.1,160.1 230.1,134.1 "/>
<rect id="XMLID_6384_" x="221.1" y="128.1" fill="#656565" width="1" height="6"/>
<rect id="XMLID_6383_" x="227.1" y="128.1" fill="#656565" width="1" height="6"/>
<rect id="XMLID_6382_" x="224.1" y="129.1" fill="#656565" width="1" height="31"/>
<rect id="XMLID_6381_" x="217.1" y="125.1" fill="#656565" width="1" height="35"/>
<rect id="XMLID_6380_" x="231.1" y="125.1" fill="#656565" width="1" height="35"/>
<rect id="XMLID_6379_" x="222.1" y="128.1" fill="#656565" width="6" height="1"/>
<rect id="XMLID_6378_" x="218.1" y="125.1" fill="#656565" width="13" height="1"/>
<rect id="XMLID_6377_" x="222.1" y="131.1" fill="#656565" width="6" height="1"/>
<rect id="XMLID_6376_" x="221.1" y="142.1" fill="#656565" width="7" height="1"/>
<rect id="XMLID_6375_" x="221.1" y="146.1" fill="#656565" width="7" height="1"/>
<rect id="XMLID_6374_" x="221.1" y="156.1" fill="#656565" width="7" height="1"/>
<polygon id="XMLID_6373_" fill="#656565" points="238.1,134.1 238.1,160.1 240.1,160.1 240.1,138.1 243.1,136.1 244.1,136.1 
	247.1,138.1 247.1,160.1 249.1,160.1 249.1,134.1 "/>
<rect id="XMLID_6372_" x="240.1" y="128.1" fill="#656565" width="1" height="6"/>
<rect id="XMLID_6371_" x="246.1" y="128.1" fill="#656565" width="1" height="6"/>
<rect id="XMLID_6370_" x="243.1" y="129.1" fill="#656565" width="1" height="31"/>
<rect id="XMLID_6369_" x="236.1" y="125.1" fill="#656565" width="1" height="35"/>
<rect id="XMLID_6368_" x="250.1" y="125.1" fill="#656565" width="1" height="35"/>
<rect id="XMLID_6367_" x="241.1" y="128.1" fill="#656565" width="6" height="1"/>
<rect id="XMLID_6366_" x="237.1" y="125.1" fill="#656565" width="13" height="1"/>
<rect id="XMLID_6365_" x="241.1" y="131.1" fill="#656565" width="6" height="1"/>
<rect id="XMLID_6364_" x="240.1" y="142.1" fill="#656565" width="7" height="1"/>
<rect id="XMLID_6363_" x="240.1" y="146.1" fill="#656565" width="7" height="1"/>
<rect id="XMLID_6362_" x="240.1" y="156.1" fill="#656565" width="7" height="1"/>
<polygon id="XMLID_6361_" fill="#656565" points="200.1,134.1 200.1,160.1 202.1,160.1 202.1,138.1 205.1,136.1 206.1,136.1 
	209.1,138.1 209.1,160.1 211.1,160.1 211.1,134.1 "/>
<rect id="XMLID_6360_" x="202.1" y="128.1" fill="#656565" width="1" height="6"/>
<rect id="XMLID_6359_" x="208.1" y="128.1" fill="#656565" width="1" height="6"/>
<rect id="XMLID_6358_" x="205.1" y="129.1" fill="#656565" width="1" height="31"/>
<rect id="XMLID_6357_" x="198.1" y="125.1" fill="#656565" width="1" height="35"/>
<rect id="XMLID_6356_" x="212.1" y="125.1" fill="#656565" width="1" height="35"/>
<rect id="XMLID_6355_" x="203.1" y="128.1" fill="#656565" width="6" height="1"/>
<rect id="XMLID_6354_" x="199.1" y="125.1" fill="#656565" width="13" height="1"/>
<rect id="XMLID_6353_" x="203.1" y="131.1" fill="#656565" width="6" height="1"/>
<rect id="XMLID_6352_" x="202.1" y="142.1" fill="#656565" width="7" height="1"/>
<rect id="XMLID_6351_" x="202.1" y="146.1" fill="#656565" width="7" height="1"/>
<rect id="XMLID_6350_" x="202.1" y="156.1" fill="#656565" width="7" height="1"/>
<rect id="XMLID_6349_" x="100.1" y="107.1" fill="#656565" width="157" height="2"/>
<rect id="XMLID_6348_" x="52.1" y="109.1" fill="#656565" width="46" height="2"/>
<rect id="XMLID_6347_" x="172.1" y="151.1" fill="#656565" width="13" height="2"/>
<rect id="XMLID_6346_" x="172.1" y="152.1" fill="#656565" width="2" height="8"/>
<rect id="XMLID_6345_" x="183.1" y="152.1" fill="#656565" width="2" height="8"/>
<rect id="XMLID_6344_" x="91.1" y="122.1" fill="#656565" width="4" height="4"/>
<rect id="XMLID_6343_" x="82.1" y="122.1" fill="#656565" width="4" height="4"/>
<rect id="XMLID_6342_" x="73.1" y="122.1" fill="#656565" width="4" height="4"/>
<rect id="XMLID_6341_" x="91.1" y="131.1" fill="#656565" width="4" height="4"/>
<rect id="XMLID_6340_" x="82.1" y="131.1" fill="#656565" width="4" height="4"/>
<rect id="XMLID_6339_" x="73.1" y="131.1" fill="#656565" width="4" height="4"/>
<rect id="XMLID_6338_" x="91.1" y="140.1" fill="#656565" width="4" height="4"/>
<rect id="XMLID_6337_" x="82.1" y="140.1" fill="#656565" width="4" height="4"/>
<rect id="XMLID_6336_" x="73.1" y="140.1" fill="#656565" width="4" height="4"/>
<rect id="XMLID_6335_" x="91.1" y="149.1" fill="#656565" width="4" height="4"/>
<rect id="XMLID_6334_" x="82.1" y="149.1" fill="#656565" width="4" height="4"/>
<rect id="XMLID_6333_" x="73.1" y="149.1" fill="#656565" width="4" height="4"/>
</svg>
