<?xml version="1.0" encoding="utf-8"?>
<!-- Generator: Adobe Illustrator 19.0.0, SVG Export Plug-In . SVG Version: 6.00 Build 0)  -->
<svg version="1.1" id="Layer_1" xmlns="http://www.w3.org/2000/svg" xmlns:xlink="http://www.w3.org/1999/xlink" x="0px" y="0px"
	 viewBox="-143 339.9 308 162" style="enable-background:new -143 339.9 308 162;" xml:space="preserve">
<style type="text/css">
	.st0{fill:none;stroke:#4D504F;stroke-width:2;stroke-miterlimit:10;}
	.st1{fill:none;stroke:#4D504F;stroke-miterlimit:10;}
</style>
<line id="XMLID_1026_" class="st0" x1="-134.2" y1="500.9" x2="165" y2="500.9"/>
<rect id="XMLID_964_" x="-9.2" y="451.2" class="st0" width="68.2" height="49.7"/>
<rect id="XMLID_966_" x="-9.2" y="413.3" class="st0" width="68.2" height="37.8"/>
<g id="XMLID_967_">
	<rect id="XMLID_965_" x="3.3" y="451.2" class="st1" width="5.7" height="49.7"/>
	<rect id="XMLID_968_" x="22.1" y="451.2" class="st1" width="5.7" height="49.7"/>
	<rect id="XMLID_969_" x="40.9" y="451.2" class="st1" width="5.7" height="49.7"/>
</g>
<line id="XMLID_971_" class="st0" x1="131.7" y1="475.2" x2="131.7" y2="500.9"/>
<line id="XMLID_1009_" class="st0" x1="-109.9" y1="475.2" x2="-109.9" y2="500.9"/>
<rect id="XMLID_963_" x="-2.5" y="420" class="st1" width="54.9" height="24.5"/>
<g id="XMLID_972_">
	<rect id="XMLID_973_" x="-22.9" y="413.3" class="st1" width="7" height="12.7"/>
	<rect id="XMLID_974_" x="-22.9" y="433" class="st1" width="7" height="12.7"/>
	<rect id="XMLID_975_" x="-22.9" y="452.6" class="st1" width="7" height="12.7"/>
</g>
<rect id="XMLID_980_" x="-36.2" y="413.3" class="st1" width="7" height="12.7"/>
<rect id="XMLID_979_" x="-36.2" y="433" class="st1" width="7" height="12.7"/>
<rect id="XMLID_978_" x="-36.2" y="452.6" class="st1" width="7" height="12.7"/>
<rect id="XMLID_990_" x="79" y="413.3" class="st1" width="7" height="12.7"/>
<polygon id="XMLID_977_" class="st1" points="92.2,419.1 92.2,426.1 118.7,426.1 118.7,465.3 125.6,465.3 125.6,419.1 "/>
<rect id="XMLID_989_" x="79" y="433" class="st1" width="7" height="12.7"/>
<rect id="XMLID_988_" x="79" y="452.6" class="st1" width="7" height="12.7"/>
<g id="XMLID_981_">
	<rect id="XMLID_986_" x="65.7" y="413.3" class="st1" width="7" height="12.7"/>
	<rect id="XMLID_985_" x="65.7" y="433" class="st1" width="7" height="12.7"/>
	<rect id="XMLID_984_" x="65.7" y="452.6" class="st1" width="7" height="12.7"/>
</g>
<rect id="XMLID_994_" x="-62.6" y="433" class="st1" width="20.2" height="12.7"/>
<rect id="XMLID_991_" x="-62.6" y="452.6" class="st1" width="20.2" height="12.7"/>
<rect id="XMLID_992_" x="-62.6" y="481.6" class="st1" width="20.2" height="12.7"/>
<rect id="XMLID_1003_" x="-102.3" y="481.6" class="st1" width="33.5" height="12.7"/>
<rect id="XMLID_996_" x="-36.2" y="481.6" class="st1" width="20.2" height="12.7"/>
<rect id="XMLID_1004_" x="65.7" y="481.6" class="st1" width="20.2" height="12.7"/>
<rect id="XMLID_1008_" x="92.2" y="481.6" class="st1" width="33.4" height="12.7"/>
<polygon id="XMLID_1013_" class="st1" points="-42.4,419.1 -75.8,419.1 -75.8,445.7 -68.8,445.7 -68.8,426.1 -42.4,426.1 "/>
<rect id="XMLID_999_" x="-75.8" y="452.6" class="st1" width="7" height="12.7"/>
<rect id="XMLID_1002_" x="-89.1" y="452.6" class="st1" width="7" height="12.7"/>
<rect id="XMLID_995_" x="-102.3" y="452.6" class="st1" width="7" height="12.7"/>
<g id="XMLID_997_">
	<rect id="XMLID_1001_" x="92.2" y="433" class="st1" width="7" height="12.7"/>
	<rect id="XMLID_998_" x="92.2" y="452.6" class="st1" width="7" height="12.7"/>
</g>
<g id="XMLID_1005_">
	<rect id="XMLID_1007_" x="105.4" y="433" class="st1" width="7" height="12.7"/>
	<rect id="XMLID_1006_" x="105.4" y="452.6" class="st1" width="7" height="12.7"/>
</g>
<path id="XMLID_993_" class="st0" d="M131.7,471.6v-58.2H92.2l0.1-12.5H-42.5v12.5h-39.6v32.4h-27.8v25.9"/>
<line id="XMLID_970_" class="st1" x1="-9.2" y1="471.6" x2="-115.1" y2="471.6"/>
<line id="XMLID_1010_" class="st1" x1="-9.2" y1="475.2" x2="-115.1" y2="475.2"/>
<line id="XMLID_1012_" class="st1" x1="136.9" y1="471.6" x2="59" y2="471.6"/>
<line id="XMLID_1011_" class="st1" x1="136.9" y1="475.2" x2="59" y2="475.2"/>
</svg>
