<?xml version="1.0" encoding="utf-8"?>
<!-- Generator: Adobe Illustrator 19.1.0, SVG Export Plug-In . SVG Version: 6.00 Build 0)  -->
<svg version="1.1" id="Layer_1" xmlns="http://www.w3.org/2000/svg" xmlns:xlink="http://www.w3.org/1999/xlink" x="0px" y="0px"
	 viewBox="-305 397 308 162" style="enable-background:new -305 397 308 162;" xml:space="preserve">
<style type="text/css">
	.st0{fill:none;stroke:#4D504F;stroke-width:2;stroke-miterlimit:10;}
	.st1{fill:none;stroke:#4D504F;stroke-miterlimit:10;}
</style>
<line id="XMLID_1867_" class="st0" x1="-300.3" y1="558" x2="3" y2="558"/>
<polygon id="XMLID_1850_" class="st0" points="-189,495.8 -203.3,500.4 -203.3,558 -189,558 -189,508.8 -95.1,508.8 -95.1,495.8 "/>
<line id="XMLID_1841_" class="st1" x1="-181.1" y1="508.8" x2="-181.1" y2="548.2"/>
<line id="XMLID_1842_" class="st1" x1="-173.3" y1="508.8" x2="-173.3" y2="558"/>
<line id="XMLID_1843_" class="st1" x1="-165.4" y1="508.8" x2="-165.4" y2="548.2"/>
<g id="XMLID_1840_">
	<line id="XMLID_1844_" class="st1" x1="-157.6" y1="508.8" x2="-157.6" y2="558"/>
</g>
<g id="XMLID_1845_">
	<line id="XMLID_1846_" class="st1" x1="-189" y1="518.7" x2="-157.6" y2="518.7"/>
	<line id="XMLID_1847_" class="st0" x1="-189" y1="528.5" x2="-157.6" y2="528.5"/>
	<line id="XMLID_1848_" class="st1" x1="-189" y1="538.3" x2="-157.6" y2="538.3"/>
	<line id="XMLID_1849_" class="st1" x1="-189" y1="548.2" x2="-157.6" y2="548.2"/>
</g>
<line id="XMLID_1822_" class="st0" x1="-189" y1="495.8" x2="-189" y2="508.8"/>
<g id="XMLID_1857_">
	<line id="XMLID_1859_" class="st1" x1="-260.3" y1="518.7" x2="-260.3" y2="558"/>
	<g id="XMLID_1852_">
		<line id="XMLID_1855_" class="st1" x1="-268.2" y1="528.5" x2="-252.5" y2="528.5"/>
		<line id="XMLID_1854_" class="st1" x1="-268.2" y1="538.3" x2="-252.5" y2="538.3"/>
		<line id="XMLID_1853_" class="st1" x1="-268.2" y1="548.2" x2="-252.5" y2="548.2"/>
	</g>
	<rect id="XMLID_1851_" x="-268.2" y="518.7" class="st1" width="15.7" height="39.3"/>
</g>
<g id="XMLID_1858_">
	<line id="XMLID_1865_" class="st1" x1="-74.5" y1="518.7" x2="-74.5" y2="558"/>
	<g id="XMLID_1861_">
		<line id="XMLID_1864_" class="st1" x1="-82.4" y1="528.5" x2="-66.7" y2="528.5"/>
		<line id="XMLID_1863_" class="st1" x1="-82.4" y1="538.3" x2="-66.7" y2="538.3"/>
		<line id="XMLID_1862_" class="st1" x1="-82.4" y1="548.2" x2="-66.7" y2="548.2"/>
	</g>
	<rect id="XMLID_1860_" x="-82.4" y="518.7" class="st1" width="15.7" height="39.3"/>
</g>
<polyline id="XMLID_1868_" class="st1" points="-26.4,504.8 -26.4,493 -87.4,493 -87.4,504.8 "/>
<polyline id="XMLID_1839_" class="st1" points="-226.1,504.8 -226.1,493 -275.1,493 -275.1,504.8 "/>
<polygon id="XMLID_1872_" class="st0" points="-260.3,504.8 -260.3,498 -268.2,498 -268.2,504.8 -280.9,504.8 -280.9,558 
	-203.3,558 -203.3,504.8 "/>
<polyline id="XMLID_1838_" class="st0" points="-157.2,558 -20.9,558 -20.9,504.8 -74.5,504.8 -74.5,498 -82.4,498 -82.4,504.8 
	-95.1,504.8 "/>
</svg>
