<?xml version="1.0" encoding="utf-8"?>
<!-- Generator: Adobe Illustrator 19.0.0, SVG Export Plug-In . SVG Version: 6.00 Build 0)  -->
<svg version="1.1" id="Layer_1" xmlns="http://www.w3.org/2000/svg" xmlns:xlink="http://www.w3.org/1999/xlink" x="0px" y="0px"
	 viewBox="-143 339.9 308 162" style="enable-background:new -143 339.9 308 162;" xml:space="preserve">
<style type="text/css">
	.st0{fill:none;stroke:#4D504F;stroke-width:2;stroke-miterlimit:10;}
	.st1{fill:none;stroke:#4D504F;stroke-miterlimit:10;}
</style>
<g>
	<line id="XMLID_60_" class="st0" x1="-133.9" y1="500.8" x2="165" y2="500.8"/>
	<rect id="XMLID_59_" x="-120.8" y="439.4" class="st0" width="125.1" height="61.4"/>
	<rect id="XMLID_58_" x="4.3" y="456.1" class="st0" width="55.3" height="44.7"/>
	<rect id="XMLID_57_" x="112.6" y="456.1" class="st0" width="22.4" height="44.7"/>
	<rect id="XMLID_56_" x="4.3" y="447.8" class="st0" width="63.2" height="8.3"/>
	<polygon id="XMLID_55_" class="st0" points="143.9,456.1 112.6,456.1 112.6,447.8 146.6,447.8 	"/>
	<rect id="XMLID_54_" x="47.9" y="456.1" class="st0" width="4.5" height="44.7"/>
	<polygon id="XMLID_53_" class="st0" points="52.3,423.5 47.9,420.8 47.9,447.8 52.3,447.8 	"/>
	<rect id="XMLID_52_" x="121.6" y="456.1" class="st0" width="4.5" height="44.7"/>
	<polygon id="XMLID_51_" class="st0" points="121.6,423.5 126.1,420.8 126.1,447.8 121.6,447.8 	"/>
	<line id="XMLID_50_" class="st1" x1="4.3" y1="443.9" x2="-120.8" y2="443.9"/>
	<line id="XMLID_49_" class="st1" x1="4.3" y1="452" x2="-120.8" y2="452"/>
	<line id="XMLID_48_" class="st1" x1="-71.4" y1="459.8" x2="-120.8" y2="459.8"/>
	<line id="XMLID_47_" class="st1" x1="-71.4" y1="467.7" x2="-120.8" y2="467.7"/>
	<line id="XMLID_46_" class="st1" x1="-71.4" y1="475.6" x2="-120.8" y2="475.6"/>
	<line id="XMLID_45_" class="st1" x1="-71.4" y1="483.5" x2="-120.8" y2="483.5"/>
	<line id="XMLID_928_" class="st1" x1="-45.1" y1="459.8" x2="-58.3" y2="459.8"/>
	<line id="XMLID_44_" class="st1" x1="-45.1" y1="467.7" x2="-58.3" y2="467.7"/>
	<line id="XMLID_43_" class="st1" x1="-45.1" y1="475.6" x2="-58.3" y2="475.6"/>
	<line id="XMLID_42_" class="st1" x1="-45.1" y1="483.5" x2="-58.3" y2="483.5"/>
	<line id="XMLID_41_" class="st1" x1="4.3" y1="459.8" x2="-31.9" y2="459.8"/>
	<line id="XMLID_40_" class="st1" x1="4.3" y1="467.7" x2="-31.9" y2="467.7"/>
	<line id="XMLID_39_" class="st1" x1="4.3" y1="475.6" x2="-31.9" y2="475.6"/>
	<line id="XMLID_38_" class="st1" x1="4.3" y1="483.5" x2="-31.9" y2="483.5"/>
	<line id="XMLID_37_" class="st1" x1="4.3" y1="491.4" x2="-120.8" y2="491.4"/>
	<line id="XMLID_36_" class="st1" x1="112.6" y1="452" x2="67.5" y2="452"/>
	<line id="XMLID_35_" class="st1" x1="112.6" y1="459.8" x2="59.6" y2="459.8"/>
	<line id="XMLID_34_" class="st1" x1="112.6" y1="467.7" x2="59.6" y2="467.7"/>
	<line id="XMLID_33_" class="st1" x1="112.6" y1="475.6" x2="59.6" y2="475.6"/>
	<line id="XMLID_32_" class="st1" x1="112.6" y1="483.5" x2="59.6" y2="483.5"/>
	<line id="XMLID_31_" class="st1" x1="121.6" y1="483.5" x2="112.6" y2="483.5"/>
	<line id="XMLID_30_" class="st1" x1="135.1" y1="483.5" x2="126.1" y2="483.5"/>
	<line id="XMLID_29_" class="st1" x1="90.3" y1="491.4" x2="59.6" y2="491.4"/>
	<line id="XMLID_28_" class="st1" x1="112.6" y1="491.4" x2="107.2" y2="491.4"/>
	<line id="XMLID_27_" class="st1" x1="4.3" y1="483.5" x2="47.9" y2="483.5"/>
	<line id="XMLID_26_" class="st1" x1="52.3" y1="483.5" x2="59.6" y2="483.5"/>
	<line id="XMLID_25_" class="st1" x1="-111" y1="443.9" x2="-111" y2="500.8"/>
	<line id="XMLID_24_" class="st1" x1="-97.8" y1="443.9" x2="-97.8" y2="500.8"/>
	<line id="XMLID_23_" class="st1" x1="-84.6" y1="443.9" x2="-84.6" y2="500.8"/>
	<line id="XMLID_22_" class="st1" x1="-71.4" y1="443.9" x2="-71.4" y2="500.8"/>
	<line id="XMLID_21_" class="st1" x1="-58.3" y1="443.9" x2="-58.3" y2="500.8"/>
	<line id="XMLID_20_" class="st1" x1="-45.1" y1="443.9" x2="-45.1" y2="500.8"/>
	<line id="XMLID_19_" class="st1" x1="-31.9" y1="443.9" x2="-31.9" y2="500.8"/>
	<line id="XMLID_18_" class="st1" x1="-18.7" y1="443.9" x2="-18.7" y2="500.8"/>
	<line id="XMLID_17_" class="st1" x1="-5.5" y1="443.9" x2="-5.5" y2="500.8"/>
	<line id="XMLID_16_" class="st1" x1="65" y1="456.1" x2="65" y2="500.8"/>
	<line id="XMLID_15_" class="st1" x1="65" y1="439.4" x2="65" y2="447.8"/>
	<line id="XMLID_14_" class="st1" x1="73.4" y1="439.4" x2="73.4" y2="500.8"/>
	<line id="XMLID_13_" class="st1" x1="81.9" y1="439.4" x2="81.9" y2="500.8"/>
	<line id="XMLID_12_" class="st1" x1="90.3" y1="439.4" x2="90.3" y2="500.8"/>
	<line id="XMLID_11_" class="st1" x1="98.8" y1="439.4" x2="98.8" y2="483.5"/>
	<line id="XMLID_10_" class="st1" x1="107.2" y1="439.4" x2="107.2" y2="500.8"/>
	<g id="XMLID_5_">
		<line id="XMLID_9_" class="st1" x1="13.8" y1="483.5" x2="13.8" y2="500.8"/>
		<line id="XMLID_8_" class="st1" x1="22" y1="483.5" x2="22" y2="500.8"/>
		<line id="XMLID_7_" class="st1" x1="30.2" y1="483.5" x2="30.2" y2="500.8"/>
		<line id="XMLID_6_" class="st1" x1="38.3" y1="483.5" x2="38.3" y2="500.8"/>
	</g>
	<line id="XMLID_4_" class="st0" x1="-124.8" y1="435.4" x2="8.3" y2="435.4"/>
	<polyline id="XMLID_3_" class="st0" points="112.6,500.8 112.6,439.4 59.6,439.4 59.6,447.8 	"/>
	<path id="XMLID_2_" class="st1" d="M52.7,433.9c3,1.6,5.7,3.6,8.1,6.1"/>
	<path id="XMLID_1_" class="st1" d="M10.9,447.8c5-10.3,15.5-17.3,27.7-17.3c3.3,0,6.4,0.5,9.4,1.4"/>
</g>
</svg>
