<?xml version="1.0" encoding="utf-8"?>
<!-- Generator: Adobe Illustrator 19.0.0, SVG Export Plug-In . SVG Version: 6.00 Build 0)  -->
<svg version="1.1" id="Layer_1" xmlns="http://www.w3.org/2000/svg" xmlns:xlink="http://www.w3.org/1999/xlink" x="0px" y="0px"
	 viewBox="-143 339.9 308 162" style="enable-background:new -143 339.9 308 162;" xml:space="preserve">
<style type="text/css">
	.st0{fill:none;stroke:#4D504F;stroke-width:2;stroke-miterlimit:10;}
	.st1{fill:none;stroke:#4D504F;stroke-miterlimit:10;}
</style>
<line id="XMLID_2840_" class="st0" x1="-111.4" y1="500.9" x2="165" y2="500.9"/>
<g id="XMLID_2297_">
	<rect id="XMLID_2239_" x="-23.5" y="417.4" class="st0" width="69" height="83.5"/>
	<rect id="XMLID_2240_" x="-13.7" y="431.9" class="st1" width="49.4" height="69"/>
	<rect id="XMLID_2241_" x="-9.3" y="470.7" class="st1" width="40.5" height="30.2"/>
	<polyline id="XMLID_2265_" class="st1" points="-9.3,466.4 -9.3,436.2 31.2,436.2 31.2,466.4 	"/>
	<line id="XMLID_2242_" class="st1" x1="-9.3" y1="485.8" x2="31.2" y2="485.8"/>
	<line id="XMLID_2244_" class="st1" x1="11" y1="500.9" x2="11" y2="470.7"/>
	<line id="XMLID_2245_" class="st1" x1="0.8" y1="500.9" x2="0.8" y2="470.7"/>
	<line id="XMLID_2246_" class="st1" x1="21.1" y1="500.9" x2="21.1" y2="470.7"/>
	<g id="XMLID_2247_">
		<line id="XMLID_2252_" class="st1" x1="45.5" y1="485.8" x2="86" y2="485.8"/>
		<line id="XMLID_2254_" class="st1" x1="45.5" y1="470.7" x2="86" y2="470.7"/>
		<line id="XMLID_2251_" class="st1" x1="65.7" y1="500.9" x2="65.7" y2="470.7"/>
		<line id="XMLID_2250_" class="st1" x1="55.6" y1="500.9" x2="55.6" y2="470.7"/>
		<line id="XMLID_2249_" class="st1" x1="75.8" y1="500.9" x2="75.8" y2="470.7"/>
	</g>
	<g id="XMLID_2255_">
		<line id="XMLID_2260_" class="st1" x1="45.5" y1="452.5" x2="86" y2="452.5"/>
		<line id="XMLID_2261_" class="st1" x1="45.5" y1="464" x2="86" y2="464"/>
		<line id="XMLID_2259_" class="st1" x1="45.5" y1="440.9" x2="86" y2="440.9"/>
		<line id="XMLID_2258_" class="st1" x1="65.7" y1="464" x2="65.7" y2="440.9"/>
		<line id="XMLID_2257_" class="st1" x1="55.6" y1="464" x2="55.6" y2="440.9"/>
		<line id="XMLID_2256_" class="st1" x1="75.8" y1="464" x2="75.8" y2="440.9"/>
	</g>
	<g id="XMLID_2253_">
		<line id="XMLID_2278_" class="st1" x1="93.3" y1="485.8" x2="114.3" y2="485.8"/>
		<line id="XMLID_2275_" class="st1" x1="93.3" y1="470.7" x2="114.3" y2="470.7"/>
		<line id="XMLID_2273_" class="st1" x1="103.4" y1="500.9" x2="103.4" y2="444.9"/>
		<line id="XMLID_2270_" class="st1" x1="93.3" y1="452.5" x2="114.3" y2="452.5"/>
		<rect id="XMLID_2264_" x="93.3" y="444.9" class="st1" width="20.3" height="56"/>
	</g>
	<line id="XMLID_2243_" class="st0" x1="-29.1" y1="411.5" x2="51" y2="411.5"/>
	<line id="XMLID_2262_" class="st0" x1="45.5" y1="424.6" x2="91" y2="424.6"/>
	<line id="XMLID_2269_" class="st0" x1="64.3" y1="386.9" x2="119.6" y2="386.9"/>
	<line id="XMLID_2267_" class="st0" x1="86" y1="430.5" x2="132.2" y2="430.5"/>
	<rect id="XMLID_2248_" x="45.5" y="430.5" class="st0" width="40.5" height="70.4"/>
	<g id="XMLID_2266_">
		<line id="XMLID_2290_" class="st1" x1="-23.5" y1="485.8" x2="-84.3" y2="485.8"/>
		<line id="XMLID_2289_" class="st1" x1="-23.5" y1="470.7" x2="-84.3" y2="470.7"/>
		<line id="XMLID_2288_" class="st1" x1="-43.8" y1="500.9" x2="-43.8" y2="470.7"/>
		<line id="XMLID_2287_" class="st1" x1="-33.7" y1="500.9" x2="-33.7" y2="470.7"/>
		<line id="XMLID_2286_" class="st1" x1="-53.9" y1="500.9" x2="-53.9" y2="470.7"/>
		<line id="XMLID_2284_" class="st1" x1="-23.5" y1="452.5" x2="-84.3" y2="452.5"/>
		<line id="XMLID_2283_" class="st1" x1="-23.5" y1="464" x2="-84.3" y2="464"/>
		<line id="XMLID_2282_" class="st1" x1="-23.5" y1="440.9" x2="-84.3" y2="440.9"/>
		<line id="XMLID_2281_" class="st1" x1="-43.8" y1="464" x2="-43.8" y2="440.9"/>
		<line id="XMLID_2280_" class="st1" x1="-33.7" y1="464" x2="-33.7" y2="440.9"/>
		<line id="XMLID_2279_" class="st1" x1="-53.9" y1="464" x2="-53.9" y2="440.9"/>
		<line id="XMLID_2291_" class="st1" x1="-64" y1="500.9" x2="-64" y2="470.7"/>
		<line id="XMLID_2285_" class="st1" x1="-64" y1="464" x2="-64" y2="440.9"/>
		<line id="XMLID_2293_" class="st1" x1="-74.2" y1="500.9" x2="-74.2" y2="470.7"/>
		<line id="XMLID_2292_" class="st1" x1="-74.2" y1="464" x2="-74.2" y2="440.9"/>
	</g>
	<line id="XMLID_2272_" class="st0" x1="-23.5" y1="424.6" x2="-90.8" y2="424.6"/>
	<rect id="XMLID_2271_" x="-84.3" y="430.5" class="st0" width="60.8" height="70.4"/>
	<rect id="XMLID_2263_" x="86" y="436.4" class="st0" width="40.5" height="64.5"/>
	<polyline id="XMLID_2268_" class="st0" points="114.3,430.5 114.3,392.8 69.6,392.8 69.6,424.6 	"/>
	<line id="XMLID_2295_" class="st0" x1="-12.1" y1="396.8" x2="-55.6" y2="396.8"/>
	<polyline id="XMLID_2294_" class="st0" points="-50.3,424.6 -50.3,402.7 -17.4,402.7 -17.4,411.7 	"/>
</g>
</svg>
