<?xml version="1.0" encoding="utf-8"?>
<!-- Generator: Adobe Illustrator 19.0.0, SVG Export Plug-In . SVG Version: 6.00 Build 0)  -->
<svg version="1.1" id="Layer_1" xmlns="http://www.w3.org/2000/svg" xmlns:xlink="http://www.w3.org/1999/xlink" x="0px" y="0px"
	 viewBox="-143 339.9 308 162" style="enable-background:new -143 339.9 308 162;" xml:space="preserve">
<style type="text/css">
	.st0{fill:none;stroke:#4D504F;stroke-width:2;stroke-miterlimit:10;}
	.st1{fill:none;stroke:#4D504F;stroke-miterlimit:10;}
</style>
<line id="XMLID_1064_" class="st0" x1="-138.2" y1="500.9" x2="165" y2="500.9"/>
<g id="XMLID_976_">
	<rect id="XMLID_1021_" x="-101.5" y="415.3" class="st1" width="20.1" height="67.3"/>
	<rect id="XMLID_1016_" x="-101.5" y="434.3" class="st1" width="20.1" height="3.7"/>
	<line id="XMLID_1000_" class="st1" x1="-101.5" y1="418.9" x2="-81.5" y2="418.9"/>
	<rect id="XMLID_1019_" x="-101.5" y="458.4" class="st1" width="20.1" height="3.7"/>
	<rect id="XMLID_1036_" x="-101.5" y="482.5" class="st1" width="20.1" height="3.7"/>
	<g id="XMLID_1037_">
		<rect id="XMLID_1038_" x="-119" y="482.6" class="st1" width="17.5" height="3.7"/>
		<rect id="XMLID_1039_" x="-119" y="486.2" class="st1" width="17.5" height="3.7"/>
		<rect id="XMLID_1040_" x="-119" y="489.9" class="st1" width="17.5" height="3.7"/>
		<rect id="XMLID_1041_" x="-119" y="493.6" class="st1" width="17.5" height="3.7"/>
		<rect id="XMLID_1042_" x="-119" y="497.2" class="st1" width="17.5" height="3.7"/>
	</g>
	<line id="XMLID_1023_" class="st1" x1="-101.5" y1="444.7" x2="-81.5" y2="444.7"/>
	<line id="XMLID_1022_" class="st1" x1="-101.5" y1="425.8" x2="-81.5" y2="425.8"/>
	<polygon id="XMLID_1014_" class="st1" points="-104.8,415.3 -104.8,434.3 -115.7,434.3 -115.7,415.3 -119,415.3 -119,482.6 
		-115.7,482.6 -115.7,437.9 -104.8,437.9 -104.8,482.6 -101.5,482.6 -101.5,415.3 	"/>
	<rect id="XMLID_1015_" x="-115.7" y="415.3" class="st1" width="10.9" height="3.7"/>
	<line id="XMLID_1017_" class="st1" x1="-110.3" y1="418.9" x2="-110.3" y2="434.3"/>
	<line id="XMLID_1028_" class="st1" x1="-115.7" y1="425.8" x2="-104.8" y2="425.8"/>
	<line id="XMLID_1024_" class="st1" x1="-101.5" y1="451.6" x2="-81.5" y2="451.6"/>
	<line id="XMLID_1020_" class="st1" x1="-94.9" y1="437.9" x2="-94.9" y2="458.4"/>
	<line id="XMLID_1030_" class="st1" x1="-94.9" y1="418.9" x2="-94.9" y2="434.3"/>
	<line id="XMLID_1033_" class="st1" x1="-101.5" y1="468.9" x2="-81.5" y2="468.9"/>
	<line id="XMLID_1032_" class="st1" x1="-101.5" y1="475.7" x2="-81.5" y2="475.7"/>
	<line id="XMLID_1031_" class="st1" x1="-94.9" y1="462.1" x2="-94.9" y2="482.5"/>
	<line id="XMLID_1035_" class="st1" x1="-88.2" y1="437.9" x2="-88.2" y2="458.4"/>
	<line id="XMLID_1034_" class="st1" x1="-88.2" y1="418.9" x2="-88.2" y2="434.3"/>
	<line id="XMLID_1027_" class="st1" x1="-88.2" y1="462.1" x2="-88.2" y2="482.5"/>
	<rect id="XMLID_1018_" x="-101.5" y="486.2" class="st1" width="20.1" height="11"/>
</g>
<g id="XMLID_1029_">
	<rect id="XMLID_1071_" x="-64" y="415.3" class="st1" width="20.1" height="67.3"/>
	<rect id="XMLID_1070_" x="-64" y="434.3" class="st1" width="20.1" height="3.7"/>
	<line id="XMLID_1069_" class="st1" x1="-64" y1="418.9" x2="-43.9" y2="418.9"/>
	<rect id="XMLID_1068_" x="-64" y="458.4" class="st1" width="20.1" height="3.7"/>
	<rect id="XMLID_1067_" x="-64" y="482.5" class="st1" width="20.1" height="3.7"/>
	<g id="XMLID_1059_">
		<rect id="XMLID_1066_" x="-81.5" y="482.6" class="st1" width="17.5" height="3.7"/>
		<rect id="XMLID_1065_" x="-81.5" y="486.2" class="st1" width="17.5" height="3.7"/>
		<rect id="XMLID_1062_" x="-81.5" y="489.9" class="st1" width="17.5" height="3.7"/>
		<rect id="XMLID_1061_" x="-81.5" y="493.6" class="st1" width="17.5" height="3.7"/>
		<rect id="XMLID_1060_" x="-81.5" y="497.2" class="st1" width="17.5" height="3.7"/>
	</g>
	<line id="XMLID_1058_" class="st1" x1="-64" y1="444.7" x2="-43.9" y2="444.7"/>
	<line id="XMLID_1057_" class="st1" x1="-64" y1="425.8" x2="-43.9" y2="425.8"/>
	<polygon id="XMLID_1056_" class="st1" points="-67.3,415.3 -67.3,434.3 -78.2,434.3 -78.2,415.3 -81.5,415.3 -81.5,482.6 
		-78.2,482.6 -78.2,437.9 -67.3,437.9 -67.3,482.6 -64,482.6 -64,415.3 	"/>
	<rect id="XMLID_1055_" x="-78.2" y="415.3" class="st1" width="10.9" height="3.7"/>
	<line id="XMLID_1054_" class="st1" x1="-72.7" y1="418.9" x2="-72.7" y2="434.3"/>
	<line id="XMLID_1053_" class="st1" x1="-78.2" y1="425.8" x2="-67.3" y2="425.8"/>
	<line id="XMLID_1052_" class="st1" x1="-64" y1="451.6" x2="-43.9" y2="451.6"/>
	<line id="XMLID_1051_" class="st1" x1="-57.3" y1="437.9" x2="-57.3" y2="458.4"/>
	<line id="XMLID_1050_" class="st1" x1="-57.3" y1="418.9" x2="-57.3" y2="434.3"/>
	<line id="XMLID_1049_" class="st1" x1="-64" y1="468.9" x2="-43.9" y2="468.9"/>
	<line id="XMLID_1048_" class="st1" x1="-64" y1="475.7" x2="-43.9" y2="475.7"/>
	<line id="XMLID_1047_" class="st1" x1="-57.3" y1="462.1" x2="-57.3" y2="482.5"/>
	<line id="XMLID_1046_" class="st1" x1="-50.6" y1="437.9" x2="-50.6" y2="458.4"/>
	<line id="XMLID_1045_" class="st1" x1="-50.6" y1="418.9" x2="-50.6" y2="434.3"/>
	<line id="XMLID_1044_" class="st1" x1="-50.6" y1="462.1" x2="-50.6" y2="482.5"/>
	<rect id="XMLID_1043_" x="-64" y="486.2" class="st1" width="20.1" height="11"/>
</g>
<g id="XMLID_1113_">
	<rect id="XMLID_1140_" x="28.1" y="415.3" class="st1" width="20.1" height="67.3"/>
	<rect id="XMLID_1139_" x="28.1" y="434.3" class="st1" width="20.1" height="3.7"/>
	<line id="XMLID_1138_" class="st1" x1="28.1" y1="418.9" x2="48.2" y2="418.9"/>
	<rect id="XMLID_1137_" x="28.1" y="458.4" class="st1" width="20.1" height="3.7"/>
	<rect id="XMLID_1136_" x="28.1" y="482.5" class="st1" width="20.1" height="3.7"/>
	<g id="XMLID_1130_">
		<rect id="XMLID_1135_" x="10.6" y="482.6" class="st1" width="17.5" height="3.7"/>
		<rect id="XMLID_1134_" x="10.6" y="486.2" class="st1" width="17.5" height="3.7"/>
		<rect id="XMLID_1133_" x="10.6" y="489.9" class="st1" width="17.5" height="3.7"/>
		<rect id="XMLID_1132_" x="10.6" y="493.6" class="st1" width="17.5" height="3.7"/>
		<rect id="XMLID_1131_" x="10.6" y="497.2" class="st1" width="17.5" height="3.7"/>
	</g>
	<line id="XMLID_1129_" class="st1" x1="28.1" y1="444.7" x2="48.2" y2="444.7"/>
	<line id="XMLID_1128_" class="st1" x1="28.1" y1="425.8" x2="48.2" y2="425.8"/>
	<polygon id="XMLID_1127_" class="st1" points="24.8,415.3 24.8,434.3 13.9,434.3 13.9,415.3 10.6,415.3 10.6,482.6 13.9,482.6 
		13.9,437.9 24.8,437.9 24.8,482.6 28.1,482.6 28.1,415.3 	"/>
	<rect id="XMLID_1126_" x="13.9" y="415.3" class="st1" width="10.9" height="3.7"/>
	<line id="XMLID_1125_" class="st1" x1="19.4" y1="418.9" x2="19.4" y2="434.3"/>
	<line id="XMLID_1124_" class="st1" x1="13.9" y1="425.8" x2="24.8" y2="425.8"/>
	<line id="XMLID_1123_" class="st1" x1="28.1" y1="451.6" x2="48.2" y2="451.6"/>
	<line id="XMLID_1122_" class="st1" x1="34.8" y1="437.9" x2="34.8" y2="458.4"/>
	<line id="XMLID_1121_" class="st1" x1="34.8" y1="418.9" x2="34.8" y2="434.3"/>
	<line id="XMLID_1120_" class="st1" x1="28.1" y1="468.9" x2="48.2" y2="468.9"/>
	<line id="XMLID_1119_" class="st1" x1="28.1" y1="475.7" x2="48.2" y2="475.7"/>
	<line id="XMLID_1118_" class="st1" x1="34.8" y1="462.1" x2="34.8" y2="482.5"/>
	<line id="XMLID_1117_" class="st1" x1="41.5" y1="437.9" x2="41.5" y2="458.4"/>
	<line id="XMLID_1116_" class="st1" x1="41.5" y1="418.9" x2="41.5" y2="434.3"/>
	<line id="XMLID_1115_" class="st1" x1="41.5" y1="462.1" x2="41.5" y2="482.5"/>
	<rect id="XMLID_1114_" x="28.1" y="486.2" class="st1" width="20.1" height="11"/>
</g>
<g id="XMLID_1075_">
	<rect id="XMLID_1112_" x="65.6" y="415.3" class="st1" width="20.1" height="67.3"/>
	<rect id="XMLID_1111_" x="65.6" y="434.3" class="st1" width="20.1" height="3.7"/>
	<line id="XMLID_1110_" class="st1" x1="65.6" y1="418.9" x2="85.7" y2="418.9"/>
	<rect id="XMLID_1109_" x="65.6" y="458.4" class="st1" width="20.1" height="3.7"/>
	<rect id="XMLID_1108_" x="65.6" y="482.5" class="st1" width="20.1" height="3.7"/>
	<g id="XMLID_1102_">
		<rect id="XMLID_1107_" x="48.2" y="482.6" class="st1" width="17.5" height="3.7"/>
		<rect id="XMLID_1106_" x="48.2" y="486.2" class="st1" width="17.5" height="3.7"/>
		<rect id="XMLID_1105_" x="48.2" y="489.9" class="st1" width="17.5" height="3.7"/>
		<rect id="XMLID_1104_" x="48.2" y="493.6" class="st1" width="17.5" height="3.7"/>
		<rect id="XMLID_1103_" x="48.2" y="497.2" class="st1" width="17.5" height="3.7"/>
	</g>
	<line id="XMLID_1101_" class="st1" x1="65.6" y1="444.7" x2="85.7" y2="444.7"/>
	<line id="XMLID_1100_" class="st1" x1="65.6" y1="425.8" x2="85.7" y2="425.8"/>
	<polygon id="XMLID_1099_" class="st1" points="62.4,415.3 62.4,434.3 51.4,434.3 51.4,415.3 48.2,415.3 48.2,482.6 51.4,482.6 
		51.4,437.9 62.4,437.9 62.4,482.6 65.6,482.6 65.6,415.3 	"/>
	<rect id="XMLID_1098_" x="51.4" y="415.3" class="st1" width="10.9" height="3.7"/>
	<line id="XMLID_1097_" class="st1" x1="56.9" y1="418.9" x2="56.9" y2="434.3"/>
	<line id="XMLID_1096_" class="st1" x1="51.4" y1="425.8" x2="62.4" y2="425.8"/>
	<line id="XMLID_1095_" class="st1" x1="65.6" y1="451.6" x2="85.7" y2="451.6"/>
	<line id="XMLID_1088_" class="st1" x1="72.3" y1="437.9" x2="72.3" y2="458.4"/>
	<line id="XMLID_1087_" class="st1" x1="72.3" y1="418.9" x2="72.3" y2="434.3"/>
	<line id="XMLID_1082_" class="st1" x1="65.6" y1="468.9" x2="85.7" y2="468.9"/>
	<line id="XMLID_1081_" class="st1" x1="65.6" y1="475.7" x2="85.7" y2="475.7"/>
	<line id="XMLID_1080_" class="st1" x1="72.3" y1="462.1" x2="72.3" y2="482.5"/>
	<line id="XMLID_1079_" class="st1" x1="79" y1="437.9" x2="79" y2="458.4"/>
	<line id="XMLID_1078_" class="st1" x1="79" y1="418.9" x2="79" y2="434.3"/>
	<line id="XMLID_1077_" class="st1" x1="79" y1="462.1" x2="79" y2="482.5"/>
	<rect id="XMLID_1076_" x="65.6" y="486.2" class="st1" width="20.1" height="11"/>
</g>
<g id="XMLID_1141_">
	<rect id="XMLID_1182_" x="103.2" y="415.3" class="st1" width="20.1" height="67.3"/>
	<rect id="XMLID_1181_" x="103.2" y="434.3" class="st1" width="20.1" height="3.7"/>
	<line id="XMLID_1180_" class="st1" x1="103.2" y1="418.9" x2="123.3" y2="418.9"/>
	<rect id="XMLID_1179_" x="103.2" y="458.4" class="st1" width="20.1" height="3.7"/>
	<rect id="XMLID_1173_" x="103.2" y="482.5" class="st1" width="20.1" height="3.7"/>
	<g id="XMLID_1165_">
		<rect id="XMLID_1172_" x="85.7" y="482.6" class="st1" width="17.5" height="3.7"/>
		<rect id="XMLID_1171_" x="85.7" y="486.2" class="st1" width="17.5" height="3.7"/>
		<rect id="XMLID_1170_" x="85.7" y="489.9" class="st1" width="17.5" height="3.7"/>
		<rect id="XMLID_1169_" x="85.7" y="493.6" class="st1" width="17.5" height="3.7"/>
		<rect id="XMLID_1168_" x="85.7" y="497.2" class="st1" width="17.5" height="3.7"/>
	</g>
	<line id="XMLID_1164_" class="st1" x1="103.2" y1="444.7" x2="123.3" y2="444.7"/>
	<line id="XMLID_1163_" class="st1" x1="103.2" y1="425.8" x2="123.3" y2="425.8"/>
	<polygon id="XMLID_1162_" class="st1" points="99.9,415.3 99.9,434.3 89,434.3 89,415.3 85.7,415.3 85.7,482.6 89,482.6 89,437.9 
		99.9,437.9 99.9,482.6 103.2,482.6 103.2,415.3 	"/>
	<rect id="XMLID_1161_" x="89" y="415.3" class="st1" width="10.9" height="3.7"/>
	<line id="XMLID_1160_" class="st1" x1="94.5" y1="418.9" x2="94.5" y2="434.3"/>
	<line id="XMLID_1159_" class="st1" x1="89" y1="425.8" x2="99.9" y2="425.8"/>
	<line id="XMLID_1151_" class="st1" x1="103.2" y1="451.6" x2="123.3" y2="451.6"/>
	<line id="XMLID_1150_" class="st1" x1="109.9" y1="437.9" x2="109.9" y2="458.4"/>
	<line id="XMLID_1149_" class="st1" x1="109.9" y1="418.9" x2="109.9" y2="434.3"/>
	<line id="XMLID_1148_" class="st1" x1="103.2" y1="468.9" x2="123.3" y2="468.9"/>
	<line id="XMLID_1147_" class="st1" x1="103.2" y1="475.7" x2="123.3" y2="475.7"/>
	<line id="XMLID_1146_" class="st1" x1="109.9" y1="462.1" x2="109.9" y2="482.5"/>
	<line id="XMLID_1145_" class="st1" x1="116.6" y1="437.9" x2="116.6" y2="458.4"/>
	<line id="XMLID_1144_" class="st1" x1="116.6" y1="418.9" x2="116.6" y2="434.3"/>
	<line id="XMLID_1143_" class="st1" x1="116.6" y1="462.1" x2="116.6" y2="482.5"/>
	<rect id="XMLID_1142_" x="103.2" y="486.2" class="st1" width="20.1" height="11"/>
</g>
<g id="XMLID_1072_">
	<g id="XMLID_1089_">
		<rect id="XMLID_1094_" x="-43.9" y="482.6" class="st1" width="17.5" height="3.7"/>
		<rect id="XMLID_1093_" x="-43.9" y="486.2" class="st1" width="17.5" height="3.7"/>
		<rect id="XMLID_1092_" x="-43.9" y="489.9" class="st1" width="17.5" height="3.7"/>
		<rect id="XMLID_1091_" x="-43.9" y="493.6" class="st1" width="17.5" height="3.7"/>
		<rect id="XMLID_1090_" x="-43.9" y="497.2" class="st1" width="17.5" height="3.7"/>
	</g>
	<polygon id="XMLID_1086_" class="st1" points="-29.7,415.3 -29.7,434.3 -40.6,434.3 -40.6,415.3 -43.9,415.3 -43.9,482.6 
		-40.6,482.6 -40.6,437.9 -29.7,437.9 -29.7,482.6 -26.4,482.6 -26.4,415.3 	"/>
	<rect id="XMLID_1085_" x="-40.6" y="415.3" class="st1" width="10.9" height="3.7"/>
	<line id="XMLID_1084_" class="st1" x1="-35.2" y1="418.9" x2="-35.2" y2="434.3"/>
	<line id="XMLID_1083_" class="st1" x1="-40.6" y1="425.8" x2="-29.7" y2="425.8"/>
</g>
<g id="XMLID_1183_">
	<g id="XMLID_1188_">
		<rect id="XMLID_1197_" x="123.3" y="482.6" class="st1" width="17.5" height="3.7"/>
		<rect id="XMLID_1196_" x="123.3" y="486.2" class="st1" width="17.5" height="3.7"/>
		<rect id="XMLID_1195_" x="123.3" y="489.9" class="st1" width="17.5" height="3.7"/>
		<rect id="XMLID_1194_" x="123.3" y="493.6" class="st1" width="17.5" height="3.7"/>
		<rect id="XMLID_1189_" x="123.3" y="497.2" class="st1" width="17.5" height="3.7"/>
	</g>
	<polygon id="XMLID_1187_" class="st1" points="137.5,415.3 137.5,434.3 126.5,434.3 126.5,415.3 123.3,415.3 123.3,482.6 
		126.5,482.6 126.5,437.9 137.5,437.9 137.5,482.6 140.7,482.6 140.7,415.3 	"/>
	<rect id="XMLID_1186_" x="126.5" y="415.3" class="st1" width="10.9" height="3.7"/>
	<line id="XMLID_1185_" class="st1" x1="132" y1="418.9" x2="132" y2="434.3"/>
	<line id="XMLID_1184_" class="st1" x1="126.5" y1="425.8" x2="137.5" y2="425.8"/>
</g>
<rect id="XMLID_961_" x="-26.4" y="400.9" class="st0" width="37.1" height="100"/>
<g id="XMLID_1073_">
	<rect id="XMLID_1152_" x="-14.6" y="437.9" class="st1" width="13.4" height="20.4"/>
	<rect id="XMLID_1155_" x="-22.5" y="437.9" class="st1" width="4.2" height="20.4"/>
	<rect id="XMLID_1156_" x="-14.6" y="486.3" class="st1" width="13.4" height="10.7"/>
	<rect id="XMLID_1157_" x="2.5" y="415.3" class="st1" width="4.2" height="19"/>
	<rect id="XMLID_1166_" x="-22.5" y="462.1" class="st1" width="4.2" height="20.5"/>
	<rect id="XMLID_1167_" x="-14.6" y="462.1" class="st1" width="13.4" height="20.5"/>
	<rect id="XMLID_1174_" x="-22.5" y="486.3" class="st1" width="4.2" height="10.7"/>
	<rect id="XMLID_1175_" x="-14.6" y="415.3" class="st1" width="13.4" height="19"/>
	<rect id="XMLID_1176_" x="2.5" y="486.3" class="st1" width="4.2" height="10.7"/>
	<rect id="XMLID_1177_" x="-22.5" y="415.3" class="st1" width="4.2" height="19"/>
	<rect id="XMLID_1178_" x="2.5" y="437.9" class="st1" width="4.2" height="20.4"/>
	<rect id="XMLID_1190_" x="2.5" y="462.1" class="st1" width="4.2" height="20.5"/>
</g>
<g id="XMLID_1158_">
	<rect id="XMLID_1191_" x="-14.6" y="404.8" class="st1" width="13.4" height="6.8"/>
	<rect id="XMLID_1192_" x="2.5" y="404.8" class="st1" width="4.2" height="6.8"/>
	<rect id="XMLID_1193_" x="-22.5" y="404.8" class="st1" width="4.2" height="6.8"/>
</g>
<polyline id="XMLID_1153_" class="st0" points="-26.4,415.3 -119,415.3 -119,500.9 "/>
<polyline id="XMLID_1154_" class="st0" points="10.6,415.3 140.7,415.3 140.7,500.9 "/>
<line id="XMLID_1074_" class="st1" x1="-26.4" y1="411.1" x2="-123.2" y2="411.1"/>
<line id="XMLID_1198_" class="st1" x1="144.9" y1="411.1" x2="10.6" y2="411.1"/>
</svg>
