<?xml version="1.0" encoding="utf-8"?>
<!-- Generator: Adobe Illustrator 19.0.0, SVG Export Plug-In . SVG Version: 6.00 Build 0)  -->
<svg version="1.1" id="Layer_1" xmlns="http://www.w3.org/2000/svg" xmlns:xlink="http://www.w3.org/1999/xlink" x="0px" y="0px"
	 viewBox="-297 420.9 308 162" style="enable-background:new -297 420.9 308 162;" xml:space="preserve">
<style type="text/css">
	.st0{fill:none;stroke:#4D504F;stroke-width:2;stroke-miterlimit:10;}
	.st1{fill:none;stroke:#4D504F;stroke-miterlimit:10;}
</style>
<line id="XMLID_2656_" class="st0" x1="-273.9" y1="581.9" x2="11" y2="581.9"/>
<g id="XMLID_2436_">
	<rect id="XMLID_2371_" x="-174.3" y="506" class="st0" width="57" height="75.9"/>
	<rect id="XMLID_2394_" x="-213.9" y="513.7" class="st0" width="39.6" height="68.2"/>
	<rect id="XMLID_2372_" x="-161.9" y="520.2" class="st1" width="32.3" height="61.7"/>
	<line id="XMLID_2375_" class="st1" x1="-155.5" y1="539.6" x2="-155.5" y2="520.2"/>
	<line id="XMLID_2376_" class="st1" x1="-149" y1="539.6" x2="-149" y2="520.2"/>
	<line id="XMLID_2377_" class="st1" x1="-142.6" y1="539.6" x2="-142.6" y2="520.2"/>
	<line id="XMLID_2378_" class="st1" x1="-136.1" y1="539.6" x2="-136.1" y2="520.2"/>
	<line id="XMLID_2389_" class="st1" x1="-155.5" y1="565.4" x2="-155.5" y2="546"/>
	<line id="XMLID_2388_" class="st1" x1="-149" y1="565.4" x2="-149" y2="546"/>
	<line id="XMLID_2381_" class="st1" x1="-142.6" y1="565.4" x2="-142.6" y2="546"/>
	<line id="XMLID_2374_" class="st1" x1="-136.1" y1="565.4" x2="-136.1" y2="546"/>
	<line id="XMLID_2393_" class="st1" x1="-155.5" y1="581.9" x2="-155.5" y2="571.9"/>
	<line id="XMLID_2392_" class="st1" x1="-149" y1="581.9" x2="-149" y2="571.9"/>
	<line id="XMLID_2391_" class="st1" x1="-142.6" y1="581.9" x2="-142.6" y2="571.9"/>
	<line id="XMLID_2390_" class="st1" x1="-136.1" y1="581.9" x2="-136.1" y2="571.9"/>
	<line id="XMLID_2380_" class="st1" x1="-161.9" y1="526.7" x2="-129.6" y2="526.7"/>
	<line id="XMLID_2379_" class="st1" x1="-161.9" y1="533.1" x2="-129.6" y2="533.1"/>
	<line id="XMLID_2382_" class="st1" x1="-161.9" y1="539.6" x2="-129.6" y2="539.6"/>
	<line id="XMLID_2383_" class="st1" x1="-161.9" y1="546" x2="-129.6" y2="546"/>
	<rect id="XMLID_2407_" x="-193.7" y="513.7" class="st1" width="19.4" height="51.7"/>
	<line id="XMLID_2404_" class="st1" x1="-187.2" y1="565.4" x2="-187.2" y2="513.7"/>
	<line id="XMLID_2403_" class="st1" x1="-180.8" y1="565.4" x2="-180.8" y2="513.7"/>
	<line id="XMLID_2398_" class="st1" x1="-193.7" y1="526.7" x2="-174.3" y2="526.7"/>
	<line id="XMLID_2395_" class="st1" x1="-193.7" y1="520.2" x2="-174.3" y2="520.2"/>
	<line id="XMLID_2397_" class="st1" x1="-193.7" y1="533.1" x2="-174.3" y2="533.1"/>
	<line id="XMLID_2396_" class="st1" x1="-193.7" y1="539.6" x2="-174.3" y2="539.6"/>
	<line id="XMLID_2399_" class="st1" x1="-193.7" y1="546" x2="-174.3" y2="546"/>
	<line id="XMLID_2400_" class="st1" x1="-193.7" y1="552.5" x2="-174.3" y2="552.5"/>
	<line id="XMLID_2401_" class="st1" x1="-193.7" y1="559" x2="-174.3" y2="559"/>
	<rect id="XMLID_2418_" x="-117.3" y="513.7" class="st0" width="89.1" height="68.2"/>
	<rect id="XMLID_2417_" x="-117.3" y="513.7" class="st1" width="71" height="51.7"/>
	<line id="XMLID_2416_" class="st1" x1="-104.4" y1="565.4" x2="-104.4" y2="513.7"/>
	<line id="XMLID_2419_" class="st1" x1="-97.9" y1="565.4" x2="-97.9" y2="513.7"/>
	<line id="XMLID_2420_" class="st1" x1="-91.4" y1="565.4" x2="-91.4" y2="513.7"/>
	<line id="XMLID_2421_" class="st1" x1="-85" y1="565.4" x2="-85" y2="513.7"/>
	<line id="XMLID_2422_" class="st1" x1="-78.5" y1="565.4" x2="-78.5" y2="513.7"/>
	<line id="XMLID_2423_" class="st1" x1="-72.1" y1="565.4" x2="-72.1" y2="513.7"/>
	<line id="XMLID_2424_" class="st1" x1="-65.6" y1="565.4" x2="-65.6" y2="513.7"/>
	<line id="XMLID_2425_" class="st1" x1="-59.2" y1="565.4" x2="-59.2" y2="513.7"/>
	<line id="XMLID_2426_" class="st1" x1="-52.7" y1="565.4" x2="-52.7" y2="513.7"/>
	<line id="XMLID_2415_" class="st1" x1="-110.8" y1="565.4" x2="-110.8" y2="513.7"/>
	<line id="XMLID_2414_" class="st1" x1="-46.2" y1="526.7" x2="-117.3" y2="526.7"/>
	<line id="XMLID_2413_" class="st1" x1="-46.2" y1="520.2" x2="-117.3" y2="520.2"/>
	<line id="XMLID_2412_" class="st1" x1="-46.2" y1="533.1" x2="-117.3" y2="533.1"/>
	<line id="XMLID_2411_" class="st1" x1="-46.2" y1="539.6" x2="-117.3" y2="539.6"/>
	<line id="XMLID_2410_" class="st1" x1="-46.2" y1="546" x2="-117.3" y2="546"/>
	<line id="XMLID_2409_" class="st1" x1="-46.2" y1="552.5" x2="-117.3" y2="552.5"/>
	<line id="XMLID_2408_" class="st1" x1="-46.2" y1="559" x2="-117.3" y2="559"/>
	<line id="XMLID_2453_" class="st1" x1="-240.2" y1="512.5" x2="-240.2" y2="506"/>
	<line id="XMLID_2452_" class="st1" x1="-233.8" y1="512.5" x2="-233.8" y2="506"/>
	<line id="XMLID_2451_" class="st1" x1="-227.3" y1="512.5" x2="-227.3" y2="506"/>
	<line id="XMLID_2450_" class="st1" x1="-220.9" y1="512.5" x2="-220.9" y2="506"/>
	<line id="XMLID_2444_" class="st1" x1="-246.7" y1="512.5" x2="-246.7" y2="506"/>
	<line id="XMLID_2455_" class="st1" x1="-240.2" y1="525.5" x2="-240.2" y2="518.9"/>
	<line id="XMLID_2454_" class="st1" x1="-233.8" y1="525.5" x2="-233.8" y2="518.9"/>
	<line id="XMLID_2449_" class="st1" x1="-227.3" y1="525.5" x2="-227.3" y2="518.9"/>
	<line id="XMLID_2448_" class="st1" x1="-220.9" y1="525.5" x2="-220.9" y2="518.9"/>
	<line id="XMLID_2437_" class="st1" x1="-246.7" y1="525.5" x2="-246.7" y2="518.9"/>
	<line id="XMLID_2460_" class="st1" x1="-240.2" y1="538.4" x2="-240.2" y2="531.9"/>
	<line id="XMLID_2459_" class="st1" x1="-233.8" y1="538.4" x2="-233.8" y2="531.9"/>
	<line id="XMLID_2458_" class="st1" x1="-227.3" y1="538.4" x2="-227.3" y2="531.9"/>
	<line id="XMLID_2457_" class="st1" x1="-220.9" y1="538.4" x2="-220.9" y2="531.9"/>
	<line id="XMLID_2456_" class="st1" x1="-246.7" y1="538.4" x2="-246.7" y2="531.9"/>
	<line id="XMLID_2465_" class="st1" x1="-240.2" y1="551.1" x2="-240.2" y2="544.5"/>
	<line id="XMLID_2464_" class="st1" x1="-233.8" y1="551.1" x2="-233.8" y2="544.5"/>
	<line id="XMLID_2463_" class="st1" x1="-227.3" y1="551.1" x2="-227.3" y2="544.5"/>
	<line id="XMLID_2462_" class="st1" x1="-220.9" y1="551.1" x2="-220.9" y2="544.5"/>
	<line id="XMLID_2461_" class="st1" x1="-246.7" y1="551.1" x2="-246.7" y2="544.5"/>
	<line id="XMLID_2470_" class="st1" x1="-240.2" y1="564.2" x2="-240.2" y2="557.7"/>
	<line id="XMLID_2469_" class="st1" x1="-233.8" y1="564.2" x2="-233.8" y2="557.7"/>
	<line id="XMLID_2468_" class="st1" x1="-227.3" y1="564.2" x2="-227.3" y2="557.7"/>
	<line id="XMLID_2467_" class="st1" x1="-220.9" y1="564.2" x2="-220.9" y2="557.7"/>
	<line id="XMLID_2466_" class="st1" x1="-246.7" y1="564.2" x2="-246.7" y2="557.7"/>
	<line id="XMLID_2443_" class="st1" x1="-213.9" y1="518.9" x2="-253.2" y2="518.9"/>
	<line id="XMLID_2442_" class="st1" x1="-213.9" y1="512.5" x2="-253.2" y2="512.5"/>
	<line id="XMLID_2441_" class="st1" x1="-213.9" y1="525.4" x2="-253.2" y2="525.4"/>
	<line id="XMLID_2440_" class="st1" x1="-213.9" y1="531.9" x2="-253.2" y2="531.9"/>
	<line id="XMLID_2439_" class="st1" x1="-213.9" y1="538.3" x2="-253.2" y2="538.3"/>
	<line id="XMLID_2438_" class="st1" x1="-213.9" y1="544.8" x2="-253.2" y2="544.8"/>
	<line id="XMLID_2445_" class="st1" x1="-213.9" y1="551.2" x2="-253.2" y2="551.2"/>
	<line id="XMLID_2446_" class="st1" x1="-213.9" y1="557.7" x2="-253.2" y2="557.7"/>
	<line id="XMLID_2447_" class="st1" x1="-213.9" y1="564.1" x2="-253.2" y2="564.1"/>
	<line id="XMLID_2384_" class="st1" x1="-161.9" y1="552.5" x2="-129.6" y2="552.5"/>
	<line id="XMLID_2385_" class="st1" x1="-161.9" y1="559" x2="-129.6" y2="559"/>
	<line id="XMLID_2386_" class="st1" x1="-161.9" y1="565.4" x2="-129.6" y2="565.4"/>
	<line id="XMLID_2387_" class="st1" x1="-161.9" y1="571.9" x2="-129.6" y2="571.9"/>
	<g id="XMLID_2402_">
		<line id="XMLID_2373_" class="st1" x1="-161.9" y1="571.9" x2="-253.2" y2="571.9"/>
		<line id="XMLID_2405_" class="st1" x1="-161.9" y1="575.2" x2="-253.2" y2="575.2"/>
		<line id="XMLID_2406_" class="st1" x1="-161.9" y1="578.4" x2="-253.2" y2="578.4"/>
	</g>
	<g id="XMLID_2428_">
		<line id="XMLID_2431_" class="st1" x1="-28.2" y1="571.9" x2="-129.6" y2="571.9"/>
		<line id="XMLID_2430_" class="st1" x1="-28.2" y1="575.2" x2="-129.6" y2="575.2"/>
		<line id="XMLID_2429_" class="st1" x1="-28.2" y1="578.4" x2="-129.6" y2="578.4"/>
	</g>
	<line id="XMLID_2427_" class="st0" x1="-256.2" y1="501.4" x2="-210.9" y2="501.4"/>
	<line id="XMLID_2435_" class="st0" x1="-257.9" y1="496.9" x2="-209.2" y2="496.9"/>
	<rect id="XMLID_2434_" x="-253.2" y="506" class="st0" width="39.3" height="75.9"/>
</g>
</svg>
