<?xml version="1.0" encoding="utf-8"?>
<!-- Generator: Adobe Illustrator 19.1.0, SVG Export Plug-In . SVG Version: 6.00 Build 0)  -->
<svg version="1.1" id="Layer_1" xmlns="http://www.w3.org/2000/svg" xmlns:xlink="http://www.w3.org/1999/xlink" x="0px" y="0px"
	 viewBox="-305 397 308 162" style="enable-background:new -305 397 308 162;" xml:space="preserve">
<style type="text/css">
	.st0{fill:#F9B147;}
	.st1{fill:#0094B1;}
	.st2{fill:none;stroke:#000000;stroke-width:2;stroke-miterlimit:10;}
	.st3{fill:#F9B147;stroke:#000000;stroke-width:2;stroke-miterlimit:10;}
	.st4{fill:#0094B1;stroke:#000000;stroke-miterlimit:10;}
	.st5{fill:none;stroke:#000000;stroke-miterlimit:10;}
	.st6{fill:#C0D2DA;stroke:#1C1C1C;stroke-miterlimit:10;}
</style>
<path class="st0" d="M-189.5,500.1l0,57.9h48v-57.7c0,0-5.4-4.1-24.3-4.1C-184.1,496.2-189.5,500.1-189.5,500.1z"/>
<path class="st1" d="M-191.9,507.5c0,0,20.7-7.5,49.7-0.5s-0.5,10.4-0.5,10.4s-16.1-3-30.2-2.6c-4.5,0.1-17.6,2.9-17.6,2.9
	L-191.9,507.5z"/>
<path class="st1" d="M-192.6,524.7c0,0,20.7-7.5,49.7-0.5c29,7,0.2,13.4,0.2,13.4s-15.6-3-29.7-2.6c-4.5,0.1-17.1,3.5-17.1,3.5
	L-192.6,524.7z"/>
<line id="XMLID_1759_" class="st2" x1="-305" y1="558" x2="3" y2="558"/>
<g id="XMLID_219_">
	<polygon id="XMLID_1723_" class="st3" points="-189.5,558 -230.4,558 -230.4,500.5 -189.5,493 	"/>
	<polygon id="XMLID_1791_" class="st4" points="-203.4,509.5 -230.4,514.5 -230.4,524.8 -203.4,519.9 	"/>
	<polygon id="XMLID_1793_" class="st4" points="-203.4,526.5 -230.4,531.4 -230.4,545.1 -203.4,540.1 	"/>
	<polygon id="XMLID_1725_" class="st3" points="-142.2,558 -71.4,558 -71.4,500.5 -142.2,493 	"/>
	<path id="XMLID_3_" class="st2" d="M-142.2,499.3c-7-1.8-15.1-2.8-23.6-2.8c-8.5,0-16.6,1-23.6,2.8"/>
	<path id="XMLID_208_" class="st5" d="M-189.5,507c7-1.8,15.1-2.8,23.6-2.8c8.5,0,16.6,1,23.6,2.8"/>
	<path id="XMLID_210_" class="st5" d="M-189.5,517.7c7-1.8,15.1-2.8,23.6-2.8c8.5,0,16.6,1,23.6,2.8"/>
	<path id="XMLID_211_" class="st5" d="M-189.5,523.9c7-1.8,15.1-2.8,23.6-2.8c8.5,0,16.6,1,23.6,2.8"/>
	<path id="XMLID_213_" class="st2" d="M-189.5,537.9c7-1.8,15.1-2.8,23.6-2.8c8.5,0,16.6,1,23.6,2.8"/>
	<path id="XMLID_212_" class="st2" d="M-189.5,544.1c7-1.8,15.1-2.8,23.6-2.8c8.5,0,16.6,1,23.6,2.8"/>
	<g id="XMLID_1_">
		<rect id="XMLID_217_" x="-142.2" y="507" class="st5" width="0" height="10.4"/>
		<polygon id="XMLID_1727_" class="st4" points="-131.5,508.1 -131.5,518.5 -71.4,524.8 -71.4,514.5 		"/>
	</g>
	<g id="XMLID_216_">
		<rect id="XMLID_218_" x="-142.2" y="523.9" class="st5" width="0" height="13.7"/>
		<polygon id="XMLID_1728_" class="st4" points="-131.5,525 -131.5,538.7 -71.4,545.1 -71.4,531.4 		"/>
	</g>
	<g id="XMLID_1724_">
		<line id="XMLID_1726_" class="st5" x1="-182.7" y1="516.3" x2="-182.7" y2="505.6"/>
		<line id="XMLID_1729_" class="st5" x1="-175.9" y1="515.2" x2="-175.9" y2="504.6"/>
		<line id="XMLID_1731_" class="st5" x1="-169.2" y1="514.9" x2="-169.2" y2="504.2"/>
		<line id="XMLID_1732_" class="st5" x1="-162.4" y1="514.9" x2="-162.4" y2="504.2"/>
		<line id="XMLID_1733_" class="st5" x1="-155.7" y1="515.2" x2="-155.7" y2="504.6"/>
		<line id="XMLID_1734_" class="st5" x1="-148.9" y1="516.3" x2="-148.9" y2="505.6"/>
	</g>
	<g id="XMLID_1737_">
		<line id="XMLID_1744_" class="st5" x1="-182.7" y1="536.5" x2="-182.7" y2="522.5"/>
		<line id="XMLID_1743_" class="st5" x1="-175.9" y1="535.6" x2="-175.9" y2="521.6"/>
		<line id="XMLID_1742_" class="st5" x1="-169.2" y1="535.1" x2="-169.2" y2="521.1"/>
		<line id="XMLID_1741_" class="st5" x1="-162.4" y1="535.1" x2="-162.4" y2="521.1"/>
		<line id="XMLID_1740_" class="st5" x1="-155.7" y1="535.6" x2="-155.7" y2="521.6"/>
		<line id="XMLID_1739_" class="st5" x1="-148.9" y1="536.5" x2="-148.9" y2="522.5"/>
	</g>
	<g id="XMLID_1748_">
		<line id="XMLID_1755_" class="st5" x1="-182.7" y1="558" x2="-182.7" y2="542.5"/>
		<line id="XMLID_1754_" class="st5" x1="-175.9" y1="558" x2="-175.9" y2="542"/>
		<line id="XMLID_1753_" class="st5" x1="-169.2" y1="558" x2="-169.2" y2="541.3"/>
		<line id="XMLID_1752_" class="st5" x1="-162.4" y1="558" x2="-162.4" y2="541.3"/>
		<line id="XMLID_1751_" class="st5" x1="-155.7" y1="558" x2="-155.7" y2="542"/>
		<line id="XMLID_1750_" class="st5" x1="-148.9" y1="558" x2="-148.9" y2="542.5"/>
	</g>
	<rect id="XMLID_215_" x="-298.3" y="508.1" class="st3" width="67.9" height="49"/>
	<rect id="XMLID_1738_" x="-71.4" y="508.1" class="st3" width="67.9" height="49"/>
	<rect id="XMLID_1736_" x="-291.2" y="517.4" class="st4" width="60.8" height="10.4"/>
	<rect id="XMLID_1749_" x="-71.4" y="517.4" class="st4" width="60" height="10.4"/>
	<line id="XMLID_1747_" class="st5" x1="-230.4" y1="537.9" x2="-298.3" y2="537.9"/>
	<line id="XMLID_1757_" class="st5" x1="-3.5" y1="537.9" x2="-71.4" y2="537.9"/>
	<g id="XMLID_1760_">
		<line id="XMLID_1756_" class="st5" x1="-291.2" y1="527.8" x2="-291.2" y2="517.2"/>
		<line id="XMLID_1768_" class="st5" x1="-284.4" y1="527.8" x2="-284.4" y2="517.2"/>
		<line id="XMLID_1769_" class="st5" x1="-277.7" y1="527.8" x2="-277.7" y2="517.2"/>
		<line id="XMLID_1770_" class="st5" x1="-270.9" y1="527.8" x2="-270.9" y2="517.2"/>
		<line id="XMLID_1771_" class="st5" x1="-264.2" y1="527.8" x2="-264.2" y2="517.2"/>
		<line id="XMLID_1772_" class="st5" x1="-257.4" y1="527.8" x2="-257.4" y2="517.2"/>
		<line id="XMLID_1773_" class="st5" x1="-250.7" y1="527.8" x2="-250.7" y2="517.2"/>
		<line id="XMLID_1774_" class="st5" x1="-243.9" y1="527.8" x2="-243.9" y2="517.2"/>
		<line id="XMLID_1775_" class="st5" x1="-237.2" y1="527.8" x2="-237.2" y2="517.2"/>
		<line id="XMLID_1776_" class="st5" x1="-230.4" y1="527.8" x2="-230.4" y2="517.2"/>
	</g>
	<g id="XMLID_1782_">
		<line id="XMLID_1788_" class="st5" x1="-223.7" y1="523.9" x2="-223.7" y2="513.3"/>
		<line id="XMLID_1787_" class="st5" x1="-216.9" y1="522.7" x2="-216.9" y2="512.1"/>
		<line id="XMLID_1784_" class="st5" x1="-210.1" y1="521.6" x2="-210.1" y2="511"/>
	</g>
	<g id="XMLID_1761_">
		<line id="XMLID_1790_" class="st5" x1="-223.7" y1="543.9" x2="-223.7" y2="529.7"/>
		<line id="XMLID_1789_" class="st5" x1="-216.9" y1="542.6" x2="-216.9" y2="529"/>
		<line id="XMLID_1783_" class="st5" x1="-210.1" y1="541.4" x2="-210.1" y2="527.8"/>
	</g>
	<g id="XMLID_1762_">
		<line id="XMLID_1780_" class="st5" x1="-65.5" y1="527.8" x2="-65.5" y2="517.2"/>
		<line id="XMLID_1779_" class="st5" x1="-58.7" y1="527.8" x2="-58.7" y2="517.2"/>
		<line id="XMLID_1778_" class="st5" x1="-52" y1="527.8" x2="-52" y2="517.2"/>
		<line id="XMLID_1777_" class="st5" x1="-45.2" y1="527.8" x2="-45.2" y2="517.2"/>
		<line id="XMLID_1767_" class="st5" x1="-38.4" y1="527.8" x2="-38.4" y2="517.2"/>
		<line id="XMLID_1766_" class="st5" x1="-31.7" y1="527.8" x2="-31.7" y2="517.2"/>
		<line id="XMLID_1765_" class="st5" x1="-24.9" y1="527.8" x2="-24.9" y2="517.2"/>
		<line id="XMLID_1764_" class="st5" x1="-18.2" y1="527.8" x2="-18.2" y2="517.2"/>
		<line id="XMLID_1763_" class="st5" x1="-11.4" y1="527.8" x2="-11.4" y2="517.2"/>
	</g>
	<g id="XMLID_1730_">
		<line id="XMLID_1801_" class="st5" x1="-125.4" y1="519" x2="-125.4" y2="508.4"/>
		<line id="XMLID_1800_" class="st5" x1="-118.7" y1="519.8" x2="-118.7" y2="509.2"/>
		<line id="XMLID_1799_" class="st5" x1="-111.9" y1="520.5" x2="-111.9" y2="509.9"/>
		<line id="XMLID_1798_" class="st5" x1="-105.2" y1="521.1" x2="-105.2" y2="510.5"/>
		<line id="XMLID_1797_" class="st5" x1="-98.4" y1="522.2" x2="-98.4" y2="511.6"/>
		<line id="XMLID_1796_" class="st5" x1="-91.7" y1="523.1" x2="-91.7" y2="512.5"/>
		<line id="XMLID_1795_" class="st5" x1="-84.9" y1="523.6" x2="-84.9" y2="513"/>
		<line id="XMLID_1794_" class="st5" x1="-78.1" y1="523.9" x2="-78.1" y2="513.3"/>
	</g>
	<g id="XMLID_1781_">
		<line id="XMLID_1808_" class="st5" x1="-125.4" y1="539.2" x2="-125.4" y2="525.9"/>
		<line id="XMLID_1807_" class="st5" x1="-118.7" y1="539.9" x2="-118.7" y2="526.7"/>
		<line id="XMLID_1806_" class="st5" x1="-111.9" y1="540.7" x2="-111.9" y2="527.4"/>
		<line id="XMLID_1805_" class="st5" x1="-105.2" y1="541.3" x2="-105.2" y2="528"/>
		<line id="XMLID_1804_" class="st5" x1="-98.4" y1="542.4" x2="-98.4" y2="528.6"/>
		<line id="XMLID_1803_" class="st5" x1="-91.7" y1="543.3" x2="-91.7" y2="529.5"/>
		<line id="XMLID_1802_" class="st5" x1="-84.9" y1="543.8" x2="-84.9" y2="530"/>
		<line id="XMLID_1792_" class="st5" x1="-78.1" y1="544.1" x2="-78.1" y2="530.8"/>
	</g>
</g>
<rect id="XMLID_214_" x="-182.7" y="550" class="st6" width="13.5" height="7.2"/>
<rect id="XMLID_1735_" x="-162.4" y="550" class="st6" width="13.5" height="7.2"/>
</svg>
