<?xml version="1.0" encoding="utf-8"?>
<!-- Generator: Adobe Illustrator 19.0.0, SVG Export Plug-In . SVG Version: 6.00 Build 0)  -->
<svg version="1.1" id="Layer_1" xmlns="http://www.w3.org/2000/svg" xmlns:xlink="http://www.w3.org/1999/xlink" x="0px" y="0px"
	 viewBox="-143 339.9 308 162" style="enable-background:new -143 339.9 308 162;" xml:space="preserve">
<style type="text/css">
	.st0{fill:none;stroke:#4F4F4F;stroke-width:2;stroke-miterlimit:10;}
	.st1{fill:none;stroke:#4F4F4F;stroke-miterlimit:10;}
</style>
<line id="XMLID_1385_" class="st0" x1="-137.9" y1="500.9" x2="165" y2="500.9"/>
<g id="XMLID_1210_">
	<g id="XMLID_1207_">
		<polygon id="XMLID_1199_" class="st0" points="46.6,500.9 -110.1,500.9 -123.4,453 59.9,453 		"/>
		<polyline id="XMLID_1200_" class="st0" points="46.6,500.9 128.4,500.9 145.6,435.9 18.2,435.9 22.7,453 		"/>
	</g>
	<g id="XMLID_1216_">
		<polygon id="XMLID_1209_" class="st1" points="-70,492.8 -70,500.9 38.9,500.9 41.2,492.8 		"/>
		<rect id="XMLID_1205_" x="-66.9" y="495.6" class="st1" width="8.8" height="5.3"/>
		<line id="XMLID_1201_" class="st1" x1="-54.9" y1="492.8" x2="-54.9" y2="500.9"/>
		<line id="XMLID_1211_" class="st1" x1="-46.9" y1="492.8" x2="-46.9" y2="500.9"/>
		<line id="XMLID_1212_" class="st1" x1="-38.9" y1="492.8" x2="-38.9" y2="500.9"/>
		<line id="XMLID_1213_" class="st1" x1="-30.8" y1="492.8" x2="-30.8" y2="500.9"/>
		<line id="XMLID_1214_" class="st1" x1="-22.8" y1="492.8" x2="-22.8" y2="500.9"/>
		<line id="XMLID_1215_" class="st1" x1="-14.7" y1="492.8" x2="-14.7" y2="500.9"/>
		<line id="XMLID_1217_" class="st1" x1="-6.7" y1="492.8" x2="-6.7" y2="500.9"/>
		<line id="XMLID_1218_" class="st1" x1="1.4" y1="492.8" x2="1.4" y2="500.9"/>
		<line id="XMLID_1219_" class="st1" x1="9.4" y1="492.8" x2="9.4" y2="500.9"/>
		<line id="XMLID_1220_" class="st1" x1="17.4" y1="492.8" x2="17.4" y2="500.9"/>
		<line id="XMLID_1223_" class="st1" x1="25.5" y1="492.8" x2="25.5" y2="500.9"/>
		<line id="XMLID_1224_" class="st1" x1="33.5" y1="492.8" x2="33.5" y2="500.9"/>
	</g>
	<path id="XMLID_1222_" class="st1" d="M-109.6,453.2c3.5-5.1,9.3-8.5,15.9-8.5H0c6.6,0,12.3,3.3,15.8,8.3"/>
	<g id="XMLID_1225_">
		<line id="XMLID_1234_" class="st1" x1="-102" y1="452" x2="-102" y2="446.6"/>
		<line id="XMLID_1235_" class="st1" x1="-95.5" y1="452" x2="-95.5" y2="444.7"/>
		<line id="XMLID_1239_" class="st1" x1="-89" y1="452" x2="-89" y2="444.7"/>
		<line id="XMLID_1240_" class="st1" x1="-82.5" y1="452" x2="-82.5" y2="444.7"/>
		<line id="XMLID_1241_" class="st1" x1="-76.1" y1="452" x2="-76.1" y2="444.7"/>
		<line id="XMLID_1242_" class="st1" x1="-69.6" y1="452" x2="-69.6" y2="444.7"/>
		<line id="XMLID_1243_" class="st1" x1="-63.1" y1="452" x2="-63.1" y2="444.7"/>
		<line id="XMLID_1244_" class="st1" x1="-56.6" y1="452" x2="-56.6" y2="444.7"/>
		<line id="XMLID_1245_" class="st1" x1="-50.1" y1="452" x2="-50.1" y2="444.7"/>
		<line id="XMLID_1246_" class="st1" x1="-43.7" y1="452" x2="-43.7" y2="444.7"/>
		<line id="XMLID_1247_" class="st1" x1="-37.2" y1="452" x2="-37.2" y2="444.7"/>
		<line id="XMLID_1248_" class="st1" x1="-30.7" y1="452" x2="-30.7" y2="444.7"/>
		<line id="XMLID_1249_" class="st1" x1="-24.2" y1="452" x2="-24.2" y2="444.7"/>
		<line id="XMLID_1250_" class="st1" x1="-17.7" y1="452" x2="-17.7" y2="444.7"/>
		<line id="XMLID_1251_" class="st1" x1="-11.3" y1="452" x2="-11.3" y2="444.7"/>
		<line id="XMLID_1252_" class="st1" x1="-4.8" y1="452" x2="-4.8" y2="444.7"/>
		<line id="XMLID_1253_" class="st1" x1="1.7" y1="452" x2="1.7" y2="444.7"/>
		<line id="XMLID_1254_" class="st1" x1="8.2" y1="452" x2="8.2" y2="446.6"/>
	</g>
	<line id="XMLID_1221_" class="st0" x1="-117.1" y1="477.6" x2="-92.7" y2="477.6"/>
	<line id="XMLID_1208_" class="st0" x1="-119.2" y1="467.1" x2="-52.7" y2="467.1"/>
	<line id="XMLID_1255_" class="st0" x1="-119.9" y1="463" x2="-35.2" y2="463"/>
	<line id="XMLID_1203_" class="st0" x1="-22.5" y1="467.1" x2="17.4" y2="467.1"/>
	<line id="XMLID_1202_" class="st0" x1="-22.5" y1="463" x2="17.4" y2="463"/>
	<line id="XMLID_1204_" class="st0" x1="35.5" y1="446.1" x2="41.7" y2="446.1"/>
	<line id="XMLID_1206_" class="st0" x1="73.3" y1="446.1" x2="79.5" y2="446.1"/>
	<line id="XMLID_1237_" class="st0" x1="85.9" y1="446.1" x2="92.2" y2="446.1"/>
	<line id="XMLID_1260_" class="st0" x1="73.3" y1="453" x2="79.5" y2="453"/>
	<line id="XMLID_1261_" class="st0" x1="73.3" y1="460.1" x2="79.5" y2="460.1"/>
	<line id="XMLID_1262_" class="st0" x1="73.3" y1="467.2" x2="79.5" y2="467.2"/>
	<line id="XMLID_1259_" class="st0" x1="85.9" y1="453" x2="92.2" y2="453"/>
	<line id="XMLID_1256_" class="st0" x1="98.6" y1="446.1" x2="104.8" y2="446.1"/>
	<line id="XMLID_1257_" class="st0" x1="111.2" y1="446.1" x2="117.5" y2="446.1"/>
	<line id="XMLID_1258_" class="st0" x1="136.6" y1="446.1" x2="142.8" y2="446.1"/>
</g>
</svg>
