<?xml version="1.0" encoding="utf-8"?>
<!-- Generator: Adobe Illustrator 19.0.0, SVG Export Plug-In . SVG Version: 6.00 Build 0)  -->
<svg version="1.1" id="Layer_1" xmlns="http://www.w3.org/2000/svg" xmlns:xlink="http://www.w3.org/1999/xlink" x="0px" y="0px"
	 viewBox="-143 339.9 308 162" style="enable-background:new -143 339.9 308 162;" xml:space="preserve">
<style type="text/css">
	.st0{fill:none;stroke:#4D504F;stroke-width:2;stroke-miterlimit:10;}
	.st1{fill:none;stroke:#4D504F;stroke-miterlimit:10;}
</style>
<line id="XMLID_2234_" class="st0" x1="-143" y1="500.9" x2="165" y2="500.9"/>
<g id="XMLID_2216_">
	<polygon id="XMLID_2186_" class="st0" points="39.6,500.9 -36.8,500.9 -74.5,445.9 16.2,464.1 68.2,458.9 	"/>
	<line id="XMLID_2215_" class="st0" x1="-96.3" y1="500.9" x2="-116.2" y2="471.9"/>
	<polyline id="XMLID_2204_" class="st0" points="103.8,500.9 126.1,468.2 148.7,468.2 	"/>
	<polygon id="XMLID_2189_" class="st0" points="37.1,476.3 -33.6,476.3 -24.5,500.9 29.3,500.9 	"/>
	<g id="XMLID_2191_">
		<line id="XMLID_2192_" class="st1" x1="-23.5" y1="476.3" x2="-23.5" y2="500.9"/>
		<line id="XMLID_2193_" class="st1" x1="-13.4" y1="476.3" x2="-13.4" y2="500.9"/>
		<line id="XMLID_2194_" class="st1" x1="-3.3" y1="476.3" x2="-3.3" y2="500.9"/>
		<line id="XMLID_2195_" class="st1" x1="6.8" y1="476.3" x2="6.8" y2="500.9"/>
		<line id="XMLID_2196_" class="st1" x1="16.9" y1="476.3" x2="16.9" y2="500.9"/>
		<line id="XMLID_2197_" class="st1" x1="27" y1="476.3" x2="27" y2="500.9"/>
	</g>
	<g id="XMLID_2198_">
		<line id="XMLID_2201_" class="st1" x1="-27.8" y1="492.7" x2="31.8" y2="492.7"/>
		<line id="XMLID_2200_" class="st1" x1="-30.5" y1="484.5" x2="34.6" y2="484.5"/>
	</g>
	<g id="XMLID_2220_">
		<line id="XMLID_2224_" class="st1" x1="-118.4" y1="471.9" x2="-118.4" y2="500.9"/>
		<line id="XMLID_2223_" class="st1" x1="-108.3" y1="483.4" x2="-108.3" y2="500.9"/>
	</g>
	<g id="XMLID_2217_">
		<line id="XMLID_2219_" class="st1" x1="-128.4" y1="492.7" x2="-101.6" y2="492.7"/>
		<line id="XMLID_2221_" class="st1" x1="-128.4" y1="484.5" x2="-107.5" y2="484.5"/>
		<line id="XMLID_2222_" class="st1" x1="-128.4" y1="476.3" x2="-113.1" y2="476.3"/>
	</g>
	<g id="XMLID_2208_">
		<line id="XMLID_2212_" class="st1" x1="115.2" y1="484.1" x2="115.2" y2="500.9"/>
		<line id="XMLID_2211_" class="st1" x1="125.3" y1="469.1" x2="125.3" y2="500.9"/>
		<line id="XMLID_2210_" class="st1" x1="135.4" y1="468.2" x2="135.4" y2="500.9"/>
		<line id="XMLID_2209_" class="st1" x1="145.5" y1="468.2" x2="145.5" y2="500.9"/>
	</g>
	<g id="XMLID_2205_">
		<line id="XMLID_2207_" class="st1" x1="109.3" y1="492.7" x2="145.5" y2="492.7"/>
		<line id="XMLID_2213_" class="st1" x1="114.9" y1="484.5" x2="145.5" y2="484.5"/>
		<line id="XMLID_2214_" class="st1" x1="120.4" y1="476.3" x2="145.5" y2="476.3"/>
	</g>
	<polygon id="XMLID_2190_" class="st0" points="103.8,500.9 39.6,500.9 59.4,471.8 123.6,471.8 	"/>
	<polygon id="XMLID_2202_" class="st0" points="-36.8,500.9 -128.4,500.9 -128.4,471.8 -56.7,471.8 	"/>
	<line id="XMLID_2199_" class="st0" x1="16.2" y1="464.1" x2="16.2" y2="476.3"/>
	<line id="XMLID_2203_" class="st1" x1="71.1" y1="471.8" x2="85.4" y2="500.9"/>
	<line id="XMLID_2206_" class="st1" x1="125.3" y1="465.1" x2="150.3" y2="465.1"/>
</g>
</svg>
