<?xml version="1.0" encoding="utf-8"?>
<!-- Generator: Adobe Illustrator 21.0.0, SVG Export Plug-In . SVG Version: 6.00 Build 0)  -->
<svg version="1.2" baseProfile="tiny" id="Layer_1" xmlns="http://www.w3.org/2000/svg" xmlns:xlink="http://www.w3.org/1999/xlink"
	 x="0px" y="0px" viewBox="0 0 308 162" xml:space="preserve">
<rect id="XMLID_6687_" x="54.5" y="111.1" fill="#F4DCC6" width="44" height="49"/>
<rect id="XMLID_6693_" x="100.5" y="109.1" fill="#F4DCC6" width="157" height="51"/>
<rect id="XMLID_6692_" x="107.5" y="126.1" fill="#B5543A" width="13" height="34"/>
<rect id="XMLID_6695_" x="126.5" y="126.1" fill="#B5543A" width="13" height="34"/>
<rect id="XMLID_6696_" x="145.5" y="126.1" fill="#B5543A" width="13" height="34"/>
<rect id="XMLID_6699_" x="199.5" y="126.1" fill="#B5543A" width="13" height="34"/>
<rect id="XMLID_6698_" x="218.5" y="126.1" fill="#B5543A" width="13" height="34"/>
<rect id="XMLID_6697_" x="237.5" y="126.1" fill="#B5543A" width="13" height="34"/>
<rect id="XMLID_6694_" x="111.5" y="128.1" fill="#9E9D9D" width="5" height="32"/>
<rect id="XMLID_6700_" x="110.5" y="136.1" fill="#9E9D9D" width="7" height="24"/>
<rect id="XMLID_6703_" x="130.5" y="128.1" fill="#9E9D9D" width="5" height="32"/>
<rect id="XMLID_6702_" x="129.5" y="136.1" fill="#9E9D9D" width="7" height="24"/>
<rect id="XMLID_6705_" x="149.5" y="128.1" fill="#9E9D9D" width="5" height="32"/>
<rect id="XMLID_6704_" x="148.5" y="136.1" fill="#9E9D9D" width="7" height="24"/>
<rect id="XMLID_6707_" x="203.5" y="128.1" fill="#9E9D9D" width="5" height="32"/>
<rect id="XMLID_6706_" x="202.5" y="136.1" fill="#9E9D9D" width="7" height="24"/>
<rect id="XMLID_6709_" x="222.5" y="128.1" fill="#9E9D9D" width="5" height="32"/>
<rect id="XMLID_6708_" x="221.5" y="136.1" fill="#9E9D9D" width="7" height="24"/>
<rect id="XMLID_6711_" x="241.5" y="128.1" fill="#9E9D9D" width="5" height="32"/>
<rect id="XMLID_6710_" x="240.5" y="136.1" fill="#9E9D9D" width="7" height="24"/>
<rect id="XMLID_6701_" x="167.5" y="127.1" fill="#9E9D9D" width="23" height="33"/>
<polygon id="XMLID_1465_" fill="#1D1D1B" points="307.5,162.1 33.5,162.1 34.5,160.1 308.5,160.1 "/>
<polygon id="XMLID_1469_" fill="#1D1D1B" points="127.5,134.1 127.5,160.1 129.5,160.1 129.5,138.1 132.5,136.1 133.5,136.1 
	136.5,138.1 136.5,160.1 138.5,160.1 138.5,134.1 "/>
<rect id="XMLID_4371_" x="129.5" y="128.1" fill="#1D1D1B" width="1" height="6"/>
<rect id="XMLID_4370_" x="135.5" y="128.1" fill="#1D1D1B" width="1" height="6"/>
<rect id="XMLID_4369_" x="132.5" y="129.1" fill="#1D1D1B" width="1" height="31"/>
<rect id="XMLID_4368_" x="125.5" y="125.1" fill="#1D1D1B" width="1" height="35"/>
<rect id="XMLID_4367_" x="139.5" y="125.1" fill="#1D1D1B" width="1" height="35"/>
<rect id="XMLID_4366_" x="130.5" y="128.1" fill="#1D1D1B" width="6" height="1"/>
<rect id="XMLID_4365_" x="126.5" y="125.1" fill="#1D1D1B" width="13" height="1"/>
<rect id="XMLID_4364_" x="130.5" y="131.1" fill="#1D1D1B" width="6" height="1"/>
<rect id="XMLID_4363_" x="129.5" y="142.1" fill="#1D1D1B" width="7" height="1"/>
<rect id="XMLID_4362_" x="129.5" y="146.1" fill="#1D1D1B" width="7" height="1"/>
<rect id="XMLID_4361_" x="129.5" y="156.1" fill="#1D1D1B" width="7" height="1"/>
<polygon id="XMLID_4372_" fill="#1D1D1B" points="146.5,134.1 146.5,160.1 148.5,160.1 148.5,138.1 151.5,136.1 152.5,136.1 
	155.5,138.1 155.5,160.1 157.5,160.1 157.5,134.1 "/>
<rect id="XMLID_4360_" x="148.5" y="128.1" fill="#1D1D1B" width="1" height="6"/>
<rect id="XMLID_4359_" x="154.5" y="128.1" fill="#1D1D1B" width="1" height="6"/>
<rect id="XMLID_4358_" x="151.5" y="129.1" fill="#1D1D1B" width="1" height="31"/>
<rect id="XMLID_4357_" x="144.5" y="125.1" fill="#1D1D1B" width="1" height="35"/>
<rect id="XMLID_4341_" x="158.5" y="125.1" fill="#1D1D1B" width="1" height="35"/>
<rect id="XMLID_1476_" x="149.5" y="128.1" fill="#1D1D1B" width="6" height="1"/>
<rect id="XMLID_4399_" x="165.5" y="125.1" fill="#1D1D1B" width="27" height="2"/>
<rect id="XMLID_1475_" x="145.5" y="125.1" fill="#1D1D1B" width="13" height="1"/>
<rect id="XMLID_1474_" x="149.5" y="131.1" fill="#1D1D1B" width="6" height="1"/>
<rect id="XMLID_4398_" x="167.5" y="131.1" fill="#1D1D1B" width="23" height="1"/>
<rect id="XMLID_1472_" x="148.5" y="142.1" fill="#1D1D1B" width="7" height="1"/>
<rect id="XMLID_1471_" x="148.5" y="146.1" fill="#1D1D1B" width="7" height="1"/>
<rect id="XMLID_1470_" x="148.5" y="156.1" fill="#1D1D1B" width="7" height="1"/>
<rect id="XMLID_4395_" x="175.5" y="127.1" fill="#1D1D1B" width="1" height="24"/>
<rect id="XMLID_4396_" x="169.5" y="127.1" fill="#1D1D1B" width="1" height="33"/>
<rect id="XMLID_4403_" x="165.5" y="127.1" fill="#1D1D1B" width="2" height="33"/>
<rect id="XMLID_4397_" x="181.5" y="127.1" fill="#1D1D1B" width="1" height="24"/>
<rect id="XMLID_4394_" x="167.5" y="142.1" fill="#1D1D1B" width="23" height="1"/>
<rect id="XMLID_4393_" x="167.5" y="146.1" fill="#1D1D1B" width="23" height="1"/>
<rect id="XMLID_4392_" x="167.5" y="156.1" fill="#1D1D1B" width="5" height="1"/>
<rect id="XMLID_4453_" x="185.5" y="156.1" fill="#1D1D1B" width="5" height="1"/>
<rect id="XMLID_4402_" x="187.5" y="127.1" fill="#1D1D1B" width="1" height="33"/>
<rect id="XMLID_4401_" x="190.5" y="127.1" fill="#1D1D1B" width="2" height="33"/>
<polygon id="XMLID_1473_" fill="#1D1D1B" points="108.5,134.1 108.5,160.1 110.5,160.1 110.5,138.1 113.5,136.1 114.5,136.1 
	117.5,138.1 117.5,160.1 119.5,160.1 119.5,134.1 "/>
<rect id="XMLID_4384_" x="110.5" y="128.1" fill="#1D1D1B" width="1" height="6"/>
<rect id="XMLID_4383_" x="116.5" y="128.1" fill="#1D1D1B" width="1" height="6"/>
<rect id="XMLID_4382_" x="113.5" y="129.1" fill="#1D1D1B" width="1" height="31"/>
<rect id="XMLID_4381_" x="106.5" y="125.1" fill="#1D1D1B" width="1" height="35"/>
<rect id="XMLID_4448_" x="98.5" y="107.1" fill="#1D1D1B" width="2" height="53"/>
<rect id="XMLID_4455_" x="52.5" y="109.1" fill="#1D1D1B" width="2" height="51"/>
<rect id="XMLID_4450_" x="257.5" y="107.1" fill="#1D1D1B" width="2" height="53"/>
<rect id="XMLID_4380_" x="120.5" y="125.1" fill="#1D1D1B" width="1" height="35"/>
<rect id="XMLID_4379_" x="111.5" y="128.1" fill="#1D1D1B" width="6" height="1"/>
<rect id="XMLID_4378_" x="107.5" y="125.1" fill="#1D1D1B" width="13" height="1"/>
<rect id="XMLID_4377_" x="111.5" y="131.1" fill="#1D1D1B" width="6" height="1"/>
<rect id="XMLID_4376_" x="110.5" y="142.1" fill="#1D1D1B" width="7" height="1"/>
<rect id="XMLID_4375_" x="110.5" y="146.1" fill="#1D1D1B" width="7" height="1"/>
<rect id="XMLID_4374_" x="110.5" y="156.1" fill="#1D1D1B" width="7" height="1"/>
<polygon id="XMLID_4447_" fill="#1D1D1B" points="219.5,134.1 219.5,160.1 221.5,160.1 221.5,138.1 224.5,136.1 225.5,136.1 
	228.5,138.1 228.5,160.1 230.5,160.1 230.5,134.1 "/>
<rect id="XMLID_4446_" x="221.5" y="128.1" fill="#1D1D1B" width="1" height="6"/>
<rect id="XMLID_4445_" x="227.5" y="128.1" fill="#1D1D1B" width="1" height="6"/>
<rect id="XMLID_4444_" x="224.5" y="129.1" fill="#1D1D1B" width="1" height="31"/>
<rect id="XMLID_4443_" x="217.5" y="125.1" fill="#1D1D1B" width="1" height="35"/>
<rect id="XMLID_4442_" x="231.5" y="125.1" fill="#1D1D1B" width="1" height="35"/>
<rect id="XMLID_4441_" x="222.5" y="128.1" fill="#1D1D1B" width="6" height="1"/>
<rect id="XMLID_4440_" x="218.5" y="125.1" fill="#1D1D1B" width="13" height="1"/>
<rect id="XMLID_4439_" x="222.5" y="131.1" fill="#1D1D1B" width="6" height="1"/>
<rect id="XMLID_4438_" x="221.5" y="142.1" fill="#1D1D1B" width="7" height="1"/>
<rect id="XMLID_4437_" x="221.5" y="146.1" fill="#1D1D1B" width="7" height="1"/>
<rect id="XMLID_4436_" x="221.5" y="156.1" fill="#1D1D1B" width="7" height="1"/>
<polygon id="XMLID_4427_" fill="#1D1D1B" points="238.5,134.1 238.5,160.1 240.5,160.1 240.5,138.1 243.5,136.1 244.5,136.1 
	247.5,138.1 247.5,160.1 249.5,160.1 249.5,134.1 "/>
<rect id="XMLID_4426_" x="240.5" y="128.1" fill="#1D1D1B" width="1" height="6"/>
<rect id="XMLID_4425_" x="246.5" y="128.1" fill="#1D1D1B" width="1" height="6"/>
<rect id="XMLID_4424_" x="243.5" y="129.1" fill="#1D1D1B" width="1" height="31"/>
<rect id="XMLID_4423_" x="236.5" y="125.1" fill="#1D1D1B" width="1" height="35"/>
<rect id="XMLID_4422_" x="250.5" y="125.1" fill="#1D1D1B" width="1" height="35"/>
<rect id="XMLID_4421_" x="241.5" y="128.1" fill="#1D1D1B" width="6" height="1"/>
<rect id="XMLID_4420_" x="237.5" y="125.1" fill="#1D1D1B" width="13" height="1"/>
<rect id="XMLID_4419_" x="241.5" y="131.1" fill="#1D1D1B" width="6" height="1"/>
<rect id="XMLID_4418_" x="240.5" y="142.1" fill="#1D1D1B" width="7" height="1"/>
<rect id="XMLID_4417_" x="240.5" y="146.1" fill="#1D1D1B" width="7" height="1"/>
<rect id="XMLID_4416_" x="240.5" y="156.1" fill="#1D1D1B" width="7" height="1"/>
<polygon id="XMLID_4415_" fill="#1D1D1B" points="200.5,134.1 200.5,160.1 202.5,160.1 202.5,138.1 205.5,136.1 206.5,136.1 
	209.5,138.1 209.5,160.1 211.5,160.1 211.5,134.1 "/>
<rect id="XMLID_4414_" x="202.5" y="128.1" fill="#1D1D1B" width="1" height="6"/>
<rect id="XMLID_4413_" x="208.5" y="128.1" fill="#1D1D1B" width="1" height="6"/>
<rect id="XMLID_4412_" x="205.5" y="129.1" fill="#1D1D1B" width="1" height="31"/>
<rect id="XMLID_4411_" x="198.5" y="125.1" fill="#1D1D1B" width="1" height="35"/>
<rect id="XMLID_4410_" x="212.5" y="125.1" fill="#1D1D1B" width="1" height="35"/>
<rect id="XMLID_4409_" x="203.5" y="128.1" fill="#1D1D1B" width="6" height="1"/>
<rect id="XMLID_4408_" x="199.5" y="125.1" fill="#1D1D1B" width="13" height="1"/>
<rect id="XMLID_4407_" x="203.5" y="131.1" fill="#1D1D1B" width="6" height="1"/>
<rect id="XMLID_4406_" x="202.5" y="142.1" fill="#1D1D1B" width="7" height="1"/>
<rect id="XMLID_4405_" x="202.5" y="146.1" fill="#1D1D1B" width="7" height="1"/>
<rect id="XMLID_4404_" x="202.5" y="156.1" fill="#1D1D1B" width="7" height="1"/>
<rect id="XMLID_1464_" x="100.5" y="107.1" fill="#1D1D1B" width="157" height="2"/>
<rect id="XMLID_4454_" x="52.5" y="109.1" fill="#1D1D1B" width="46" height="2"/>
<rect id="XMLID_4400_" x="172.5" y="151.1" fill="#1D1D1B" width="13" height="2"/>
<rect id="XMLID_4449_" x="172.5" y="152.1" fill="#1D1D1B" width="2" height="8"/>
<rect id="XMLID_4452_" x="183.5" y="152.1" fill="#1D1D1B" width="2" height="8"/>
<rect id="XMLID_4451_" x="91.5" y="122.1" fill="#1D1D1B" width="4" height="4"/>
<rect id="XMLID_4457_" x="82.5" y="122.1" fill="#1D1D1B" width="4" height="4"/>
<rect id="XMLID_4458_" x="73.5" y="122.1" fill="#1D1D1B" width="4" height="4"/>
<rect id="XMLID_4461_" x="91.5" y="131.1" fill="#1D1D1B" width="4" height="4"/>
<rect id="XMLID_4460_" x="82.5" y="131.1" fill="#1D1D1B" width="4" height="4"/>
<rect id="XMLID_4459_" x="73.5" y="131.1" fill="#1D1D1B" width="4" height="4"/>
<rect id="XMLID_4464_" x="91.5" y="140.1" fill="#1D1D1B" width="4" height="4"/>
<rect id="XMLID_4463_" x="82.5" y="140.1" fill="#1D1D1B" width="4" height="4"/>
<rect id="XMLID_4462_" x="73.5" y="140.1" fill="#1D1D1B" width="4" height="4"/>
<rect id="XMLID_4467_" x="91.5" y="149.1" fill="#1D1D1B" width="4" height="4"/>
<rect id="XMLID_4466_" x="82.5" y="149.1" fill="#1D1D1B" width="4" height="4"/>
<rect id="XMLID_4465_" x="73.5" y="149.1" fill="#1D1D1B" width="4" height="4"/>
</svg>
