<?xml version="1.0" encoding="utf-8"?>
<!-- Generator: Adobe Illustrator 19.0.0, SVG Export Plug-In . SVG Version: 6.00 Build 0)  -->
<svg version="1.1" id="Layer_1" xmlns="http://www.w3.org/2000/svg" xmlns:xlink="http://www.w3.org/1999/xlink" x="0px" y="0px"
	 viewBox="-297 420.9 308 162" style="enable-background:new -297 420.9 308 162;" xml:space="preserve">
<style type="text/css">
	.st0{fill:none;stroke:#4D504F;stroke-width:2;stroke-miterlimit:10;}
	.st1{fill:none;stroke:#4D504F;stroke-miterlimit:10;}
	.st2{fill:#FFFFFF;stroke:#4D504F;stroke-width:2;stroke-miterlimit:10;}
</style>
<line id="XMLID_2088_" class="st0" x1="-288.9" y1="581.9" x2="10.8" y2="581.9"/>
<g id="XMLID_2073_">
	<path id="XMLID_2039_" class="st0" d="M-79.6,572.4v-56.8l-39.4-8.7c-7.4,1.2-15.6,1.8-24.2,1.8s-16.8-0.6-24.2-1.8l-39.4,8.7v56.8
		"/>
	<path id="XMLID_2037_" class="st1" d="M-79.6,522.3l-39.4-8.7c-7.4,1.2-15.6,1.8-24.2,1.8s-16.8-0.6-24.2-1.8l-39.4,8.7"/>
	<path id="XMLID_2046_" class="st1" d="M-79.6,533.5l-39.4-8.7c-7.4,1.2-15.6,1.8-24.2,1.8s-16.8-0.6-24.2-1.8l-39.4,8.7"/>
	<line id="XMLID_2063_" class="st1" x1="-173.4" y1="537.3" x2="-206.9" y2="544.7"/>
	<line id="XMLID_2036_" class="st1" x1="-79.6" y1="544.7" x2="-113.1" y2="537.3"/>
	<rect id="XMLID_2031_" x="-173.4" y="533.5" class="st0" width="12" height="38.9"/>
	<rect id="XMLID_2035_" x="-125" y="533.5" class="st0" width="12" height="38.9"/>
	<line id="XMLID_2030_" class="st0" x1="-167.6" y1="506.9" x2="-167.6" y2="533.5"/>
	<line id="XMLID_2032_" class="st0" x1="-119" y1="506.9" x2="-119" y2="533.5"/>
	<rect id="XMLID_2033_" x="-161.4" y="538" class="st2" width="36.4" height="17.9"/>
	<line id="XMLID_2034_" class="st0" x1="-211.5" y1="572.4" x2="-74.9" y2="572.4"/>
	<line id="XMLID_2038_" class="st0" x1="-215.3" y1="577" x2="-71.1" y2="577"/>
	<g id="XMLID_2040_">
		<line id="XMLID_2041_" class="st1" x1="-200.4" y1="572.4" x2="-200.4" y2="521.2"/>
		<line id="XMLID_2042_" class="st1" x1="-193.8" y1="572.4" x2="-193.8" y2="519.2"/>
		<line id="XMLID_2043_" class="st1" x1="-187.2" y1="572.4" x2="-187.2" y2="517.9"/>
		<line id="XMLID_2044_" class="st1" x1="-180.6" y1="572.4" x2="-180.6" y2="516.4"/>
		<line id="XMLID_2045_" class="st1" x1="-174.1" y1="572.4" x2="-174.1" y2="515"/>
	</g>
	<g id="XMLID_2047_">
		<line id="XMLID_2059_" class="st1" x1="-86.2" y1="572.4" x2="-86.2" y2="521.2"/>
		<line id="XMLID_2058_" class="st1" x1="-92.8" y1="572.4" x2="-92.8" y2="519.2"/>
		<line id="XMLID_2057_" class="st1" x1="-99.3" y1="572.4" x2="-99.3" y2="517.9"/>
		<line id="XMLID_2056_" class="st1" x1="-105.9" y1="572.4" x2="-105.9" y2="516.4"/>
		<line id="XMLID_2055_" class="st1" x1="-112.5" y1="572.4" x2="-112.5" y2="515"/>
	</g>
	<g id="XMLID_2048_">
		<line id="XMLID_2054_" class="st1" x1="-160.6" y1="538.5" x2="-160.6" y2="514.5"/>
		<line id="XMLID_2053_" class="st1" x1="-153.6" y1="538.5" x2="-153.6" y2="515.4"/>
		<line id="XMLID_2052_" class="st1" x1="-146.8" y1="538.5" x2="-146.8" y2="515.4"/>
		<line id="XMLID_2051_" class="st1" x1="-139.8" y1="538.5" x2="-139.8" y2="515.4"/>
		<line id="XMLID_2050_" class="st1" x1="-132.9" y1="538.5" x2="-132.9" y2="515.4"/>
		<line id="XMLID_2049_" class="st1" x1="-126" y1="538.5" x2="-126" y2="514.5"/>
	</g>
	<g id="XMLID_2065_">
		<line id="XMLID_2070_" class="st1" x1="-72.8" y1="533.5" x2="-72.8" y2="522.7"/>
		<line id="XMLID_2069_" class="st1" x1="-65.8" y1="533.5" x2="-65.8" y2="522.7"/>
		<line id="XMLID_2068_" class="st1" x1="-58.9" y1="533.5" x2="-58.9" y2="522.7"/>
		<line id="XMLID_2067_" class="st1" x1="-52" y1="533.5" x2="-52" y2="522.7"/>
		<line id="XMLID_2066_" class="st1" x1="-45.1" y1="533.5" x2="-45.1" y2="522.3"/>
		<line id="XMLID_2072_" class="st1" x1="-38.2" y1="533.5" x2="-38.2" y2="522.3"/>
		<line id="XMLID_2074_" class="st1" x1="-31.3" y1="533.5" x2="-31.3" y2="522.3"/>
		<line id="XMLID_2076_" class="st1" x1="-24.4" y1="533.5" x2="-24.4" y2="522.3"/>
	</g>
	<rect id="XMLID_2060_" x="-79.6" y="515.6" class="st0" width="61.8" height="40.3"/>
	<line id="XMLID_2061_" class="st0" x1="-79.6" y1="533.5" x2="-17.9" y2="533.5"/>
	<line id="XMLID_2062_" class="st1" x1="-79.6" y1="522.3" x2="-17.9" y2="522.3"/>
	<line id="XMLID_2064_" class="st0" x1="-24.4" y1="555.9" x2="-24.4" y2="581.9"/>
	<line id="XMLID_2071_" class="st1" x1="-79.6" y1="562.3" x2="-24.4" y2="562.3"/>
	<line id="XMLID_2075_" class="st1" x1="-79.6" y1="567.6" x2="-24.4" y2="567.6"/>
	<g id="XMLID_2085_">
		<line id="XMLID_2095_" class="st1" x1="-213.8" y1="533.5" x2="-213.8" y2="522.7"/>
		<line id="XMLID_2094_" class="st1" x1="-220.8" y1="533.5" x2="-220.8" y2="522.7"/>
		<line id="XMLID_2093_" class="st1" x1="-227.6" y1="533.5" x2="-227.6" y2="522.7"/>
		<line id="XMLID_2092_" class="st1" x1="-234.6" y1="533.5" x2="-234.6" y2="522.7"/>
		<line id="XMLID_2091_" class="st1" x1="-241.6" y1="533.5" x2="-241.6" y2="522.3"/>
		<line id="XMLID_2090_" class="st1" x1="-248.4" y1="533.5" x2="-248.4" y2="522.3"/>
		<line id="XMLID_2089_" class="st1" x1="-255.3" y1="533.5" x2="-255.3" y2="522.3"/>
		<line id="XMLID_2086_" class="st1" x1="-262.2" y1="533.5" x2="-262.2" y2="522.3"/>
	</g>
	<rect id="XMLID_2084_" x="-268.8" y="515.6" class="st0" width="61.8" height="40.3"/>
	<line id="XMLID_2083_" class="st0" x1="-206.9" y1="533.5" x2="-268.8" y2="533.5"/>
	<line id="XMLID_2082_" class="st1" x1="-206.9" y1="522.3" x2="-268.8" y2="522.3"/>
	<line id="XMLID_2079_" class="st0" x1="-262.2" y1="555.9" x2="-262.2" y2="581.9"/>
	<line id="XMLID_2078_" class="st1" x1="-206.9" y1="562.3" x2="-262.2" y2="562.3"/>
	<line id="XMLID_2077_" class="st1" x1="-206.9" y1="567.6" x2="-262.2" y2="567.6"/>
</g>
</svg>
