<?xml version="1.0" encoding="utf-8"?>
<!-- Generator: Adobe Illustrator 19.1.0, SVG Export Plug-In . SVG Version: 6.00 Build 0)  -->
<svg version="1.1" id="Layer_1" xmlns="http://www.w3.org/2000/svg" xmlns:xlink="http://www.w3.org/1999/xlink" x="0px" y="0px"
	 viewBox="-305 397 308 162" style="enable-background:new -305 397 308 162;" xml:space="preserve">
<style type="text/css">
	.st0{fill:none;stroke:#000000;stroke-width:2;stroke-miterlimit:10;}
	.st1{fill:#0094B1;stroke:#000000;stroke-width:2;stroke-miterlimit:10;}
	.st2{fill:none;stroke:#000000;stroke-miterlimit:10;}
	.st3{fill:#F9B147;stroke:#000000;stroke-width:2;stroke-miterlimit:10;}
	.st4{fill:#C0D2DA;stroke:#1C1C1C;stroke-width:2;stroke-miterlimit:10;}
	.st5{fill:#F9B147;stroke:#000000;stroke-miterlimit:10;}
</style>
<line id="XMLID_1746_" class="st0" x1="-305" y1="558" x2="3" y2="558"/>
<g id="XMLID_1719_">
	<g id="XMLID_1713_">
		<path id="XMLID_1715_" class="st1" d="M-218.3,501.6c0-4.8,30.2-8.6,67.4-8.6s67.4,3.9,67.4,8.6v56.1h-134.7V501.6z"/>
		<path id="XMLID_1707_" class="st2" d="M-218.3,528c0-4.8,30.2-8.6,67.4-8.6s67.4,3.9,67.4,8.6"/>
		<path id="XMLID_1709_" class="st2" d="M-218.3,536.7c0-4.8,30.2-8.6,67.4-8.6s67.4,3.9,67.4,8.6"/>
		<path id="XMLID_1711_" class="st2" d="M-218.3,545.3c0-4.8,30.2-8.6,67.4-8.6s67.4,3.9,67.4,8.6"/>
		<path id="XMLID_1717_" class="st2" d="M-218.3,553.9c0-4.8,30.2-8.6,67.4-8.6s67.4,3.9,67.4,8.6"/>
		<g id="XMLID_1641_">
			<line id="XMLID_1704_" class="st2" x1="-207.9" y1="557.8" x2="-207.9" y2="497"/>
			<line id="XMLID_1703_" class="st2" x1="-197.6" y1="557.8" x2="-197.6" y2="495.4"/>
			<line id="XMLID_1702_" class="st2" x1="-187.2" y1="557.8" x2="-187.2" y2="494.4"/>
			<line id="XMLID_1701_" class="st2" x1="-176.9" y1="557.8" x2="-176.9" y2="493.7"/>
			<line id="XMLID_1700_" class="st2" x1="-166.5" y1="557.8" x2="-166.5" y2="493"/>
			<line id="XMLID_1699_" class="st2" x1="-156.1" y1="557.8" x2="-156.1" y2="493"/>
			<line id="XMLID_1698_" class="st2" x1="-145.8" y1="557.8" x2="-145.8" y2="493"/>
			<line id="XMLID_1697_" class="st2" x1="-135.4" y1="557.8" x2="-135.4" y2="493"/>
			<line id="XMLID_1696_" class="st2" x1="-125" y1="557.8" x2="-125" y2="493.7"/>
			<line id="XMLID_1695_" class="st2" x1="-114.7" y1="557.8" x2="-114.7" y2="494.3"/>
			<line id="XMLID_1694_" class="st2" x1="-104.3" y1="557.8" x2="-104.3" y2="495.4"/>
			<line id="XMLID_1693_" class="st2" x1="-94" y1="557.8" x2="-94" y2="497"/>
		</g>
		<path id="XMLID_1639_" class="st3" d="M-83.6,519.4c0-4.8-30.2-8.6-67.4-8.6s-67.4,3.9-67.4,8.6v-12.7c0-4.8,30.2-8.6,67.4-8.6
			s67.4,3.9,67.4,8.6V519.4z"/>
		<rect id="XMLID_1705_" x="-176.9" y="528.7" class="st4" width="51.8" height="29.1"/>
	</g>
	<rect id="XMLID_1640_" x="-294.7" y="510.8" class="st1" width="76.4" height="47"/>
	<rect id="XMLID_1714_" x="-284.6" y="519.9" class="st5" width="49.8" height="28.8"/>
	<rect id="XMLID_1721_" x="-83.6" y="510.8" class="st1" width="76.4" height="47"/>
	<rect id="XMLID_1720_" x="-67.1" y="519.9" class="st5" width="49.8" height="28.8"/>
</g>
</svg>
