<?xml version="1.0" encoding="utf-8"?>
<!-- Generator: Adobe Illustrator 19.0.0, SVG Export Plug-In . SVG Version: 6.00 Build 0)  -->
<svg version="1.1" id="Layer_1" xmlns="http://www.w3.org/2000/svg" xmlns:xlink="http://www.w3.org/1999/xlink" x="0px" y="0px"
	 viewBox="-143 339.9 308 162" style="enable-background:new -143 339.9 308 162;" xml:space="preserve">
<style type="text/css">
	.st0{fill:#0094B1;stroke:#000000;stroke-width:2;stroke-miterlimit:10;}
	.st1{fill:#C0D2DA;}
	.st2{fill:none;stroke:#000000;stroke-width:2;stroke-miterlimit:10;}
	.st3{fill:none;stroke:#000000;stroke-miterlimit:10;}
	.st4{fill:#C0D2DA;stroke:#000000;stroke-width:2;stroke-miterlimit:10;}
</style>
<g id="XMLID_2163_">
	<rect id="XMLID_2140_" x="-71.8" y="420.9" class="st0" width="165.6" height="80"/>
	<rect x="-9.7" y="481.3" class="st1" width="41.8" height="20"/>
	<line id="XMLID_2188_" class="st2" x1="-140" y1="500.9" x2="165" y2="500.9"/>
	<rect id="XMLID_2164_" x="93.8" y="460.9" class="st0" width="41.4" height="40"/>
	<rect id="XMLID_2175_" x="-113.2" y="460.9" class="st0" width="41.4" height="40"/>
	<g id="XMLID_2142_">
		<line id="XMLID_2143_" class="st3" x1="-30.4" y1="500.9" x2="-30.4" y2="420.9"/>
		<line id="XMLID_2144_" class="st3" x1="-16.6" y1="500.9" x2="-16.6" y2="420.9"/>
		<line id="XMLID_2145_" class="st3" x1="-2.8" y1="480.9" x2="-2.8" y2="420.9"/>
		<line id="XMLID_2146_" class="st3" x1="11" y1="500.9" x2="11" y2="420.9"/>
		<line id="XMLID_2147_" class="st3" x1="24.8" y1="480.9" x2="24.8" y2="420.9"/>
		<line id="XMLID_2166_" class="st3" x1="-58" y1="500.9" x2="-58" y2="420.9"/>
		<line id="XMLID_2165_" class="st3" x1="-44.2" y1="500.9" x2="-44.2" y2="420.9"/>
		<line id="XMLID_2148_" class="st3" x1="38.6" y1="500.9" x2="38.6" y2="420.9"/>
		<line id="XMLID_2149_" class="st3" x1="52.4" y1="500.9" x2="52.4" y2="420.9"/>
		<line id="XMLID_2169_" class="st3" x1="66.2" y1="500.9" x2="66.2" y2="420.9"/>
		<line id="XMLID_2168_" class="st3" x1="80" y1="500.9" x2="80" y2="420.9"/>
	</g>
	<g id="XMLID_2152_">
		<line id="XMLID_2162_" class="st3" x1="-71.8" y1="430.9" x2="93.8" y2="430.9"/>
		<line id="XMLID_2161_" class="st3" x1="-71.8" y1="440.9" x2="93.8" y2="440.9"/>
		<line id="XMLID_2158_" class="st3" x1="-71.8" y1="450.9" x2="93.8" y2="450.9"/>
		<line id="XMLID_2157_" class="st3" x1="-71.8" y1="460.9" x2="93.8" y2="460.9"/>
		<line id="XMLID_2156_" class="st3" x1="-71.8" y1="470.9" x2="93.8" y2="470.9"/>
		<line id="XMLID_2155_" class="st3" x1="-71.8" y1="480.9" x2="93.8" y2="480.9"/>
		<line id="XMLID_2154_" class="st3" x1="-71.8" y1="490.9" x2="-22.6" y2="490.9"/>
		<line id="XMLID_2153_" class="st3" x1="44.6" y1="490.9" x2="93.8" y2="490.9"/>
	</g>
	<rect id="XMLID_2141_" x="-22.6" y="450.9" class="st4" width="12" height="50"/>
	<rect id="XMLID_2151_" x="32.6" y="450.9" class="st4" width="12" height="50"/>
	<g id="XMLID_2178_">
		<line id="XMLID_2184_" class="st3" x1="107.6" y1="500.9" x2="107.6" y2="460.9"/>
		<line id="XMLID_2183_" class="st3" x1="121.4" y1="500.9" x2="121.4" y2="460.9"/>
	</g>
	<g id="XMLID_2167_">
		<line id="XMLID_2173_" class="st3" x1="93.8" y1="470.9" x2="135.2" y2="470.9"/>
		<line id="XMLID_2172_" class="st3" x1="93.8" y1="480.9" x2="135.2" y2="480.9"/>
		<line id="XMLID_2171_" class="st3" x1="93.8" y1="490.9" x2="135.2" y2="490.9"/>
	</g>
	<rect id="XMLID_2170_" x="93.8" y="430.9" class="st4" width="45.5" height="30"/>
	<g id="XMLID_2181_">
		<line id="XMLID_2185_" class="st3" x1="-85.6" y1="500.9" x2="-85.6" y2="460.9"/>
		<line id="XMLID_2182_" class="st3" x1="-99.4" y1="500.9" x2="-99.4" y2="460.9"/>
	</g>
	<g id="XMLID_2176_">
		<line id="XMLID_2180_" class="st3" x1="-71.8" y1="470.9" x2="-113.2" y2="470.9"/>
		<line id="XMLID_2179_" class="st3" x1="-71.8" y1="480.9" x2="-113.2" y2="480.9"/>
		<line id="XMLID_2177_" class="st3" x1="-71.8" y1="490.9" x2="-113.2" y2="490.9"/>
	</g>
	<rect id="XMLID_2174_" x="-117.4" y="430.9" class="st4" width="45.5" height="30"/>
	<line id="XMLID_2150_" class="st2" x1="-37.6" y1="470.9" x2="59.6" y2="470.9"/>
</g>
</svg>
