<?xml version="1.0" encoding="utf-8"?>
<!-- Generator: Adobe Illustrator 19.0.0, SVG Export Plug-In . SVG Version: 6.00 Build 0)  -->
<svg version="1.1" id="Layer_1" xmlns="http://www.w3.org/2000/svg" xmlns:xlink="http://www.w3.org/1999/xlink" x="0px" y="0px"
	 viewBox="-297 420.9 308 162" style="enable-background:new -297 420.9 308 162;" xml:space="preserve">
<style type="text/css">
	.st0{fill:none;stroke:#4D504F;stroke-width:2;stroke-miterlimit:10;}
	.st1{fill:none;stroke:#4D504F;stroke-miterlimit:10;}
</style>
<line id="XMLID_2626_" class="st0" x1="-270" y1="581.9" x2="11" y2="581.9"/>
<g id="XMLID_2511_">
	<rect id="XMLID_2471_" x="-131.9" y="516.9" class="st0" width="46.8" height="65"/>
	<rect id="XMLID_2472_" x="-124.7" y="527.5" class="st1" width="32.4" height="54.4"/>
	<line id="XMLID_2475_" class="st1" x1="-116.6" y1="581.9" x2="-116.6" y2="527.5"/>
	<line id="XMLID_2486_" class="st1" x1="-164.8" y1="550" x2="-164.8" y2="536.5"/>
	<line id="XMLID_2484_" class="st1" x1="-164.8" y1="570.7" x2="-164.8" y2="557.2"/>
	<line id="XMLID_2492_" class="st1" x1="-168.7" y1="561.7" x2="-160.9" y2="561.7"/>
	<line id="XMLID_2493_" class="st1" x1="-168.7" y1="566.2" x2="-160.9" y2="566.2"/>
	<line id="XMLID_2490_" class="st1" x1="-168.7" y1="541" x2="-160.9" y2="541"/>
	<line id="XMLID_2483_" class="st1" x1="-168.7" y1="545.5" x2="-160.9" y2="545.5"/>
	<line id="XMLID_2494_" class="st1" x1="-168.7" y1="570.7" x2="-160.9" y2="570.7"/>
	<line id="XMLID_2476_" class="st1" x1="-108.5" y1="571.5" x2="-108.5" y2="527.5"/>
	<line id="XMLID_2477_" class="st1" x1="-100.4" y1="581.9" x2="-100.4" y2="527.5"/>
	<line id="XMLID_2478_" class="st1" x1="-124.7" y1="536.5" x2="-92.3" y2="536.5"/>
	<line id="XMLID_2480_" class="st1" x1="-124.7" y1="545.5" x2="-92.3" y2="545.5"/>
	<line id="XMLID_2481_" class="st1" x1="-124.7" y1="554.7" x2="-92.3" y2="554.7"/>
	<line id="XMLID_2515_" class="st1" x1="-124.7" y1="563.9" x2="-92.3" y2="563.9"/>
	<line id="XMLID_2482_" class="st0" x1="-128.1" y1="571.5" x2="-88.9" y2="571.5"/>
	<rect id="XMLID_2473_" x="-251.7" y="527.5" class="st0" width="119.8" height="54.4"/>
	<rect id="XMLID_2474_" x="-168.7" y="557.2" class="st1" width="7.9" height="24.7"/>
	<rect id="XMLID_2485_" x="-168.7" y="536.5" class="st1" width="7.9" height="13.5"/>
	<rect id="XMLID_2491_" x="-168.7" y="522.7" class="st1" width="7.9" height="4.8"/>
	<rect id="XMLID_2479_" x="-156.9" y="536.5" class="st1" width="25" height="40.8"/>
	<rect id="XMLID_2496_" x="-251.7" y="536.5" class="st1" width="24.5" height="40.8"/>
	<rect id="XMLID_2526_" x="-211.5" y="536.5" class="st1" width="38.8" height="40.8"/>
	<rect id="XMLID_2487_" x="-172.7" y="518.6" class="st0" width="15.8" height="8.9"/>
	<rect id="XMLID_2514_" x="-223.3" y="522.7" class="st1" width="7.9" height="4.8"/>
	<rect id="XMLID_2513_" x="-227.2" y="518.6" class="st0" width="15.8" height="8.9"/>
	<g id="XMLID_2495_">
		<line id="XMLID_2510_" class="st1" x1="-66.8" y1="550" x2="-66.8" y2="536.5"/>
		<line id="XMLID_2509_" class="st1" x1="-66.8" y1="570.7" x2="-66.8" y2="557.2"/>
		<line id="XMLID_2508_" class="st1" x1="-62.9" y1="561.7" x2="-70.8" y2="561.7"/>
		<line id="XMLID_2507_" class="st1" x1="-62.9" y1="566.2" x2="-70.8" y2="566.2"/>
		<line id="XMLID_2506_" class="st1" x1="-62.9" y1="541" x2="-70.8" y2="541"/>
		<line id="XMLID_2505_" class="st1" x1="-62.9" y1="545.5" x2="-70.8" y2="545.5"/>
		<line id="XMLID_2504_" class="st1" x1="-62.9" y1="570.7" x2="-70.8" y2="570.7"/>
		<rect id="XMLID_2503_" x="-85.1" y="527.5" class="st0" width="50.6" height="54.4"/>
		<rect id="XMLID_2502_" x="-70.8" y="557.2" class="st1" width="7.9" height="24.7"/>
		<rect id="XMLID_2501_" x="-70.8" y="536.5" class="st1" width="7.9" height="13.5"/>
		<rect id="XMLID_2500_" x="-70.8" y="522.7" class="st1" width="7.9" height="4.8"/>
		<rect id="XMLID_2499_" x="-85.1" y="536.5" class="st1" width="10.4" height="40.8"/>
		<rect id="XMLID_2498_" x="-58.9" y="536.5" class="st1" width="24.5" height="40.8"/>
		<rect id="XMLID_2497_" x="-74.7" y="518.6" class="st0" width="15.8" height="8.9"/>
	</g>
	<line id="XMLID_2525_" class="st1" x1="-219.4" y1="550" x2="-219.4" y2="536.5"/>
	<line id="XMLID_2524_" class="st1" x1="-219.4" y1="570.7" x2="-219.4" y2="557.2"/>
	<line id="XMLID_2523_" class="st1" x1="-223.3" y1="561.7" x2="-215.4" y2="561.7"/>
	<line id="XMLID_2522_" class="st1" x1="-223.3" y1="566.2" x2="-215.4" y2="566.2"/>
	<line id="XMLID_2521_" class="st1" x1="-223.3" y1="541" x2="-215.4" y2="541"/>
	<line id="XMLID_2520_" class="st1" x1="-223.3" y1="545.5" x2="-215.4" y2="545.5"/>
	<line id="XMLID_2519_" class="st1" x1="-223.3" y1="570.7" x2="-215.4" y2="570.7"/>
	<rect id="XMLID_2518_" x="-223.3" y="557.2" class="st1" width="7.9" height="24.7"/>
	<rect id="XMLID_2517_" x="-223.3" y="536.5" class="st1" width="7.9" height="13.5"/>
</g>
</svg>
