<?xml version="1.0" encoding="utf-8"?>
<!-- Generator: Adobe Illustrator 19.1.0, SVG Export Plug-In . SVG Version: 6.00 Build 0)  -->
<svg version="1.1" id="Layer_1" xmlns="http://www.w3.org/2000/svg" xmlns:xlink="http://www.w3.org/1999/xlink" x="0px" y="0px"
	 viewBox="4 -60 308 162" style="enable-background:new 4 -60 308 162;" xml:space="preserve">
<style type="text/css">
	.st0{fill:#F4DCC6;}
	.st1{fill:#C0D2DA;}
	.st2{fill:#917A7A;}
	.st3{fill:#0094B1;}
</style>
<rect x="149.697" y="83.369" class="st0" width="37.976" height="15.871"/>
<rect x="199.35" y="83.369" class="st0" width="49.741" height="15.871"/>
<rect x="61.499" y="57.837" class="st0" width="6.92" height="14.491"/>
<ellipse class="st1" cx="68.966" cy="26.137" rx="2.818" ry="2.844"/>
<rect x="115.217" y="60.255" class="st2" width="35.108" height="12.073"/>
<path class="st3" d="M150.326,52.706H88.969l3.859-10.149c0,0,6.932-3.902,26.531-2.432c31.927,2.394,21.391-2.097,28.871,3.166
	C150.201,44.678,150.326,52.706,150.326,52.706z"/>
<g>
	<g id="XMLID_1_">
		<rect id="XMLID_11_" x="92.446" y="71.637" width="11.041" height="1.38"/>
		<rect id="XMLID_10_" x="97.966" y="74.398" width="9.661" height="1.38"/>
		<rect id="XMLID_9_" x="102.107" y="77.158" width="9.661" height="1.38"/>
		<rect id="XMLID_8_" x="106.247" y="79.918" width="9.661" height="1.38"/>
		<rect id="XMLID_7_" x="110.387" y="82.679" width="9.661" height="1.38"/>
		<rect id="XMLID_6_" x="114.528" y="85.439" width="9.661" height="1.38"/>
		<rect id="XMLID_5_" x="118.668" y="88.198" width="9.661" height="1.38"/>
		<rect id="XMLID_4_" x="122.808" y="90.958" width="9.661" height="1.38"/>
		<rect id="XMLID_3_" x="126.949" y="93.719" width="9.661" height="1.38"/>
		<rect id="XMLID_2_" x="131.088" y="96.48" width="9.661" height="1.38"/>
	</g>
	<path d="M139.37,38.554h-38.643c-6.908,0.404-12.421,6.766-12.421,13.762v1.38v1.38h63.485v-1.38v-1.38
		C151.791,45.32,146.277,38.958,139.37,38.554z M91.066,52.316v-1.38c0-6.246,3.505-9.348,9.661-9.661h6.491
		c3.539,1.812,5.93,5.295,5.93,9.661v1.38h-11.041h-1.38H91.066z M109.112,41.275h30.257c6.156,0.313,9.661,3.415,9.661,9.661v1.38
		h-9.661h-24.842C114.528,47.962,112.391,43.855,109.112,41.275z"/>
	<path d="M151.791,71.637V60.597v-2.76H88.306v2.76v5.52h2.76v-5.52h22.082v11.041v2.76H312v-2.76L151.791,71.637L151.791,71.637z
		 M149.03,67.497h-33.122v-2.76h33.122V67.497z M149.03,60.597v2.76h-33.122v-2.76H149.03z M115.908,71.637v-2.76h33.122v2.76
		H115.908z"/>
	<path d="M249.777,99.24V84.059v-1.38h-51.064v1.38V99.24h-11.041V84.059v-1.38h-38.643v1.38V99.24h-20.702v-2.76h-4.14v-2.76h-4.14
		v-2.76h-4.14V88.2h-4.14v-2.76h-4.14v-2.76h-4.14v-2.76h-4.14v-2.76h-4.14V74.4h-4.14v-2.76H68.987V56.459h-1.38h-1.38V29.161
		c0.734,0.661,1.695,1.075,2.76,1.075c2.287,0,4.14-1.854,4.14-4.14s-1.854-4.14-4.14-4.14c-0.449,0-0.874,0.09-1.279,0.222
		c0.785-0.754,1.279-1.808,1.279-2.982c0-2.287-1.854-4.14-4.14-4.14c-2.287,0-4.14,1.854-4.14,4.14
		c0,1.174,0.494,2.229,1.279,2.982c-0.405-0.132-0.83-0.222-1.279-0.222c-2.287,0-4.14,1.854-4.14,4.14s1.854,4.14,4.14,4.14
		c1.065,0,2.026-0.414,2.76-1.075v27.297h-1.38h-1.38v15.181H35.864v2.76h52.444v2.76h4.14v2.76h4.14v2.76h4.14v2.76h4.14v2.76h4.14
		v2.76h4.14v2.76h4.14v2.76h4.14v2.76h4.14V102h154.572v-2.76L249.777,99.24L249.777,99.24z M63.464,71.637h-1.38V57.836h1.38
		V71.637z M71.744,26.094c0,1.524-1.236,2.76-2.76,2.76s-2.76-1.236-2.76-2.76s1.236-2.76,2.76-2.76S71.744,24.57,71.744,26.094z
		 M64.844,16.434c1.524,0,2.76,1.236,2.76,2.76s-1.236,2.76-2.76,2.76s-2.76-1.236-2.76-2.76S63.319,16.434,64.844,16.434z
		 M64.844,23.334c0.449,0,0.874-0.09,1.279-0.222c-0.073,0.07-0.137,0.147-0.204,0.222H64.844H63.77
		c-0.068-0.075-0.131-0.152-0.204-0.222C63.97,23.244,64.395,23.334,64.844,23.334z M60.704,28.854c-1.524,0-2.76-1.236-2.76-2.76
		s1.236-2.76,2.76-2.76c1.524,0,2.76,1.236,2.76,2.76S62.228,28.854,60.704,28.854z M67.604,71.637h-1.38V57.836h1.38V71.637z
		 M161.451,99.24h-11.041V84.059h11.041V99.24z M173.872,99.24H162.83V84.059h11.041V99.24L173.872,99.24z M186.293,99.24h-11.041
		V84.059h11.041V99.24z M211.134,99.24h-11.041V84.059h11.041V99.24L211.134,99.24z M223.556,99.24h-11.041V84.059h11.041V99.24z
		 M235.976,99.24h-11.041V84.059h11.041V99.24z M248.397,99.24h-11.041V84.059h11.041V99.24L248.397,99.24z"/>
	<polygon points="164.21,78.538 164.21,79.918 164.21,81.298 172.492,81.298 172.492,79.918 172.492,78.538 	"/>
	<polygon points="213.894,78.538 213.894,79.918 213.894,81.298 234.596,81.298 234.596,79.918 234.596,78.538 	"/>
</g>
<ellipse class="st1" cx="64.845" cy="19.199" rx="2.756" ry="2.781"/>
<ellipse class="st1" cx="60.72" cy="26.137" rx="2.756" ry="2.781"/>
</svg>
