<?xml version="1.0" encoding="utf-8"?>
<!-- Generator: Adobe Illustrator 19.1.0, SVG Export Plug-In . SVG Version: 6.00 Build 0)  -->
<svg version="1.1" id="Layer_1" xmlns="http://www.w3.org/2000/svg" xmlns:xlink="http://www.w3.org/1999/xlink" x="0px" y="0px"
	 viewBox="4 -60 308 162" style="enable-background:new 4 -60 308 162;" xml:space="preserve">
<style type="text/css">
	.st0{fill:#4D504F;}
	.st1{fill:#FFFFFF;}
</style>
<g>
	<g id="XMLID_1056_">
		<rect id="XMLID_1061_" x="92.445" y="71.638" class="st0" width="11.041" height="1.38"/>
		<rect id="XMLID_1199_" x="97.965" y="74.398" class="st0" width="9.661" height="1.38"/>
		<rect id="XMLID_1202_" x="102.106" y="77.158" class="st0" width="9.661" height="1.38"/>
		<rect id="XMLID_1203_" x="106.246" y="79.918" class="st0" width="9.661" height="1.38"/>
		<rect id="XMLID_1204_" x="110.386" y="82.679" class="st0" width="9.661" height="1.38"/>
		<rect id="XMLID_1205_" x="114.527" y="85.439" class="st0" width="9.661" height="1.38"/>
		<rect id="XMLID_1463_" x="118.667" y="88.199" class="st0" width="9.661" height="1.38"/>
		<rect id="XMLID_1184_" x="122.807" y="90.959" class="st0" width="9.661" height="1.38"/>
		<rect id="XMLID_1189_" x="126.948" y="93.719" class="st0" width="9.661" height="1.38"/>
		<rect id="XMLID_1190_" x="131.088" y="96.48" class="st0" width="9.661" height="1.38"/>
	</g>
	<path class="st0" d="M139.369,38.554h-38.643c-6.908,0.404-12.421,6.766-12.421,13.762v1.38v1.38h63.485v-1.38v-1.38
		C151.79,45.32,146.276,38.958,139.369,38.554z M91.065,52.316v-1.38c0-6.246,3.505-9.348,9.661-9.661h6.491
		c3.539,1.812,5.93,5.295,5.93,9.661v1.38h-11.041h-1.38H91.065z M109.111,41.275h30.257c6.156,0.313,9.661,3.415,9.661,9.661v1.38
		h-9.661h-24.842C114.527,47.962,112.39,43.855,109.111,41.275z"/>
	<path class="st0" d="M151.79,71.638V60.597v-2.76H88.305v2.76v5.52h2.76v-5.52h22.082v11.041v2.76H312v-2.76H151.79z
		 M149.029,67.497h-33.122v-2.76h33.122V67.497z M149.029,60.597v2.76h-33.122v-2.76H149.029z M115.907,71.638v-2.76h33.122v2.76
		H115.907z"/>
	<path class="st0" d="M249.777,99.24V84.059v-1.38h-51.064v1.38V99.24h-11.041V84.059v-1.38h-38.643v1.38V99.24h-20.702v-2.76h-4.14
		v-2.76h-4.14v-2.76h-4.14V88.2h-4.14v-2.76h-4.14v-2.76h-4.14v-2.76h-4.14v-2.76h-4.14V74.4h-4.14v-2.76H68.985V56.459h-1.38h-1.38
		V29.16c0.734,0.661,1.695,1.075,2.76,1.075c2.287,0,4.14-1.854,4.14-4.14s-1.854-4.14-4.14-4.14c-0.449,0-0.874,0.09-1.279,0.222
		c0.785-0.754,1.279-1.808,1.279-2.982c0-2.287-1.854-4.14-4.14-4.14c-2.287,0-4.14,1.854-4.14,4.14
		c0,1.174,0.494,2.229,1.279,2.982c-0.405-0.132-0.83-0.222-1.279-0.222c-2.287,0-4.14,1.854-4.14,4.14s1.854,4.14,4.14,4.14
		c1.065,0,2.026-0.414,2.76-1.075v27.297h-1.38h-1.38v15.181H35.863v2.76h52.444v2.76h4.14v2.76h4.14v2.76h4.14v2.76h4.14v2.76h4.14
		v2.76h4.14v2.76h4.14v2.76h4.14v2.76h4.14V102h154.572v-2.76H249.777z M63.463,71.638h-1.38V57.837h1.38V71.638z M71.743,26.094
		c0,1.524-1.236,2.76-2.76,2.76s-2.76-1.236-2.76-2.76s1.236-2.76,2.76-2.76S71.743,24.57,71.743,26.094z M64.843,16.434
		c1.524,0,2.76,1.236,2.76,2.76s-1.236,2.76-2.76,2.76c-1.524,0-2.76-1.236-2.76-2.76S63.318,16.434,64.843,16.434z M64.843,23.334
		c0.449,0,0.874-0.09,1.279-0.222c-0.073,0.07-0.137,0.147-0.204,0.222H64.843h-1.074c-0.068-0.075-0.131-0.152-0.204-0.222
		C63.969,23.244,64.394,23.334,64.843,23.334z M60.703,28.854c-1.524,0-2.76-1.236-2.76-2.76s1.236-2.76,2.76-2.76
		c1.524,0,2.76,1.236,2.76,2.76S62.227,28.854,60.703,28.854z M67.603,71.638h-1.38V57.837h1.38V71.638z M161.45,99.24h-11.041
		V84.059h11.041V99.24z M173.871,99.24H162.83V84.059h11.041L173.871,99.24L173.871,99.24z M186.292,99.24h-11.041V84.059h11.041
		V99.24z M211.134,99.24h-11.041V84.059h11.041L211.134,99.24L211.134,99.24z M223.555,99.24h-11.041V84.059h11.041V99.24z
		 M235.976,99.24h-11.041V84.059h11.041V99.24z M248.397,99.24h-11.041V84.059h11.041L248.397,99.24L248.397,99.24z"/>
	<polygon class="st0" points="164.21,78.538 164.21,79.918 164.21,81.298 172.491,81.298 172.491,79.918 172.491,78.538 	"/>
	<polygon class="st0" points="213.894,78.538 213.894,79.918 213.894,81.298 234.596,81.298 234.596,79.918 234.596,78.538 	"/>
</g>
<ellipse class="st1" cx="64.844" cy="19.199" rx="2.756" ry="2.781"/>
<ellipse class="st1" cx="60.719" cy="26.137" rx="2.756" ry="2.781"/>
</svg>
