<?xml version="1.0" encoding="utf-8"?>
<!-- Generator: Adobe Illustrator 19.0.0, SVG Export Plug-In . SVG Version: 6.00 Build 0)  -->
<svg version="1.1" id="Layer_1" xmlns="http://www.w3.org/2000/svg" xmlns:xlink="http://www.w3.org/1999/xlink" x="0px" y="0px"
	 viewBox="-297 420.9 308 162" style="enable-background:new -297 420.9 308 162;" xml:space="preserve">
<style type="text/css">
	.st0{fill:#917A7A;stroke:#000000;stroke-width:2;stroke-miterlimit:10;}
	.st1{fill:#0094B1;stroke:#1C1C1C;stroke-width:2;stroke-miterlimit:10;}
	.st2{fill:none;stroke:#000000;stroke-width:2;stroke-miterlimit:10;}
	.st3{fill:none;stroke:#000000;stroke-miterlimit:10;}
</style>
<rect x="-204.5" y="472.8" class="st0" width="123.6" height="10.4"/>
<rect id="XMLID_2512_" x="-219.8" y="488.1" class="st1" width="153.6" height="93.7"/>
<rect id="XMLID_2535_" x="-173.7" y="550.6" class="st0" width="61.5" height="31.2"/>
<line id="XMLID_2594_" class="st2" x1="-239.7" y1="581.9" x2="11" y2="581.9"/>
<g id="XMLID_2218_">
	<line id="XMLID_2226_" class="st3" x1="-204.5" y1="581.9" x2="-204.5" y2="488.1"/>
	<line id="XMLID_2227_" class="st3" x1="-189.1" y1="581.9" x2="-189.1" y2="488.1"/>
	<line id="XMLID_2228_" class="st3" x1="-173.7" y1="581.9" x2="-173.7" y2="488.1"/>
	<line id="XMLID_2229_" class="st3" x1="-158.4" y1="550.6" x2="-158.4" y2="488.1"/>
	<line id="XMLID_2230_" class="st3" x1="-143" y1="550.6" x2="-143" y2="488.1"/>
	<line id="XMLID_2231_" class="st3" x1="-127.7" y1="550.6" x2="-127.7" y2="488.1"/>
	<line id="XMLID_2232_" class="st3" x1="-112.3" y1="581.9" x2="-112.3" y2="488.1"/>
	<line id="XMLID_2235_" class="st3" x1="-96.9" y1="581.9" x2="-96.9" y2="488.1"/>
	<line id="XMLID_2236_" class="st3" x1="-81.6" y1="581.9" x2="-81.6" y2="488.1"/>
	<line id="XMLID_2546_" class="st2" x1="-204.5" y1="483.8" x2="-204.5" y2="472.2"/>
	<line id="XMLID_2544_" class="st2" x1="-173.7" y1="483.8" x2="-173.7" y2="472.2"/>
	<line id="XMLID_2542_" class="st2" x1="-143" y1="483.8" x2="-143" y2="472.2"/>
	<line id="XMLID_2540_" class="st2" x1="-112.3" y1="483.8" x2="-112.3" y2="472.2"/>
	<line id="XMLID_2538_" class="st2" x1="-81.6" y1="483.8" x2="-81.6" y2="472.2"/>
	<line id="XMLID_2528_" class="st3" x1="-173.7" y1="566.2" x2="-219.8" y2="566.2"/>
	<line id="XMLID_2534_" class="st3" x1="-66.2" y1="566.2" x2="-112.3" y2="566.2"/>
	<line id="XMLID_2527_" class="st3" x1="-66.2" y1="550.6" x2="-219.8" y2="550.6"/>
	<line id="XMLID_2516_" class="st3" x1="-66.2" y1="535" x2="-219.8" y2="535"/>
	<line id="XMLID_2238_" class="st3" x1="-66.2" y1="519.4" x2="-219.8" y2="519.4"/>
	<line id="XMLID_2237_" class="st3" x1="-66.2" y1="503.8" x2="-219.8" y2="503.8"/>
</g>
<rect id="XMLID_2225_" x="-204.5" y="550.6" class="st0" width="15.4" height="31.2"/>
<line id="XMLID_2529_" class="st2" x1="-204.5" y1="566.2" x2="-189.1" y2="566.2"/>
<line id="XMLID_2531_" class="st2" x1="-173.7" y1="566.2" x2="-112.3" y2="566.2"/>
<rect id="XMLID_2533_" x="-96.9" y="550.6" class="st0" width="15.4" height="31.2"/>
<line id="XMLID_2532_" class="st2" x1="-96.9" y1="566.2" x2="-81.6" y2="566.2"/>
<line id="XMLID_2530_" class="st2" x1="-224.2" y1="483.8" x2="-61.9" y2="483.8"/>
<line id="XMLID_2539_" class="st2" x1="-224.2" y1="472.2" x2="-61.9" y2="472.2"/>
<line id="XMLID_2537_" class="st2" x1="-227.1" y1="467.9" x2="-59" y2="467.9"/>
</svg>
