<?xml version="1.0" encoding="utf-8"?>
<!-- Generator: Adobe Illustrator 19.2.1, SVG Export Plug-In . SVG Version: 6.00 Build 0)  -->
<svg version="1.1" id="Слой_1" xmlns="http://www.w3.org/2000/svg" xmlns:xlink="http://www.w3.org/1999/xlink" x="0px" y="0px"
	 viewBox="0 0 308 162" style="enable-background:new 0 0 308 162;" xml:space="preserve">
<style type="text/css">
	.st0{fill:none;stroke:#222221;stroke-width:2;stroke-miterlimit:10;}
	.st1{fill:none;stroke:#222221;stroke-miterlimit:10;}
</style>
<g>
	<line class="st0" x1="16" y1="161" x2="308" y2="161"/>
	<rect x="27" y="134" class="st0" width="49" height="21"/>
	<rect x="76" y="134" class="st0" width="67" height="21"/>
	<rect x="27" y="117" class="st0" width="49" height="13"/>
	<rect x="76" y="117" class="st0" width="67" height="13"/>
	<rect x="29.5" y="136.5" class="st1" width="44" height="16"/>
	<rect x="78.5" y="136.5" class="st1" width="62" height="16"/>
	<rect x="29.5" y="119.5" class="st1" width="44" height="8"/>
	<rect x="34.5" y="113.5" class="st1" width="36" height="3"/>
	<line class="st1" x1="33.5" y1="119.5" x2="33.5" y2="127.5"/>
	<line class="st1" x1="37.5" y1="119.5" x2="37.5" y2="127.5"/>
	<line class="st1" x1="41.5" y1="119.5" x2="41.5" y2="127.5"/>
	<line class="st1" x1="45.5" y1="119.5" x2="45.5" y2="127.5"/>
	<line class="st1" x1="49.5" y1="119.5" x2="49.5" y2="127.5"/>
	<line class="st1" x1="53.5" y1="119.5" x2="53.5" y2="127.5"/>
	<line class="st1" x1="57.5" y1="119.5" x2="57.5" y2="127.5"/>
	<line class="st1" x1="61.5" y1="119.5" x2="61.5" y2="127.5"/>
	<line class="st1" x1="65.5" y1="119.5" x2="65.5" y2="127.5"/>
	<line class="st1" x1="69.5" y1="119.5" x2="69.5" y2="127.5"/>
	<rect x="78.5" y="119.5" class="st1" width="62" height="8"/>
	<line class="st1" x1="105.5" y1="120" x2="105.5" y2="127"/>
	<line class="st1" x1="102.5" y1="120" x2="102.5" y2="127"/>
	<line class="st1" x1="98.5" y1="120" x2="98.5" y2="127"/>
	<line class="st1" x1="100.5" y1="120" x2="100.5" y2="127"/>
	<line class="st1" x1="92.5" y1="120" x2="92.5" y2="127"/>
	<line class="st1" x1="94.5" y1="120" x2="94.5" y2="127"/>
	<line class="st1" x1="96.5" y1="120" x2="96.5" y2="127"/>
	<line class="st1" x1="90.5" y1="120" x2="90.5" y2="127"/>
	<line class="st1" x1="88.5" y1="120" x2="88.5" y2="127"/>
	<line class="st1" x1="86.5" y1="120" x2="86.5" y2="127"/>
	<line class="st1" x1="84.5" y1="120" x2="84.5" y2="127"/>
	<line class="st1" x1="82.5" y1="120" x2="82.5" y2="127"/>
	<line class="st1" x1="80.5" y1="120" x2="80.5" y2="127"/>
	<line class="st1" x1="108.5" y1="120" x2="108.5" y2="127"/>
	<line class="st1" x1="111.5" y1="120" x2="111.5" y2="127"/>
	<line class="st1" x1="114.5" y1="120" x2="114.5" y2="127"/>
	<line class="st1" x1="117.5" y1="120" x2="117.5" y2="127"/>
	<line class="st1" x1="120.5" y1="120" x2="120.5" y2="127"/>
	<line class="st1" x1="124.5" y1="120" x2="124.5" y2="127"/>
	<line class="st1" x1="128.5" y1="120" x2="128.5" y2="127"/>
	<line class="st1" x1="132.5" y1="120" x2="132.5" y2="127"/>
	<line class="st1" x1="136.5" y1="120" x2="136.5" y2="127"/>
	<line class="st1" x1="35.5" y1="137" x2="35.5" y2="144"/>
	<line class="st1" x1="37.5" y1="137" x2="37.5" y2="144"/>
	<line class="st1" x1="41.5" y1="137" x2="41.5" y2="144"/>
	<line class="st1" x1="43.5" y1="137" x2="43.5" y2="144"/>
	<line class="st1" x1="47.5" y1="137" x2="47.5" y2="144"/>
	<line class="st1" x1="49.5" y1="137" x2="49.5" y2="144"/>
	<line class="st1" x1="53.5" y1="137" x2="53.5" y2="144"/>
	<line class="st1" x1="55.5" y1="137" x2="55.5" y2="144"/>
	<line class="st1" x1="59.5" y1="137" x2="59.5" y2="144"/>
	<line class="st1" x1="61.5" y1="137" x2="61.5" y2="144"/>
	<line class="st1" x1="65.5" y1="137" x2="65.5" y2="144"/>
	<line class="st1" x1="67.5" y1="137" x2="67.5" y2="144"/>
	<line class="st1" x1="71.5" y1="137" x2="71.5" y2="144"/>
	<line class="st1" x1="31.5" y1="137" x2="31.5" y2="144"/>
	<line class="st1" x1="32.5" y1="145" x2="32.5" y2="152"/>
	<line class="st1" x1="34.5" y1="145" x2="34.5" y2="152"/>
	<line class="st1" x1="38.5" y1="145" x2="38.5" y2="152"/>
	<line class="st1" x1="40.5" y1="145" x2="40.5" y2="152"/>
	<line class="st1" x1="44.5" y1="145" x2="44.5" y2="152"/>
	<line class="st1" x1="46.5" y1="145" x2="46.5" y2="152"/>
	<line class="st1" x1="50.5" y1="145" x2="50.5" y2="152"/>
	<line class="st1" x1="52.5" y1="145" x2="52.5" y2="152"/>
	<line class="st1" x1="56.5" y1="145" x2="56.5" y2="152"/>
	<line class="st1" x1="58.5" y1="145" x2="58.5" y2="152"/>
	<line class="st1" x1="62.5" y1="145" x2="62.5" y2="152"/>
	<line class="st1" x1="64.5" y1="145" x2="64.5" y2="152"/>
	<line class="st1" x1="68.5" y1="145" x2="68.5" y2="152"/>
	<line class="st1" x1="70.5" y1="145" x2="70.5" y2="152"/>
	<line class="st1" x1="135.5" y1="145" x2="135.5" y2="152"/>
	<line class="st1" x1="137.5" y1="145" x2="137.5" y2="152"/>
	<line class="st1" x1="132.5" y1="137" x2="132.5" y2="144"/>
	<line class="st1" x1="134.5" y1="137" x2="134.5" y2="144"/>
	<line class="st1" x1="126.5" y1="137" x2="126.5" y2="144"/>
	<line class="st1" x1="128.5" y1="137" x2="128.5" y2="144"/>
	<line class="st1" x1="120.5" y1="137" x2="120.5" y2="144"/>
	<line class="st1" x1="122.5" y1="137" x2="122.5" y2="144"/>
	<line class="st1" x1="114.5" y1="137" x2="114.5" y2="144"/>
	<line class="st1" x1="116.5" y1="137" x2="116.5" y2="144"/>
	<line class="st1" x1="109.5" y1="137" x2="109.5" y2="144"/>
	<line class="st1" x1="111.5" y1="137" x2="111.5" y2="144"/>
	<line class="st1" x1="104.5" y1="137" x2="104.5" y2="144"/>
	<line class="st1" x1="100.5" y1="137" x2="100.5" y2="144"/>
	<line class="st1" x1="102.5" y1="137" x2="102.5" y2="144"/>
	<line class="st1" x1="98.5" y1="137" x2="98.5" y2="144"/>
	<line class="st1" x1="96.5" y1="137" x2="96.5" y2="144"/>
	<line class="st1" x1="94.5" y1="137" x2="94.5" y2="144"/>
	<line class="st1" x1="92.5" y1="137" x2="92.5" y2="144"/>
	<line class="st1" x1="90.5" y1="137" x2="90.5" y2="144"/>
	<line class="st1" x1="88.5" y1="137" x2="88.5" y2="144"/>
	<line class="st1" x1="86.5" y1="137" x2="86.5" y2="144"/>
	<line class="st1" x1="84.5" y1="137" x2="84.5" y2="144"/>
	<line class="st1" x1="82.5" y1="137" x2="82.5" y2="144"/>
	<line class="st1" x1="80.5" y1="137" x2="80.5" y2="144"/>
	<line class="st1" x1="106.5" y1="137" x2="106.5" y2="144"/>
	<line class="st1" x1="129.5" y1="145" x2="129.5" y2="152"/>
	<line class="st1" x1="131.5" y1="145" x2="131.5" y2="152"/>
	<line class="st1" x1="123.5" y1="145" x2="123.5" y2="152"/>
	<line class="st1" x1="125.5" y1="145" x2="125.5" y2="152"/>
	<line class="st1" x1="117.5" y1="145" x2="117.5" y2="152"/>
	<line class="st1" x1="119.5" y1="145" x2="119.5" y2="152"/>
	<line class="st1" x1="112.5" y1="145" x2="112.5" y2="152"/>
	<line class="st1" x1="114.5" y1="145" x2="114.5" y2="152"/>
	<line class="st1" x1="107.5" y1="145" x2="107.5" y2="152"/>
	<line class="st1" x1="109.5" y1="145" x2="109.5" y2="152"/>
	<line class="st1" x1="102.5" y1="145" x2="102.5" y2="152"/>
	<line class="st1" x1="100.5" y1="145" x2="100.5" y2="152"/>
	<line class="st1" x1="98.5" y1="145" x2="98.5" y2="152"/>
	<line class="st1" x1="96.5" y1="145" x2="96.5" y2="152"/>
	<line class="st1" x1="94.5" y1="145" x2="94.5" y2="152"/>
	<line class="st1" x1="92.5" y1="145" x2="92.5" y2="152"/>
	<line class="st1" x1="90.5" y1="145" x2="90.5" y2="152"/>
	<line class="st1" x1="88.5" y1="145" x2="88.5" y2="152"/>
	<line class="st1" x1="86.5" y1="145" x2="86.5" y2="152"/>
	<line class="st1" x1="84.5" y1="145" x2="84.5" y2="152"/>
	<line class="st1" x1="82.5" y1="145" x2="82.5" y2="152"/>
	<line class="st1" x1="80.5" y1="145" x2="80.5" y2="152"/>
	<line class="st1" x1="104.5" y1="145" x2="104.5" y2="152"/>
	<line class="st1" x1="36.5" y1="114" x2="36.5" y2="116"/>
	<line class="st1" x1="38.5" y1="114" x2="38.5" y2="116"/>
	<line class="st1" x1="40.5" y1="114" x2="40.5" y2="116"/>
	<line class="st1" x1="42.5" y1="114" x2="42.5" y2="116"/>
	<line class="st1" x1="44.5" y1="114" x2="44.5" y2="116"/>
	<line class="st1" x1="46.5" y1="114" x2="46.5" y2="116"/>
	<line class="st1" x1="48.5" y1="114" x2="48.5" y2="116"/>
	<line class="st1" x1="50.5" y1="114" x2="50.5" y2="116"/>
	<line class="st1" x1="52.5" y1="114" x2="52.5" y2="116"/>
	<line class="st1" x1="54.5" y1="114" x2="54.5" y2="116"/>
	<line class="st1" x1="56.5" y1="114" x2="56.5" y2="116"/>
	<line class="st1" x1="58.5" y1="114" x2="58.5" y2="116"/>
	<line class="st1" x1="60.5" y1="114" x2="60.5" y2="116"/>
	<line class="st1" x1="62.5" y1="114" x2="62.5" y2="116"/>
	<line class="st1" x1="64.5" y1="114" x2="64.5" y2="116"/>
	<line class="st1" x1="66.5" y1="114" x2="66.5" y2="116"/>
	<line class="st1" x1="68.5" y1="114" x2="68.5" y2="116"/>
	<line class="st1" x1="75.5" y1="114" x2="75.5" y2="116"/>
	<line class="st1" x1="77.5" y1="114" x2="77.5" y2="116"/>
	<line class="st1" x1="79.5" y1="114" x2="79.5" y2="116"/>
	<line class="st1" x1="81.5" y1="114" x2="81.5" y2="116"/>
	<line class="st1" x1="83.5" y1="114" x2="83.5" y2="116"/>
	<line class="st1" x1="85.5" y1="114" x2="85.5" y2="116"/>
	<line class="st1" x1="87.5" y1="114" x2="87.5" y2="116"/>
	<line class="st1" x1="89.5" y1="114" x2="89.5" y2="116"/>
	<line class="st1" x1="91.5" y1="114" x2="91.5" y2="116"/>
	<line class="st1" x1="93.5" y1="114" x2="93.5" y2="116"/>
	<line class="st1" x1="95.5" y1="114" x2="95.5" y2="116"/>
	<line class="st1" x1="97.5" y1="114" x2="97.5" y2="116"/>
	<line class="st1" x1="99.5" y1="114" x2="99.5" y2="116"/>
	<line class="st1" x1="101.5" y1="114" x2="101.5" y2="116"/>
	<line class="st1" x1="103.5" y1="114" x2="103.5" y2="116"/>
	<line class="st1" x1="105.5" y1="114" x2="105.5" y2="116"/>
	<line class="st1" x1="107.5" y1="114" x2="107.5" y2="116"/>
	<line class="st1" x1="109.5" y1="114" x2="109.5" y2="116"/>
	<line class="st1" x1="111.5" y1="114" x2="111.5" y2="116"/>
	<line class="st1" x1="113.5" y1="114" x2="113.5" y2="116"/>
	<line class="st1" x1="115.5" y1="114" x2="115.5" y2="116"/>
	<line class="st1" x1="29.5" y1="131" x2="29.5" y2="133"/>
	<line class="st1" x1="31.5" y1="131" x2="31.5" y2="133"/>
	<line class="st1" x1="72.5" y1="131" x2="72.5" y2="133"/>
	<line class="st1" x1="74.5" y1="131" x2="74.5" y2="133"/>
	<line class="st1" x1="140.5" y1="131" x2="140.5" y2="133"/>
	<line class="st1" x1="138.5" y1="131" x2="138.5" y2="133"/>
	<line class="st1" x1="180.5" y1="131" x2="180.5" y2="133"/>
	<line class="st1" x1="182.5" y1="131" x2="182.5" y2="133"/>
	<line class="st1" x1="246.5" y1="131" x2="246.5" y2="133"/>
	<line class="st1" x1="248.5" y1="131" x2="248.5" y2="133"/>
	<line class="st1" x1="291.5" y1="131" x2="291.5" y2="133"/>
	<line class="st1" x1="289.5" y1="131" x2="289.5" y2="133"/>
	<line class="st1" x1="117.5" y1="114" x2="117.5" y2="116"/>
	<line class="st1" x1="119.5" y1="114" x2="119.5" y2="116"/>
	<line class="st1" x1="121.5" y1="114" x2="121.5" y2="116"/>
	<line class="st1" x1="123.5" y1="114" x2="123.5" y2="116"/>
	<rect x="73.5" y="113.5" class="st1" width="52" height="3"/>
	<line class="st0" x1="29" y1="156" x2="29" y2="160"/>
	<line class="st0" x1="74" y1="156" x2="74" y2="160"/>
	<line class="st0" x1="141" y1="156" x2="141" y2="160"/>
	<line class="st1" x1="29.5" y1="158.5" x2="140.5" y2="158.5"/>
	<line class="st1" x1="31.5" y1="156" x2="31.5" y2="158"/>
	<line class="st1" x1="33.5" y1="156" x2="33.5" y2="158"/>
	<line class="st1" x1="35.5" y1="156" x2="35.5" y2="158"/>
	<line class="st1" x1="37.5" y1="156" x2="37.5" y2="158"/>
	<line class="st1" x1="39.5" y1="156" x2="39.5" y2="158"/>
	<line class="st1" x1="41.5" y1="156" x2="41.5" y2="158"/>
	<line class="st1" x1="43.5" y1="156" x2="43.5" y2="158"/>
	<line class="st1" x1="45.5" y1="156" x2="45.5" y2="158"/>
	<line class="st1" x1="47.5" y1="156" x2="47.5" y2="158"/>
	<line class="st1" x1="49.5" y1="156" x2="49.5" y2="158"/>
	<line class="st1" x1="51.5" y1="156" x2="51.5" y2="158"/>
	<line class="st1" x1="53.5" y1="156" x2="53.5" y2="158"/>
	<line class="st1" x1="55.5" y1="156" x2="55.5" y2="158"/>
	<line class="st1" x1="57.5" y1="156" x2="57.5" y2="158"/>
	<line class="st1" x1="59.5" y1="156" x2="59.5" y2="158"/>
	<line class="st1" x1="61.5" y1="156" x2="61.5" y2="158"/>
	<line class="st1" x1="63.5" y1="156" x2="63.5" y2="158"/>
	<line class="st1" x1="65.5" y1="156" x2="65.5" y2="158"/>
	<line class="st1" x1="67.5" y1="156" x2="67.5" y2="158"/>
	<line class="st1" x1="69.5" y1="156" x2="69.5" y2="158"/>
	<line class="st1" x1="71.5" y1="156" x2="71.5" y2="158"/>
	<line class="st1" x1="76.5" y1="156" x2="76.5" y2="158"/>
	<line class="st1" x1="78.5" y1="156" x2="78.5" y2="158"/>
	<line class="st1" x1="80.5" y1="156" x2="80.5" y2="158"/>
	<line class="st1" x1="82.5" y1="156" x2="82.5" y2="158"/>
	<line class="st1" x1="84.5" y1="156" x2="84.5" y2="158"/>
	<line class="st1" x1="86.5" y1="156" x2="86.5" y2="158"/>
	<line class="st1" x1="88.5" y1="156" x2="88.5" y2="158"/>
	<line class="st1" x1="90.5" y1="156" x2="90.5" y2="158"/>
	<line class="st1" x1="92.5" y1="156" x2="92.5" y2="158"/>
	<line class="st1" x1="94.5" y1="156" x2="94.5" y2="158"/>
	<line class="st1" x1="96.5" y1="156" x2="96.5" y2="158"/>
	<line class="st1" x1="98.5" y1="156" x2="98.5" y2="158"/>
	<line class="st1" x1="100.5" y1="156" x2="100.5" y2="158"/>
	<line class="st1" x1="102.5" y1="156" x2="102.5" y2="158"/>
	<line class="st1" x1="104.5" y1="156" x2="104.5" y2="158"/>
	<line class="st1" x1="106.5" y1="156" x2="106.5" y2="158"/>
	<line class="st1" x1="108.5" y1="156" x2="108.5" y2="158"/>
	<line class="st1" x1="110.5" y1="156" x2="110.5" y2="158"/>
	<line class="st1" x1="112.5" y1="156" x2="112.5" y2="158"/>
	<line class="st1" x1="114.5" y1="156" x2="114.5" y2="158"/>
	<line class="st1" x1="116.5" y1="156" x2="116.5" y2="158"/>
	<line class="st1" x1="118.5" y1="156" x2="118.5" y2="158"/>
	<line class="st1" x1="120.5" y1="156" x2="120.5" y2="158"/>
	<line class="st1" x1="122.5" y1="156" x2="122.5" y2="158"/>
	<line class="st1" x1="124.5" y1="156" x2="124.5" y2="158"/>
	<line class="st1" x1="126.5" y1="156" x2="126.5" y2="158"/>
	<line class="st1" x1="128.5" y1="156" x2="128.5" y2="158"/>
	<line class="st1" x1="130.5" y1="156" x2="130.5" y2="158"/>
	<line class="st1" x1="132.5" y1="156" x2="132.5" y2="158"/>
	<line class="st1" x1="134.5" y1="156" x2="134.5" y2="158"/>
	<line class="st1" x1="136.5" y1="156" x2="136.5" y2="158"/>
	<line class="st1" x1="138.5" y1="156" x2="138.5" y2="158"/>
	<rect x="245" y="134" class="st0" width="49" height="21"/>
	<rect x="178" y="134" class="st0" width="67" height="21"/>
	<rect x="245" y="117" class="st0" width="49" height="13"/>
	<rect x="178" y="117" class="st0" width="67" height="13"/>
	<rect x="247.5" y="136.5" class="st1" width="44" height="16"/>
	<rect x="180.5" y="136.5" class="st1" width="62" height="16"/>
	<rect x="247.5" y="119.5" class="st1" width="44" height="8"/>
	<rect x="250.5" y="113.5" class="st1" width="36" height="3"/>
	<line class="st1" x1="287.5" y1="119.5" x2="287.5" y2="127.5"/>
	<line class="st1" x1="283.5" y1="119.5" x2="283.5" y2="127.5"/>
	<line class="st1" x1="279.5" y1="119.5" x2="279.5" y2="127.5"/>
	<line class="st1" x1="275.5" y1="119.5" x2="275.5" y2="127.5"/>
	<line class="st1" x1="271.5" y1="119.5" x2="271.5" y2="127.5"/>
	<line class="st1" x1="267.5" y1="119.5" x2="267.5" y2="127.5"/>
	<line class="st1" x1="263.5" y1="119.5" x2="263.5" y2="127.5"/>
	<line class="st1" x1="259.5" y1="119.5" x2="259.5" y2="127.5"/>
	<line class="st1" x1="255.5" y1="119.5" x2="255.5" y2="127.5"/>
	<line class="st1" x1="251.5" y1="119.5" x2="251.5" y2="127.5"/>
	<rect x="180.5" y="119.5" class="st1" width="62" height="8"/>
	<line class="st1" x1="215.5" y1="120" x2="215.5" y2="127"/>
	<line class="st1" x1="218.5" y1="120" x2="218.5" y2="127"/>
	<line class="st1" x1="222.5" y1="120" x2="222.5" y2="127"/>
	<line class="st1" x1="220.5" y1="120" x2="220.5" y2="127"/>
	<line class="st1" x1="228.5" y1="120" x2="228.5" y2="127"/>
	<line class="st1" x1="226.5" y1="120" x2="226.5" y2="127"/>
	<line class="st1" x1="224.5" y1="120" x2="224.5" y2="127"/>
	<line class="st1" x1="230.5" y1="120" x2="230.5" y2="127"/>
	<line class="st1" x1="232.5" y1="120" x2="232.5" y2="127"/>
	<line class="st1" x1="234.5" y1="120" x2="234.5" y2="127"/>
	<line class="st1" x1="236.5" y1="120" x2="236.5" y2="127"/>
	<line class="st1" x1="238.5" y1="120" x2="238.5" y2="127"/>
	<line class="st1" x1="240.5" y1="120" x2="240.5" y2="127"/>
	<line class="st1" x1="212.5" y1="120" x2="212.5" y2="127"/>
	<line class="st1" x1="209.5" y1="120" x2="209.5" y2="127"/>
	<line class="st1" x1="206.5" y1="120" x2="206.5" y2="127"/>
	<line class="st1" x1="203.5" y1="120" x2="203.5" y2="127"/>
	<line class="st1" x1="200.5" y1="120" x2="200.5" y2="127"/>
	<line class="st1" x1="196.5" y1="120" x2="196.5" y2="127"/>
	<line class="st1" x1="192.5" y1="120" x2="192.5" y2="127"/>
	<line class="st1" x1="188.5" y1="120" x2="188.5" y2="127"/>
	<line class="st1" x1="184.5" y1="120" x2="184.5" y2="127"/>
	<line class="st1" x1="285.5" y1="137" x2="285.5" y2="144"/>
	<line class="st1" x1="283.5" y1="137" x2="283.5" y2="144"/>
	<line class="st1" x1="279.5" y1="137" x2="279.5" y2="144"/>
	<line class="st1" x1="277.5" y1="137" x2="277.5" y2="144"/>
	<line class="st1" x1="273.5" y1="137" x2="273.5" y2="144"/>
	<line class="st1" x1="271.5" y1="137" x2="271.5" y2="144"/>
	<line class="st1" x1="267.5" y1="137" x2="267.5" y2="144"/>
	<line class="st1" x1="265.5" y1="137" x2="265.5" y2="144"/>
	<line class="st1" x1="261.5" y1="137" x2="261.5" y2="144"/>
	<line class="st1" x1="259.5" y1="137" x2="259.5" y2="144"/>
	<line class="st1" x1="255.5" y1="137" x2="255.5" y2="144"/>
	<line class="st1" x1="253.5" y1="137" x2="253.5" y2="144"/>
	<line class="st1" x1="249.5" y1="137" x2="249.5" y2="144"/>
	<line class="st1" x1="289.5" y1="137" x2="289.5" y2="144"/>
	<line class="st1" x1="288.5" y1="145" x2="288.5" y2="152"/>
	<line class="st1" x1="286.5" y1="145" x2="286.5" y2="152"/>
	<line class="st1" x1="282.5" y1="145" x2="282.5" y2="152"/>
	<line class="st1" x1="280.5" y1="145" x2="280.5" y2="152"/>
	<line class="st1" x1="276.5" y1="145" x2="276.5" y2="152"/>
	<line class="st1" x1="274.5" y1="145" x2="274.5" y2="152"/>
	<line class="st1" x1="270.5" y1="145" x2="270.5" y2="152"/>
	<line class="st1" x1="268.5" y1="145" x2="268.5" y2="152"/>
	<line class="st1" x1="264.5" y1="145" x2="264.5" y2="152"/>
	<line class="st1" x1="262.5" y1="145" x2="262.5" y2="152"/>
	<line class="st1" x1="258.5" y1="145" x2="258.5" y2="152"/>
	<line class="st1" x1="256.5" y1="145" x2="256.5" y2="152"/>
	<line class="st1" x1="252.5" y1="145" x2="252.5" y2="152"/>
	<line class="st1" x1="250.5" y1="145" x2="250.5" y2="152"/>
	<line class="st1" x1="185.5" y1="145" x2="185.5" y2="152"/>
	<line class="st1" x1="183.5" y1="145" x2="183.5" y2="152"/>
	<line class="st1" x1="188.5" y1="137" x2="188.5" y2="144"/>
	<line class="st1" x1="186.5" y1="137" x2="186.5" y2="144"/>
	<line class="st1" x1="194.5" y1="137" x2="194.5" y2="144"/>
	<line class="st1" x1="192.5" y1="137" x2="192.5" y2="144"/>
	<line class="st1" x1="200.5" y1="137" x2="200.5" y2="144"/>
	<line class="st1" x1="198.5" y1="137" x2="198.5" y2="144"/>
	<line class="st1" x1="206.5" y1="137" x2="206.5" y2="144"/>
	<line class="st1" x1="204.5" y1="137" x2="204.5" y2="144"/>
	<line class="st1" x1="211.5" y1="137" x2="211.5" y2="144"/>
	<line class="st1" x1="209.5" y1="137" x2="209.5" y2="144"/>
	<line class="st1" x1="216.5" y1="137" x2="216.5" y2="144"/>
	<line class="st1" x1="220.5" y1="137" x2="220.5" y2="144"/>
	<line class="st1" x1="218.5" y1="137" x2="218.5" y2="144"/>
	<line class="st1" x1="222.5" y1="137" x2="222.5" y2="144"/>
	<line class="st1" x1="224.5" y1="137" x2="224.5" y2="144"/>
	<line class="st1" x1="226.5" y1="137" x2="226.5" y2="144"/>
	<line class="st1" x1="228.5" y1="137" x2="228.5" y2="144"/>
	<line class="st1" x1="230.5" y1="137" x2="230.5" y2="144"/>
	<line class="st1" x1="232.5" y1="137" x2="232.5" y2="144"/>
	<line class="st1" x1="234.5" y1="137" x2="234.5" y2="144"/>
	<line class="st1" x1="236.5" y1="137" x2="236.5" y2="144"/>
	<line class="st1" x1="238.5" y1="137" x2="238.5" y2="144"/>
	<line class="st1" x1="240.5" y1="137" x2="240.5" y2="144"/>
	<line class="st1" x1="214.5" y1="137" x2="214.5" y2="144"/>
	<line class="st1" x1="191.5" y1="145" x2="191.5" y2="152"/>
	<line class="st1" x1="189.5" y1="145" x2="189.5" y2="152"/>
	<line class="st1" x1="197.5" y1="145" x2="197.5" y2="152"/>
	<line class="st1" x1="195.5" y1="145" x2="195.5" y2="152"/>
	<line class="st1" x1="203.5" y1="145" x2="203.5" y2="152"/>
	<line class="st1" x1="201.5" y1="145" x2="201.5" y2="152"/>
	<line class="st1" x1="208.5" y1="145" x2="208.5" y2="152"/>
	<line class="st1" x1="206.5" y1="145" x2="206.5" y2="152"/>
	<line class="st1" x1="213.5" y1="145" x2="213.5" y2="152"/>
	<line class="st1" x1="211.5" y1="145" x2="211.5" y2="152"/>
	<line class="st1" x1="218.5" y1="145" x2="218.5" y2="152"/>
	<line class="st1" x1="220.5" y1="145" x2="220.5" y2="152"/>
	<line class="st1" x1="222.5" y1="145" x2="222.5" y2="152"/>
	<line class="st1" x1="224.5" y1="145" x2="224.5" y2="152"/>
	<line class="st1" x1="226.5" y1="145" x2="226.5" y2="152"/>
	<line class="st1" x1="228.5" y1="145" x2="228.5" y2="152"/>
	<line class="st1" x1="230.5" y1="145" x2="230.5" y2="152"/>
	<line class="st1" x1="232.5" y1="145" x2="232.5" y2="152"/>
	<line class="st1" x1="234.5" y1="145" x2="234.5" y2="152"/>
	<line class="st1" x1="236.5" y1="145" x2="236.5" y2="152"/>
	<line class="st1" x1="238.5" y1="145" x2="238.5" y2="152"/>
	<line class="st1" x1="240.5" y1="145" x2="240.5" y2="152"/>
	<line class="st1" x1="216.5" y1="145" x2="216.5" y2="152"/>
	<line class="st1" x1="284.5" y1="114" x2="284.5" y2="116"/>
	<line class="st1" x1="282.5" y1="114" x2="282.5" y2="116"/>
	<line class="st1" x1="280.5" y1="114" x2="280.5" y2="116"/>
	<line class="st1" x1="278.5" y1="114" x2="278.5" y2="116"/>
	<line class="st1" x1="276.5" y1="114" x2="276.5" y2="116"/>
	<line class="st1" x1="274.5" y1="114" x2="274.5" y2="116"/>
	<line class="st1" x1="272.5" y1="114" x2="272.5" y2="116"/>
	<line class="st1" x1="270.5" y1="114" x2="270.5" y2="116"/>
	<line class="st1" x1="268.5" y1="114" x2="268.5" y2="116"/>
	<line class="st1" x1="266.5" y1="114" x2="266.5" y2="116"/>
	<line class="st1" x1="264.5" y1="114" x2="264.5" y2="116"/>
	<line class="st1" x1="262.5" y1="114" x2="262.5" y2="116"/>
	<line class="st1" x1="260.5" y1="114" x2="260.5" y2="116"/>
	<line class="st1" x1="258.5" y1="114" x2="258.5" y2="116"/>
	<line class="st1" x1="256.5" y1="114" x2="256.5" y2="116"/>
	<line class="st1" x1="254.5" y1="114" x2="254.5" y2="116"/>
	<line class="st1" x1="252.5" y1="114" x2="252.5" y2="116"/>
	<line class="st1" x1="245.5" y1="114" x2="245.5" y2="116"/>
	<line class="st1" x1="243.5" y1="114" x2="243.5" y2="116"/>
	<line class="st1" x1="241.5" y1="114" x2="241.5" y2="116"/>
	<line class="st1" x1="239.5" y1="114" x2="239.5" y2="116"/>
	<line class="st1" x1="237.5" y1="114" x2="237.5" y2="116"/>
	<line class="st1" x1="235.5" y1="114" x2="235.5" y2="116"/>
	<line class="st1" x1="233.5" y1="114" x2="233.5" y2="116"/>
	<line class="st1" x1="231.5" y1="114" x2="231.5" y2="116"/>
	<line class="st1" x1="229.5" y1="114" x2="229.5" y2="116"/>
	<line class="st1" x1="227.5" y1="114" x2="227.5" y2="116"/>
	<line class="st1" x1="225.5" y1="114" x2="225.5" y2="116"/>
	<line class="st1" x1="223.5" y1="114" x2="223.5" y2="116"/>
	<line class="st1" x1="221.5" y1="114" x2="221.5" y2="116"/>
	<line class="st1" x1="219.5" y1="114" x2="219.5" y2="116"/>
	<line class="st1" x1="217.5" y1="114" x2="217.5" y2="116"/>
	<line class="st1" x1="215.5" y1="114" x2="215.5" y2="116"/>
	<line class="st1" x1="213.5" y1="114" x2="213.5" y2="116"/>
	<line class="st1" x1="211.5" y1="114" x2="211.5" y2="116"/>
	<line class="st1" x1="209.5" y1="114" x2="209.5" y2="116"/>
	<line class="st1" x1="207.5" y1="114" x2="207.5" y2="116"/>
	<line class="st1" x1="205.5" y1="114" x2="205.5" y2="116"/>
	<line class="st1" x1="203.5" y1="114" x2="203.5" y2="116"/>
	<line class="st1" x1="201.5" y1="114" x2="201.5" y2="116"/>
	<line class="st1" x1="199.5" y1="114" x2="199.5" y2="116"/>
	<line class="st1" x1="197.5" y1="114" x2="197.5" y2="116"/>
	<rect x="195.5" y="113.5" class="st1" width="52" height="3"/>
	<line class="st0" x1="292" y1="156" x2="292" y2="160"/>
	<line class="st0" x1="247" y1="156" x2="247" y2="160"/>
	<line class="st0" x1="180" y1="156" x2="180" y2="160"/>
	<line class="st1" x1="291.5" y1="158.5" x2="180.5" y2="158.5"/>
	<line class="st1" x1="289.5" y1="156" x2="289.5" y2="158"/>
	<line class="st1" x1="287.5" y1="156" x2="287.5" y2="158"/>
	<line class="st1" x1="285.5" y1="156" x2="285.5" y2="158"/>
	<line class="st1" x1="283.5" y1="156" x2="283.5" y2="158"/>
	<line class="st1" x1="281.5" y1="156" x2="281.5" y2="158"/>
	<line class="st1" x1="279.5" y1="156" x2="279.5" y2="158"/>
	<line class="st1" x1="277.5" y1="156" x2="277.5" y2="158"/>
	<line class="st1" x1="275.5" y1="156" x2="275.5" y2="158"/>
	<line class="st1" x1="273.5" y1="156" x2="273.5" y2="158"/>
	<line class="st1" x1="271.5" y1="156" x2="271.5" y2="158"/>
	<line class="st1" x1="269.5" y1="156" x2="269.5" y2="158"/>
	<line class="st1" x1="267.5" y1="156" x2="267.5" y2="158"/>
	<line class="st1" x1="265.5" y1="156" x2="265.5" y2="158"/>
	<line class="st1" x1="263.5" y1="156" x2="263.5" y2="158"/>
	<line class="st1" x1="261.5" y1="156" x2="261.5" y2="158"/>
	<line class="st1" x1="259.5" y1="156" x2="259.5" y2="158"/>
	<line class="st1" x1="257.5" y1="156" x2="257.5" y2="158"/>
	<line class="st1" x1="255.5" y1="156" x2="255.5" y2="158"/>
	<line class="st1" x1="253.5" y1="156" x2="253.5" y2="158"/>
	<line class="st1" x1="251.5" y1="156" x2="251.5" y2="158"/>
	<line class="st1" x1="249.5" y1="156" x2="249.5" y2="158"/>
	<line class="st1" x1="244.5" y1="156" x2="244.5" y2="158"/>
	<line class="st1" x1="242.5" y1="156" x2="242.5" y2="158"/>
	<line class="st1" x1="240.5" y1="156" x2="240.5" y2="158"/>
	<line class="st1" x1="238.5" y1="156" x2="238.5" y2="158"/>
	<line class="st1" x1="236.5" y1="156" x2="236.5" y2="158"/>
	<line class="st1" x1="234.5" y1="156" x2="234.5" y2="158"/>
	<line class="st1" x1="232.5" y1="156" x2="232.5" y2="158"/>
	<line class="st1" x1="230.5" y1="156" x2="230.5" y2="158"/>
	<line class="st1" x1="228.5" y1="156" x2="228.5" y2="158"/>
	<line class="st1" x1="226.5" y1="156" x2="226.5" y2="158"/>
	<line class="st1" x1="224.5" y1="156" x2="224.5" y2="158"/>
	<line class="st1" x1="222.5" y1="156" x2="222.5" y2="158"/>
	<line class="st1" x1="220.5" y1="156" x2="220.5" y2="158"/>
	<line class="st1" x1="218.5" y1="156" x2="218.5" y2="158"/>
	<line class="st1" x1="216.5" y1="156" x2="216.5" y2="158"/>
	<line class="st1" x1="214.5" y1="156" x2="214.5" y2="158"/>
	<line class="st1" x1="212.5" y1="156" x2="212.5" y2="158"/>
	<line class="st1" x1="210.5" y1="156" x2="210.5" y2="158"/>
	<line class="st1" x1="208.5" y1="156" x2="208.5" y2="158"/>
	<line class="st1" x1="206.5" y1="156" x2="206.5" y2="158"/>
	<line class="st1" x1="204.5" y1="156" x2="204.5" y2="158"/>
	<line class="st1" x1="202.5" y1="156" x2="202.5" y2="158"/>
	<line class="st1" x1="200.5" y1="156" x2="200.5" y2="158"/>
	<line class="st1" x1="198.5" y1="156" x2="198.5" y2="158"/>
	<line class="st1" x1="196.5" y1="156" x2="196.5" y2="158"/>
	<line class="st1" x1="194.5" y1="156" x2="194.5" y2="158"/>
	<line class="st1" x1="192.5" y1="156" x2="192.5" y2="158"/>
	<line class="st1" x1="190.5" y1="156" x2="190.5" y2="158"/>
	<line class="st1" x1="188.5" y1="156" x2="188.5" y2="158"/>
	<line class="st1" x1="186.5" y1="156" x2="186.5" y2="158"/>
	<line class="st1" x1="184.5" y1="156" x2="184.5" y2="158"/>
	<line class="st1" x1="182.5" y1="156" x2="182.5" y2="158"/>
	<rect x="152.5" y="158.5" class="st1" width="16" height="2"/>
	<circle class="st1" cx="160.5" cy="153.5" r="4"/>
	<line class="st0" x1="160" y1="158" x2="161" y2="147"/>
</g>
</svg>
