<?xml version="1.0" encoding="utf-8"?>
<!-- Generator: Adobe Illustrator 19.2.1, SVG Export Plug-In . SVG Version: 6.00 Build 0)  -->
<svg version="1.1" id="Слой_1" xmlns="http://www.w3.org/2000/svg" xmlns:xlink="http://www.w3.org/1999/xlink" x="0px" y="0px"
	 viewBox="0 0 308 162" style="enable-background:new 0 0 308 162;" xml:space="preserve">
<style type="text/css">
	.st0{fill:none;stroke:#222221;stroke-width:2;stroke-miterlimit:10;}
	.st1{fill:none;stroke:#222221;stroke-miterlimit:10;}
</style>
<g>
	<line class="st0" x1="16" y1="161" x2="308" y2="161"/>
	<rect x="31" y="114" class="st0" width="40" height="47"/>
	<rect x="35" y="110" class="st0" width="32" height="4"/>
	<polyline class="st0" points="96,155.5 96,131 99,131 99,92 92,92 92,66 58,66 58,92.5 	"/>
	<line class="st1" x1="73.5" y1="157" x2="73.5" y2="160"/>
	<line class="st1" x1="75.5" y1="157" x2="75.5" y2="160"/>
	<line class="st1" x1="77.5" y1="157" x2="77.5" y2="160"/>
	<line class="st1" x1="79.5" y1="157" x2="79.5" y2="160"/>
	<line class="st1" x1="81.5" y1="157" x2="81.5" y2="160"/>
	<line class="st1" x1="83.5" y1="157" x2="83.5" y2="160"/>
	<line class="st1" x1="85.5" y1="157" x2="85.5" y2="160"/>
	<line class="st1" x1="87.5" y1="157" x2="87.5" y2="160"/>
	<line class="st1" x1="89.5" y1="157" x2="89.5" y2="160"/>
	<line class="st1" x1="91.5" y1="157" x2="91.5" y2="160"/>
	<line class="st1" x1="93.5" y1="157" x2="93.5" y2="160"/>
	<line class="st1" x1="95.5" y1="157" x2="95.5" y2="160"/>
	<line class="st1" x1="61.5" y1="75" x2="61.5" y2="70"/>
	<line class="st1" x1="63.5" y1="75" x2="63.5" y2="70"/>
	<line class="st1" x1="66.5" y1="75" x2="66.5" y2="70"/>
	<line class="st1" x1="68.5" y1="75" x2="68.5" y2="70"/>
	<line class="st1" x1="71.5" y1="75" x2="71.5" y2="70"/>
	<line class="st1" x1="73.5" y1="75" x2="73.5" y2="70"/>
	<line class="st1" x1="76.5" y1="75" x2="76.5" y2="70"/>
	<line class="st1" x1="78.5" y1="75" x2="78.5" y2="70"/>
	<line class="st1" x1="81.5" y1="75" x2="81.5" y2="70"/>
	<line class="st1" x1="83.5" y1="75" x2="83.5" y2="70"/>
	<line class="st1" x1="86.5" y1="75" x2="86.5" y2="70"/>
	<line class="st1" x1="88.5" y1="75" x2="88.5" y2="70"/>
	<line class="st1" x1="61.5" y1="81" x2="61.5" y2="76"/>
	<line class="st1" x1="63.5" y1="81" x2="63.5" y2="76"/>
	<line class="st1" x1="66.5" y1="81" x2="66.5" y2="76"/>
	<line class="st1" x1="68.5" y1="81" x2="68.5" y2="76"/>
	<line class="st1" x1="71.5" y1="81" x2="71.5" y2="76"/>
	<line class="st1" x1="73.5" y1="81" x2="73.5" y2="76"/>
	<line class="st1" x1="76.5" y1="81" x2="76.5" y2="76"/>
	<line class="st1" x1="78.5" y1="81" x2="78.5" y2="76"/>
	<line class="st1" x1="81.5" y1="81" x2="81.5" y2="76"/>
	<line class="st1" x1="83.5" y1="81" x2="83.5" y2="76"/>
	<line class="st1" x1="86.5" y1="81" x2="86.5" y2="76"/>
	<line class="st1" x1="88.5" y1="81" x2="88.5" y2="76"/>
	<line class="st1" x1="61.5" y1="87" x2="61.5" y2="82"/>
	<line class="st1" x1="63.5" y1="87" x2="63.5" y2="82"/>
	<line class="st1" x1="66.5" y1="87" x2="66.5" y2="82"/>
	<line class="st1" x1="68.5" y1="87" x2="68.5" y2="82"/>
	<line class="st1" x1="71.5" y1="87" x2="71.5" y2="82"/>
	<line class="st1" x1="73.5" y1="87" x2="73.5" y2="82"/>
	<line class="st1" x1="76.5" y1="87" x2="76.5" y2="82"/>
	<line class="st1" x1="78.5" y1="87" x2="78.5" y2="82"/>
	<line class="st1" x1="81.5" y1="87" x2="81.5" y2="82"/>
	<line class="st1" x1="83.5" y1="87" x2="83.5" y2="82"/>
	<line class="st1" x1="86.5" y1="87" x2="86.5" y2="82"/>
	<line class="st1" x1="88.5" y1="87" x2="88.5" y2="82"/>
	<line class="st1" x1="61.5" y1="93" x2="61.5" y2="88"/>
	<line class="st1" x1="63.5" y1="93" x2="63.5" y2="88"/>
	<line class="st1" x1="66.5" y1="93" x2="66.5" y2="88"/>
	<line class="st1" x1="68.5" y1="93" x2="68.5" y2="88"/>
	<line class="st1" x1="71.5" y1="93" x2="71.5" y2="88"/>
	<line class="st1" x1="73.5" y1="93" x2="73.5" y2="88"/>
	<line class="st1" x1="76.5" y1="93" x2="76.5" y2="88"/>
	<line class="st1" x1="78.5" y1="93" x2="78.5" y2="88"/>
	<line class="st1" x1="81.5" y1="93" x2="81.5" y2="88"/>
	<line class="st1" x1="83.5" y1="93" x2="83.5" y2="88"/>
	<line class="st1" x1="86.5" y1="93" x2="86.5" y2="88"/>
	<line class="st1" x1="88.5" y1="93" x2="88.5" y2="88"/>
	<line class="st1" x1="85.5" y1="99" x2="85.5" y2="94"/>
	<line class="st1" x1="88.5" y1="99" x2="88.5" y2="94"/>
	<line class="st1" x1="90.5" y1="99" x2="90.5" y2="94"/>
	<line class="st1" x1="93.5" y1="99" x2="93.5" y2="94"/>
	<line class="st1" x1="95.5" y1="99" x2="95.5" y2="94"/>
	<line class="st1" x1="85.5" y1="105" x2="85.5" y2="100"/>
	<line class="st1" x1="88.5" y1="105" x2="88.5" y2="100"/>
	<line class="st1" x1="90.5" y1="105" x2="90.5" y2="100"/>
	<line class="st1" x1="93.5" y1="105" x2="93.5" y2="100"/>
	<line class="st1" x1="95.5" y1="105" x2="95.5" y2="100"/>
	<line class="st1" x1="85.5" y1="111" x2="85.5" y2="106"/>
	<line class="st1" x1="88.5" y1="111" x2="88.5" y2="106"/>
	<line class="st1" x1="90.5" y1="111" x2="90.5" y2="106"/>
	<line class="st1" x1="93.5" y1="111" x2="93.5" y2="106"/>
	<line class="st1" x1="95.5" y1="111" x2="95.5" y2="106"/>
	<line class="st1" x1="85.5" y1="117" x2="85.5" y2="112"/>
	<line class="st1" x1="88.5" y1="117" x2="88.5" y2="112"/>
	<line class="st1" x1="90.5" y1="117" x2="90.5" y2="112"/>
	<line class="st1" x1="93.5" y1="117" x2="93.5" y2="112"/>
	<line class="st1" x1="95.5" y1="117" x2="95.5" y2="112"/>
	<line class="st1" x1="85.5" y1="123" x2="85.5" y2="118"/>
	<line class="st1" x1="88.5" y1="123" x2="88.5" y2="118"/>
	<line class="st1" x1="90.5" y1="123" x2="90.5" y2="118"/>
	<line class="st1" x1="93.5" y1="123" x2="93.5" y2="118"/>
	<line class="st1" x1="95.5" y1="123" x2="95.5" y2="118"/>
	<line class="st1" x1="85.5" y1="129" x2="85.5" y2="124"/>
	<line class="st1" x1="88.5" y1="129" x2="88.5" y2="124"/>
	<line class="st1" x1="90.5" y1="129" x2="90.5" y2="124"/>
	<line class="st1" x1="85.5" y1="135" x2="85.5" y2="130"/>
	<line class="st1" x1="87.5" y1="135" x2="87.5" y2="130"/>
	<line class="st1" x1="90.5" y1="135" x2="90.5" y2="130"/>
	<line class="st1" x1="92.5" y1="135" x2="92.5" y2="130"/>
	<line class="st1" x1="85.5" y1="141" x2="85.5" y2="136"/>
	<line class="st1" x1="87.5" y1="141" x2="87.5" y2="136"/>
	<line class="st1" x1="82.5" y1="141" x2="82.5" y2="136"/>
	<line class="st1" x1="90.5" y1="141" x2="90.5" y2="136"/>
	<line class="st1" x1="92.5" y1="141" x2="92.5" y2="136"/>
	<line class="st1" x1="85.5" y1="148" x2="85.5" y2="142"/>
	<line class="st1" x1="87.5" y1="148" x2="87.5" y2="142"/>
	<line class="st1" x1="82.5" y1="148" x2="82.5" y2="142"/>
	<line class="st1" x1="90.5" y1="148" x2="90.5" y2="142"/>
	<line class="st1" x1="92.5" y1="148" x2="92.5" y2="142"/>
	<line class="st1" x1="85.5" y1="154" x2="85.5" y2="149"/>
	<line class="st1" x1="87.5" y1="154" x2="87.5" y2="149"/>
	<line class="st1" x1="82.5" y1="154" x2="82.5" y2="149"/>
	<line class="st1" x1="90.5" y1="154" x2="90.5" y2="149"/>
	<line class="st1" x1="92.5" y1="154" x2="92.5" y2="149"/>
	<line class="st1" x1="93.5" y1="129" x2="93.5" y2="124"/>
	<line class="st1" x1="95.5" y1="129" x2="95.5" y2="124"/>
	<polyline class="st0" points="80,155 80,134 83,134 83,93 44,93 44,110 	"/>
	<line class="st1" x1="47.5" y1="102" x2="47.5" y2="97"/>
	<line class="st1" x1="49.5" y1="102" x2="49.5" y2="97"/>
	<line class="st1" x1="52.5" y1="102" x2="52.5" y2="97"/>
	<line class="st1" x1="54.5" y1="102" x2="54.5" y2="97"/>
	<line class="st1" x1="57.5" y1="102" x2="57.5" y2="97"/>
	<line class="st1" x1="59.5" y1="102" x2="59.5" y2="97"/>
	<line class="st1" x1="62.5" y1="102" x2="62.5" y2="97"/>
	<line class="st1" x1="64.5" y1="102" x2="64.5" y2="97"/>
	<line class="st1" x1="67.5" y1="102" x2="67.5" y2="97"/>
	<line class="st1" x1="69.5" y1="102" x2="69.5" y2="97"/>
	<line class="st1" x1="72.5" y1="102" x2="72.5" y2="97"/>
	<line class="st1" x1="74.5" y1="102" x2="74.5" y2="97"/>
	<line class="st1" x1="77.5" y1="102" x2="77.5" y2="97"/>
	<line class="st1" x1="79.5" y1="102" x2="79.5" y2="97"/>
	<line class="st1" x1="47.5" y1="108" x2="47.5" y2="103"/>
	<line class="st1" x1="49.5" y1="108" x2="49.5" y2="103"/>
	<line class="st1" x1="52.5" y1="108" x2="52.5" y2="103"/>
	<line class="st1" x1="54.5" y1="108" x2="54.5" y2="103"/>
	<line class="st1" x1="57.5" y1="108" x2="57.5" y2="103"/>
	<line class="st1" x1="59.5" y1="108" x2="59.5" y2="103"/>
	<line class="st1" x1="62.5" y1="108" x2="62.5" y2="103"/>
	<line class="st1" x1="64.5" y1="108" x2="64.5" y2="103"/>
	<line class="st1" x1="67.5" y1="108" x2="67.5" y2="103"/>
	<line class="st1" x1="69.5" y1="108" x2="69.5" y2="103"/>
	<line class="st1" x1="72.5" y1="108" x2="72.5" y2="103"/>
	<line class="st1" x1="74.5" y1="108" x2="74.5" y2="103"/>
	<line class="st1" x1="77.5" y1="108" x2="77.5" y2="103"/>
	<line class="st1" x1="79.5" y1="108" x2="79.5" y2="103"/>
	<line class="st1" x1="72.5" y1="114" x2="72.5" y2="109"/>
	<line class="st1" x1="69.5" y1="114" x2="69.5" y2="109"/>
	<line class="st1" x1="74.5" y1="114" x2="74.5" y2="109"/>
	<line class="st1" x1="77.5" y1="114" x2="77.5" y2="109"/>
	<line class="st1" x1="79.5" y1="114" x2="79.5" y2="109"/>
	<line class="st1" x1="74.5" y1="120" x2="74.5" y2="115"/>
	<line class="st1" x1="77.5" y1="120" x2="77.5" y2="115"/>
	<line class="st1" x1="79.5" y1="120" x2="79.5" y2="115"/>
	<line class="st1" x1="74.5" y1="126" x2="74.5" y2="121"/>
	<line class="st1" x1="77.5" y1="126" x2="77.5" y2="121"/>
	<line class="st1" x1="79.5" y1="126" x2="79.5" y2="121"/>
	<line class="st1" x1="74.5" y1="132" x2="74.5" y2="127"/>
	<line class="st1" x1="77.5" y1="132" x2="77.5" y2="127"/>
	<line class="st1" x1="79.5" y1="132" x2="79.5" y2="127"/>
	<line class="st1" x1="74.5" y1="137" x2="74.5" y2="133"/>
	<line class="st1" x1="76.5" y1="137" x2="76.5" y2="133"/>
	<line class="st1" x1="74.5" y1="143" x2="74.5" y2="138"/>
	<line class="st1" x1="76.5" y1="143" x2="76.5" y2="138"/>
	<line class="st1" x1="74.5" y1="149" x2="74.5" y2="144"/>
	<line class="st1" x1="76.5" y1="149" x2="76.5" y2="144"/>
	<line class="st1" x1="74.5" y1="154" x2="74.5" y2="150"/>
	<line class="st1" x1="76.5" y1="154" x2="76.5" y2="150"/>
	<rect x="106" y="122" class="st0" width="33" height="34"/>
	<rect x="111" y="92" class="st0" width="34" height="30"/>
	<polyline class="st0" points="119,92.1 119,58 153,58 153,122 	"/>
	<line class="st1" x1="110.5" y1="128" x2="110.5" y2="153"/>
	<line class="st1" x1="114.5" y1="128" x2="114.5" y2="153"/>
	<line class="st1" x1="118.5" y1="128" x2="118.5" y2="153"/>
	<line class="st1" x1="122.5" y1="128" x2="122.5" y2="153"/>
	<line class="st1" x1="126.5" y1="128" x2="126.5" y2="153"/>
	<line class="st1" x1="130.5" y1="128" x2="130.5" y2="153"/>
	<line class="st1" x1="134.5" y1="128" x2="134.5" y2="153"/>
	<rect x="145" y="122" class="st0" width="33" height="34"/>
	<line class="st1" x1="149.5" y1="128" x2="149.5" y2="153"/>
	<line class="st1" x1="153.5" y1="128" x2="153.5" y2="153"/>
	<line class="st1" x1="157.5" y1="128" x2="157.5" y2="153"/>
	<line class="st1" x1="161.5" y1="128" x2="161.5" y2="153"/>
	<line class="st1" x1="165.5" y1="128" x2="165.5" y2="153"/>
	<line class="st1" x1="169.5" y1="128" x2="169.5" y2="153"/>
	<line class="st1" x1="173.5" y1="128" x2="173.5" y2="153"/>
	<rect x="184" y="122" class="st0" width="33" height="34"/>
	<line class="st1" x1="188.5" y1="128" x2="188.5" y2="153"/>
	<line class="st1" x1="192.5" y1="128" x2="192.5" y2="153"/>
	<line class="st1" x1="196.5" y1="128" x2="196.5" y2="153"/>
	<line class="st1" x1="200.5" y1="128" x2="200.5" y2="153"/>
	<line class="st1" x1="204.5" y1="128" x2="204.5" y2="153"/>
	<line class="st1" x1="208.5" y1="128" x2="208.5" y2="153"/>
	<line class="st1" x1="212.5" y1="128" x2="212.5" y2="153"/>
	<rect x="223" y="122" class="st0" width="33" height="34"/>
	<line class="st1" x1="227.5" y1="128" x2="227.5" y2="153"/>
	<line class="st1" x1="231.5" y1="128" x2="231.5" y2="153"/>
	<line class="st1" x1="235.5" y1="128" x2="235.5" y2="153"/>
	<line class="st1" x1="239.5" y1="128" x2="239.5" y2="153"/>
	<line class="st1" x1="243.5" y1="128" x2="243.5" y2="153"/>
	<line class="st1" x1="247.5" y1="128" x2="247.5" y2="153"/>
	<line class="st1" x1="251.5" y1="128" x2="251.5" y2="153"/>
	<rect x="262" y="122" class="st0" width="33" height="34"/>
	<line class="st1" x1="266.5" y1="128" x2="266.5" y2="153"/>
	<line class="st1" x1="270.5" y1="128" x2="270.5" y2="153"/>
	<line class="st1" x1="274.5" y1="128" x2="274.5" y2="153"/>
	<line class="st1" x1="278.5" y1="128" x2="278.5" y2="153"/>
	<line class="st1" x1="282.5" y1="128" x2="282.5" y2="153"/>
	<line class="st1" x1="286.5" y1="128" x2="286.5" y2="153"/>
	<line class="st1" x1="290.5" y1="128" x2="290.5" y2="153"/>
	<line class="st1" x1="108.5" y1="157" x2="108.5" y2="160"/>
	<line class="st1" x1="106.5" y1="157" x2="106.5" y2="160"/>
	<line class="st1" x1="110.5" y1="157" x2="110.5" y2="160"/>
	<line class="st1" x1="112.5" y1="157" x2="112.5" y2="160"/>
	<line class="st1" x1="114.5" y1="157" x2="114.5" y2="160"/>
	<line class="st1" x1="116.5" y1="157" x2="116.5" y2="160"/>
	<line class="st1" x1="118.5" y1="157" x2="118.5" y2="160"/>
	<line class="st1" x1="120.5" y1="157" x2="120.5" y2="160"/>
	<line class="st1" x1="122.5" y1="157" x2="122.5" y2="160"/>
	<line class="st1" x1="124.5" y1="157" x2="124.5" y2="160"/>
	<line class="st1" x1="126.5" y1="157" x2="126.5" y2="160"/>
	<line class="st1" x1="128.5" y1="157" x2="128.5" y2="160"/>
	<line class="st1" x1="130.5" y1="157" x2="130.5" y2="160"/>
	<line class="st1" x1="132.5" y1="157" x2="132.5" y2="160"/>
	<line class="st1" x1="134.5" y1="157" x2="134.5" y2="160"/>
	<line class="st1" x1="136.5" y1="157" x2="136.5" y2="160"/>
	<line class="st1" x1="138.5" y1="157" x2="138.5" y2="160"/>
	<line class="st1" x1="140.5" y1="157" x2="140.5" y2="160"/>
	<line class="st1" x1="142.5" y1="157" x2="142.5" y2="160"/>
	<line class="st1" x1="144.5" y1="157" x2="144.5" y2="160"/>
	<line class="st1" x1="146.5" y1="157" x2="146.5" y2="160"/>
	<line class="st1" x1="148.5" y1="157" x2="148.5" y2="160"/>
	<line class="st1" x1="150.5" y1="157" x2="150.5" y2="160"/>
	<line class="st1" x1="152.5" y1="157" x2="152.5" y2="160"/>
	<line class="st1" x1="154.5" y1="157" x2="154.5" y2="160"/>
	<line class="st1" x1="156.5" y1="157" x2="156.5" y2="160"/>
	<line class="st1" x1="158.5" y1="157" x2="158.5" y2="160"/>
	<line class="st1" x1="160.5" y1="157" x2="160.5" y2="160"/>
	<line class="st1" x1="162.5" y1="157" x2="162.5" y2="160"/>
	<line class="st1" x1="164.5" y1="157" x2="164.5" y2="160"/>
	<line class="st1" x1="166.5" y1="157" x2="166.5" y2="160"/>
	<line class="st1" x1="168.5" y1="157" x2="168.5" y2="160"/>
	<line class="st1" x1="170.5" y1="157" x2="170.5" y2="160"/>
	<line class="st1" x1="172.5" y1="157" x2="172.5" y2="160"/>
	<line class="st1" x1="174.5" y1="157" x2="174.5" y2="160"/>
	<line class="st1" x1="176.5" y1="157" x2="176.5" y2="160"/>
	<line class="st1" x1="178.5" y1="157" x2="178.5" y2="160"/>
	<line class="st1" x1="180.5" y1="157" x2="180.5" y2="160"/>
	<line class="st1" x1="182.5" y1="157" x2="182.5" y2="160"/>
	<line class="st1" x1="184.5" y1="157" x2="184.5" y2="160"/>
	<line class="st1" x1="186.5" y1="157" x2="186.5" y2="160"/>
	<line class="st1" x1="188.5" y1="157" x2="188.5" y2="160"/>
	<line class="st1" x1="190.5" y1="157" x2="190.5" y2="160"/>
	<line class="st1" x1="192.5" y1="157" x2="192.5" y2="160"/>
	<line class="st1" x1="194.5" y1="157" x2="194.5" y2="160"/>
	<line class="st1" x1="196.5" y1="157" x2="196.5" y2="160"/>
	<line class="st1" x1="198.5" y1="157" x2="198.5" y2="160"/>
	<line class="st1" x1="200.5" y1="157" x2="200.5" y2="160"/>
	<line class="st1" x1="202.5" y1="157" x2="202.5" y2="160"/>
	<line class="st1" x1="204.5" y1="157" x2="204.5" y2="160"/>
	<line class="st1" x1="206.5" y1="157" x2="206.5" y2="160"/>
	<line class="st1" x1="208.5" y1="157" x2="208.5" y2="160"/>
	<line class="st1" x1="210.5" y1="157" x2="210.5" y2="160"/>
	<line class="st1" x1="212.5" y1="157" x2="212.5" y2="160"/>
	<line class="st1" x1="214.5" y1="157" x2="214.5" y2="160"/>
	<line class="st1" x1="216.5" y1="157" x2="216.5" y2="160"/>
	<line class="st1" x1="218.5" y1="157" x2="218.5" y2="160"/>
	<line class="st1" x1="220.5" y1="157" x2="220.5" y2="160"/>
	<line class="st1" x1="222.5" y1="157" x2="222.5" y2="160"/>
	<line class="st1" x1="224.5" y1="157" x2="224.5" y2="160"/>
	<line class="st1" x1="226.5" y1="157" x2="226.5" y2="160"/>
	<line class="st1" x1="228.5" y1="157" x2="228.5" y2="160"/>
	<line class="st1" x1="230.5" y1="157" x2="230.5" y2="160"/>
	<line class="st1" x1="232.5" y1="157" x2="232.5" y2="160"/>
	<line class="st1" x1="234.5" y1="157" x2="234.5" y2="160"/>
	<line class="st1" x1="236.5" y1="157" x2="236.5" y2="160"/>
	<line class="st1" x1="238.5" y1="157" x2="238.5" y2="160"/>
	<line class="st1" x1="240.5" y1="157" x2="240.5" y2="160"/>
	<line class="st1" x1="242.5" y1="157" x2="242.5" y2="160"/>
	<line class="st1" x1="244.5" y1="157" x2="244.5" y2="160"/>
	<line class="st1" x1="246.5" y1="157" x2="246.5" y2="160"/>
	<line class="st1" x1="248.5" y1="157" x2="248.5" y2="160"/>
	<line class="st1" x1="250.5" y1="157" x2="250.5" y2="160"/>
	<line class="st1" x1="252.5" y1="157" x2="252.5" y2="160"/>
	<line class="st1" x1="254.5" y1="157" x2="254.5" y2="160"/>
	<line class="st1" x1="256.5" y1="157" x2="256.5" y2="160"/>
	<line class="st1" x1="258.5" y1="157" x2="258.5" y2="160"/>
	<line class="st1" x1="260.5" y1="157" x2="260.5" y2="160"/>
	<line class="st1" x1="262.5" y1="157" x2="262.5" y2="160"/>
	<line class="st1" x1="264.5" y1="157" x2="264.5" y2="160"/>
	<line class="st1" x1="266.5" y1="157" x2="266.5" y2="160"/>
	<line class="st1" x1="268.5" y1="157" x2="268.5" y2="160"/>
	<line class="st1" x1="270.5" y1="157" x2="270.5" y2="160"/>
	<line class="st1" x1="272.5" y1="157" x2="272.5" y2="160"/>
	<line class="st1" x1="274.5" y1="157" x2="274.5" y2="160"/>
	<line class="st1" x1="276.5" y1="157" x2="276.5" y2="160"/>
	<line class="st1" x1="278.5" y1="157" x2="278.5" y2="160"/>
	<line class="st1" x1="280.5" y1="157" x2="280.5" y2="160"/>
	<line class="st1" x1="282.5" y1="157" x2="282.5" y2="160"/>
	<line class="st1" x1="284.5" y1="157" x2="284.5" y2="160"/>
	<line class="st1" x1="286.5" y1="157" x2="286.5" y2="160"/>
	<line class="st1" x1="288.5" y1="157" x2="288.5" y2="160"/>
	<line class="st1" x1="290.5" y1="157" x2="290.5" y2="160"/>
	<line class="st1" x1="292.5" y1="157" x2="292.5" y2="160"/>
	<line class="st1" x1="294.5" y1="157" x2="294.5" y2="160"/>
	<line class="st0" x1="139" y1="156" x2="262" y2="156"/>
	<line class="st0" x1="139" y1="122" x2="262" y2="122"/>
	<line class="st1" x1="114.5" y1="102" x2="114.5" y2="97"/>
	<line class="st1" x1="116.5" y1="102" x2="116.5" y2="97"/>
	<line class="st1" x1="114.5" y1="108" x2="114.5" y2="103"/>
	<line class="st1" x1="116.5" y1="108" x2="116.5" y2="103"/>
	<line class="st1" x1="114.5" y1="114" x2="114.5" y2="109"/>
	<line class="st1" x1="116.5" y1="114" x2="116.5" y2="109"/>
	<line class="st1" x1="114.5" y1="120" x2="114.5" y2="115"/>
	<line class="st1" x1="116.5" y1="120" x2="116.5" y2="115"/>
	<line class="st1" x1="119.5" y1="102" x2="119.5" y2="97"/>
	<line class="st1" x1="121.5" y1="102" x2="121.5" y2="97"/>
	<line class="st1" x1="119.5" y1="108" x2="119.5" y2="103"/>
	<line class="st1" x1="121.5" y1="108" x2="121.5" y2="103"/>
	<line class="st1" x1="119.5" y1="114" x2="119.5" y2="109"/>
	<line class="st1" x1="121.5" y1="114" x2="121.5" y2="109"/>
	<line class="st1" x1="119.5" y1="120" x2="119.5" y2="115"/>
	<line class="st1" x1="121.5" y1="120" x2="121.5" y2="115"/>
	<line class="st1" x1="124.5" y1="102" x2="124.5" y2="97"/>
	<line class="st1" x1="126.5" y1="102" x2="126.5" y2="97"/>
	<line class="st1" x1="124.5" y1="108" x2="124.5" y2="103"/>
	<line class="st1" x1="126.5" y1="108" x2="126.5" y2="103"/>
	<line class="st1" x1="124.5" y1="114" x2="124.5" y2="109"/>
	<line class="st1" x1="126.5" y1="114" x2="126.5" y2="109"/>
	<line class="st1" x1="124.5" y1="120" x2="124.5" y2="115"/>
	<line class="st1" x1="126.5" y1="120" x2="126.5" y2="115"/>
	<line class="st1" x1="129.5" y1="102" x2="129.5" y2="97"/>
	<line class="st1" x1="131.5" y1="102" x2="131.5" y2="97"/>
	<line class="st1" x1="129.5" y1="108" x2="129.5" y2="103"/>
	<line class="st1" x1="131.5" y1="108" x2="131.5" y2="103"/>
	<line class="st1" x1="129.5" y1="114" x2="129.5" y2="109"/>
	<line class="st1" x1="131.5" y1="114" x2="131.5" y2="109"/>
	<line class="st1" x1="129.5" y1="120" x2="129.5" y2="115"/>
	<line class="st1" x1="131.5" y1="120" x2="131.5" y2="115"/>
	<line class="st1" x1="134.5" y1="102" x2="134.5" y2="97"/>
	<line class="st1" x1="136.5" y1="102" x2="136.5" y2="97"/>
	<line class="st1" x1="134.5" y1="108" x2="134.5" y2="103"/>
	<line class="st1" x1="136.5" y1="108" x2="136.5" y2="103"/>
	<line class="st1" x1="134.5" y1="114" x2="134.5" y2="109"/>
	<line class="st1" x1="136.5" y1="114" x2="136.5" y2="109"/>
	<line class="st1" x1="134.5" y1="120" x2="134.5" y2="115"/>
	<line class="st1" x1="136.5" y1="120" x2="136.5" y2="115"/>
	<line class="st1" x1="139.5" y1="102" x2="139.5" y2="97"/>
	<line class="st1" x1="141.5" y1="102" x2="141.5" y2="97"/>
	<line class="st1" x1="139.5" y1="108" x2="139.5" y2="103"/>
	<line class="st1" x1="141.5" y1="108" x2="141.5" y2="103"/>
	<line class="st1" x1="139.5" y1="114" x2="139.5" y2="109"/>
	<line class="st1" x1="141.5" y1="114" x2="141.5" y2="109"/>
	<line class="st1" x1="139.5" y1="120" x2="139.5" y2="115"/>
	<line class="st1" x1="141.5" y1="120" x2="141.5" y2="115"/>
	<line class="st1" x1="122.5" y1="68" x2="122.5" y2="63"/>
	<line class="st1" x1="124.5" y1="68" x2="124.5" y2="63"/>
	<line class="st1" x1="122.5" y1="74" x2="122.5" y2="69"/>
	<line class="st1" x1="124.5" y1="74" x2="124.5" y2="69"/>
	<line class="st1" x1="122.5" y1="80" x2="122.5" y2="75"/>
	<line class="st1" x1="124.5" y1="80" x2="124.5" y2="75"/>
	<line class="st1" x1="122.5" y1="86" x2="122.5" y2="81"/>
	<line class="st1" x1="124.5" y1="86" x2="124.5" y2="81"/>
	<line class="st1" x1="127.5" y1="68" x2="127.5" y2="63"/>
	<line class="st1" x1="129.5" y1="68" x2="129.5" y2="63"/>
	<line class="st1" x1="127.5" y1="74" x2="127.5" y2="69"/>
	<line class="st1" x1="129.5" y1="74" x2="129.5" y2="69"/>
	<line class="st1" x1="127.5" y1="80" x2="127.5" y2="75"/>
	<line class="st1" x1="129.5" y1="80" x2="129.5" y2="75"/>
	<line class="st1" x1="127.5" y1="86" x2="127.5" y2="81"/>
	<line class="st1" x1="129.5" y1="86" x2="129.5" y2="81"/>
	<line class="st1" x1="132.5" y1="68" x2="132.5" y2="63"/>
	<line class="st1" x1="134.5" y1="68" x2="134.5" y2="63"/>
	<line class="st1" x1="132.5" y1="74" x2="132.5" y2="69"/>
	<line class="st1" x1="134.5" y1="74" x2="134.5" y2="69"/>
	<line class="st1" x1="132.5" y1="80" x2="132.5" y2="75"/>
	<line class="st1" x1="134.5" y1="80" x2="134.5" y2="75"/>
	<line class="st1" x1="132.5" y1="86" x2="132.5" y2="81"/>
	<line class="st1" x1="134.5" y1="86" x2="134.5" y2="81"/>
	<line class="st1" x1="137.5" y1="68" x2="137.5" y2="63"/>
	<line class="st1" x1="139.5" y1="68" x2="139.5" y2="63"/>
	<line class="st1" x1="137.5" y1="74" x2="137.5" y2="69"/>
	<line class="st1" x1="139.5" y1="74" x2="139.5" y2="69"/>
	<line class="st1" x1="137.5" y1="80" x2="137.5" y2="75"/>
	<line class="st1" x1="139.5" y1="80" x2="139.5" y2="75"/>
	<line class="st1" x1="137.5" y1="86" x2="137.5" y2="81"/>
	<line class="st1" x1="139.5" y1="86" x2="139.5" y2="81"/>
	<line class="st1" x1="142.5" y1="68" x2="142.5" y2="63"/>
	<line class="st1" x1="144.5" y1="68" x2="144.5" y2="63"/>
	<line class="st1" x1="142.5" y1="74" x2="142.5" y2="69"/>
	<line class="st1" x1="144.5" y1="74" x2="144.5" y2="69"/>
	<line class="st1" x1="142.5" y1="80" x2="142.5" y2="75"/>
	<line class="st1" x1="144.5" y1="80" x2="144.5" y2="75"/>
	<line class="st1" x1="142.5" y1="86" x2="142.5" y2="81"/>
	<line class="st1" x1="144.5" y1="86" x2="144.5" y2="81"/>
	<line class="st1" x1="147.5" y1="68" x2="147.5" y2="63"/>
	<line class="st1" x1="149.5" y1="68" x2="149.5" y2="63"/>
	<line class="st1" x1="147.5" y1="74" x2="147.5" y2="69"/>
	<line class="st1" x1="149.5" y1="74" x2="149.5" y2="69"/>
	<line class="st1" x1="147.5" y1="80" x2="147.5" y2="75"/>
	<line class="st1" x1="149.5" y1="80" x2="149.5" y2="75"/>
	<line class="st1" x1="147.5" y1="86" x2="147.5" y2="81"/>
	<line class="st1" x1="149.5" y1="86" x2="149.5" y2="81"/>
	<line class="st1" x1="122.5" y1="92" x2="122.5" y2="87"/>
	<line class="st1" x1="124.5" y1="92" x2="124.5" y2="87"/>
	<line class="st1" x1="127.5" y1="92" x2="127.5" y2="87"/>
	<line class="st1" x1="129.5" y1="92" x2="129.5" y2="87"/>
	<line class="st1" x1="132.5" y1="92" x2="132.5" y2="87"/>
	<line class="st1" x1="134.5" y1="92" x2="134.5" y2="87"/>
	<line class="st1" x1="137.5" y1="92" x2="137.5" y2="87"/>
	<line class="st1" x1="139.5" y1="92" x2="139.5" y2="87"/>
	<line class="st1" x1="142.5" y1="92" x2="142.5" y2="87"/>
	<line class="st1" x1="144.5" y1="92" x2="144.5" y2="87"/>
	<line class="st1" x1="147.5" y1="92" x2="147.5" y2="87"/>
	<line class="st1" x1="149.5" y1="92" x2="149.5" y2="87"/>
	<line class="st1" x1="147.5" y1="98" x2="147.5" y2="93"/>
	<line class="st1" x1="149.5" y1="98" x2="149.5" y2="93"/>
	<line class="st1" x1="147.5" y1="104" x2="147.5" y2="99"/>
	<line class="st1" x1="149.5" y1="104" x2="149.5" y2="99"/>
	<line class="st1" x1="147.5" y1="110" x2="147.5" y2="105"/>
	<line class="st1" x1="149.5" y1="110" x2="149.5" y2="105"/>
	<line class="st1" x1="147.5" y1="116" x2="147.5" y2="111"/>
	<line class="st1" x1="149.5" y1="116" x2="149.5" y2="111"/>
	<line class="st1" x1="147.5" y1="122" x2="147.5" y2="117"/>
	<line class="st1" x1="149.5" y1="122" x2="149.5" y2="117"/>
	<rect x="162" y="92" class="st0" width="34" height="30"/>
	<line class="st1" x1="165.5" y1="102" x2="165.5" y2="97"/>
	<line class="st1" x1="167.5" y1="102" x2="167.5" y2="97"/>
	<line class="st1" x1="165.5" y1="108" x2="165.5" y2="103"/>
	<line class="st1" x1="167.5" y1="108" x2="167.5" y2="103"/>
	<line class="st1" x1="165.5" y1="114" x2="165.5" y2="109"/>
	<line class="st1" x1="167.5" y1="114" x2="167.5" y2="109"/>
	<line class="st1" x1="165.5" y1="120" x2="165.5" y2="115"/>
	<line class="st1" x1="167.5" y1="120" x2="167.5" y2="115"/>
	<line class="st1" x1="170.5" y1="102" x2="170.5" y2="97"/>
	<line class="st1" x1="172.5" y1="102" x2="172.5" y2="97"/>
	<line class="st1" x1="170.5" y1="108" x2="170.5" y2="103"/>
	<line class="st1" x1="172.5" y1="108" x2="172.5" y2="103"/>
	<line class="st1" x1="170.5" y1="114" x2="170.5" y2="109"/>
	<line class="st1" x1="172.5" y1="114" x2="172.5" y2="109"/>
	<line class="st1" x1="170.5" y1="120" x2="170.5" y2="115"/>
	<line class="st1" x1="172.5" y1="120" x2="172.5" y2="115"/>
	<line class="st1" x1="175.5" y1="102" x2="175.5" y2="97"/>
	<line class="st1" x1="177.5" y1="102" x2="177.5" y2="97"/>
	<line class="st1" x1="175.5" y1="108" x2="175.5" y2="103"/>
	<line class="st1" x1="177.5" y1="108" x2="177.5" y2="103"/>
	<line class="st1" x1="175.5" y1="114" x2="175.5" y2="109"/>
	<line class="st1" x1="177.5" y1="114" x2="177.5" y2="109"/>
	<line class="st1" x1="175.5" y1="120" x2="175.5" y2="115"/>
	<line class="st1" x1="177.5" y1="120" x2="177.5" y2="115"/>
	<line class="st1" x1="180.5" y1="102" x2="180.5" y2="97"/>
	<line class="st1" x1="182.5" y1="102" x2="182.5" y2="97"/>
	<line class="st1" x1="180.5" y1="108" x2="180.5" y2="103"/>
	<line class="st1" x1="182.5" y1="108" x2="182.5" y2="103"/>
	<line class="st1" x1="180.5" y1="114" x2="180.5" y2="109"/>
	<line class="st1" x1="182.5" y1="114" x2="182.5" y2="109"/>
	<line class="st1" x1="180.5" y1="120" x2="180.5" y2="115"/>
	<line class="st1" x1="182.5" y1="120" x2="182.5" y2="115"/>
	<line class="st1" x1="185.5" y1="102" x2="185.5" y2="97"/>
	<line class="st1" x1="187.5" y1="102" x2="187.5" y2="97"/>
	<line class="st1" x1="185.5" y1="108" x2="185.5" y2="103"/>
	<line class="st1" x1="187.5" y1="108" x2="187.5" y2="103"/>
	<line class="st1" x1="185.5" y1="114" x2="185.5" y2="109"/>
	<line class="st1" x1="187.5" y1="114" x2="187.5" y2="109"/>
	<line class="st1" x1="185.5" y1="120" x2="185.5" y2="115"/>
	<line class="st1" x1="187.5" y1="120" x2="187.5" y2="115"/>
	<line class="st1" x1="190.5" y1="102" x2="190.5" y2="97"/>
	<line class="st1" x1="192.5" y1="102" x2="192.5" y2="97"/>
	<line class="st1" x1="190.5" y1="108" x2="190.5" y2="103"/>
	<line class="st1" x1="192.5" y1="108" x2="192.5" y2="103"/>
	<line class="st1" x1="190.5" y1="114" x2="190.5" y2="109"/>
	<line class="st1" x1="192.5" y1="114" x2="192.5" y2="109"/>
	<line class="st1" x1="190.5" y1="120" x2="190.5" y2="115"/>
	<line class="st1" x1="192.5" y1="120" x2="192.5" y2="115"/>
	<line class="st0" x1="97" y1="156" x2="72" y2="156"/>
	<rect x="34.5" y="117.5" class="st1" width="3" height="3"/>
	<rect x="34.5" y="123.5" class="st1" width="3" height="3"/>
	<rect x="34.5" y="129.5" class="st1" width="3" height="3"/>
	<rect x="34.5" y="135.5" class="st1" width="3" height="3"/>
	<rect x="34.5" y="141.5" class="st1" width="3" height="3"/>
	<rect x="34.5" y="153.5" class="st1" width="3" height="4"/>
	<rect x="40.5" y="153.5" class="st1" width="3" height="4"/>
	<rect x="46.5" y="153.5" class="st1" width="3" height="4"/>
	<rect x="52.5" y="153.5" class="st1" width="3" height="4"/>
	<rect x="58.5" y="153.5" class="st1" width="3" height="4"/>
	<rect x="64.5" y="153.5" class="st1" width="3" height="4"/>
	<rect x="40.5" y="117.5" class="st1" width="3" height="3"/>
	<rect x="40.5" y="123.5" class="st1" width="3" height="3"/>
	<rect x="40.5" y="129.5" class="st1" width="3" height="3"/>
	<rect x="40.5" y="135.5" class="st1" width="3" height="3"/>
	<rect x="40.5" y="141.5" class="st1" width="3" height="3"/>
	<rect x="46.5" y="117.5" class="st1" width="3" height="3"/>
	<rect x="46.5" y="123.5" class="st1" width="3" height="3"/>
	<rect x="46.5" y="129.5" class="st1" width="3" height="3"/>
	<rect x="46.5" y="135.5" class="st1" width="3" height="3"/>
	<rect x="46.5" y="141.5" class="st1" width="3" height="3"/>
	<rect x="52.5" y="117.5" class="st1" width="3" height="3"/>
	<rect x="52.5" y="123.5" class="st1" width="3" height="3"/>
	<rect x="52.5" y="129.5" class="st1" width="3" height="3"/>
	<rect x="52.5" y="135.5" class="st1" width="3" height="3"/>
	<rect x="52.5" y="141.5" class="st1" width="3" height="3"/>
	<rect x="58.5" y="117.5" class="st1" width="3" height="3"/>
	<rect x="58.5" y="123.5" class="st1" width="3" height="3"/>
	<rect x="58.5" y="129.5" class="st1" width="3" height="3"/>
	<rect x="58.5" y="135.5" class="st1" width="3" height="3"/>
	<rect x="58.5" y="141.5" class="st1" width="3" height="3"/>
	<rect x="64.5" y="117.5" class="st1" width="3" height="3"/>
	<rect x="64.5" y="123.5" class="st1" width="3" height="3"/>
	<rect x="64.5" y="129.5" class="st1" width="3" height="3"/>
	<rect x="64.5" y="135.5" class="st1" width="3" height="3"/>
	<rect x="64.5" y="141.5" class="st1" width="3" height="3"/>
	<rect x="34.5" y="147.5" class="st1" width="3" height="3"/>
	<rect x="40.5" y="147.5" class="st1" width="3" height="3"/>
	<rect x="46.5" y="147.5" class="st1" width="3" height="3"/>
	<rect x="52.5" y="147.5" class="st1" width="3" height="3"/>
	<rect x="58.5" y="147.5" class="st1" width="3" height="3"/>
	<rect x="64.5" y="147.5" class="st1" width="3" height="3"/>
</g>
</svg>
