<?xml version="1.0" encoding="utf-8"?>
<!-- Generator: Adobe Illustrator 19.2.1, SVG Export Plug-In . SVG Version: 6.00 Build 0)  -->
<svg version="1.1" id="Слой_1" xmlns="http://www.w3.org/2000/svg" xmlns:xlink="http://www.w3.org/1999/xlink" x="0px" y="0px"
	 viewBox="0 0 308 162" style="enable-background:new 0 0 308 162;" xml:space="preserve">
<style type="text/css">
	.st0{fill:#E6AE50;}
	.st1{fill:#FFFFFF;}
	.st2{fill:#ECDAC5;}
	.st3{fill:#C3D0D8;}
	.st4{fill:none;stroke:#000000;stroke-linejoin:bevel;stroke-miterlimit:1.5;}
	.st5{fill:none;stroke:#000000;stroke-width:2;stroke-miterlimit:10;}
	.st6{fill:none;stroke:#000000;stroke-miterlimit:10;}
</style>
<g>
	<polygon class="st0" points="242,139 44,139 38,161 237,161 	"/>
	<polygon class="st1" points="44.5,139 46,134 107,134 110,135.5 114,138.5 117.5,142 122,145 126,146 240,146 239,151 122,151 
		116,148 111,143.5 107,140.5 103,139 84,139 67,139 	"/>
	<polygon class="st0" points="116.5,140.5 241.5,140.5 240,146 125,146 120,144 	"/>
	<polygon class="st2" points="108,134 116,140.5 242,140.5 247.5,120 130,120 124.5,116 119,112.5 109,112 53,112 46,134 	"/>
	<rect x="52" y="114.5" class="st1" width="71.5" height="2"/>
	<rect x="50.5" y="118.5" class="st1" width="79" height="2"/>
	<rect x="49.5" y="122.5" class="st1" width="196.5" height="2"/>
	<polygon class="st1" points="243,134 108.5,134 111.5,136 243,136 	"/>
	<polygon class="st1" points="245,128 48,128 47.4,130 245,130 	"/>
	<polygon class="st1" points="236.5,157.5 39,157.5 38,160 236.5,160 	"/>
	<polygon class="st3" points="99,149 56,149 44,159.6 44,161 111,161 111,159.2 	"/>
	<line class="st4" x1="50" y1="154" x2="50" y2="160.5"/>
	<line class="st4" x1="55" y1="150.5" x2="55" y2="160.5"/>
	<line class="st4" x1="60" y1="150" x2="60" y2="160.5"/>
	<line class="st4" x1="65" y1="149.5" x2="65" y2="160.5"/>
	<line class="st4" x1="70" y1="149.5" x2="70" y2="160.5"/>
	<line class="st4" x1="75" y1="149.5" x2="75" y2="160.5"/>
	<line class="st4" x1="80" y1="149.5" x2="80" y2="160.5"/>
	<line class="st4" x1="85" y1="149.5" x2="85" y2="160.5"/>
	<line class="st4" x1="90" y1="149.5" x2="90" y2="160.5"/>
	<line class="st4" x1="95" y1="150" x2="95" y2="160.5"/>
	<line class="st4" x1="100" y1="150.5" x2="100" y2="160.5"/>
	<line class="st4" x1="105" y1="154" x2="105" y2="160.5"/>
	<line class="st4" x1="46.5" y1="157.5" x2="108.5" y2="157.5"/>
	<path class="st5" d="M118.2,161c-3.6,0-7.1-1.4-9.7-4l-4-4c-2.6-2.6-6-4-9.7-4H60.2c-3.6,0-7.1,1.4-9.7,4l-8,8h-5l15-49h62.3
		c3.6,0,7.1,1.4,9.7,4s6,4,9.7,4h113.3l-11,41"/>
	<path class="st5" d="M198.5,151h-74.3c-3.6,0-7.1-1.4-9.7-4l-4-4c-2.6-2.6-6-4-9.7-4H45 M219.5,151h-15 M206.5,146h15 M239,151
		h-13.5 M227.5,146h13 M46.5,134h57.3c3.6,0,7.1,1.4,9.7,4l4,4c2.6,2.6,6,4,9.7,4h73.3"/>
	<line class="st5" x1="16" y1="161" x2="308" y2="161"/>
	<line class="st6" x1="52" y1="114.5" x2="122" y2="114.5"/>
	<line class="st6" x1="51.5" y1="116.5" x2="124.5" y2="116.5"/>
	<line class="st6" x1="51" y1="118.5" x2="127" y2="118.5"/>
	<line class="st6" x1="50" y1="120.5" x2="133.5" y2="120.5"/>
	<line class="st6" x1="49.6" y1="122.5" x2="246.5" y2="122.5"/>
	<line class="st6" x1="49" y1="124.5" x2="246" y2="124.5"/>
	<line class="st6" x1="48.5" y1="127.5" x2="245.5" y2="127.5"/>
	<line class="st6" x1="47.3" y1="130.5" x2="244.3" y2="130.5"/>
	<line class="st6" x1="46.8" y1="133.5" x2="243.5" y2="133.5"/>
	<line class="st6" x1="112.5" y1="136.5" x2="242.5" y2="136.5"/>
	<line class="st6" x1="116.5" y1="140.5" x2="241.5" y2="140.5"/>
	<line class="st6" x1="109.5" y1="157.5" x2="237" y2="157.5"/>
	<line class="st6" x1="39.3" y1="157.5" x2="45.5" y2="157.5"/>
</g>
</svg>
