<?xml version="1.0" encoding="utf-8"?>
<!-- Generator: Adobe Illustrator 19.2.1, SVG Export Plug-In . SVG Version: 6.00 Build 0)  -->
<svg version="1.1" id="Слой_1" xmlns="http://www.w3.org/2000/svg" xmlns:xlink="http://www.w3.org/1999/xlink" x="0px" y="0px"
	 viewBox="0 0 308 162" style="enable-background:new 0 0 308 162;" xml:space="preserve">
<style type="text/css">
	.st0{fill:none;stroke:#222221;stroke-width:2;stroke-miterlimit:10;}
	.st1{fill:none;stroke:#222221;stroke-miterlimit:10;}
</style>
<g>
	<line class="st0" x1="16" y1="161" x2="308" y2="161"/>
	<rect x="35" y="123" class="st0" width="177" height="30"/>
	<rect x="224" y="139" class="st0" width="20" height="22"/>
	<rect x="34" y="112" class="st0" width="179" height="4"/>
	<rect x="41.5" y="116" class="st1" width="31" height="6.5"/>
	<rect x="72.5" y="116" class="st1" width="39" height="6.5"/>
	<rect x="111.5" y="116" class="st1" width="21" height="6.5"/>
	<rect x="171.5" y="116" class="st1" width="34" height="6.5"/>
	<rect x="132.5" y="116" class="st1" width="39" height="6.5"/>
	<rect x="79.5" y="108.5" class="st1" width="26" height="3"/>
	<rect x="172.5" y="109.5" class="st1" width="26" height="2"/>
	<polygon class="st0" points="261,123 249,123 241,123 212,123 212,133 249,133 249,127 261,127 	"/>
	<line class="st0" x1="36" y1="154" x2="36" y2="160"/>
	<line class="st1" x1="43.5" y1="154" x2="43.5" y2="160"/>
	<line class="st1" x1="51.5" y1="154" x2="51.5" y2="160"/>
	<line class="st1" x1="59.5" y1="154" x2="59.5" y2="160"/>
	<line class="st1" x1="67.5" y1="154" x2="67.5" y2="160"/>
	<line class="st1" x1="75.5" y1="154" x2="75.5" y2="160"/>
	<line class="st1" x1="83.5" y1="154" x2="83.5" y2="160"/>
	<line class="st1" x1="91.5" y1="154" x2="91.5" y2="160"/>
	<line class="st1" x1="99.5" y1="154" x2="99.5" y2="160"/>
	<line class="st1" x1="107.5" y1="154" x2="107.5" y2="160"/>
	<line class="st1" x1="115.5" y1="154" x2="115.5" y2="160"/>
	<line class="st1" x1="123.5" y1="154" x2="123.5" y2="160"/>
	<line class="st1" x1="131.5" y1="154" x2="131.5" y2="160"/>
	<line class="st1" x1="139.5" y1="154" x2="139.5" y2="160"/>
	<line class="st1" x1="147.5" y1="154" x2="147.5" y2="160"/>
	<line class="st1" x1="155.5" y1="154" x2="155.5" y2="160"/>
	<line class="st1" x1="163.5" y1="154" x2="163.5" y2="160"/>
	<line class="st1" x1="171.5" y1="154" x2="171.5" y2="160"/>
	<line class="st1" x1="179.5" y1="154" x2="179.5" y2="160"/>
	<line class="st1" x1="187.5" y1="154" x2="187.5" y2="160"/>
	<line class="st1" x1="195.5" y1="154" x2="195.5" y2="160"/>
	<line class="st1" x1="203.5" y1="154" x2="203.5" y2="160"/>
	<line class="st0" x1="211" y1="154" x2="211" y2="160"/>
	<line class="st1" x1="39.5" y1="145" x2="39.5" y2="152"/>
	<line class="st1" x1="47.5" y1="145" x2="47.5" y2="152"/>
	<line class="st1" x1="55.5" y1="145" x2="55.5" y2="152"/>
	<line class="st1" x1="63.5" y1="145" x2="63.5" y2="152"/>
	<line class="st1" x1="71.5" y1="145" x2="71.5" y2="152"/>
	<line class="st1" x1="79.5" y1="145" x2="79.5" y2="152"/>
	<line class="st1" x1="87.5" y1="145" x2="87.5" y2="152"/>
	<line class="st1" x1="95.5" y1="145" x2="95.5" y2="152"/>
	<line class="st1" x1="103.5" y1="145" x2="103.5" y2="152"/>
	<line class="st1" x1="111.5" y1="145" x2="111.5" y2="152"/>
	<line class="st1" x1="119.5" y1="145" x2="119.5" y2="152"/>
	<line class="st1" x1="127.5" y1="145" x2="127.5" y2="152"/>
	<line class="st1" x1="135.5" y1="145" x2="135.5" y2="152"/>
	<line class="st1" x1="143.5" y1="145" x2="143.5" y2="152"/>
	<line class="st1" x1="151.5" y1="145" x2="151.5" y2="152"/>
	<line class="st1" x1="159.5" y1="145" x2="159.5" y2="152"/>
	<line class="st1" x1="167.5" y1="145" x2="167.5" y2="152"/>
	<line class="st1" x1="175.5" y1="145" x2="175.5" y2="152"/>
	<line class="st1" x1="183.5" y1="145" x2="183.5" y2="152"/>
	<line class="st1" x1="191.5" y1="145" x2="191.5" y2="152"/>
	<line class="st1" x1="199.5" y1="145" x2="199.5" y2="152"/>
	<line class="st1" x1="207.5" y1="145" x2="207.5" y2="152"/>
	<line class="st1" x1="43.5" y1="145" x2="43.5" y2="152"/>
	<line class="st1" x1="51.5" y1="145" x2="51.5" y2="152"/>
	<line class="st1" x1="59.5" y1="145" x2="59.5" y2="152"/>
	<line class="st1" x1="67.5" y1="145" x2="67.5" y2="152"/>
	<line class="st1" x1="75.5" y1="145" x2="75.5" y2="152"/>
	<line class="st1" x1="83.5" y1="145" x2="83.5" y2="152"/>
	<line class="st1" x1="91.5" y1="145" x2="91.5" y2="152"/>
	<line class="st1" x1="99.5" y1="145" x2="99.5" y2="152"/>
	<line class="st1" x1="107.5" y1="145" x2="107.5" y2="152"/>
	<line class="st1" x1="115.5" y1="145" x2="115.5" y2="152"/>
	<line class="st1" x1="123.5" y1="145" x2="123.5" y2="152"/>
	<line class="st1" x1="131.5" y1="145" x2="131.5" y2="152"/>
	<line class="st1" x1="139.5" y1="145" x2="139.5" y2="152"/>
	<line class="st1" x1="147.5" y1="145" x2="147.5" y2="152"/>
	<line class="st1" x1="155.5" y1="145" x2="155.5" y2="152"/>
	<line class="st1" x1="163.5" y1="145" x2="163.5" y2="152"/>
	<line class="st1" x1="171.5" y1="145" x2="171.5" y2="152"/>
	<line class="st1" x1="179.5" y1="145" x2="179.5" y2="152"/>
	<line class="st1" x1="187.5" y1="145" x2="187.5" y2="152"/>
	<line class="st1" x1="195.5" y1="145" x2="195.5" y2="152"/>
	<line class="st1" x1="203.5" y1="145" x2="203.5" y2="152"/>
	<line class="st1" x1="43.5" y1="135" x2="43.5" y2="142"/>
	<line class="st1" x1="91.5" y1="135" x2="91.5" y2="142"/>
	<line class="st1" x1="99.5" y1="135" x2="99.5" y2="142"/>
	<line class="st1" x1="107.5" y1="135" x2="107.5" y2="142"/>
	<line class="st1" x1="115.5" y1="135" x2="115.5" y2="142"/>
	<line class="st1" x1="123.5" y1="135" x2="123.5" y2="142"/>
	<line class="st1" x1="131.5" y1="135" x2="131.5" y2="142"/>
	<line class="st1" x1="139.5" y1="135" x2="139.5" y2="142"/>
	<line class="st1" x1="147.5" y1="135" x2="147.5" y2="142"/>
	<line class="st1" x1="155.5" y1="135" x2="155.5" y2="142"/>
	<line class="st1" x1="163.5" y1="135" x2="163.5" y2="142"/>
	<line class="st1" x1="171.5" y1="135" x2="171.5" y2="142"/>
	<line class="st1" x1="179.5" y1="135" x2="179.5" y2="142"/>
	<line class="st1" x1="187.5" y1="135" x2="187.5" y2="142"/>
	<line class="st1" x1="195.5" y1="135" x2="195.5" y2="142"/>
	<line class="st1" x1="203.5" y1="135" x2="203.5" y2="142"/>
	<line class="st1" x1="43.5" y1="124" x2="43.5" y2="132"/>
	<line class="st1" x1="51.5" y1="124" x2="51.5" y2="132"/>
	<line class="st1" x1="59.5" y1="124" x2="59.5" y2="132"/>
	<line class="st1" x1="67.5" y1="124" x2="67.5" y2="132"/>
	<line class="st1" x1="75.5" y1="124" x2="75.5" y2="132"/>
	<line class="st1" x1="83.5" y1="124" x2="83.5" y2="132"/>
	<line class="st1" x1="91.5" y1="124" x2="91.5" y2="132"/>
	<line class="st1" x1="99.5" y1="124" x2="99.5" y2="132"/>
	<line class="st1" x1="107.5" y1="124" x2="107.5" y2="132"/>
	<line class="st1" x1="115.5" y1="124" x2="115.5" y2="132"/>
	<line class="st1" x1="123.5" y1="124" x2="123.5" y2="132"/>
	<line class="st1" x1="131.5" y1="124" x2="131.5" y2="132"/>
	<line class="st1" x1="139.5" y1="124" x2="139.5" y2="132"/>
	<line class="st1" x1="147.5" y1="124" x2="147.5" y2="132"/>
	<line class="st1" x1="155.5" y1="124" x2="155.5" y2="132"/>
	<line class="st1" x1="163.5" y1="124" x2="163.5" y2="132"/>
	<line class="st1" x1="171.5" y1="124" x2="171.5" y2="132"/>
	<line class="st1" x1="179.5" y1="124" x2="179.5" y2="132"/>
	<line class="st1" x1="187.5" y1="124" x2="187.5" y2="132"/>
	<line class="st1" x1="195.5" y1="124" x2="195.5" y2="132"/>
	<line class="st1" x1="203.5" y1="124" x2="203.5" y2="132"/>
	<line class="st1" x1="39.5" y1="135" x2="39.5" y2="142"/>
	<line class="st1" x1="47.5" y1="135" x2="47.5" y2="142"/>
	<line class="st1" x1="87.5" y1="135" x2="87.5" y2="142"/>
	<line class="st1" x1="95.5" y1="135" x2="95.5" y2="142"/>
	<line class="st1" x1="103.5" y1="135" x2="103.5" y2="142"/>
	<line class="st1" x1="111.5" y1="135" x2="111.5" y2="142"/>
	<line class="st1" x1="119.5" y1="135" x2="119.5" y2="142"/>
	<line class="st1" x1="127.5" y1="135" x2="127.5" y2="142"/>
	<line class="st1" x1="135.5" y1="135" x2="135.5" y2="142"/>
	<line class="st1" x1="143.5" y1="135" x2="143.5" y2="142"/>
	<line class="st1" x1="151.5" y1="135" x2="151.5" y2="142"/>
	<line class="st1" x1="159.5" y1="135" x2="159.5" y2="142"/>
	<line class="st1" x1="167.5" y1="135" x2="167.5" y2="142"/>
	<line class="st1" x1="175.5" y1="135" x2="175.5" y2="142"/>
	<line class="st1" x1="183.5" y1="135" x2="183.5" y2="142"/>
	<line class="st1" x1="191.5" y1="135" x2="191.5" y2="142"/>
	<line class="st1" x1="199.5" y1="135" x2="199.5" y2="142"/>
	<line class="st1" x1="207.5" y1="135" x2="207.5" y2="142"/>
	<line class="st1" x1="39.5" y1="124" x2="39.5" y2="132"/>
	<line class="st1" x1="47.5" y1="124" x2="47.5" y2="132"/>
	<line class="st1" x1="55.5" y1="124" x2="55.5" y2="132"/>
	<line class="st1" x1="63.5" y1="124" x2="63.5" y2="132"/>
	<line class="st1" x1="71.5" y1="124" x2="71.5" y2="132"/>
	<line class="st1" x1="79.5" y1="124" x2="79.5" y2="132"/>
	<line class="st1" x1="87.5" y1="124" x2="87.5" y2="132"/>
	<line class="st1" x1="95.5" y1="124" x2="95.5" y2="132"/>
	<line class="st1" x1="103.5" y1="124" x2="103.5" y2="132"/>
	<line class="st1" x1="111.5" y1="124" x2="111.5" y2="132"/>
	<line class="st1" x1="119.5" y1="124" x2="119.5" y2="132"/>
	<line class="st1" x1="127.5" y1="124" x2="127.5" y2="132"/>
	<line class="st1" x1="135.5" y1="124" x2="135.5" y2="132"/>
	<line class="st1" x1="143.5" y1="124" x2="143.5" y2="132"/>
	<line class="st1" x1="151.5" y1="124" x2="151.5" y2="132"/>
	<line class="st1" x1="159.5" y1="124" x2="159.5" y2="132"/>
	<line class="st1" x1="167.5" y1="124" x2="167.5" y2="132"/>
	<line class="st1" x1="175.5" y1="124" x2="175.5" y2="132"/>
	<line class="st1" x1="183.5" y1="124" x2="183.5" y2="132"/>
	<line class="st1" x1="191.5" y1="124" x2="191.5" y2="132"/>
	<line class="st1" x1="199.5" y1="124" x2="199.5" y2="132"/>
	<line class="st1" x1="207.5" y1="124" x2="207.5" y2="132"/>
	<rect x="34.5" y="132.5" class="st1" width="178" height="2"/>
	<rect x="34.5" y="142.5" class="st1" width="178" height="2"/>
	<line class="st1" x1="223" y1="142.5" x2="213" y2="142.5"/>
	<line class="st1" x1="223" y1="139.5" x2="213" y2="139.5"/>
	<line class="st1" x1="223" y1="145.5" x2="213" y2="145.5"/>
	<line class="st1" x1="223" y1="148.5" x2="213" y2="148.5"/>
	<line class="st1" x1="223" y1="151.5" x2="213" y2="151.5"/>
	<line class="st1" x1="223" y1="154.5" x2="212" y2="154.5"/>
	<line class="st1" x1="223" y1="157.5" x2="212" y2="157.5"/>
	<line class="st1" x1="248" y1="142.5" x2="245" y2="142.5"/>
	<line class="st1" x1="248" y1="139.5" x2="245" y2="139.5"/>
	<line class="st1" x1="248" y1="145.5" x2="245" y2="145.5"/>
	<line class="st1" x1="248" y1="148.5" x2="245" y2="148.5"/>
	<line class="st1" x1="248" y1="151.5" x2="245" y2="151.5"/>
	<line class="st1" x1="248" y1="154.5" x2="245" y2="154.5"/>
	<line class="st1" x1="248" y1="157.5" x2="245" y2="157.5"/>
	<polyline class="st0" points="271,130.5 271,127 249,127 249,161 271,161 271,157.5 	"/>
	<line class="st1" x1="271" y1="136.5" x2="271" y2="133.5"/>
	<line class="st1" x1="271" y1="142.5" x2="271" y2="139.5"/>
	<line class="st1" x1="271" y1="148.5" x2="271" y2="145.5"/>
	<line class="st1" x1="271" y1="154.5" x2="271" y2="151.5"/>
	<line class="st0" x1="228" y1="143" x2="232" y2="143"/>
	<line class="st0" x1="232" y1="147" x2="237" y2="147"/>
	<line class="st0" x1="227" y1="151" x2="233" y2="151"/>
	<line class="st0" x1="236" y1="153" x2="239" y2="153"/>
	<line class="st0" x1="228" y1="156" x2="236" y2="156"/>
	<rect x="48.5" y="135.5" class="st1" width="38" height="6"/>
	<path class="st1" d="M273.5,133.5h-17v-3h17V133.5z M256.5,139.5h17v-3h-17V139.5z M256.5,145.5h17v-3h-17V145.5z M256.5,151.5h17
		v-3h-17V151.5z M256.5,157.5h17v-3h-17V157.5z"/>
</g>
</svg>
