<?xml version="1.0" encoding="utf-8"?>
<!-- Generator: Adobe Illustrator 19.0.0, SVG Export Plug-In . SVG Version: 6.00 Build 0)  -->
<svg version="1.1" id="Layer_1" xmlns="http://www.w3.org/2000/svg" xmlns:xlink="http://www.w3.org/1999/xlink" x="0px" y="0px"
	 viewBox="4 -60 308 162" enable-background="new 4 -60 308 162" xml:space="preserve">
<rect id="XMLID_1041_" x="38.7" y="99.3" fill="#4D504F" width="273.3" height="2.7"/>
<g id="XMLID_1070_">
	<rect id="XMLID_1044_" x="100" y="22" fill="#4D504F" width="56" height="2.7"/>
	<rect id="XMLID_1043_" x="60" y="34" fill="#4D504F" width="2.7" height="46.7"/>
	<rect id="XMLID_1046_" x="230.7" y="34" fill="#4D504F" width="2.7" height="46.7"/>
	<rect id="XMLID_1045_" x="62.7" y="34" fill="#4D504F" width="168" height="2.7"/>
	<rect id="XMLID_1051_" x="62.7" y="78" fill="#4D504F" width="193.3" height="2.7"/>
	<rect id="XMLID_1040_" x="100" y="24.7" fill="#4D504F" width="2.7" height="9.3"/>
	<rect id="XMLID_1047_" x="153.3" y="24.7" fill="#4D504F" width="2.7" height="10.7"/>
	<rect id="XMLID_1048_" x="124" y="24.7" fill="#4D504F" width="1.3" height="9.3"/>
	<rect id="XMLID_1050_" x="145.3" y="24.7" fill="#4D504F" width="1.3" height="9.3"/>
	<rect id="XMLID_1049_" x="82.7" y="80.7" fill="#4D504F" width="2.7" height="18.7"/>
	<rect id="XMLID_1054_" x="65.3" y="80.7" fill="#4D504F" width="2.7" height="18.7"/>
	<rect id="XMLID_1053_" x="112" y="80.7" fill="#4D504F" width="2.7" height="18.7"/>
	<rect id="XMLID_1052_" x="74.7" y="44.7" fill="#4D504F" width="1.3" height="5.3"/>
	<rect id="XMLID_1075_" x="74.7" y="51.3" fill="#4D504F" width="1.3" height="13.3"/>
	<rect id="XMLID_1076_" x="74.7" y="66" fill="#4D504F" width="1.3" height="5.3"/>
	<rect id="XMLID_1131_" x="77.3" y="44.7" fill="#4D504F" width="1.3" height="5.3"/>
	<rect id="XMLID_1130_" x="77.3" y="51.3" fill="#4D504F" width="1.3" height="13.3"/>
	<rect id="XMLID_1129_" x="77.3" y="66" fill="#4D504F" width="1.3" height="5.3"/>
	<rect id="XMLID_1069_" x="82.7" y="44.7" fill="#4D504F" width="1.3" height="5.3"/>
	<rect id="XMLID_1074_" x="82.7" y="66" fill="#4D504F" width="1.3" height="5.3"/>
	<rect id="XMLID_1072_" x="82.7" y="51.3" fill="#4D504F" width="1.3" height="13.3"/>
	<rect id="XMLID_1128_" x="85.3" y="44.7" fill="#4D504F" width="1.3" height="5.3"/>
	<rect id="XMLID_1073_" x="85.3" y="66" fill="#4D504F" width="1.3" height="5.3"/>
	<rect id="XMLID_1071_" x="85.3" y="51.3" fill="#4D504F" width="1.3" height="13.3"/>
	<rect id="XMLID_1134_" x="88" y="44.7" fill="#4D504F" width="1.3" height="5.3"/>
	<rect id="XMLID_1133_" x="88" y="66" fill="#4D504F" width="1.3" height="5.3"/>
	<rect id="XMLID_1132_" x="88" y="51.3" fill="#4D504F" width="1.3" height="13.3"/>
	<rect id="XMLID_1137_" x="90.7" y="44.7" fill="#4D504F" width="1.3" height="5.3"/>
	<rect id="XMLID_1136_" x="90.7" y="66" fill="#4D504F" width="1.3" height="5.3"/>
	<rect id="XMLID_1135_" x="90.7" y="51.3" fill="#4D504F" width="1.3" height="13.3"/>
	<rect id="XMLID_1094_" x="101.3" y="44.7" fill="#4D504F" width="1.3" height="5.3"/>
	<rect id="XMLID_1093_" x="101.3" y="51.3" fill="#4D504F" width="1.3" height="13.3"/>
	<rect id="XMLID_1092_" x="101.3" y="66" fill="#4D504F" width="1.3" height="5.3"/>
	<rect id="XMLID_1091_" x="104" y="44.7" fill="#4D504F" width="1.3" height="5.3"/>
	<rect id="XMLID_1090_" x="104" y="51.3" fill="#4D504F" width="1.3" height="13.3"/>
	<rect id="XMLID_1089_" x="104" y="66" fill="#4D504F" width="1.3" height="5.3"/>
	<rect id="XMLID_1088_" x="109.3" y="44.7" fill="#4D504F" width="1.3" height="5.3"/>
	<rect id="XMLID_1087_" x="109.3" y="66" fill="#4D504F" width="1.3" height="5.3"/>
	<rect id="XMLID_1086_" x="109.3" y="51.3" fill="#4D504F" width="1.3" height="13.3"/>
	<rect id="XMLID_1085_" x="112" y="44.7" fill="#4D504F" width="1.3" height="5.3"/>
	<rect id="XMLID_1084_" x="112" y="66" fill="#4D504F" width="1.3" height="5.3"/>
	<rect id="XMLID_1083_" x="112" y="51.3" fill="#4D504F" width="1.3" height="13.3"/>
	<rect id="XMLID_1082_" x="114.7" y="44.7" fill="#4D504F" width="1.3" height="5.3"/>
	<rect id="XMLID_1081_" x="114.7" y="66" fill="#4D504F" width="1.3" height="5.3"/>
	<rect id="XMLID_1080_" x="114.7" y="51.3" fill="#4D504F" width="1.3" height="13.3"/>
	<rect id="XMLID_1079_" x="117.3" y="44.7" fill="#4D504F" width="1.3" height="5.3"/>
	<rect id="XMLID_1078_" x="117.3" y="66" fill="#4D504F" width="1.3" height="5.3"/>
	<rect id="XMLID_1077_" x="117.3" y="51.3" fill="#4D504F" width="1.3" height="13.3"/>
	<rect id="XMLID_1112_" x="128" y="44.7" fill="#4D504F" width="1.3" height="5.3"/>
	<rect id="XMLID_1111_" x="128" y="51.3" fill="#4D504F" width="1.3" height="13.3"/>
	<rect id="XMLID_1110_" x="128" y="66" fill="#4D504F" width="1.3" height="5.3"/>
	<rect id="XMLID_1109_" x="130.7" y="44.7" fill="#4D504F" width="1.3" height="5.3"/>
	<rect id="XMLID_1108_" x="130.7" y="51.3" fill="#4D504F" width="1.3" height="13.3"/>
	<rect id="XMLID_1107_" x="130.7" y="66" fill="#4D504F" width="1.3" height="5.3"/>
	<rect id="XMLID_1106_" x="136" y="44.7" fill="#4D504F" width="1.3" height="5.3"/>
	<rect id="XMLID_1105_" x="136" y="66" fill="#4D504F" width="1.3" height="5.3"/>
	<rect id="XMLID_1104_" x="136" y="51.3" fill="#4D504F" width="1.3" height="13.3"/>
	<rect id="XMLID_1103_" x="138.7" y="44.7" fill="#4D504F" width="1.3" height="5.3"/>
	<rect id="XMLID_1102_" x="138.7" y="66" fill="#4D504F" width="1.3" height="5.3"/>
	<rect id="XMLID_1101_" x="138.7" y="51.3" fill="#4D504F" width="1.3" height="13.3"/>
	<rect id="XMLID_1100_" x="141.3" y="44.7" fill="#4D504F" width="1.3" height="5.3"/>
	<rect id="XMLID_1099_" x="141.3" y="66" fill="#4D504F" width="1.3" height="5.3"/>
	<rect id="XMLID_1098_" x="141.3" y="51.3" fill="#4D504F" width="1.3" height="13.3"/>
	<rect id="XMLID_1097_" x="144" y="44.7" fill="#4D504F" width="1.3" height="5.3"/>
	<rect id="XMLID_1096_" x="144" y="66" fill="#4D504F" width="1.3" height="5.3"/>
	<rect id="XMLID_1095_" x="144" y="51.3" fill="#4D504F" width="1.3" height="13.3"/>
	<rect id="XMLID_1146_" x="154.7" y="44.7" fill="#4D504F" width="1.3" height="5.3"/>
	<rect id="XMLID_1145_" x="154.7" y="51.3" fill="#4D504F" width="1.3" height="13.3"/>
	<rect id="XMLID_1144_" x="154.7" y="66" fill="#4D504F" width="1.3" height="5.3"/>
	<rect id="XMLID_1143_" x="157.3" y="44.7" fill="#4D504F" width="1.3" height="5.3"/>
	<rect id="XMLID_1142_" x="157.3" y="51.3" fill="#4D504F" width="1.3" height="13.3"/>
	<rect id="XMLID_1141_" x="157.3" y="66" fill="#4D504F" width="1.3" height="5.3"/>
	<rect id="XMLID_1140_" x="162.7" y="44.7" fill="#4D504F" width="1.3" height="5.3"/>
	<rect id="XMLID_1139_" x="162.7" y="66" fill="#4D504F" width="1.3" height="5.3"/>
	<rect id="XMLID_1138_" x="162.7" y="51.3" fill="#4D504F" width="1.3" height="13.3"/>
	<rect id="XMLID_1121_" x="165.3" y="44.7" fill="#4D504F" width="1.3" height="5.3"/>
	<rect id="XMLID_1120_" x="165.3" y="66" fill="#4D504F" width="1.3" height="5.3"/>
	<rect id="XMLID_1119_" x="165.3" y="51.3" fill="#4D504F" width="1.3" height="13.3"/>
	<rect id="XMLID_1118_" x="168" y="44.7" fill="#4D504F" width="1.3" height="5.3"/>
	<rect id="XMLID_1117_" x="168" y="66" fill="#4D504F" width="1.3" height="5.3"/>
	<rect id="XMLID_1116_" x="168" y="51.3" fill="#4D504F" width="1.3" height="13.3"/>
	<rect id="XMLID_1115_" x="170.7" y="44.7" fill="#4D504F" width="1.3" height="5.3"/>
	<rect id="XMLID_1114_" x="170.7" y="66" fill="#4D504F" width="1.3" height="5.3"/>
	<rect id="XMLID_1113_" x="170.7" y="51.3" fill="#4D504F" width="1.3" height="13.3"/>
	<rect id="XMLID_1164_" x="181.3" y="44.7" fill="#4D504F" width="1.3" height="5.3"/>
	<rect id="XMLID_1163_" x="181.3" y="51.3" fill="#4D504F" width="1.3" height="13.3"/>
	<rect id="XMLID_1162_" x="181.3" y="66" fill="#4D504F" width="1.3" height="5.3"/>
	<rect id="XMLID_1161_" x="184" y="44.7" fill="#4D504F" width="1.3" height="5.3"/>
	<rect id="XMLID_1160_" x="184" y="51.3" fill="#4D504F" width="1.3" height="13.3"/>
	<rect id="XMLID_1159_" x="184" y="66" fill="#4D504F" width="1.3" height="5.3"/>
	<rect id="XMLID_1158_" x="189.3" y="44.7" fill="#4D504F" width="1.3" height="5.3"/>
	<rect id="XMLID_1157_" x="189.3" y="66" fill="#4D504F" width="1.3" height="5.3"/>
	<rect id="XMLID_1156_" x="189.3" y="51.3" fill="#4D504F" width="1.3" height="13.3"/>
	<rect id="XMLID_1155_" x="192" y="44.7" fill="#4D504F" width="1.3" height="5.3"/>
	<rect id="XMLID_1154_" x="192" y="66" fill="#4D504F" width="1.3" height="5.3"/>
	<rect id="XMLID_1153_" x="192" y="51.3" fill="#4D504F" width="1.3" height="13.3"/>
	<rect id="XMLID_1152_" x="194.7" y="44.7" fill="#4D504F" width="1.3" height="5.3"/>
	<rect id="XMLID_1151_" x="194.7" y="66" fill="#4D504F" width="1.3" height="5.3"/>
	<rect id="XMLID_1150_" x="194.7" y="51.3" fill="#4D504F" width="1.3" height="13.3"/>
	<rect id="XMLID_1149_" x="197.3" y="44.7" fill="#4D504F" width="1.3" height="5.3"/>
	<rect id="XMLID_1148_" x="197.3" y="66" fill="#4D504F" width="1.3" height="5.3"/>
	<rect id="XMLID_1147_" x="197.3" y="51.3" fill="#4D504F" width="1.3" height="13.3"/>
	<rect id="XMLID_1182_" x="208" y="44.7" fill="#4D504F" width="1.3" height="5.3"/>
	<rect id="XMLID_1181_" x="208" y="51.3" fill="#4D504F" width="1.3" height="13.3"/>
	<rect id="XMLID_1180_" x="208" y="66" fill="#4D504F" width="1.3" height="5.3"/>
	<rect id="XMLID_1179_" x="210.7" y="44.7" fill="#4D504F" width="1.3" height="5.3"/>
	<rect id="XMLID_1178_" x="210.7" y="51.3" fill="#4D504F" width="1.3" height="13.3"/>
	<rect id="XMLID_1177_" x="210.7" y="66" fill="#4D504F" width="1.3" height="5.3"/>
	<rect id="XMLID_1176_" x="216" y="44.7" fill="#4D504F" width="1.3" height="5.3"/>
	<rect id="XMLID_1175_" x="216" y="66" fill="#4D504F" width="1.3" height="5.3"/>
	<rect id="XMLID_1174_" x="216" y="51.3" fill="#4D504F" width="1.3" height="13.3"/>
	<rect id="XMLID_1173_" x="218.7" y="44.7" fill="#4D504F" width="1.3" height="5.3"/>
	<rect id="XMLID_1172_" x="218.7" y="66" fill="#4D504F" width="1.3" height="5.3"/>
	<rect id="XMLID_1171_" x="218.7" y="51.3" fill="#4D504F" width="1.3" height="13.3"/>
	<rect id="XMLID_1170_" x="221.3" y="44.7" fill="#4D504F" width="1.3" height="5.3"/>
	<rect id="XMLID_1169_" x="221.3" y="66" fill="#4D504F" width="1.3" height="5.3"/>
	<rect id="XMLID_1168_" x="221.3" y="51.3" fill="#4D504F" width="1.3" height="13.3"/>
	<rect id="XMLID_1167_" x="224" y="44.7" fill="#4D504F" width="1.3" height="5.3"/>
	<rect id="XMLID_1166_" x="224" y="66" fill="#4D504F" width="1.3" height="5.3"/>
	<rect id="XMLID_1165_" x="224" y="51.3" fill="#4D504F" width="1.3" height="13.3"/>
	<rect id="XMLID_1068_" x="68" y="91.3" fill="#4D504F" width="14.7" height="1.3"/>
	<rect id="XMLID_1123_" x="68" y="94" fill="#4D504F" width="14.7" height="1.3"/>
	<rect id="XMLID_1124_" x="68" y="96.7" fill="#4D504F" width="14.7" height="1.3"/>
	<rect id="XMLID_1127_" x="114.7" y="91.3" fill="#4D504F" width="125.3" height="1.3"/>
	<rect id="XMLID_1126_" x="114.7" y="94" fill="#4D504F" width="125.3" height="1.3"/>
	<rect id="XMLID_1125_" x="114.7" y="96.7" fill="#4D504F" width="125.3" height="1.3"/>
	<rect id="XMLID_1122_" x="253.3" y="80.7" fill="#4D504F" width="2.7" height="18.7"/>
	<rect id="XMLID_1183_" x="240" y="80.7" fill="#4D504F" width="1.3" height="18.7"/>
</g>
</svg>
